<svg id="Layer_1" data-name="Layer 1" xmlns="http://www.w3.org/2000/svg" viewBox="0 0 296 78"><defs><style>.cls-1{fill:#b18437;}</style></defs><title>caption-bg-1</title><path class="cls-1" d="M0.07,64.69c0-12.78,1.62-12.78,1.62-25.56S0,26.35,0,13.57C0,7,5.67,2.27,12.27,2.27,24.6,2.27,24.6.43,36.92,0.43S49.25,0.17,61.58.17,73.9,1.53,86.23,1.53,98.55,0.93,110.88.93s12.33,0.26,24.65.26,12.33,1.39,24.66,1.39,12.33-1.12,24.66-1.12,12.33,0.83,24.66.83S221.83,0.4,234.16.4s12.33,2.39,24.66,2.39S271.15,0.35,283.48.35C290.08,0.35,295,7,295,13.57c0,12.78-.87,12.78-0.87,25.56S296,51.91,296,64.69c0,6.6-5.88,10.78-12.48,10.78-12.33,0-12.33,1.41-24.65,1.41S246.5,77,234.17,77s-12.32-1.41-24.65-1.41-12.33.07-24.65,0.07S172.54,76,160.22,76s-12.33-.18-24.66-0.18-12.33.68-24.66,0.68-12.33,1.29-24.66,1.29S73.92,77,61.59,77s-12.33.83-24.66,0.83S24.6,75.34,12.27,75.34C5.67,75.34.07,71.29,0.07,64.69Z"/></svg>