<svg id="Layer_1" data-name="Layer 1" xmlns="http://www.w3.org/2000/svg" viewBox="0 0 1024 128"><defs><style>.cls-1{fill:#82a94a;}</style></defs><title>terrain-texture4-top</title><path class="cls-1" d="M1024,89.64V128H0Q0,86.44,0,44.88H7.71L33.21,33c7.58-1.38,15-3.34,22.51-3.95,8.47-.69,17-0.16,25.56-0.16,3.73,0,7.5-.35,11.18.06,12.25,1.39,23.09-2,33.14-8.83,8-5.36,16-10.53,26.22-17.2,4.32,0.85,11.22,2.81,18.24,3.43C178,7,186,6.51,193.22,6.51c12.47-10.19,26.37-5,37.39-6.4l28.81,19.55c4.57-1.33,8.44-3.54,12.17-3.31,6.06,0.38,10.6-2.94,15.85-4.46,2.87-.83,5.77-1.57,8.69-2.17,14.55-3,25.43,9,39.17,9.74,3.24,0.18,6.66,2.06,9.48,3.93,10.62,7,22.23,9.33,34.78,8.77,8.47-.38,17.92-2.19,25.2.82,6.5,2.69,13-.24,18,2.62,6.06,3.44,12,2.68,18,2.82,9.05,0.21,18.12-.14,27.17.12,7.42,0.21,14.39-.42,19.89-6.36h28.64l6.9-6.57h21.13l18.26-9.53c11.52,0.22,23.64-1.66,34.24,6.27C608.49,8.62,625.78,7.78,641,3.52l77.19,31.76c4.4,0,10.91.77,17.16-.19a41.89,41.89,0,0,1,24,3.93c8,3.79,16.35,4.08,22.63,1.86,5.81-2.06,11.06-1.95,16.54-2.29,7.42-.46,14.89-0.12,21.16-0.12l19.2,9.88,6-4.18c1.55,1.27,3.26,3.77,4.57,3.58,14-2,25,6.7,37.58,9.8,17.62,4.34,34.58,12.22,53.56,9.92,3.63-.44,7.93,1.32,11.37,3.12a122.87,122.87,0,0,0,34.84,12C999.19,84.88,1011.58,87.4,1024,89.64Z"/></svg>