<svg id="Layer_1" data-name="Layer 1" xmlns="http://www.w3.org/2000/svg" viewBox="0 0 1024 115"><defs><style>.cls-1{fill:#eaeaea;}</style></defs><title>terrain-texture8-top</title><path class="cls-1" d="M1024,115H0V71c2.35-.75,4.71-1.5,7.06-2.26,7.51-2.44,14.88-6.18,22.56-7,9.9-1.09,18.11-5.19,27.48-9.91h12.6a138.88,138.88,0,0,1,46.51-12.66c19.33-1.79,38.33,5.46,57.79,3.06a9.81,9.81,0,0,1,3.19,0c9.77,2.1,20.35,2,29.1,6.79a62.18,62.18,0,0,0,16.52,6.6c4.22,1,8.1,3.52,12.08,5.48,9.86,4.86,19.7,9.32,31.05,10,23.15,1.39,45.81-4.48,69-3.86,9.4,0.25,20-1.57,29-6.62,15.56-8.79,31.36-17.05,49.15-20.19,13.88-2.45,26.94-9.06,41.53-7.9,4.05,0.32,7.92-1.88,11.56-2.6,10-2,17.9-8.85,27.88-10.13,15.43-2,29.44-10.55,45.45-9.88,5.22-5.72,12.83-.34,17.76-3.27,6.1-3.62,12-2.57,18.06-2.79a208.48,208.48,0,0,1,22.36.06c7.06,0.51,14,2.77,21.06,2.93,18.63,0.43,37.29-.14,55.93.23S712.13,6,730.94,9.78c13,2.65,26.68.33,40.24,3.11s28.09-1.37,41.72,3.7c17.81-2.59,33.87,9,51.68,6.4,5.82,5.07,12.9,2.48,19.44,3.25,7,0.83,14,2.42,21.06,3,5.81,0.51,13.1-2,17.21.65,5,3.28,11,.3,14.43,3.78,4.6,4.63,10.57.83,15.93,4.69,5.56,4,14.5,3.3,20.9,4.47L1024,66.72V115Z"/></svg>