<svg id="Layer_1" data-name="Layer 1" xmlns="http://www.w3.org/2000/svg" viewBox="0 0 1024 216"><defs><style>.cls-1{fill:#e0b659;}</style></defs><title>terrain-texture7-top</title><path class="cls-1" d="M0,215.71V31l14-4.63,6.59,5.93c12.17,2.61,23.92-2.69,35.9-6.39,1.86-.57,3.57-2.74,5.25-2.63,13.44,0.81,24.5-4.89,35.2-12,4.25-2.82,10.73,1.38,14.29-4.2A261.51,261.51,0,0,0,142.35.9c7.19-1.79,14.35.32,19.73,6.19h12.84l6.5,6.53c6.28-2.87,13.07,4.12,21-.2l21.23,16.15h22.8l1.16,5.66h10.06l14.92,16.09c10.94,1.31,20.7,2.09,27.57,10.34h15.4l29.21,16.1c5.58,0.13,14.39-1.27,22,5.2,2.28,1.93,6.93,1.07,10.08,1.44L383.27,78h13.32l7.84,9.35c13.42,0.1,25.31-1.13,36.27,5.47,2.78,1.67,7.17.55,10.79,1,5,0.6,9.87,1.45,16.39,2.44l4.24-6c14.7,1.82,27.3-2.46,40.1-6,14-3.91,28-7.75,42.39-10.29a155.22,155.22,0,0,1,21.72-2.67c6.76-9.31,16.83-10.47,26.53-9.56L625.6,52c10.58,5.46,20.91,9.2,33.36,4.34,5.94-2.32,14.23-2.55,20-.17a27.73,27.73,0,0,0,13.49,2.07c14.73-1.3,28.11,4.12,41.86,7.59,10.11,2.55,20,5.79,30.1,8.58a8.06,8.06,0,0,0,4.77,0c17.42-6.86,35.56-1,51.33-3.3l56.12,24.09,1.28-2.13,7.11,8.83c15.17,3.72,25.16,11.8,36.68,16.13,11.81,4.44,20.92,13.55,35.85,20.33,6.4,6.79,17.6,12.65,30.6,16.82,10.19,3.27,19,10.76,28.47,16.33,2.13,1.26,4.36,2.36,7.25,3.91,0,9.56-.12,30.21.14,40.27H0Z"/></svg>