<svg id="Layer_1" data-name="Layer 1" xmlns="http://www.w3.org/2000/svg" viewBox="0 0 1024 120"><defs><style>.cls-1{fill:#82a94a;}</style></defs><title>terrain-texture6-top</title><path class="cls-1" d="M0,120H1024c0-21.62,0-30.06,0-51.68-2.35-.76-4.71-1.52-7.06-2.29-7.51-2.48-14.88-6.26-22.56-7.11-9.9-1.1-18.11-5.26-27.48-10h-12.6A137.44,137.44,0,0,0,907.79,36c-19.33-1.81-38.33,5.53-57.79,3.11a9.68,9.68,0,0,0-3.19,0c-9.77,2.13-20.35,2-29.1,6.88a61.7,61.7,0,0,1-16.52,6.69c-4.22,1-8.1,3.57-12.08,5.55-9.86,4.92-19.7,9.45-31.05,10.14-23.15,1.41-45.81-4.54-69-3.91-9.4.25-20-1.59-29-6.71-15.56-8.9-31.36-17.28-49.15-20.46-13.88-2.48-26.94-9.18-41.53-8-4.05.33-7.92-1.91-11.56-2.63-10-2-17.9-9-27.88-10.27-15.43-2-29.44-10.7-45.45-10-5.22-5.79-12.83-.35-17.76-3.31-6.1-3.66-12-2.61-18.06-2.83a205.72,205.72,0,0,0-22.36.06c-7.06.52-14,2.81-21.06,3-18.63.44-37.29-.14-55.93,0.23S311.87,2.4,293.06,6.28c-13,2.68-26.68.34-40.24,3.16S224.73,8,211.09,13.19c-17.81-2.63-33.87,9.11-51.68,6.49-5.82,5.14-12.9,2.51-19.44,3.3-7,.85-14,2.45-21.06,3.08-5.81.52-13.1-2.06-17.21,0.66-5,3.32-11,.31-14.43,3.83-4.6,4.69-10.57.84-15.93,4.75-5.56,4.05-14.5,3.35-20.9,4.53L0,64v56Z"/></svg>