<svg id="Layer_1" data-name="Layer 1" xmlns="http://www.w3.org/2000/svg" viewBox="0 0 1024 675"><defs><style>.cls-1{fill:#e0b659;}.cls-2{fill:#f0e9d3;fill-rule:evenodd;}</style></defs><title>terrain-texture7-bottom</title><path class="cls-1" d="M0.12,568.87c0-3.71,1.54-7.42,2.44-11.45l-1.74-1.22,16.74-8.81,13.93,4.2c6.17,7.31,11.29,8.47,21.35,5.85,6.61,0.59,11.6,2,15.33,1.2,14.86-3.23,29.32-7.16,43.93-10.83l2.56-.66,8.75,5.91c10.73-1.46,21.37.64,32.55-1.82,10.24-2.25,22.37-1.18,35.37-1.63l6.55,4.87H217c1.28-4.18,5.66-6.17,10.68-8.14,9.52,6.27,21.63,9.35,33.68,10.17,18.59,1.26,37.47.1,56.23,2.1,10.81,1.15,22.19.21,31.49,0.21l15-6.33,24.66,13.87,21.93,2.73c6.18,2.93,12.15,5.45,17.54,8.39s10.46,6.42,15.82,9.75l31.12-6.58c7.26,6,18,7.81,30.39,8.25,8.23,0.29,16.29,2.55,24.39,4,4.29,0.77,8.49,1.72,14.8,3L560.61,607l7.78-4.38c7.26,0.29,13.9-.68,20.22,1.93,8.67,3.58,18,6.58,27,9.78a13.48,13.48,0,0,0,3,.27l4.86-2.2c9.65,3.31,19.25,5.48,29,2l24.19,10.14c5.1-2.29,7.53-6.94,17.08-5.72l7.55,5.84h22.5l6.93,5.38c7.42,1.46,13.35-.27,19.77,2.07,4.75,1.73,12.42.34,17.39,0.34l14.13,5.73c9.38-1.43,16.66-3.52,23.79-3.34,6.53,0.16,12.89,2.78,19.84,4.44v6.94l23.36,6.49h21.31l10.8,7.49,37.54,3,10.77,7.22c11.38,0.87,21.52-3,32.65-2,12.86,1.14,24.38-1.87,36.88-6.2l19.37,12.06,5.62-1.81V518.62H0"/><path class="cls-2" d="M841.73,72c-0.2,3.85,3.35,3.95,6.85,4.11C847.32,73.76,846,71.4,841.73,72Z"/><path class="cls-2" d="M925.26,180.22c4.37-.19,3-6.11,5.47-8.22C928.34,168.82,924.33,175.56,925.26,180.22Z"/><path class="cls-2" d="M674.68,207.61c-2.16,3.13,1,5.11-5.47,2.74,0.15,3.5,4.58,2.72,8.21,2.74-0.84-1.22-1.65-2.45,0-2.74C677.08,208.86,674.7,209.41,674.68,207.61Z"/><path class="cls-2" d="M793.81,10.43c0.21,1.61-.24,3.89,1.37,4.11-0.09-4.66-.42-9.56,2.74-11,0.55,9.69-3.35,16.73,2.74,21.91,5.54-1.28,2-7.59,4.11-9.59,2.22,3,3.77-6.18,8.22-5.48,0.2,4.21-4.82,6.16-1.37,9.59-6.85,1.23-2.8,6-5.48,12.32H813c-0.2-3.4-.26-6.65,2.74-6.85,0.56,2.33,1.77-.29,4.11,0-1.58,8-8.29,18.16-8.21,23.28,1.83-2.8,5.17-11.17,8.21-8.21,0.13,8.61.8-3.13,5.48,5.48,2.58-4.61-6.2-4.49-1.37-6.85,3.2,4.85,1.66-6.42,4.11-6.85-0.38,3.12.33,5.15,2.74,5.48,0.81-2.83-1.69-9,1.37-9.58-1.48,7.79,5.28,12.7,0,19.17,3.22-1.78,3.06.7,5.48-2.74,0.14,4.25-4.31,3.91-2.74,9.59,6.83-.36,10.88.29,15.06-6.85,1.48,6.4-5.46,8.91-1.37,13.69-5.07-1-3.42,4.8-5.48,6.85,0.83-.79,6.49-3.21,6.84,0-8.9-.12-9.84,4.9-12.32,8.21,2.79-1.17,8.51,1.19,4.11,2.74-2.11-3.76-8,.06-8.21,2.74,8.68-.1,6.06.57,1.37,2.74,4.7,0.6,7.67-.54,11-1.37,0.34,6.72-13.26-.47-15.06,4.11,4.74-.18,3.1,6,6.84,6.85,9.67-3.68,20.56-6.71,28.76-5.48A87.73,87.73,0,0,0,851.31,94c6.92,0.55,9.87,3.78,9.59,8.22a35.6,35.6,0,0,0,13.69-6.85c-0.11,2.38.3,4.26,1.37,5.48-4.2-.2-18,0.64-17.8,12.32,1.75,0.07,1.9,1.76,4.11,1.37,3.55-3.34,8.84-12.1,12.32-11-1.67,2.9-5.15,4-5.48,8.21,1.68-.44,8.46.22,4.11,1.37-2,.75-7.08-1.6-6.84,1.37,2.43,0.66-.6,1.46-1.37,2.74,3.4,1.78,5.68-4,6.84,0-3.28,2.66-9.67,2.2-11,6.85,8.68,1.49,6.23-6.77,11,1.37,1.23-2.43,5.56-1.74,4.11-6.85,5.94,5.89,9.24-4.61,12.32-9.58-0.18,3.37-.21,6.6,1.37,8.21-4.87.61-6,5-9.58,6.85,4.08-.31,4.66,5.05,8.21,1.37-1.85,4.18-1.44,11.43,0,12.32,2.05-3.63,3.73-8.64,2.74-12.32,1.85,7.62,3.89-5.36,6.85,0-4.42,2.35,3.43,3.72,5.47,4.11-2.52,7.47-.39,3-1.37,11-6.77,1.22-4.69,3.27-9.59,6.85,3.82-1.2,6.76-3.28,11-4.11,0.62,4.68,4.39-.31,4.11,4.11,2.81-1.57,6.53,2.15,2.74,2.74,0.23-3-4.86-.62-6.85-1.37,3.49,4.22-10.78,2.58-2.74,8.21-4.21,1-2.63-3.76-6.84-2.74-0.42,3.16,4,1.52,4.11,4.11-4.75,1.1-5.27-2-9.59-1.37,0.1,3.52,6.38,2,2.74,5.48-6.77.84-.7-4.46-8.21-4.11a6.45,6.45,0,0,1-1.37,4.11c8.44-1.19-.89,3.34,2.74,4.11,13.21-3.66,27.78-7,34.23-20.54,0.74,4.85-2.21,6-4.11,8.21,4.6,0.41,8.25-7.16,11-4.11-7,5.82-16.8,8.77-21.91,16.43-6.89-1.75-8.07.07-16.43,2.74,8.15,3.72,16.71,7,20.54,15.06-6.81-3.23-10.45-9.63-17.8-12.32-0.66,5.23.39,8.74,2.74,11a9.69,9.69,0,0,0-4.11,2.74c3.78-.23,4.7,2.1,2.74,4.11-3.79-2.44-2.46-1.75-8.21-4.11,0.43,1.85,1.95,2.62,1.37,5.48,4.3-.66,5.35,2,8.21,2.74,4.76-8.32,14.3-5.75,20.54,2.74,3.55-3.72-2.93-5.11-4.11-8.21,4.22-1,2.63,3.76,6.85,2.74,4.27-5-7.92-10.93-1.37-13.69,0.69,3.87,3.9,5.23,6.84,6.85,3.92-2.13-2.85-6.39,1.37-8.21,0.18,7.32,5.55,2.32,6.85,6.85-3.86,4.35-8.36,8.07-11,13.69,2,0.23,5.05-.49,5.48,1.37-3.48.71-12.92,2.5-9.59,5.48,6.88-3.39,13.65-3.59,12.32-12.32,5.53,1.88,4.85-2.46,6.85-4.11-0.58,6.79,4.1.77,5.48,4.11a73.41,73.41,0,0,0-11,8.21c6.55,3.51,17.46-5.92,12.32-15.06,2.59,0.31,3-1.54,5.48-1.37-2.49,5.57-3.26,8.62,2.74,11-6,2.19-10.25,6.18-15.06,9.58a6.46,6.46,0,0,1,4.11,1.37c5.49,1,9.55-6.42,6.84,1.37,3.17-.44,5.26.22,6.85,1.37-2-2-1.05-4.34,2.74-4.11,0.28,11.23-17.82,4.09-21.91,11,4.35-3.37,7.21,3.05,13.69,0,1.88,3.12-3.53,5.15,0,5.48,6.95,1.08,9.79,1,12.32,4.11-7.3-1.12-8.89,2.63-15.06-2.74-0.41,3.6,5.31,1.08,4.11,5.48-2.44.82-5.69-4-6.85,0,3.69,1.33,5.31,4.73,9.59,5.48,0.41,2.69-1.85,2.72-2.74,4.11,2.85,0.45,11.19,2.35,6.84,5.48-6.85-.29-11.67-11.48-16.43-5.48,4.29,4.41,17.81,6.79,13.69,15.06-1.89-2.34-6.32-10-8.21-4.11,1.8,1.72,8.52,12,1.37,13.69,2.39-4.59-2.23-5.71-4.11-9.59-2.14,1.86-8.22,2.76-4.11,6.85-2.69.41-2.72-1.85-4.11-2.74-2.06,2.05-5.77,2.45-6.84,5.48,1.06,0.3,1.59,1.15,1.37,2.74,2.82,0.83,9.51-2.21,8.21,2.74-2.43.82-5.68-4-6.84,0,0.42,4.6,4.58,5.46,8.21,6.85,2.5-5.6,3.54-9.42,0-13.69,3.71,2.23,9.29,2.58,11,6.85-3.4,1.78-5.68-4-6.85,0,3.53,1.33,4.69,3.66,0,5.48,3,3,5.59-1.35,11,0-1.69,4.43,4.43,1,2.74,5.48-2.44.82-5.68-4-6.84,0,3.28,0.83,6.25,2,11,1.37,0.39,7.21-10.6-1-11,2.74,7.28,2.77,5.06,3,0,4.11,1.81,0,1.25,2.4,2.74,2.74,2-2.17,5.6-1,6.85,1.37-7.44,3.77-15.68-2.23-21.91-4.11,3.07,4.61,8.31,10.72,13.69,5.48-0.55,10.27-9.12,1.28-13.69,0,0.2,6.11-3.51-1.22-6.84,0,4.42,9.1,15.53,3.36,24.64,8.21-0.83.08-1.62,0.21-1.37,1.37,0.76,0,1.55,1.11,0,1.37-0.88-3.35-6.4-.21-6.85,1.37,6.62,4,11.7-4.43,16.43-1.37-3.5.15-4.8,2.51-6.85,4.11,4.41-.3,5.8,2.42,11,1.37-1.47,5.71-7.65.51-2.74,6.84-5-.12-7.76-9.51-13.69-4.11,0.24,2.64,4.9,7.43,8.22,11-7.85-.36-8.07-8.36-15.06-9.58,2.13,5.78-7.6-.3-5.48,5.47,4.07-2.73,9.46,2.69,12.32,5.48-5.12,1.82-7.84-5.7-9.58-2.74,2.58,6.11,18.31,6.31,17.8,11-3.36-.23-13.65-6.7-17.8-5.47,1.91,2.09,5.06,5.91,8.21,2.74-2.69,6.34,1.29,1.9,2.74,4.11-4.3,6.85-6.64-5.3-13.69-4.11-0.87-6.89-5.62-9.89-11-12.32-3.18,2,2.67,4.34-2.74,4.11,0.83-5.39-2-7.11-4.11-9.59-0.77,7,9,20.26,17.8,17.8,3.44,5.46,3.41,18.35,8.21,13.69,0,2,5.09,5.6,1.37,6.84-0.9-1.84-2.93-2.55-5.48-2.74,0,1.38,1.11,1.63,1.37,2.74a6.44,6.44,0,0,1-4.11-1.37c0,1.37,1.11,1.63,1.37,2.74-2.29,0-10-4.45-9.59,1.37,8.39-2.15,2.1.49,6.84,4.11,2-.46,4.55-7.1,5.48-4.11,0.39,2.41-6.45,4.24-2.74,5.48,6.91,2.5,11,2.42,15.06,5.47-3,3.11-13.82-2.88-16.43,0,0.78,3.32,8.86-.64,8.21,4.11-3.4,1.78-6.65-3.05-6.84,0,4.71,2.45,1.5,4.89,5.47,6.85,2-1.19,4.34-2,4.11-5.48-0.76,0-1.55-1.11,0-1.37,0.44,8.32,6.92,2.14,11,6.85-3.72.85-10.87-1.74-12.32,1.37,4.17-.07,7,1.24,8.21,4.11-4.89-1.17-9.06-1.59-15.06,1.37,6.23-1.37,10.25,3.58,12.32-1.37,3.75,5.66,10.55,2.9,13.69,6.84-2,.75-7.07-1.6-6.84,1.37,1.06,0.31,2.7,0,2.74,1.37-6.33.35-10.92-8.19-16.43-4.11,6,2.66,11.28,6.06,19.17,6.85,1.2,2.82-3.55,6.15-4.11,2.74,1.06-.3,2.7,0,2.74-1.37-8.33,2.09-15.1-1.56-13.69,5.47-2.58-3.64-.26-4.62-4.11-5.47-0.11,5.63,9.23,9,6.84,12.32-0.92-3.46-4.55,4.95-5.47-1.37,6-.89-8-12.9-11-5.48,6.23,0.62,7.6,6.1,11,9.59C931.2,398.77,925,389,902,382.87c4.56,16,21,20.08,34.23,27.39-6.63.25-11-1.81-16.43-2.74,0,1.38-1.11,1.63-1.37,2.74,0.9,4.12,7.89,2.15,8.21,6.84-8.86-.73-13.17-6-19.17-9.59-9.72,4.64,6,4.73,12.32,11-5.37-.11-8.54-2.41-12.32-4.11,5.07,7.91-4.72,1.58-4.11,8.21,10.15,2.82,19-1.6,24.65,5.48,6.94-2.65,13.59-5.58,19.17-9.59,0.3,3,16.62-3.92,9.59,0-4.77,3.91-14.9,2.45-17.8,8.21,1.49,0.33,3.28,2.26,1.37,2.74a3.74,3.74,0,0,0-4.11-2.74c1.74,3.74,5.5,5.46,8.21,8.21-5.8.27-9.34-8.85-15.06-4.11,4.64,0.92,7.39,2.75,6.84,5.48,7,0.71,14.73.78,19.17,4.11-4.66,1.79-9.56-3-11,0,2.11,2.53,15,1.29,11,5.48-1.24-1.2-7.73-3.92-8.21-1.37,5.34,7.44,14.07,11.49,24.64,13.69-21.86,2.59-31.76-24.43-50.66-24.65-0.16,1.4,5.91,2.77,1.37,4.11-2.78-2.24-3.79-6.25-8.21-6.85,0,1.38-1.11,1.63-1.37,2.74,6.38-1.2-.92,4.52,2.74,4.11,1.75-.08,1.9-1.76,4.11-1.37-6.33,7.8,12,9.75,9.59,5.48-1.11,6.59,7.45,3.5,8.21,8.21-1.91,2.66-10.15-4.56-12.32-1.37,18.39,9.44,29,11.26,49.29,16.43-10.21,4.66-21.38-7.55-28.76-1.37,1.25-6.27-6.13-3.91-8.21-6.85,5.69,8.92,12,15.71,23.28,24.65-14.71-3.54-18.19-18.32-28.76-26,1.1,11.68,8,17.56,15.06,23.27-11.08.87-17.2-14.62-26-20.54,2.81-6.55-4.38-11-9.58-13.69,0,2,5.77,4.34,0,4.11-2.33-2.69-4.2-5.84-8.22-6.84,0.13,3.52,5.35,2,5.48,5.47-2.59.31-3-1.54-5.48-1.37,0.67,1.89,7.55,8.12,4.11,5.47-0.84-.4-5.27-3.41-5.48,0,0,6.2,9.2,3.25,1.37,6.85,0.26,5.05,4.47,2.66,5.48,4.11-4.11,0,5.77,3.81,0,5.48-0.38-2.81-3.66-2.73-5.48-4.11-0.65,5.21.58,8.55,4.11,9.59,0.21-1.61-.24-3.89,1.37-4.11-0.18,4.74,6,3.1,6.85,6.84-7.63-2.86-1.8,2.81,0,5.48-4.3.69-5.6-3.23-6.85,1.37,2.54,3.4,7.93,3.94,6.85,11-4.11-.08-4.91-10.5-8.21-6.84,1.23,3,8.71,7.6,2.74,9.58-1.25-7.49-.47,3-2.74,2.74-3.66-1.36,1.81-11.86-4.11-11,0.4,0.84,3.41,5.27,0,5.48-0.88-4.14-2.14-7.9-6.84-8.21,0.23,3.89-4.63,2.67-2.74,8.21,1.63-1.53,6.83,3.5,8.21,9.59-5.77-.62-6.3-6.48-11-8.21,1.42,3.65,7.15,12.73,1.37,15.06-2-7.88-8-14.38-12.32-12.32a3.74,3.74,0,0,0,2.74-4.11c-2-.75-7.08,1.6-6.84-1.37,5.1-1.9-4-.2-2.74-2.74,5,1.33,2.92-7.65,0-6.85a6.93,6.93,0,0,0-4.11,4.11c3.38-2.64,5.05,1.16,1.37,2.74,1.69,1.62,6.77,6.78,2.74,9.59-1.38-2.18-1.29-5.51-4.11-2.74-0.75-2,1.6-7.07-1.37-6.84-2.17,4.84,2.42,8.52-2.74,11,0-6.18,3.56-17.62,0-26-2.6,6.55-4.69,20.84-6.85,23.28-0.75-2,1.6-7.08-1.37-6.84-8.3,7.26-14.11,5.49-20.54,1.37-5.41-28-24.18-54.26-46.55-69.83a92.38,92.38,0,0,1-1.37,24.64c2.73-.91,5.85-4.72,6.84,0-0.84,1.9-5.27.21-5.47,2.74,2.24,3.23,9.41,1.54,12.32,4.11-3.86,4.28-12.3-3.42-13.69-1.37-0.5,6.89,7.75,5,8.21,11-7.66,2.18-5.08-5.87-9.59-6.85,3,7.8-2.83,15.54-1.37,26,2,0.24,5.05-.49,5.47,1.37-2.55.19-4.57,0.9-5.47,2.74,1.91,25.89-2.73,59.39-4.11,89-0.76,16.33-2.37,44.28,8.21,52,6,4.38,15.51,3.38,23.28,4.11,26.81,2.52.63,3.78,24.11,12.32v5.48H684c-0.58-4.68,4.1-4.11,5.48-6.84,23.35-3.58,33.46.92,49.53-5.48,23.73-9.45,19.2-50.6,20.54-79.42,1.26-27.12,1.42-51.49,4.11-75.31-2.43-.31-6.86,1.38-5.48-2.74,3.3-.56,3,2.5,6.84,1.37-0.85-3.72,1.74-10.87-1.37-12.32-1.15,1.59-1.81,3.67-1.37,6.84-5.25.25-.49-1.12-1.37-4.11-2.59,1.42-7.88,7.14-9.59,1.37,2-2.54,7.08-2.05,6.85-6.85-5.81-2.14-14.82-5.58-16.43,2.74,3.22,3.33,3.07-1.53,5.48-2.74,0.54,2.36-2,3.51,0,4.11,2.42-.88,6.8-6.75,9.59-2.74-12.3,5-21.77,12.92-31.49,20.54,2,1.69,2.59,4.71,2.74,8.21-6.42,2-12.42,6.38-19.17,6.85-0.24-2,.49-5.06-1.37-5.48-11.18,3.23-31.35-5.29-41.08-12.32,2.15-.13,4.75.18,4.11-2.74-1.41-4.06-9.2-1.75-9.59-6.84,8.5-2,10.16,3.73,17.8-1.37-5.37,1.75-4.59-3.75-2.74-5.47-7.16-1.11-8.91-3.22-16.43-1.37,5.9-9.39,22,5.23,28.75-1.37-2.75-3.75,5.58-5.57,6.85-9.59,3.87,4.49,8.7,1.27,12.32-1.37-16.77,2.22-38.94-8.63-52,1.37,3.59-5.85-1.84-3.7-2.74-8.21,13.11,2.18,20.87-1.41,28.76-9.59-12.37-2.85-23.07-6.57-34.23-4.11,1.14-4.4,1.17-2.84-1.37-5.48,5,1,10.41,2.37,15.06,0-0.61,3.48,7.16,5.45,8.22,2.74-2.51-3.7-4.64-.24-6.85-2.74,1.53-.29,2.13-1.52,2.74-2.74-7-4-16.31-5.59-20.54-12.32,6.33,1,10.61,4,16.43,5.47-1.76-.22-1.76-8.35,0-4.11,0.77,3.42,8.57,6.85,11,4.11a27,27,0,0,1-9.59-4.11c8,0.19,13.63,2.8,20.54,4.11-0.2-1.62-2.44-3.1,0-4.11,5.19,7.89,20.66-2.37,26,0-2.11-3.37-1.65-9.3-6.85-9.58,3.38,2.11-4.14,5-6.84,2.74,12-11.16,13-16.94,19.17-28.76-7.93-4-14,1.39-17.81,8.22,0.24-5.42-2.1.44-4.11-2.74,3,4-.83,10.32-2.74,13.69-3.54-2.48,4.69-9,1.37-11-6.38,5.11-14.59,8.38-21.91,5.47a6.47,6.47,0,0,1-1.37,4.11c1.72-.3,2.8-2.13,2.74,1.37a6.44,6.44,0,0,0-4.11,1.37c-1.52-7.46,3-8.88,4.11-13.69-4.49,3.41-5.39-.2-12.32,4.11,2,3.17,4.34-2.67,4.11,2.74-1.9,1-4.74-.63-6.84-2.74-4.24,3.52-12.2,3.32-15.06,8.21-2.59,5.95-.89,8.71-2.74,13.69-6.88,18.55-1.64-6.36-1.37-12.32-2.07,4.32-5.13,7.65-6.85,12.32,1.17-6.35-2.15-1.43-2.74-4.11,0.78-1.24,5.65-5,2.74-5.48-4.6-1.73-7.24,5.36-9.58,1.37,1.67-.15,3.24-0.41,2.74-2.74-5.84-3.16-10.7,4.64-12.32-2.74,1.61-.21,3.89.24,4.11-1.37-3.12.38-5.15-.33-5.48-2.74,3.05-.2-1.78-3.45,0-6.84h4.11c3.47,3.34-2.89,2.91-1.37,8.21,12,7.78,23.62,4,32.86-4.11-7.2-4-11.55,3.13-17.8-1.37-0.67,3.89-4.29,4.84-8.21,5.48,4.07-7.76,11-6.69,17.8-9.59-4.29-2.24-8.28-6.89-8.21-9.59-3.91,3.43-9,12.83-15.06,9.59,9.23-4.92,15.6-12.7,23.28-19.17-3.23,0-4-2.36-8.21-1.37a46.67,46.67,0,0,1-11,15.06c1.81-4.92,1.4-6.51-1.37-6.84,1.29-2.36,5.06-2.24,4.11-6.85-15.06.26-30.15,6.35-37-2.74,6.56,3.05,18.24,4,24.64,0,0.44-3.18-.22-5.26-1.37-6.85,2.35-.54,3.51,2,4.11,0-2.44-.66.59-1.46,1.37-2.74-1.61-.22-3.89.24-4.11-1.37,7.11-2,.93-9.92,5.48-15.06-8.44,1.51-17.47-.69-24.64-4.11,8.13-2,16.75,6.39,20.54,0-0.84-1.9-5.27-.2-5.48-2.74,4.3-3.9,5.78,3.33,11,2.74-0.33-2-2.26-2.31-2.74-4.11,5.38-1.64,7.56,6.93,11,2.74-0.15-2.59-4.53-1-4.11-4.11,4.38-.19,10.48,1.35,9.59-4.11-4.73,1.08-6-1.28-6.85-4.11,4.34-1.6,10.78-1.08,12.32-5.47-5.71,1.23-5.54-.61-6.84-2.74-1.62.4-5.17,5.52-6.84,1.37,3.21-3.63,8.33-5.36,12.32-8.21-4.94-.62-6.63-3.51-11-1.37,2.91-6.65-7.83-7.57-11-12.32,7.07,3.57,26.46,15.06,28.75,2.74,1,3.35,4.09.29,1.37-1.37,2.84-.82,9,1.69,9.59-1.37-1.82-1.38-5.1-1.29-5.48-4.11,4.09,0,4.66,3.56,8.21,4.11,0.08-1.75,1.76-1.89,1.37-4.11a27.94,27.94,0,0,1-13.69-5.48c4.87-2,8.21,4.4,9.59,1.37-4-7.67-14.68-4.56-17.8-6.85,3.42,0.23,4.29-2.1,5.48-4.11-2,0-6.12,5.61-5.48,0,3.69-1.33,5.31-4.73,9.59-5.48,0.54,2.35-2,3.51,0,4.11,0.33-2,2.25-2.31,2.74-4.11-5.74-1.1-8.88-4.81-15.06-5.48-2.42.88-5.79,7.76-8.21,4.11,3-1.61,6.16-3,6.85-6.85-7.29-4-16.86,2.46-23.28-1.37,4.78-.7,10.34-0.62,13.69-2.74a19.3,19.3,0,0,1-6.85-6.85c7.65,4.22,15.77,8,23.28,12.32,0.53-11.5-16.37-12.82-15.06-20.54,3,3.28-1.2-3.32,1.37-4.11,5,1.36,6.2,6.58,12.32,6.85,1-4.22-3.76-2.63-2.74-6.85,4.88,0.14,3.13,6.91,8.21,6.85-0.41-2.69,1.85-2.72,2.74-4.11-6.7,2.5-1.4-3-6.85-5.48,5.39,2.19.48-5.91,4.11-5.48,1.92,2.19,4.72,3.5,8.21,4.11,0.44-3.18-.22-5.26-1.37-6.85,5.17,1.22,2.71,10.07,11,8.21-1.17-6.35,2.15-1.44,2.74-4.11-2.35-3.59-7.76-4.11-9.59-8.21,5.8-.41-0.89-5.76,2.74-6.85,2.62,4.4,3.93,7.06,6.85,8.22-1.92-5.59-4-13.49,2.74-8.22,1.16-5.72-3.71-5.42-5.48-8.21,5.53,1.88,4.85-2.46,6.85-4.11-1.93,13.36,12.37,17.73,21.91,15.06-2.43-1.68-4-4.25-6.85-5.48,1.41-5.1-3.58-15.56-8.21-19.17-4.45-1.28-12.6,5.32-13.69-1.37,4.77-.05,13,0.77,6.85-2.74,3.63-1.61,8.06,2.63,8.21,0-2.72-2.36-10-7.22-8.21-9.59,3.51,2.35,9,11.34,12.32,5.48v5.48c7.37,1.7,20.52,2.75,26-1.37-6.93-1.56-14.44.59-20.54-4.11,5.16-1.05,6.55,1.67,11,1.37,0.31-1.06,0-2.7,1.37-2.74,0.31,1.06,0,2.7,1.37,2.74,0.08-.83.2-1.62,1.37-1.37-9.18-4.57-16.76-13.8-9.58-17.8a6.92,6.92,0,0,0-4.11-4.11c-2.71,4.65-2.71,1.34,0-1.37-5.52-1.32-11.17-2.53-15.06-5.48,3.55-2.36,4.3,2,2.74-4.11,5.2,0.27,5.2,5.76,11,5.48-3.49-3-.81-14.54-9.59-9.59,1.73,0.71,8.32,3.34,4.11,5.48-2.14-2-4.77-3.45-5.48-6.85,8.12-2,.63-3,6.85-6.85,4.52,1.88,5.83,6.95,11,8.21,0.2-3.32-9.9-7.45-2.74-5.48-1.38-4.15-8.18-10-4.11-15.06q2.53,11.85,9.59,19.17c-1-6.08-1.25-8.8-5.48-13.69,2.69-.41,2.71,1.85,4.11,2.74-0.66-5.23.39-8.74,2.74-11-3-1.58-8.85-.27-9.58-4.11,3.78,0.41,11.81,3.6,13.69,1.37-2.46.18-3.2-1.36-2.74-4.11,3.3,5.48,9.78,5,15.06,5.48-1.44.08-1.08,1.76,1.37,1.37-3.23-10.91-14.48-13.82-24.64-17.8,0.83-2.36,6.49.1,6.84-2.74-6.37-2.65,1.3-1.91,2.74-4.11-2.82,1.2-5.19-4.51-2.74-4.11,0.15,1.09,4.53,4.15,4.11,1.37-1.37-3.4-8.32-10.42-2.74-12.32,0,5,2.71,7.34,5.48,9.59-0.61-4.94,8.24,2.64,11,0-0.4-2.79-3.7-2.68-4.11-5.48,3.47-.17,7.77,5.78,9.59,2.74-3.86-1.82-3.67-5.86-11-6.85,1.73-4.6-5.36-7.24-1.37-9.58,0.33,1.49,2.26,3.29,2.74,1.37,0.16-1.4-5.91-2.77-1.37-4.11,0.43,2.2,1.95-.1,1.37-2.74,5.09-.53,2.53,6.59,6.85,6.85-4-5,2.05-2.67,2.74-4.11,0-2-5.08-5.6-1.37-6.85,1.6,2,1.7,5.6,4.11,6.85,0.08-.83.2-1.62,1.37-1.37-6.33-3.66,4-.81,1.37-8.22-3.84-.54-4.21-9.34-9.59-15.06,14,8,11.51,29,21.91,34.23-0.4-3.6,5.31-1.08,4.11-5.48-8.68-.9-7.77-11.4-13.69-15.06-1-4.22,4.72-1.67,2.74-6.85-1.72.3-2.8,2.13-2.74-1.37,8.46,1.6,11.27,16.09,17.8,15.06-5.29-4.78-3.14-1.4,0-5.48A51.69,51.69,0,0,1,732.19,57c5.81-7.76-11.27-7.74-6.85-13.69,5.18,2.15,10.38,11.48,15.06,9.58-3.91-5.67-8.14-11-12.33-16.43-1.13-3.25,1.93-6.31,1.37-1.37,4.15,4.07,7,9.46,12.32,12.32-2-5-2.57-5.38-4.11-12.32,6.56-.29,2.28-11.41,8.22-12.32-0.23,5.49-9.89,23.69,4.11,26-0.49-8.89-.49-9.74-2.74-16.43,3.7-.4,6.2,7.34,8.21,4.11,0-2.72-3.73-1.74-2.74-5.48,6-1,2.92,7.12,6.84,8.22a9.74,9.74,0,0,1,2.74-4.11c0.87,3.18,1.75,6.15-1.37,8.22,3.6,1.87,5.19,5.76,9.59,6.85C761.9,37,763.58,29.86,763.68,20c4.19,2.2,5.51,7.27,11,8.22-2-3.22-3.41-3.07,0-5.48-0.31-2.13-5.26-6.39-1.37-8.21,0.33,1.49,2.26,3.29,2.74,1.37-2.24.62-2.24-7.46,0-6.85,0.93-.14,4.55,3.16,5.48,1.37,0.79-4.44-.93-6.37-1.37-9.58,6.91,0.85,2.4,10.57,8.21,2.74,2.19,9.43-2.77,18.7,0,23.28C793.84,22.68,789.57,13.36,793.81,10.43Zm-2.74,28.76c2.52-.12-0.42-11.7,2.74-15.06C789.65,21.76,784.18,37.62,791.06,39.19ZM766.42,25.49c0.75,4.53,4.5,10.93,8.21,8.21C772.45,30.41,770.9,26.49,766.42,25.49ZM862.27,476c-1.4-4.25-1.35,3.89-2.74,4.11-1.11-.26-1.37-1.37-2.74-1.37,3.83-4.65,1-8.4,4.11-12.32-5.14-2.68-8.13,6.94-11,11-1.11-.26-1.36-1.38-2.74-1.37,2.58-2.34,7.51-6.87,5.48-9.59,0-1.33,1.67-1.06,2.74-1.37-0.42-1.86-3.43-1.14-5.48-1.37a6.44,6.44,0,0,1,1.37,4.11c-4.49-2.08-6.49-6.73-9.59-1.37-2.56-3.09-5.55-10.91-11-6.84,0.76,2.84,2.14,2.9,4.11,1.37-8.39,10.35,4.37,26.16,11,34.23,4.89-1.51,7-5.82,12.32-6.85,0.56-3.3-2.5-3-1.37-6.84,1.6,0.22,1.15,2.5,1.37,4.11C860.9,483.74,861.21,479.49,862.27,476Zm73.94-249.21c1.75,3.28,4.47,5.57,9.59,5.48C942.94,230.09,940.21,227.79,936.21,226.77ZM888.28,172c-1.11-1.18-3.75-.81-4.11-2.74-8.09.58-11.68,5.67-17.8,8.21,5.56,5.85,14.76,6,21.91,5.48C890.52,180.74,887.06,177.23,888.28,172ZM806.13,32.34c-4.16-.5-2.84,4.46-4.11,6.85h6.84c-0.35,2.84-6,.37-6.84,2.74,0.65,6.06-1.89,6.81,0,11,4.23-5.36,8.22-11,9.59-19.17C809.44,33.6,806.38,34.37,806.13,32.34Zm-17.8,6.85c-2.79,3.38,1.18,7-1.37,12.32C789.38,52.14,790.46,42.88,788.33,39.19Zm-27.39,5.48c-4.85-.46-3.37-3.77-8.21-1.37v6.85c5.32-2.88,8.46,1.72,12.32,4.11C768.95,50.4,755.84,50.45,760.94,44.66Zm0,8.21c-4,1.19,3.18,2.05,1.37,5.48,4.26-4.28,2.31,4.64,2.74,8.21,2.85-.76,2.9-2.14,1.37-4.11C776.58,69,768.12,55.23,760.94,52.88Zm12.32,16.43a61.55,61.55,0,0,0-6.84-2.74c-3.23,4.93,5.12,8,6.84,12.32C776.66,77.8,771.42,70.9,773.26,69.31Zm45.19-24.65a16.48,16.48,0,0,0-6.84,8.21c3.86-2.16,5.81,1.58,9.59-1.37C822.36,47.14,819,47.27,818.45,44.66Zm19.17,19.17c-0.77,1.28-3.8,2.07-1.37,2.74-3.14,1.43-3.8,5.32-6.84,6.85,2.91,2.52,5.1-2,8.21-1.37-0.49-6.73,7-8.06,8.21-16.43-3.54,3.46-9.05,9.28-12.32,5.48-1.61.22-1.15,2.5-1.37,4.11C834.6,65.37,835,63.53,837.62,63.83ZM818.45,57c-4.6-.5-2.28,5.93-4.11,8.21C818.58,65.33,818.43,61.07,818.45,57Zm6.85,2.74c-4.3-.19-4.7,3.51-5.48,6.85C824.88,67.53,825.87,64.41,825.3,59.72ZM813,63.83V59.72c-1.9.54-3.88,7.77-5.48,4.11,0.59,0.16-4.36,9.45,1.37,9.58,0.12-1.94.23-3.88-1.37-4.11C810.65,68.81,808.81,63.32,813,63.83Zm1.37,2.74c-3.65,2.28-1.48,3.68-4.11,8.22h4.11C812.81,70.47,814.22,71.69,814.34,66.57Zm9.59,8.22c1-5.13-1.54-6.67-5.48-6.85C817.43,73.07,820,74.61,823.93,74.79ZM721.23,72c2.28,1.83,2.13,6.09,4.11,8.21,3.07-2.28-2.51-7.44-2.74-11-2.89,1.12-3.76,7.22-1.37,9.59C724.29,78.69,719.46,75.44,721.23,72Zm38.34,1.37c-3.42-1.81-4.29,5.41-5.47,1.37-1.78,5.47,9.14,10,13.69,13.69C763.27,82.42,765.24,78.31,759.57,73.42Zm52,4.11c-5.23-.67-4.29,4.84-6.85,6.84C805.47,85.87,813,82.65,811.61,77.53Zm-49.29,24.65c6.87-.94,8.57,3.29,9.59,8.21,4.07-6.41-7.06-9.34-11-12.32C757.59,95.17,763,99.5,762.31,102.17Zm9.59,1.37c2.08-10.32-10.5-17.78-19.17-21.91,4.53,4.28,5,5.72,5.48,12.32C764.64,93.58,766.41,99.7,771.9,103.54ZM740.4,84.37c-0.26,1.17.53,1.29,1.37,1.37,4,1.19-3.17,2-1.37,5.48,5.32-1.07-1.66,7.35,5.48,6.85C745.19,92.37,746.35,84.81,740.4,84.37Zm75.31,2.74c0.23-3-4.86-.62-6.85-1.37C808.77,92,812.89,88.48,815.71,87.11Zm-31.49,0c-2.43-3.65-1,8-1.37,11C785.28,101.72,783.85,90,784.22,87.11Zm46.56,8.22c-1-4.5,2.72-2.1,2.74,0,3.53-.33-1.88-2.36,0-5.48-3.64,0-7.82-.52-9.59,1.37-0.13,3.74,2.28,2.76,0,5.48C821,100,826.51,93.37,830.78,95.33Zm17.8,0c0.22,4.33-3.64,4.58-2.74,9.58,1.33,0,1.06-1.68,1.37-2.74,2.33-.5,2.58,1.07,2.74,2.74,4.46-1,2.46-6.23,4.11-6.85-1.79-3.37-10.18-6.78-11,0C845.82,98,844.84,94.33,848.58,95.33ZM741.77,98.06c-4.37-1.93-3.46,8.2-1.37,8.22C746.66,106.32,740.47,101.48,741.77,98.06Zm9.59,4.11c-3.5,3.35-6.57,12.88-4.11,17.8C752.93,117.37,752.83,108.27,751.36,102.17Zm52,6.85c-1.55-4.4-3.91,1.32-2.74,4.11,3.23,1,8.69,3.14,8.21-2.74C807.65,107.05,799.34,111.6,803.39,109ZM854,109c-5-.9-5.25,3-9.58,2.74,2.74,2.28,5.07,5,9.58,5.48C854.47,114,856.73,111.58,854,109Zm-76.68,0c-4.49,2.42,1.6,5.55,2.74,6.84,1.86-.42,1.14-3.43,1.37-5.48C779.53,110.51,777.6,110.61,777.37,109Zm65.73,5.48c-0.63,4.28,2.92,4.38,6.84,4.11-1,3.09-7.68.54-11,1.37-1.86,7.33,6.71,4.24,8.21,8.21,3.1-1.46,5-4.15,5.48-8.21C849.13,118.5,847.59,115,843.1,114.5Zm-121.87,1.37c-0.38,3.58.5,5.89,4.11,5.48C725.73,117.76,724.84,115.45,721.23,115.86Zm52,1.37h-5.47v5.48Q774.86,124.31,773.26,117.23Zm-11,0h-5.48c-0.36,5.67,5.31,1.82,5.48,4.11C764.34,120.74,761.77,119.59,762.31,117.23Zm64.35,13.69c0.58-3.07,2.94-4.36,4.11-6.85,1.49-3.51-8.49-2.2-4.11-4.11-1.87-1.78-10.25,1.54-11,5.48-0.29,6.82,8.94,6.23,11,6.85C828.22,132,827.43,130.92,826.66,130.93Zm-95.85-11c-4.25.32-4.27,4.86-5.48,8.21,5.49,5.31,4.75,2.44,8.21,0C734.64,123.45,732,122.41,730.82,120Zm30.12,4.11c-5.9,4.84-4,14-2.74,20.54,4.7-3.06,8.08-7.44,13.69-9.59A17.55,17.55,0,0,0,760.94,124.08Zm117.76,1.37c-4.22-1-1.67,4.72-6.85,2.74-0.94,3.68,2.83,2.65,4.11,4.11-2.79,3.14-7.17-2-9.59,2.74-1.46,5.11,5.13,2.17,4.11,6.85,1.95-1.67,3.11-5.23,1.37-6.85,5,0.06,2.78,7.26,5.48,9.59,2.35-4,2.9-9.88,2.74-16.43,1.39,0.89,1.41,3.15,4.11,2.74C884.39,127.06,880.31,127.5,878.7,125.45Zm-167.05,1.37c-1,3.09.1,7-6.84,6.84,0.59-2.15,4.3-1.17,2.74-5.48-8.58,2.22-5.25,2.9-9.59-1.37,0.2,3.4.25,6.64-2.74,6.84,0.82,3.74,7,2.11,6.84,6.85C709.54,140.2,716.41,131,711.65,126.82Zm131.45,2.74h-6.85C835.07,135.22,843.09,133.73,843.1,129.56ZM858.16,135c0.07,3.52-9.48,10,2.74,4.11V132.3c-4.31-1.53-3.1-.12-8.21,0,0.95,1.11,2.13,3.75,0,4.11C854,140.6,856.33,134.83,858.16,135ZM740.4,130.93c-3.54.73-13,4-4.11,5.48-0.26-1.11-1.38-1.36-1.37-2.74,2.92-.64,2.61,2,2.74,4.11a6.47,6.47,0,0,1,4.11-1.37C742.35,133.54,740.83,132.78,740.4,130.93ZM813,137.77c0.9,1.84,2.92,2.55,5.47,2.74-1.07,3-8.47-.26-6.84,5.48,2.4-2,8.26.85,12.32,1.37-2.76-3.76,3.6-7.55,2.74-13.69-2.21,2.24-5.72-1.22-11,0C819,139.94,817.18,135.57,813,137.77ZM777.37,135c-5.82-.41-1.39,7.3-1.37,9.59h6.84C781.38,141.07,777.9,139.53,777.37,135Zm-61.62,2.74c0.84,1.28,3.19,5.05-1.37,4.11,0.42,1.86,3.42,1.14,5.47,1.37C720.25,139.67,719.36,137.36,715.76,137.77Zm126,1.37c-2.46-.17-2.89,1.68-5.48,1.37-2.44,3.68,6,2.65,1.37,4.11,2.05,2.94,3.35-1,6.85,1.37C845.64,141.62,842.31,141.75,841.73,139.14Zm21.91,1.37c3.56,3.6-2.21,1.08-1.37,5.48,6-.94,7.58,2.46,9.58,5.48C873.84,148.49,870,139.64,863.64,140.51ZM732.19,159.68c3.86-1.45,1.71-5.43,6.84-2.74-0.76-2.44-.7-5.68-2.74-6.85,0.76-4,2.14,2.1,4.11,1.37,0-1.41-6.22-8.34-11-9.59q-2,2.1-4.11,4.11c3.69,2.24,7.26,4.61,11,6.85-2.79,3.59-8.57-1.38-9.59-4.11C723.12,153.72,735.18,154.19,732.19,159.68ZM806.13,146c-3,.17-0.58,5.81-1.37,8.21,3.79,0.59,1.29-5.1,4.11-5.48C808.53,147.24,806.14,147.8,806.13,146Zm94.48,2.74c-1.68-.25-16.49-1.94-15.06,5.48H891c-1.64-1.8-.53-2.15,0-4.11C893.06,155,896.79,149.77,900.61,148.73Zm-30.12,6.85c3.63-2.41-4-5-4.11-8.22-3.18-.43-5.26.22-6.85,1.37-0.23,3,4.86.62,6.85,1.37-3.84,2.05-2.26,4.12,0,6.85,0.42,4.28-4-3.48-4.11,1.37-3.53-.33,1.88-2.36,0-5.48-1.59.22-2.44-.3-2.74-1.37,0.68,4.83-6.65,3.69-6.84,11C858.7,161.09,869.66,157.54,870.48,155.57Zm-189-8.22c-0.39,5,3.83,5.3,4.11,9.59,3.3,0.56,3-2.5,6.84-1.37C692.47,149.19,686.54,148.73,681.53,147.36Zm132.82,1.37c0.23,3.88,2.51,5.71,2.74,9.59,5.13,0.59.08-8.23,2.74-4.11,2-.6-0.54-1.75,0-4.11,1.16-.25,1.29.53,1.37,1.37C823.88,147.85,817.12,150.16,814.34,148.73ZM839,154.2c0,1.33,1.67,1.06,2.74,1.37-0.26,1.11-1.37,1.36-1.37,2.74-2.33.5-2.58-1.07-2.74-2.74a6.44,6.44,0,0,1-4.11,1.37c2.36,2.56,3.68,5.86-2.74,6.85-0.56,3.3,2.5,3,1.37,6.85,4.38-1.55,9.59-2.27,9.59-8.21,7.32,3.9,10.19-4.2,12.32-9.59C850,147.48,842.7,151.45,839,154.2Zm-24.65,0c-4.11,4.55-1.52.78-1.37-4.11-6.31,2.51-3.49,11.85-1.37,16.43,2-1.19,4.34-2.05,4.11-5.48C809.89,164.1,817.9,157.6,814.34,154.2ZM776,150.1c2.57,2.61-.81,2.48,0,6.85,1.93-2.63,6.65-2.48,9.59-4.11C784.27,150,780.33,149.88,776,150.1Zm-72.57,0c-1.75.31-1.79,4.09,0,4.11,0,1.33-1.68,1.06-2.74,1.37,0.38,3.17,3.66,3.15,5.47,1.37C707.19,152.73,702.41,154.31,703.43,150.1Zm82.16,6.85c-0.95-3.42-3.66,2.54-6.85,1.37,1.16,2,4.41,2,6.85,2.74C785.87,158.71,783.25,157.5,785.59,156.94Zm94.48,1.37c-5-.45-7.61,1.52-11,2.74C869.69,165.49,882.81,165.53,880.07,158.31Zm-186.22,1.37c-1.19-2.07-2,.38-5.48-1.37,2.88,3.52,5.77,7,9.59,9.58C701.27,161.28,688.89,163.42,693.85,159.68ZM802,161c-3-4.9-8.88,8.7-1.37,6.85C801.34,163.6,797.42,162.3,802,161Zm24.64,2.74c-2.25-6.11-7.28,1.93-11,2.74,0.37,4.65-1.06,11.1,1.37,13.69,4.08-2.3,7.35-5.43,12.32-6.85a7.48,7.48,0,0,0-6.85-6.85c-1.06,1.22-1.47,3.09-1.37,5.48-2-.31-0.48-4.09-2.74-4.11C821.27,164.78,821.09,165.38,826.66,163.79ZM804.76,161c-1.87,4.75-5.8,16.41,2.74,16.43,1.6-2,1.7-5.6,4.11-6.85C809.68,167.09,807,164.31,804.76,161ZM750,162.42c-3.92-.27-7.47-0.17-6.85,4.11C747.06,166.8,750.61,166.7,750,162.42ZM851.31,172c4.24,2,11,5.47,11,5.48,19.52-2.08-2-23.3-4.11-9.59-0.39,2.54,3.4,1.94,4.11,5.48-3.8-2.41-3.88-1-6.85-2.74C861.31,168,853.63,171.16,851.31,172Zm5.48-5.48c-1.09-2.32-9.18-.16-8.21,4.11C851.37,169.32,854,167.84,856.79,166.53ZM736.3,165.16c-3.74-1-2.76,2.72-5.48,2.74,1.69,4.16,4.71-1.48,8.21,0C738.7,166.41,736.31,167,736.3,165.16Zm41.07,5.48c-2.46,2.55,4.3,7.5,4.11,12.32,3.87,1.13,3.54-1.93,6.84-1.37C783,179.64,780.53,174.78,777.37,170.63Zm11,6.85c-2.77-3.17-4.55-7.32-9.59-8.21C781.78,172.16,781.63,178.25,788.33,177.48Zm-16.43-8.21h-5.48c1.15,9,7.42,6.19,9.59,12.32C778.47,179,771.71,174.09,771.9,169.27Zm-27.39,5.48c1.75,1.87,6.46,1.87,8.21,0-1.25-2.86-4-4.17-8.21-4.11,0,1.33-1.68,1.06-2.74,1.37-0.62,6.55-.62,5.78,0,12.32,3.85-.26,3.75-4.47,6.85-5.48C745.06,178.52,745.09,180.59,744.51,174.74ZM739,177.48h-9.59c0.86-3.25,8.43.21,9.59-2.74-2.15-2.94-11.52-1.57-12.32,1.37,1.38,5.47,8.21,5.48,11,9.58C739.33,184.91,736.77,180.53,739,177.48Zm101.32,4.11c2.05,1.6,3.35,4,6.85,4.11,1.43-1.73,6.3-7.72,5.48,0a6.44,6.44,0,0,1,4.11-1.37c-1.66-4.27-2.56-9.31-9.59-8.21C853.27,180.53,842.18,175.94,840.36,181.59Zm-26,4.11c-0.4,6.31,1.66,11.2,5.48,16.43,1.72-.34,1.38-2.72,0-2.74,8.56-8,6.11-11.38,11-20.54C821.53,177.36,820.28,183.87,814.34,185.7Zm-61.62,11c2-4.41,1.29-11.49,1.37-17.8-5.05,1.34-6.79,6-11,8.22A13.67,13.67,0,0,0,752.73,196.65ZM865,180.22c-1.8.48-2.15,2.41-4.11,2.74,2.68,3.71,11.66,1.12,15.06,4.11C879.87,182.62,864.92,185.38,865,180.22ZM736.3,189.81c0.42-4.55,4.75,5.86,4.11-1.37a20.39,20.39,0,0,1-12.33-8.21c-4.53,5.51,4.59,9,4.11,15.06,6.4,0.54,4.55.83,11,1.37-0.33-2.41-2.36-3.12-5.48-2.74C737.78,192,737.89,190,736.3,189.81Zm124.6-4.11c3.72,1.57,6.23,9.2,11,5.48-1.46,6.94,8.72,2.23,6.85,9.59,7.06-2.16,14.85,7.79,16.43-1.37C884.12,197.84,874.24,185.82,860.9,185.7Zm-8.21,2.74c-0.38,2.81-3.66,2.73-5.48,4.11,4.46,1.57-.49,4.73,2.74,8.22-4.4.29-3.33-4.88-5.47-6.85-1.8.48-2.15,2.41-4.11,2.74,0.77,2.85,2.14,2.9,4.11,1.37a6.44,6.44,0,0,0-1.37,4.11c-5.3-2.75-5.4-2.22-9.59,1.37,3.08,1.2,15.5,0,17.8-4.11,5,7,14.44-2,20.54,1.37v-4.11c-1.49.34-.93,2.72-2.74,2.74-2.53-.2-0.84-4.64-2.74-5.48-2.4-.38-6.83,3.85-8.22,0-0.23-3,4.86-.62,6.85-1.37-0.49-1.57-2.41-3.47-2.74-1.37-0.86-1.41-.83-4.71-6.85-4.11C859.81,191.46,857.56,190.42,852.68,188.44ZM776,187.07c-6.39,2.33,2.54,3.2,2.74,6.85-2.41,2.53-4.24-.35-5.48-2.74-3.41,2.27,3.79,12.19-4.11,12.32,2.49,10.75,6.24,20.24,12.33,27.39,4.93-12.71-2.43-32.23-1.37-41.08C779.8,187.83,776,189.33,776,187.07Zm64.35,1.37c-2,1.19-4.34,2.05-4.11,5.48,2.16,2.18,6.29-.66,6.85-4.11C841.51,190,840.66,189.5,840.36,188.44Zm-71.2,0H765c3.48,1.09.74,8.39,5.48,8.21C769.16,193.31,770.07,193.73,769.16,188.44Zm65.73,4.11c-6.06,2-1,7.78-6.85,11C830.34,205,838.23,197.25,834.88,192.54ZM689.74,206.24c1.59-2,1.59-3.45,0-5.48,2.8,1,5.42,4.29,8.21,1.37-0.42-1.86-3.43-1.13-5.48-1.37,9.15-1.86-1.83-7.26,9.59-6.85-1.54-3-18.57,2.22-26-1.37-0.11,8.32,5.13,11.3,6.85,17.8,2-1.19,5.3-1.09,4.11-5.48a12.3,12.3,0,0,1,5.47,5.48c-0.6,2-1.75-.54-4.11,0,0.2,3,3.45,2.94,6.85,2.74C693.92,210.27,693.52,206.56,689.74,206.24Zm108.17-11c-4.6.88-4.39,6.57-4.11,12.32C799.3,207.63,797.61,200.46,797.91,195.28Zm-41.08,5.48c-0.3-4.69,5.06.19,1.37-5.48h-2.74c-1.29,7.23,4.17,7.69,6.85,11,3.73-1.26-1.91-4.28,0-8.21C759.59,198,760.57,201.75,756.83,200.76Zm52-2.74h-4.11c-0.91,6.38,2.16,8.8,2.74,13.69,1.94-.12,3.88-0.23,4.11,1.37,2.83-1.18,1.44-9.53,0-11C806.92,207.87,811,200,808.86,198Zm-65.72,5.48c-5.71,2.84,1,8.72,5.48,9.59,0.14-3.51.77-6.53,2.74-8.21-2.87-4.44-8.38-6.23-16.43-5.48C737.2,202.67,738.6,205.85,743.14,203.5Zm-28.75,11c-1.54,3-8.66,4.64-4.11,9.59,4.85-2.71,2.71-1.78,8.22,0-1.53-1.68-1.19-2.81,1.37-2.74,0.65-7.5-5.1-8.59-8.21-12.32-0.4-2.45,5.31-.09,4.11,2.74,3.51-2.72-3.47-6.48-5.48-8.22,0.9-1,12.69.33,8.22,5.48,5,0.83,3.66-11.77-1.37-9.59,1.64,1.8.53,2.15,0,4.11-3.16.42-1.52-4-4.11-4.11-5.88-.47-3.7,5-2.74,8.22-5.2,2-.27-6.12-5.47-4.11,0.38,3.12-.33,5.15-2.74,5.48,1.92,2.79,4.72-1.35,8.21,1.37a3.77,3.77,0,0,1-4.11,2.74v2.74c1.17-.25,1.29.53,1.37,1.37C711.75,218.21,710.17,213.43,714.39,214.45Zm189-12.32c-1.07-3.28-3.32,6.61-1.37,6.85,2.4-1.25,4.76-2.55,4.11-6.85-1.33,0-1.06,1.68-1.37,2.74C903.38,204.83,903.65,203.19,903.34,202.13Zm8.22,4.11c1.62,2.49,7.14,1.08,9.58,2.74-3.4,4.19-8.31-1.64-13.69,0,0.23,3.43-2.11,4.29-4.11,5.48,10.45,3.92,19-3.43,26-11,0.23-3-4.86-.62-6.85-1.37C926.2,206,914.87,202.46,911.56,206.24Zm-42.45-2.74A123,123,0,0,0,830.78,209c4.63,0.75,11.72,3.72,16.43,0,2.11,2.34-.48,5,1.37,9.59-3.86-.25-1.71-6.51-6.85-5.48,3.42,5.5-3.57-.18-8.21,1.37,0.84,1.22,1.65,2.45,0,2.74,0.21,3.41,4.64.4,5.48,0,1.37,1.08-.51,4.79,2.74,6.85-4.08.31-4.66-5.06-8.21-1.37-1-1.27,0-5.5-6.85-4.11,8.92,5.32-3.72-.28-6.84,2.74,6.42,8.2,27.51,11,34.23,6.84,4.81-5.23,2.38-17.7,12.33-17.8,0.64-2.92-2-2.61-4.11-2.74C862,203.72,871.22,209.26,869.11,203.5Zm15.06,1.37c10,5.55-10.49,1.67-15.06,6.85,2.68,2.8,6.87,4.08,12.32,4.11-0.26-1.11-1.37-1.37-1.37-2.74,0.2-3.05,3.45,1.78,6.84,0-2.31,1.31-4,4.3-1.37,6.85,4.91,0.35,5-4.11,9.59-4.11,1-3.74-2.72-2.76-2.74-5.48,2.45-.17,2.89,1.68,5.48,1.37C897.66,205.08,888.65,207.23,884.18,204.87Zm-4.11,1.37c-1.8-3-10.64-1.62-11,1.37C872.27,212,875.22,204.69,880.07,206.24Zm-152,0c-2.4,1.25-4.76,2.55-4.11,6.85h8.22C731.39,210.23,729.31,208.66,728.08,206.24ZM700.7,209c-0.33-2.41-2.36-3.12-5.48-2.74,0.14,5.79,3.68,8.18,8.21,9.59C703.11,213.58,694,209.57,700.7,209Zm53.4,0c-3.88-3,1.89,7.26-1.37,8.21-1.16.25-1.29-.53-1.37-1.37-0.72-2.11-1.43-.09-1.37,1.37,3.23,1.76,2.54-.18,6.84,1.37C758.19,213.1,752.74,214.44,754.1,209Zm39.71,1.37c-1.89,2.12-2.76,8.22-1.37,9.59C795.23,217.32,795.18,214,793.81,210.34Zm130.08,4.11c-0.64,2.92,2,2.61,4.11,2.74-3.45,5.86,11.08,3.89,12.32,2.74C936.49,216.46,931,214.61,923.89,214.45Zm-54.77,6.85c5.37-.35,5.09,5,11,4.11-1.35-6.87-13.62-2.82-13.69-11-1.49,3.08-6.59,2.54-5.48,8.22,4.61,0.87,7,3.93,13.69,2.74C874.22,222.58,868.53,225.08,869.11,221.3Zm-127.34-6.85h-4.11c0.17,3.93,1.72,6.5,6.85,5.48C744.49,217.21,740.77,218.19,741.77,214.45Zm57.51,1.37c3.87,4.65,3.53,9.92,2.74,16.43,7.22,3.06,8.91-3.69,6.84-11C799.89,225.74,807.85,215.68,799.28,215.82Zm-102.7,1.37c-0.87,5,2.84,5.38,6.85,5.48C704.31,217.69,700.6,217.29,696.58,217.19Zm219.09,2.74c-4.85-3.86-11.89,1.76-16.43,2.74C904.63,224.51,911.36,224.09,915.67,219.93Zm-115,0c-6.69,1.17-1.93,5.28-1.37,9.59C802.34,228.92,799.84,222.77,800.65,219.93Zm-119.12,2.74c-0.31-4.26-6.82-2.31-11-2.74-1,5.58,4.42,4.72,2.74,11C676.73,225.39,676.71,226,681.53,222.67Zm-16.43-2.74c3.7,4.45-7,2-2.74,11,2.85-.8,4.43-2.88,6.85-4.11C669.85,222.47,665.51,223.16,665.09,219.93Zm0,15.06c0.84,1.9,5.27.21,5.48,2.74,3.23-1.15-.08-7.06-1.37-8.21C665.59,229.1,664.71,231.41,665.09,235Zm84.9-1.37c-0.41-1.77.12-6.89-5.48-6.85,0.89-1.39,3.15-1.42,2.74-4.11-1.59-1.15-3.67-1.81-6.84-1.37,2.54,5.68,3.94,12.49,11,13.69C751.75,232.54,750.06,232.18,750,233.62Zm-23.28-11c0.1,4.93,5.71,4.33,11,4.11C737.48,219.18,729.88,225.23,726.71,222.67Zm-46.56,4.11c2.41,4,8.09,4.69,15.06,4.11-0.84-1.22-1.65-2.45,0-2.74C690,226.86,684.13,221.46,680.15,226.77Zm235.52-1.37c-6.09-1.07-8.22,1.82-13.69,1.37,0.63,6.32,16.55,11,19.17,2.74C918.37,227.12,915.68,234.17,915.67,225.41Zm-58.88,6.85c4.25,0.14,6.54-1.68,9.59-2.74C865.21,223.51,856.54,225.81,856.79,232.25Zm-42.45-4.11c-1.5,3.49,4.68,7-1.37,6.85,4.82,1.75,8,2.31,15.06,6.85V235c2.49,1.62,1.08,7.14,2.74,9.59,2.72-2.28,1.74.13,5.47,0-0.5-2.33,1.07-2.58,2.74-2.74C834.55,234.23,822.76,227.27,814.34,228.14Zm-46.55-1.37c1.91,4.95,4.85,5.29-2.74,4.11,0.14,3.51,5.1,2.2,6.85,4.11-0.9,4.1-2.93-1.31-5.48,0-0.64,4.75,7.43.79,8.21,4.11C776.83,235.92,771.57,228.52,767.79,226.77Zm131.45,1.37c-6.42,3.62,5.18,6.65,0,12.32-1.6-.22-1.15-2.5-1.37-4.11-3,.17-0.58,5.81-1.37,8.21,4.61-2.41,4.29-1.82,11-2.74C907.64,234.34,899.26,235.43,899.24,228.14ZM736.3,229.51q-1,6.43,5.47,5.48Q741.52,229.77,736.3,229.51ZM893.76,235c5.31-5.79-6.7-4.15-8.22-1.37C882.69,238.07,893.57,228,893.76,235Zm-253.32-2.74c0.42,5.13,4.58,5.56,8.21,4.11,1.69,4.43-4.43,1-2.74,5.48,3.18,1,10.23,3.47,9.59-2.74C649.06,238.25,647.11,232.88,640.45,232.25Zm69.83,16.43c0.1,4,.5,7.72,5.48,6.85a9.68,9.68,0,0,0-4.11-2.74q2-2.1,4.11-4.11c2,1.69,2.6,4.71,2.74,8.22,7-2.46,12.38-1.13,17.8-6.85-1-4-4.88-5.17-8.22-6.85,0.6-2,1.76.54,4.11,0-1.26-2.4-2.55-4.76-6.85-4.11,4.36-4.79.31-5.57-6.84-5.48,0.9,3.2,2.14,11.23-5.48,9.59C714.8,248.28,713,246.1,710.28,248.68ZM713,239.1a24.32,24.32,0,0,0-11-5.48c0,5-7.13,2.91-5.48,9.59,3.22-.44,3.07-4.24,5.48-5.48,3,3-5.6,6.2-4.11,12.32a6.45,6.45,0,0,1,4.11-1.37C702.42,244.48,706.63,243.12,713,239.1Zm197.17-1.37c-0.38,2.45,1.29,2.81,1.37,1.37,3.86-.21,3.43,3.87,5.47,5.48-6.93-5.93-14.25,2.79-19.17,2.74,1.77,8.72,16.37,4.62,19.17,12.32-4.14-.42-4.89-4.24-11-2.74,4.21,2.82,6.13,2.85,12.32,5.48,3.1-7.11,14.2-6.12,19.17-11,2.1-2-2.13-8.6,4.11-5.48-3.85-8-8.49-1.55-9.59-11-6,0-12.32-.45-16.43,1.37,0.34,1.72,2.72,1.38,2.74,0,2.43,1.22,1.75,5.56,6.85,4.11,0.38,2.21-1.3,2.36-1.37,4.11C919.67,241.95,917,237.76,910.19,237.73ZM888.28,235c0.15,2.59,4.53,1,4.11,4.11-1.16,4-3.45-1.78-6.85,0,1.95,4.5,5.2,1.3,5.48,5.48a6.44,6.44,0,0,1,4.11-1.37c-1.15-1.59-1.8-3.67-1.37-6.85C892.54,235.3,890.67,234.89,888.28,235ZM839,236.36c-1.74,4.62,3.29,2.86,8.21,1.37C845.47,232.28,839,237.73,839,236.36Zm-31.49,0c-0.42-1.86-3.43-1.14-5.48-1.37v6.85C807,243.15,803.17,235.68,807.5,236.36ZM797.91,235h-4.11c0.7,3.86-2.44,11.57,4.11,9.59a9.7,9.7,0,0,1-4.11,2.74c1.41,5.48,5.43-.31,6.84-2.74C799.66,241.46,799.43,237.58,797.91,235Zm-113.65,1.37c-0.59-3.06-6.75-.56-9.59-1.37C675.41,239.67,681.28,237.09,684.26,236.36Zm-4.11,4.11c0.49,1.8,2.41,2.15,2.74,4.11,2.43-4.2,4-4.09,9.58-2.74-0.22-1.59.3-2.44,1.37-2.74C690.5,233.59,684.84,239.45,680.15,240.47Zm189-2.74c-0.61,3.48,7.16,5.45,8.21,2.74C878.63,235.52,871.94,238.56,869.11,237.73ZM739,239.1c-1.55.26-.76,1.37,0,1.37,0,1.33-1.67,1.06-2.74,1.37,0.48,1.8,2.41,2.15,2.74,4.11,1.39-.89,1.41-3.15,4.11-2.74V239.1c-1.59-.22-2.44.3-2.74,1.37C739.24,240.72,739.11,239.93,739,239.1Zm145.14,15.06c-1.69,4.43,4.43,1,2.74,5.48,4.28,0.63,4.38-2.92,4.11-6.85C887.79,254.55,888.48,252.61,884.18,254.16Zm-1.37-13.69c-4.28-.63-4.38,2.93-4.11,6.85h5.48c-1.81,2-6.26,3.45-2.74,6.85C889.08,254.18,884.3,243.48,882.81,240.47Zm-20.54,15.06c3.6,1.32,1.27,7.26,6.84,4.11,1.84,0.9,2.55,2.93,2.74,5.48-2.92.64-2.61-2-2.74-4.11-2.85.77-2.9,2.14-1.37,4.11,0,1.33-1.67,1.06-2.74,1.37,3.82,5.06,9.85-6.45,12.32-2.74,3.95-4-1.92-9.88,0-16.43-3.32-2.15-5.85-5.11-12.32-4.11-1.91,1.74-.6,6.71-4.11,6.85-4.53-2.05,2.85-3.35,1.37-6.85-8.23-5.15-19.61,3.19-27.39,6.85,1.25,5.2,5.5,1,9.59,1.37-0.9,1.84-2.93,2.55-5.48,2.74-0.17,2.46,1.67,2.89,1.37,5.48,0.81-3,14.77.39,11,6.85a6.45,6.45,0,0,1,4.11-1.37v-5.48c1.94-.12,3.88-0.23,4.11,1.37C858.12,256.18,864.35,259.84,862.27,255.53Zm-47.93-15.06c5.4,3.08,2.36,6.09,2.74,13.69,5.07-.17,3.44-2,2.74-5.48,1.39,0.89,1.41,3.15,4.11,2.74C826.94,246.34,820.26,241,814.34,240.47Zm-1.37,0c-6.06,2.07-.42,8.51,0,12.32C817.16,249.16,814.94,244.52,813,240.47Zm-102.7,2.74c-3.85,4.23-4.83,4-8.21,9.58,2,0.73,3.34-5.33,4.11-1.37C707.91,249,710.8,247.83,710.28,243.21ZM651.4,258.27c6-1.56,4.5,0,9.58,1.37,3.15-4.42,1.62-3.13,8.22-4.11-2.6-1.68-8.77-3.39-11-1.37,1.59-3.68,9-5.55,11-1.37,2-1.19,4.34-2,4.11-5.48-5.29.87-7.29-2.5-9.59,1.37-1.61-.22-1.15-2.5-1.37-4.11-8.15-.85-9,5.59-13.69,8.21C648.68,255.51,652.4,254.53,651.4,258.27Zm0-11c-1.46-3.11-8.61-.52-12.33-1.37,0.19,2.55.9,4.58,2.74,5.48,4.6-1,2.79-6.76,5.47,0C649.88,251.27,648.24,246.9,651.4,247.31Zm126,4.11h-4.11c-1,4.67,5,2.26,5.48,5.48C783.75,254.74,775.56,254.85,777.37,251.42ZM759.57,261c-0.33-3.53-2.35,1.88-5.47,0,0.38-2.81,3.66-2.73,5.47-4.11-3.06-6.18-7.71-2.26-15.06-2.74,2.09,5.27,1.33,2.71-2.74,1.37,2.06,4.38,6,12.44,11,9.59-1.24-4.61-3.06-.16-5.48-2.74,1.84-3.91,7.19,0,6.85,2.74C756.89,264.71,756.78,261.41,759.57,261Zm-123.23-8.22c-2,3,1.82,11.82,8.21,11C642,259.91,638.66,256.86,636.34,252.79Zm172.52,4.11c-0.25-1.17.54-1.29,1.37-1.37-3.12-4-2.58,1.74-1.37,4.11,1.95-.12,3.88-0.23,4.11,1.37,2-.6-0.54-1.75,0-4.11h-4.11ZM828,258.27c2.19,2.38,6.17,3,11,2.74C837.1,255.39,834,258.16,828,258.27Zm72.57,0c1.29,2.9,6.66,8.77,6.85,1.37C904.16,260.2,904.48,257.14,900.61,258.27Zm-132.82,1.37c-1.38,4.12,3,2.43,5.47,2.74a6.45,6.45,0,0,0-1.37,4.11C779.57,266.42,773.1,258.68,767.79,259.64Zm-35.6,4.11c3,4.86,10,1.47,15.06,5.48C745.49,263.79,736,258.93,732.19,263.75Zm0-1.37c-0.33-2-11.27-3.18-9.59,1.37C726.92,264.41,727.44,261.28,732.19,262.37Zm-43.82,2.74c1.09-3.16,9.18,3.5,8.21-4.11-3.13,1.43-8.26.87-11,2.74,1.24,2.39,3.06,5.27,5.48,2.74C691.07,265.15,689.43,265.42,688.37,265.11Zm-4.11-2.74c-3.68-4-7.57,3.3-11,4.11C675.62,272.48,680.68,263.56,684.26,262.37Zm24.65,0c3.36,2.58,6.69,5.17,12.32,5.48C718.77,264.38,714,263.2,708.91,262.37Zm-4.11,0c-2.61.59-3.44,3-6.85,2.74V272c6.51-.12,5.21,7.57,9.59,9.58-2.6-3.29,2-8.16,2.74-12.32,2.63,0.15-1.61,4.59,0,8.21,3.3-.63,2.9-7.52,9.59-4.11C715.86,267.75,709.37,269.3,704.8,262.37Zm-50.66,6.85c0.48,1.8,2.41,2.15,2.74,4.11C662.77,270.86,659.12,266.11,654.14,269.22ZM845.83,272c0.89,1.39,3.15,1.42,2.74,4.11,5.1,1.45,4.42-2.88,6.84-4.11-0.15-3.5-4.58-2.72-8.21-2.74C851.25,272,852.28,274.29,845.83,272Zm-113.65,0c1.91,0.48.12,2.41-1.37,2.74,2.9,2.17,7.24.27,12.32-1.37-3-2-7.71-2.33-12.32-2.74C730.43,273,732.11,273.4,732.19,272Zm-93.11,2.74c4.83,0,10.24,2.65,16.43,1.37C653.71,270.41,642.65,271.23,639.08,274.7Zm249.21,1.37c-3-3.27-12.44.55-17.8,2.74,8.86,2.59,17,.33,23.28,4.11-1-2.79-4.12-5.59-6.85-2.74C886.8,278.23,886.69,276.3,888.28,276.07Zm-127.34,4.11c2.61-1-1.48-2.13-1.37,0-1.72-.34-1.38-2.72,0-2.74q-1.75-3-6.84-2.74c2.84,3.61,3.61,2.89,4.11,6.84C759,281.93,759.19,280.25,760.94,280.18Zm-13.69-4.11c2,1.16,2,4.41,2.74,6.85,3-.58,1.07-7.26,0-8.21-2.21-.39-2.36,1.29-4.11,1.37C746.14,277.62,747.25,276.83,747.25,276.07Zm-32.86,1.37c2,1.61,1.61,5.69,5.47,5.48Q720.81,276.49,714.39,277.44Zm17.8,4.11c-4.84,5.06,6.45,7.74,6.84,8.21C743.76,285.39,734.14,283.78,732.19,281.54Zm-71.21,0c-1.59,1.15-3.67,1.81-6.84,1.37C654.89,287.4,661.77,288.36,661,281.54Zm221.82,12.33c1.92-4,4.72,2.42,8.21,1.37-1.13-3.87,1.93-3.54,1.37-6.84-1.38.41-17.63-11.91-20.54-1.37,3.87-1.13,3.55,1.93,6.85,1.37-3.34,3.69-8.93-1.95-15.06,0,5.35,5.15,14.6,6.4,23.28,8.21C886.51,291.84,883.21,296.72,882.81,293.87ZM839,292.5c2,2.12,5.34,2.88,9.59,2.74-0.74,6.35-5.34,2.55-9.59,2.74,1.66,5.28,6.38-1,6.84,5.47,3.09-.76-1.66-2.14,1.37-4.11,1.11,0.26,1.37,1.38,2.74,1.37-0.58,2.62-.5,5.89-4.11,5.48,1.32,2.78,5.26,3,9.59,2.74,0.73-4.75,3.67-7.29,4.11-12.32,1.39,0.89,1.42,3.15,4.11,2.74-4.48,1.46-3.59,8.28-8.21,9.59,2.71,2.77,11.15-.19,9.59,6.85,2.46,0.17,2.89-1.68,5.48-1.37-4.92-5.13-4-16.12-8.21-21.91-3.51,2.9-2.42,1.39-5.48,1.37-2-.6.54-1.76,0-4.11-4.18,1.13-3.28,3.85-8.21,1.37C854.3,284.76,843.86,293.14,839,292.5Zm-26,6.84c1-3.72-6.46,1-5.48-2.74,1.26-3.73,4.28,1.91,8.21,0-2.21-5.55-7.38-8.14-15.06-8.21,0,3.22-2.36,4-1.37,8.21,3.23,1.76,2.54-.18,6.84,1.37-6.44,2.75.21,3.35-4.11,8.21C806.05,304.29,807.2,299.51,813,299.34Zm-124.61-9.59a12.69,12.69,0,0,0,8.21,5.48C696.41,290.86,693.48,289.21,688.37,289.76Zm231.41,2.74c-4.61,3.82,2,7.92,4.11,9.59,3.44-1.38-1.09-6.06-4.11-5.48C921.42,294.81,920.31,294.45,919.78,292.5Zm-215,1.37c1.16,4.89,3.37.16,8.21,1.37C711.86,292.62,707,291.53,704.8,293.87Zm209.5,24.64c-2.55-.19-4.57-0.9-5.48-2.74-4.85,4.06,6.48,3.47,5.48,8.21,1.55-.26.76-1.38,0-1.37-0.76-3,2.62-1.95,2.74-4.11-3-9.89-7.91-15.15-13.69-24.64-3.9,2-7,4.88-6.84,11,3.54-2.47,4.3.42,2.74,4.11,6.57-1.36,12.53,5.76,8.22,4.11C910.07,314,913.43,313.56,914.3,318.52Zm-28.76-17.8a76.13,76.13,0,0,0-19.17-6.84c0.35,8.32,3.53,13.81,5.47,20.54C880.37,311.07,886.63,312.59,885.54,300.71Zm-243.73,5.48c5.82,3.94,15.53.06,20.54-1.37-2.14-1.86-8.22-2.76-4.11-6.84,2.42,1.22,1.75,5.56,6.84,4.11C659.31,288.69,646.94,299.72,641.82,306.19Zm72.57-9.59c2.47,2.09,4.19,4.93,9.58,4.11C720.65,297.87,722.72,297.1,714.39,296.61ZM704.8,298c-3.68,2,5.72,6.56,8.21,2.74C713.24,296.84,704.58,301.85,704.8,298ZM917,299.34c1.18,3.87,7.55,14.34,16.43,15.06C930.21,307.17,920.31,306.57,917,299.34Zm-232.77,0c-2.41.33-3.12,2.36-2.74,5.48,2.69,1.87,7.82,1.31,11,2.74C691.56,303,686.31,302.78,684.26,299.34Zm-38.34,1.37c-2.62-3.85-7.14,1.88-11,1.37C637.78,309.74,641.05,302,645.92,300.71Zm20.54,9.59c-3.74-1.24,4.17-3.06,0-5.48q-3,1.75-2.74,6.85c2.45-.18,2.89,1.67,5.48,1.37v-4.11C667.61,308.71,666.76,309.23,666.46,310.3Zm152-1.37c-0.34-1.49-2.72-.93-2.74-2.74a12.32,12.32,0,0,0-5.48,5.48C808.11,312.75,815.16,310.76,818.45,308.93Zm-38.34-2.74c-1.22.84-2.45,1.65-2.74,0-3.89,1.82,1.06,6.09,1.37,8.21C781.77,314.24,779.32,308.6,780.11,306.19Zm-91.74,2.74c-2.42,2.57-4-1.63-6.84,1.37-0.8,4.91,4,4.16,8.21,4.11C689.91,312,688.07,311.52,688.37,308.93Zm-45.19,8.21c0-1.33,1.68-1.06,2.74-1.37a61.3,61.3,0,0,1,2.74,6.84c1.32-5.2.59-3.36,8.21-2.74-6.54-3.45.51-3.89-4.11-8.21,3.43-.24,4.29,2.1,5.48,4.11q3-1.75,2.74-6.85a3.78,3.78,0,0,0-2.74,4.11c-1.12-3.44-6.25-2.88-11-2.74,3.44,3.32-2.76,3-5.47,4.11-0.06,4.17,2.89,5.32,4.11,8.21C648.53,322.49,645.07,317.28,643.18,317.14Zm202.65,8.22c1.1-3.31,5.64,4.3,8.21,0a3.78,3.78,0,0,1-4.11,2.74c1.22,2.87,7.65-.44,6.85-4.11-2.21.38-2.36-1.29-4.11-1.37,0.6-2,1.75.54,4.11,0v-6.84c-5,.9-5.25-3-9.59-2.74a6.44,6.44,0,0,0-1.37,4.11c-3.84-1.34,2-3.65-1.37-5.47-4.18,1-5-1.4-8.22-1.37,1.09,3,2.75,5.47,6.85,5.48-0.76,2.79-4.12,2.68-1.37,5.47,1.33,0,1.06-1.67,1.37-2.74,3.17,2.85-1.53,5.78,2.74,8.21C847.39,326.47,846.59,325.36,845.83,325.36ZM637.71,311.67c-0.59-3.06-6.75-.56-9.59-1.37C629.37,315.5,633.63,311.3,637.71,311.67ZM662.35,313c0,1.33,1.68,1.06,2.74,1.37,0,1.33-1.67,1.06-2.74,1.37,0.49,1.57,2.41,3.47,2.74,1.37,1.61,0.22,1.16,2.5,1.37,4.11,1.22-1.06,3.09-1.47,5.48-1.37a6.45,6.45,0,0,1-1.37-4.11C665.46,317.24,666.67,312.38,662.35,313Zm241,4.11c-2.72-.21,11,10.46,8.22,15.06,3.11,1,7,1.22,9.58,2.74-6.67,4.91,10.71,5.08,12.33,0q1.23,5.34-4.11,4.11c2.47,2.09,4.19,4.93,9.59,4.11-3.41-10.75-14.34-14-19.17-23.28-1.22.61-2.45,1.2-2.74,2.74v2.74c4.6-2.53.68-.17,1.37,4.11-1.8-1.64-2.15-.53-4.11,0C917.07,325.06,907.48,322.1,903.34,317.14Zm-95.85,2.74c3,3.14,2.64,3.18,5.48,8.21h2.74C815,323.29,813,319.9,807.5,319.89Zm11,2.74c-0.5-2.33,1.07-2.58,2.74-2.74-0.89-1.39-3.15-1.42-2.74-4.11-3.3-.56-3,2.5-6.84,1.37C813.15,319.71,813.23,323.74,818.45,322.62Zm-145.14-6.84c-0.47,5.88,5,3.7,8.21,2.74C680.27,316.12,677.25,315.49,673.31,315.78Zm225.92,9.59c-3.47,1.08,3.85,4.79,0,6.84-1.6-3.42-4.78-5.27-4.11-11-5.89-1.41-12.12-2.48-17.8-4.11a6.45,6.45,0,0,0-1.37,4.11c-2.72,0-1.74-3.73-5.48-2.74-1,6,2.72-1.1,2.74,2.74-1.24,3.71-5-1.15-5.48-2.74-3.58,4.56,7,6.62,11,8.21-2.51,2.86-11.51.64-11-4.11-2.73,12.45,9.17,7.29,15.06,13.69,1.84-.9,2.55-2.92,2.74-5.48,2,1.16,2,4.41,2.74,6.85,7.51-1.86,12.74,3.73,16.43,1.37,0.42,5.59-2.86.73-5.48,1.37-0.2,1.82,4.61,5.1,1.37,5.48,0.42,1.86,3.43,1.14,5.48,1.37,2.79-3.24-2.49-6.73,5.48-5.48-4.52-1.88-3.82-9-9.59-9.59C907.6,331.41,901.32,329.33,899.24,325.36Zm-37-6.85c-5.21-1.1-1.74,6.47-2.74,9.59,2.46-.17,2.89,1.67,5.48,1.37C865.46,324.45,863.49,321.86,862.27,318.52Zm-156.1,1.37c-7.95-3.36-16.77,4.19-24.64,5.48,4.62,8.5,14.35.5,20.54-1.37-0.22-1.61-2.5-1.15-4.11-1.37C700,318.24,703.86,322,706.17,319.89Zm26,8.21c1.13,3.87-1.93,3.54-1.37,6.84,3.17,0.44,5.26-.22,6.84-1.37,0.39-2.21-1.29-2.36-1.37-4.11,4.21,5.57,7.14-1.64,11-4.11C745.27,323.92,738.8,329.63,732.19,328.1Zm1.37-2.74c3.75,3.66,10.79-1,12.33-4.11C742.88,318.35,736,323.13,733.56,325.36ZM776,321.25c0.09,3.69,3.13,6.58,5.48,4.11C781.89,321.75,779.58,320.87,776,321.25Zm-30.12,12.33c1.55,0.26.76,1.37,0,1.37,0.9,4.1,2.92-1.31,5.47,0-0.37-2.67,2.53-11.92,2.74-5.47,4-1.92-2.43-4.72-1.37-8.22-3.79,3.06-5.1,8.59-9.59,11C743.63,333.78,745.55,335.68,745.88,333.58Zm89-9.59q-6.44-1-5.48,5.48C832,327.61,835.48,331,834.88,324ZM688.37,348.64c1.22,0.61,2.45,1.2,2.74,2.74,9.87-3.66.79,0.37-1.37-4.11,2.62,0.33,6.07-3,11-4.11,1.31-5.53,1.14-12.55,5.47-15.06-6-2.14-16,10.09-13.69,16.43-1.59.23-2.43-.3-2.74-1.37C687.68,344.35,690.12,345.21,688.37,348.64Zm169.79-19.17c-3.78,3.42,4.92,6,6.85,8.21C869.73,333.31,860.11,331.7,858.16,329.47Zm-142.4,1.37c-0.44,5.16-9.25,1.36-8.21,13.69,1.61-.22,1.15-2.5,1.37-4.11a6.44,6.44,0,0,0,4.11,1.37c-0.61-1.22-1.2-2.45-2.74-2.74,2.05-3.19,3.35-2.09,6.85-1.37C718.15,334.52,722.58,331.31,715.76,330.84Zm-21.91,2.74c-3-2-9.31,4.33-9.59,9.59C690.36,342.87,689.89,336,693.85,333.58Zm-57.51,2.74v-4.11c-4.89,3.19-8.56.25-13.69,4.11C627.86,340.16,630.84,334,636.34,336.32Zm231.4-2.74q0.25,5.22,5.48,5.48Q874.17,332.62,867.74,333.58Zm-27.39,1.37c3.64,4.58,10.25,6.18,15.06,9.59C857,334.19,847.27,339.14,840.36,334.94Zm-100,0c-1.86.43-1.14,3.43-1.37,5.48-2.92.64-2.61-2-2.74-4.11h-6.85c0.55,3.56,4.09,4.13,4.11,8.21,4.8-3.28,6.2-1.82,12.33-2.74C746.92,336.64,738.61,340.85,740.4,334.94ZM876,336.32c-0.94,4.59,2.29,5,5.47,5.48C879.82,339.76,880.25,335.68,876,336.32ZM728.08,348.64c-2.87-.43-3.61-2.35,1.37-4.11-2.13-2.89-2.45-7.59-6.84-8.21,5.82,7.79-6,11.94-11,6.85-0.15,3.41-2.56,4.24,0,6.84-5.43,1.33-4.25-4-5.48-6.84-2.79.4-2.68,3.7-5.47,4.11,7.26,3.69,14.62,7.29,17.8,15.06C723.34,359.41,720.85,349.17,728.08,348.64Zm-57.51-11c2.42,4.21,5.79,2.28,8.21,4.11,1.17,0.25,1.29-.53,1.37-1.37v-2.74C676.28,339.11,674.45,339.11,670.57,337.69Zm219.08,1.37c-2.58.15-.95,4.53-4.11,4.11,1.65,3.83,9.84,1.12,12.33,4.11,3.28-2.05-2.17-6.85-5.48-6.85v4.11C890.55,343.63,889.84,341.61,889.65,339.06Zm-227.3,0h-5.48C655.8,344.33,663.43,344.33,662.35,339.06Zm198.54,1.37c0.84,1.22,1.65,2.45,0,2.74,1.26,3.73,4.28-1.91,8.21,0C867.85,340.77,864.83,340.14,860.9,340.42Zm-241,9.59a12.7,12.7,0,0,0,5.47-8.21c2.84,2.48-2.4,8.47-4.11,11,1.37,4.57,7.13,4.74,8.21,9.59,3.29-2.91,2.4-5.1,1.37-8.21h6.85c0.77-4.7,2.57-8.38,5.47-11C635.15,342,621.22,336,619.91,350Zm210.87,2.74c-3.24,2.32-7.76,2.39-11,1.37,1.85,5.65,7.68.2,11,2.74-0.18-2.46,1.67-2.89,1.37-5.48,1.82,3.36,4.13-2.47,5.48,1.37,1.55-.26.76-1.37,0-1.37,0.22-1.61,2.5-1.15,4.11-1.37-1.88-5-6-7.71-12.32-8.21C833.73,350.33,825.47,347.88,830.78,352.74Zm-8.22-11c-2.7.95-3.65,3.65-4.11,6.84,3.62-2.15,4.25-1.52,2.74,2.74,1.11-.26,1.37-1.38,2.74-1.37,1.16-.25,1.29.53,1.37,1.37C829.55,347.43,818.43,346.46,822.56,341.79ZM658.25,345.9c-2.06-1.94-5.91-5.07-8.21-2.74-0.64,2.92,2,2.61,4.11,2.74-5,3.21-7.69-.34-13.69,5.48C648,353.6,650.86,347.76,658.25,345.9Zm257.42,1.37v-2.74a6.44,6.44,0,0,0-4.11-1.37v4.11c-1.8-1.64-2.15-.53-4.11,0C909.14,351.43,912.16,345.79,915.67,347.27ZM881.44,376c2.89,3.51,10.1,2.68,16.43,2.74,6-7.82,8.15-15.85,2.74-26-6.51,1-15.69-7.91-27.39-9.58,0.22,1.59-.3,2.43-1.37,2.74,2.78,1.78,3.27,5.86,5.48,8.21-9.76,3.66-6.63-7.77-16.43-8.21,1.25,2.4,4.8,2.51,6.84,4.11-0.38,3.23-5.1-.13-5.47-1.37-4.07,2.84,5.82,10.47,0,15.06,1.53,2.12,4.45,2.85,4.11,6.85a29.63,29.63,0,0,1,12.32,1.37,6.44,6.44,0,0,0-1.37,4.11c3.49-2.64,7.3-3.44,9.59,1.37C885.7,376.33,883.82,375.92,881.44,376Zm-41.08-32.86c4.69,7.63,9.13,15.52,13.69,23.27h6.85v-9.58c-1.22,1.06-3.09,1.47-5.48,1.37,0.28-1.86-3.27-9.71,1.37-11C851.38,342.89,847.37,344.37,840.36,343.16Zm-39.71,1.37c-4.24-2.81-8.07,6.49-6.84,13.69a6.44,6.44,0,0,1,4.11-1.37C798.62,349.11,795,350.06,800.65,344.53Zm-41.08,12.33c1.86,1.34,1.77,4.61,4.11,5.47-2.48,1.17-3.78,3.53-6.85,4.11,3.63,1.66,7.79-3.36,12.32-2.74,0.39-2.21-1.29-2.36-1.37-4.11,0.58-2.67,3.91,2.24,2.74-4.11,1.86,0.42,1.14,3.43,1.37,5.48,2.7-2.32,3.67-6.37,4.11-11-4.25.14-3.91-4.31-9.59-2.74-0.38,2.21,1.29,2.36,1.37,4.11-4.22,1-2.63-3.76-6.85-2.74,0.14,4.25-1.67,6.54-2.74,9.59-2.59-1.8-1-11,2.74-11-2.25-3.91-7.43.65-9.59,1.37,1.44,5.72-2.88,9.28,0,12.33C755.33,355.75,758.15,364.61,759.57,356.86ZM928,358.22c-2.89-2,1.8,3.33,4.11-1.37,1.16-.25,1.29.53,1.37,1.37,5.75,1-8.6-6.14-5.48-6.84q-1.75-3.05-6.85-2.74C921,353.43,931.59,354.53,928,358.22Zm-9.59-9.59c-3.3-.56-3,2.5-6.84,1.37,2.73,4.57,5.08,9.52,13.69,8.21C924,354,918.59,353.93,918.41,348.64ZM900.61,350c1.46,3.55,8.12,1.92,9.59,5.48C912.63,353.4,905.8,349,900.61,350Zm-168.42,0c-1.56.26-.76,1.38,0,1.37-0.33,3.53-2.36-1.88-5.48,0-0.1,4.33-5.55,7-5.48,15.06C724.24,360.92,734.93,356.83,732.19,350ZM698,351.38c6.47,2.48-.59,2.92,4.11,8.21,6.17-1.74,11.11,1.44,15.06,5.48C717.17,360.23,705.77,348.43,698,351.38ZM844.47,361c5.51-1.44-.75-6.19-1.37-9.59-2.63,2.85-7.91,3-9.59,6.84C835.58,360.28,842.57,356,844.47,361Zm-186.22-8.22c-3.3-3.21-8.33,3.47-11,5.48C651.41,362.25,656.15,355.27,658.25,352.74Zm38.34,0c-1.27,1.46-5.05.43-4.11,4.11a6.45,6.45,0,0,1,4.11-1.37c0.51,2.33-1.07,2.58-2.74,2.74C696.28,362.87,700.1,354.54,696.58,352.74Zm-79.42,0a6.44,6.44,0,0,1-4.11,1.37c0,1.33,1.68,1.06,2.74,1.37,0,1.33-1.67,1.06-2.74,1.37,1.25,2.4,2.54,4.76,6.85,4.11C619.12,358.1,616.51,357.05,617.17,352.74Zm49.29,4.11c-1.19-4-2-1.54-5.48-1.37,3.84,5.26.55,3-1.37,8.21C665.14,362.41,662.52,357,666.46,356.86Zm68.46,1.37c-3.48-.61-6,6.32-11,8.21,0.42,1.86,3.43,1.14,5.48,1.37,0.56-2.31,3.58-9,5.48-5.48,3,0.23.62-4.85,1.37-6.84C734.72,356,732.82,357.9,734.93,358.22Zm-87.64,4.11c4.93,0.15-14.14-2.78-5.47-5.47-3.71-4.06-6,4.85-9.59,5.47,3.58,3.27,7.55,6.15,13.69,6.85C641.39,367,643.65,363.54,647.29,362.33Zm-26-6.84c-2.34.69-.65,8.74,4.11,6.84C625.6,358.46,621.27,359.14,621.28,355.49ZM802,356.86c-1,7.75,4.67,4.34,8.21,2.74C810.08,356.1,805.65,356.88,802,356.86Zm-23.28,0c-2.33,5-6.92,7.68-9.59,12.32,4.32,0.67,4.84-2.47,9.59-1.37C773.7,363.72,780.34,364.39,778.74,356.86Zm126,1.37c2.12,2,1.21,7,1.37,11,7.85,1.73,7.68,11.49,19.17,9.59C918.39,371.93,916.77,359.86,904.71,358.22Zm-162.94,1.37c1.26,6.5,6.36,9.16,6.85,16.43C756.29,372.45,749,355.69,741.77,359.59Zm-52-1.37a30.85,30.85,0,0,0-8.21,2.74c1.49,4.49,6.2,6.57,8.21,6.84C693.13,366.49,687.85,362.55,689.74,358.22Zm-19.17,8.21c1.16,0.26,1.29-.53,1.37-1.37,1.55,0.26.76,1.37,0,1.37,3,3.76,6.29-1.36,9.59,1.37-2.79-4.37-3.38-3-4.11-8.21C675.12,361.86,669.38,360.68,670.57,366.44ZM669.2,361c-2.66-.78-9.7,5.77-13.69,8.21C661.08,372.6,667.89,368.65,669.2,361Zm27.38,1.37c0,2.28,0,4.56,0,6.85,1.59-.22,2.44.3,2.74,1.37C703.55,368.46,702,362,696.58,362.33Zm12.33,2.74a6.44,6.44,0,0,1,1.37,4.11c1.33,0,1.06-1.68,1.37-2.74,1.8,1.64,2.15.53,4.11,0C714.51,364.06,711,362.9,708.91,365.07Zm28.75,0c-4.17,4-10.36,6.06-15.06,9.59,1.16,2.94,3.37,4.84,8.21,4.11C731.33,372.43,736.07,370.32,737.66,365.07Zm86.26,1.37c0.59,2.61,2.95,3.44,2.74,6.85C831.74,372.27,828.31,365.89,823.93,366.44Zm102.69,1.37c0.28,5.2,8.49,2.46,8.21,8.21,3.3,0.56,3-2.5,6.85-1.37C936.84,372.2,932.34,369.4,926.62,367.81Zm-20.54,2.74c-2.52,2.9-4.72,4-2.74,8.21,4.84-2.32,4.81,0,11,0-0.49-1.8-2.41-2.15-2.74-4.11-3.23,0-4,2.36-8.22,1.37C903.36,373.31,907.08,374.28,906.08,370.55Zm-275.22,6.84c3.7,6.42,8.77-1.4,8.21,5.48,1.74-3.28,6-4,5.48-9.59C639.63,369.53,631.5,369.84,630.86,377.39Zm38.34-4.11c0.61,4,10.35-1.22,11,2.74C683.67,372.57,672.77,370.4,669.2,373.29ZM776,380.13c3.2-.35.79-6,0-6.84-1.22.84-2.45,1.65-2.74,0C769,375.49,776.07,377.62,776,380.13Zm-134.19,2.74c1.82,3.2,6.12,3.92,9.59,5.48,2.47-2.09,4.19-4.93,9.58-4.11,0.13-4.23-4.13-4.08-8.21-4.11C659.4,373.25,646,378.47,641.82,382.87Zm17.8-5.48c-1,3.74,2.72,2.76,2.74,5.48,4.75,1.1,5.26-2,9.59-1.37,0-1.33-1.67-1.06-2.74-1.37a6.44,6.44,0,0,0,1.37-4.11h-6.84C668.27,380.13,664.5,377.54,659.62,377.39Zm158.83,1.37c-0.42-2.9-4.75,1.44-4.11,4.11,5.12,1.46,3.91-3.4,8.21-2.74C822.94,376.39,814.38,382.56,818.45,378.76Zm19.17,1.37c-0.28,7.15,4,8.21,8.21,12.33C849.77,386.45,839.74,384.45,837.62,380.13Zm-4.11,0a6.44,6.44,0,0,1-4.11,1.37c1.24,2.41,5,2.26,5.48,5.48C838.6,385.73,833.49,382.18,833.51,380.13Zm98.59,2.74c1.39,2.27,5.81,1.49,8.21,2.74,0.26-1.16-.53-1.29-1.37-1.37,0.6-2,1.75.54,4.11,0C941.91,381.11,934.64,380.49,932.1,382.87ZM917,381.5c-4.05,2.4,5.25,2.84,4.11,6.85,2.72-2.28,1.74.12,5.48,0a6.46,6.46,0,0,1-1.37-4.11C921.32,384.52,918.3,383.89,917,381.5Zm-23.27,0c-3.74-1-2.76,2.72-5.48,2.74,1.25,2.38,4.79,3.54,6.84,1.37A6.44,6.44,0,0,1,893.76,381.5Zm-37,0c-1,4.21,3.76,2.63,2.74,6.85C864.87,387.07,860.34,381.79,856.79,381.5Zm-164.31,0c-3.94.16-9-.75-11,1.37C682.19,384.76,693.87,386.2,692.48,381.5Zm204,1.37c-0.43,6.22,3.47,8.29,8.21,12.32C903.8,394.68,903,382.32,896.5,382.87ZM689.74,387c-0.26-1.55-1.38-.76-1.37,0-8.52-2-14.34-4.07-17.8,4.11C678.63,393.79,683.86,390.35,689.74,387ZM928,385.61c3.66,5.09,2.25,6.8,8.21,9.59C938,392.91,931.65,387,928,385.61Zm-43.82,0c-1.56.26-.76,1.38,0,1.37,0,1.33-1.68,1.06-2.74,1.37,8.47-.58,8,7,15.06,6.84-1.7,4.75-4,2.52-6.85,4.11q0.25,5.22,5.48,5.48c-1.16,4-3.44-1.78-6.84,0,0.86,5.54,7.78,5,12.32,6.84-0.21-3.86,3.87-3.43,5.48-5.47C902.06,396,894.43,389.5,884.18,385.61Zm5.47,13.69c-2-2.13-2.88-5.33-4.11-8.21-3.51-1.49-6.53,4.16-8.21,0-3.5,1.85,3.31,4.78,2.74,8.21,2.76-.9,4.63-0.31,5.47,2.74C887.34,401.56,887.7,399.63,889.65,399.3ZM938.95,387c1.32,2.79,5.26,3,9.58,2.74C948.34,385.8,942.82,387.22,938.95,387Zm-123.24,0c-3,2,1.72,3.34-1.37,4.11,2.27,3.67,6.95,4.92,9.59,8.21,3-1.06,5.34-2.88,9.59-2.74-4.59-1.52-7.11-7.89-11-2.74-4-1.19,3.18-2,1.37-5.47C819.74,389.34,818.94,386.95,815.71,387Zm-21.91,1.37v2.74h6.84C800.32,389,795.56,384.53,793.81,388.35Zm-76.68,6.84c-0.59,2.61-2.95,3.44-2.74,6.84,4.75,1.1,5.26-2,9.58-1.37C723.5,397,720.38,396.05,717.13,395.19Zm2.74,0c4.33,1.88,4.58.3,9.59,0,0.95-7.66-5.77.84-5.48-5.48C722,390.91,719.63,391.76,719.86,395.19Zm153.36-4.11c-3.81,2.9-.95,4-2.74,8.21C876.09,398.46,873.23,395.54,873.22,391.09Zm-128.71,2.74c1.83-1.65-13.32,1.75-12.32,8.21C739.43,402.43,739.43,395.59,744.51,393.82Zm65.72,9.59c-1.47-3.55-4.95-5.09-5.48-9.59H792.43c0.81,5.83-1,9.06-1.37,13.69C798.73,407.43,802.67,403.61,810.23,403.41Zm-75.31,15.06c6.12,3,8-5.34,13.69-6.85C742.94,405.67,737.68,413.68,734.93,418.47Zm16.43-4.11c-3-2.88-8,3.79-11,5.47C745,426.46,747.48,416.43,751.36,414.37Zm-19.17-2.74c10.31-.84,16.26-12.68,17.8-17.8-4.22-1-2.64,3.76-6.85,2.74C747,403.06,731.38,400.71,732.19,411.62Zm78-13.69c0,2.72,3.74,1.74,2.74,5.48h9.58C819.2,400.83,815.86,398.24,810.23,397.93ZM713,404.78a6.47,6.47,0,0,1,1.37,4.11c4.69,0.5,11.74-3.67,12.32-2.74C728.63,399.82,720,405.23,713,404.78Zm-1.37,6.84v5.48c2.27-1.86,8,1.12,13.69,0,0.63-6.2-1.43-3.83,2.74-9.59C722.18,408.46,719.94,413.07,711.65,411.62Zm199.92-11c-1.92.48-.12,2.41,1.37,2.74-0.22,1.61-2.5,1.15-4.11,1.37,1.24,2.41,5,2.26,5.48,5.48C915.49,407.51,913.73,404.59,911.56,400.67ZM863.64,402c-3.33-2.91,1.53,2,2.74,2.74-0.25,2.31-6.51-.64-5.48-4.11-3.66,5.93,7.16,10.31,12.32,8.21,0.38,2.45-1.29,2.81-1.37,1.37-3.41,4.4,8.45,5.19,9.59,9.58C879.45,411.24,873.36,409.16,863.64,402Zm-110.91,8.22c1.11-.26,1.37-1.38,2.74-1.37,2.19-6.57-5.81-1.16-1.37-5.48-0.34-1.49-2.72-.93-2.74-2.74-2.42,2.16-8.39,4.9-5.47,8.21C747.93,406.72,751.48,407.88,752.73,410.26ZM828,418.47c2.48,3.08,6.92,3.22,11,1.37-1.06-1.22-1.47-3.09-1.37-5.47-1.59.22-2.44-.3-2.74-1.37-6,7.12.19-6.24-8.22-5.48-0.81,4.75-6.76,3.38-9.58,2.74,3.1,5.15,3,17.57,11,13.69C825.76,421.23,828.16,422.21,828,418.47ZM813,410.26c-0.32,5.33,2.94,7.1,4.11,11C818.1,420.55,817.3,410.12,813,410.26Zm-2.74,0c-4.71-.6-7.68.54-11,1.37,2.9,3.94,10.15,3.55,12.32,8.21C815.08,418,809.59,413.76,810.23,410.26ZM763.68,413c-1.56.26-.76,1.38,0,1.37-0.22,1.6-2.5,1.15-4.11,1.37,0.64,9,1.34,9.55,8.22,12.33-1.64-1.57-.53-3.47,0-1.37,3.72,1-1-6.45,2.74-5.48C769.11,417.61,765.1,416.6,763.68,413Zm98.59,5.48c-1.56.26-.76,1.37,0,1.37-2.59,3.38-6.21-3.74-9.59-4.11C847.16,420.93,867.55,429.07,862.27,418.47Zm-71.21-2.74c9.81,8,15.3,20.3,26,27.39-0.39-2.44,1.29-2.81,1.37-1.37,3.06-.59.56-6.75,1.37-9.59-2.79.76-2.68,4.12-5.48,1.37,0.9-1.84,2.93-2.55,5.48-2.74C811.48,425.25,806.43,417.07,791.06,415.73Zm-84.89,6.85c2,1.68-4.51,6.37-9.59,5.48,0.59,2.61,3,3.44,2.74,6.84,3.89-1.93,8.13,1.93,8.21-5.48,6.12,2.05,6.85-1.2,12.32-2.74,0.23-3-4.86-.62-6.84-1.37,1.25-2.4,4.79-2.5,6.84-4.11-13.49-6.19-24.83,7.72-37,1.37-0.88,5,6.52,1.69,6.84,5.48C693.94,423,701.12,427.87,706.17,422.58ZM876,421.21c-0.8,8,3.59,8.75,9.58,6.85C883.52,424.6,880.25,422.4,876,421.21Zm-43.82,6.85a6.92,6.92,0,0,1,4.11-4.11c-1.21-2.87-7.64.44-6.84,4.11,4.31-.66,3.1,4.2,8.21,2.74v-4.11C835.16,426.51,834.73,428.36,832.14,428.06Zm-168.42-5.48c4.95,8.24,22.5,9.79,31.49,9.59C693.93,428.62,674,425.59,663.73,422.58Zm183.48,9.59c-2.58-.25-5.62,2-1.37-4.11,0.42-3.16-4-1.52-4.11-4.11-3.34,10,9.56,23,19.17,28.75-3-6.56-7.61-11.56-11-17.8-2.86-.58-3.62.94-5.47,1.37A3.73,3.73,0,0,1,847.21,432.17ZM739,428.06c-4.36.66-5.73,4.31-11,4.11C730.58,435,739.6,432.8,739,428.06Zm112.28,1.37c1,7.2,5,11.4,8.21,16.43C859.79,442.81,856.66,431.42,851.31,429.42Zm-102.69,0c-0.08,4.59,10.71,9.28,11,1.37C754.5,431.77,753.7,428.46,748.62,429.42Zm-75.31,1.37c-7.2,5.81,19.65,5.81,21.91,6.85C694,431.67,677.7,437.06,673.31,430.79Zm195.8,1.37c-1.84,4.13.63,8.45,5.48,9.59C875.13,436.19,874.09,432.21,869.11,432.17Zm-11,1.37c0.59,2.61,3,3.44,2.74,6.85C866,439.36,862.55,433,858.16,433.53Zm-20.54,2.74c-1.2-1.27-6.46-2-8.21-2.74-4.53,2.05,2.85,3.35,1.37,6.85-6.66-5.55,2.55,5.46,2.74,9.59C838.46,449,834.15,438.73,837.62,436.27Zm47.92-1.37c-3.72,1.25,3.65,2.54,1.37,6.85h5.48C891.43,438.14,886.16,438.86,885.54,434.9Zm-61.62,0c-4.95-1.3-1.91,5.39-2.74,8.21,3,0.76,1.95-2.61,4.11-2.74C822.76,437.74,822.79,439.3,823.93,434.9Zm16.43,1.37c-2.42,3.86-1.69,22,4.11,26,4.9-.65,7.91-2.23,12.32,0C855.57,452.4,846.91,446.13,840.36,436.27Zm27.39,1.37c-3,.2-2.94,3.45-2.74,6.84,1.59,1.15,3.67,1.81,6.84,1.37C871.31,442.3,867.77,441.73,867.74,437.64Zm-112.28,4.11A30.77,30.77,0,0,1,758.2,450c5.63-.3,3-8.89,9.59-8.21C765.69,437.21,760.92,440.3,755.46,441.75Zm-41.07,0a6.47,6.47,0,0,1,1.37,4.11c5.3,1.19,4.87-3.35,8.21-4.11C723.41,437.12,717.46,441,714.39,441.75Zm164.31,0c-2.17,2.78-.79,28.08,8.21,28.75-0.42,1.86-3.43,1.14-5.48,1.37,1.64,3.84,5.82,5.14,6.85,9.59,5.37-3.19,5.09,1.67,11,1.37-6.12-7.71-7.53-27-16.43-27.38C886.42,450.49,878.33,447.77,878.7,441.75ZM698,443.12c-2.46-2.81-7.21,3.66-12.32,2.74,3.9,4.77,12.47,4.87,19.17,6.84,1-3.74-2.72-2.76-2.74-5.48,6.5-.65,1.52,1.71,4.11,4.11,4.31,0.66,5.35-1.95,8.22-2.74C711.24,443.26,694.61,447.51,698,443.12Zm-11,0c-2.9-2.16-6.72.25-11,2.74C677.37,448,684,443.88,687,443.12Zm206.76,0h-5.48c1.4,5.9,6.88,7.73,11,11-1.51-2.59-1.75-6.47-2.74-9.59C894.38,447.79,893.62,450.34,893.76,443.12ZM739,451.33c-4.85-.15,2.91-4.53-1.37-4.11-7.36,9.48,18.62,9.41,16.43-2.74C748.82,441.66,739.37,444.82,739,451.33Zm83.52,1.37c-1.13-3.87,1.93-3.55,1.37-6.84h-5.48c1.37,7.31,7.47,9.87,9.59,16.43-0.29,1.15,4.54-8.31,0-11C825.4,453.87,827,453.84,822.56,452.7Zm-54.77-6.84c-2.65,1.91-2.63,6.5-6.85,6.84a31,31,0,0,1,2.74,8.21C769.53,457.35,765.06,451.28,767.79,445.86Zm106.8,1.37c-1.55,3.73-2,9.49,0,13.69C880.5,460.31,873.49,451.85,874.59,447.22Zm50.66,4.11c-3.77,5.19,2.75,11.81,6.84,13.69C930.84,459.44,929.11,454.32,925.26,451.33Zm-27.39,4.11c-3.9,1.82,1.05,6.09,1.37,8.21C903.21,461.75,898.85,456.9,897.87,455.44Zm-182.12,6.84c5.37,3.19,5.09-1.67,11-1.37-4.81-5.64-15.91,3.45-20.54,6.85C709.75,471.7,715.76,466.49,715.76,462.29Zm-4.11-1.37c0.23-3-4.86-.62-6.84-1.37,4.14,4.54-7.58,1.53-8.22,5.47C701.43,468.89,705.93,460.73,711.65,460.92Zm24.65,6.85c0-5.25-3.92,6.25-9.59,4.11-0.84,4.15,8.65,3.41,0,4.11a9.67,9.67,0,0,0,4.11,2.74c4.32-.69,6-4,11-4.11,1.14-3.87-1.93-3.54-1.37-6.84C740.18,469.52,732,469.52,736.3,467.77Zm-46.56,4.11c-0.17,4.82-2,.38-5.48,2.74,1,3.09,7.68.54,11,1.37C695.63,472.37,692.36,472.45,689.74,471.87ZM902,473.24c-1.83.94,0.67,3.65-1.37,6.84,1.22,1.06,3.09,1.47,5.48,1.37C904.1,479.33,903.2,476.12,902,473.24Zm-191.7,19.17c-1-2.44-2.49-.2-4.11,0-1-5.06,4.8-3.41,6.85-5.47,0-4-7.74-3.24-9.59-1.37,0.4-1.22,3.7-6,4.11-2.74,3.36-7.61-8.92-.43-9.59,4.11C700,490.58,705.35,496,710.28,492.41Zm-15.06,0c1.37,2.9,5.53,6.64,8.21,4.11,0.18,0.09-9.3-3.09-2.74-4.11C700.49,489,696.06,492,695.22,492.41Zm-5.48-11c0-1.33,1.67-1.06,2.74-1.37-0.86-2.92-8.43-1.28-9.58,0-0.62,3.81,7.46-1.07,6.84,2.74C691.29,482.56,690.5,481.45,689.74,481.46Zm4.11,8.21c-3.35-.15-0.29-4.53,1.37-4.11-1.38-3.44-6.06,1.09-5.48,4.11,1.22,0.61,2.45,1.2,2.74,2.74,2.39-1.24,5.28-3.06,2.74-5.47C693.89,487,694.16,488.61,693.85,489.67Z"/><path class="cls-2" d="M800.65,444.49c-0.85-2.5-5.72,2.37-5.48,5.48,2.46-.17,2.89,1.67,5.48,1.37C799.86,450.5,797.45,444.84,800.65,444.49Z"/></svg>