<svg id="Layer_1" data-name="Layer 1" xmlns="http://www.w3.org/2000/svg" viewBox="0 0 1024 580"><defs><style>.cls-1{fill:#e0b659;}.cls-2{fill:#f0e9d3;fill-rule:evenodd;}</style></defs><title>terrain-texture7-bottomX</title><path class="cls-1" d="M0.12,474c0-3.71,1.54-7.42,2.44-11.45l-1.74-1.22,16.74-8.81,13.93,4.2c6.17,7.31,11.29,8.47,21.35,5.85,6.61,0.59,11.6,2,15.33,1.2,14.86-3.23,29.32-7.16,43.93-10.83l2.56-.66,8.75,5.91c10.73-1.46,21.37.64,32.55-1.82,10.24-2.25,22.37-1.18,35.37-1.63l6.55,4.87H217c1.28-4.18,5.66-6.17,10.68-8.14,9.52,6.27,21.63,9.35,33.68,10.17,18.59,1.26,37.47.1,56.23,2.1,10.81,1.15,22.19.21,31.49,0.21l15-6.33,24.66,13.87,21.93,2.73c6.18,2.93,12.15,5.45,17.54,8.39s10.46,6.42,15.82,9.75l31.12-6.58c7.26,6,18,7.81,30.39,8.25,8.23,0.29,16.29,2.55,24.39,4,4.29,0.77,8.49,1.72,14.8,3l15.86,11.07,7.78-4.38c7.26,0.29,13.9-.68,20.22,1.93,8.67,3.58,18,6.58,27,9.78a13.48,13.48,0,0,0,3,.27l4.86-2.2c9.65,3.31,19.25,5.48,29,2l24.19,10.14c5.1-2.29,7.53-6.94,17.08-5.72l7.55,5.84h22.5l6.93,5.38c7.42,1.46,13.35-.27,19.77,2.07,4.75,1.73,12.42.34,17.39,0.34l14.13,5.73c9.38-1.43,16.66-3.52,23.79-3.34,6.53,0.16,12.89,2.78,19.84,4.44v6.94l23.36,6.49h21.31l10.8,7.49,37.54,3,10.77,7.22c11.38,0.87,21.52-3,32.65-2,12.86,1.14,24.38-1.87,36.88-6.2l19.37,12.06,5.62-1.81V423.75H0"/><path class="cls-2" d="M808.1,61.53c-0.17,3.29,2.86,3.37,5.85,3.51C812.87,63,811.77,61,808.1,61.53Z"/><path class="cls-2" d="M879.43,153.91c3.73-.16,2.58-5.22,4.67-7C882.06,144.17,878.64,149.93,879.43,153.91Z"/><path class="cls-2" d="M665.43,177.3c-1.84,2.68.89,4.36-4.67,2.34,0.13,3,3.91,2.32,7,2.34-0.72-1-1.41-2.09,0-2.34C667.48,178.36,665.45,178.84,665.43,177.3Z"/><path class="cls-2" d="M767.17,8.9c0.18,1.38-.2,3.32,1.17,3.51-0.08-4-.36-8.16,2.34-9.36,0.47,8.28-2.86,14.29,2.34,18.71,4.73-1.09,1.69-6.48,3.51-8.19,1.89,2.57,3.22-5.28,7-4.68,0.17,3.59-4.12,5.26-1.17,8.19-5.85,1.05-2.39,5.13-4.68,10.53h5.85c-0.17-2.9-.22-5.68,2.34-5.85,0.48,2,1.51-.25,3.51,0-1.35,6.86-7.08,15.51-7,19.88,1.57-2.39,4.42-9.54,7-7,0.11,7.35.69-2.67,4.68,4.68,2.21-3.93-5.29-3.83-1.17-5.85,2.73,4.14,1.42-5.49,3.51-5.85-0.32,2.67.28,4.39,2.34,4.68,0.69-2.42-1.45-7.68,1.17-8.18-1.26,6.66,4.51,10.85,0,16.37,2.75-1.52,2.62.6,4.68-2.34,0.12,3.63-3.68,3.34-2.34,8.19,5.84-.31,9.29.25,12.86-5.85,1.27,5.47-4.67,7.61-1.17,11.69-4.33-.82-2.92,4.1-4.68,5.85,0.71-.67,5.54-2.74,5.84,0-7.6-.1-8.4,4.19-10.52,7,2.38-1,7.27,1,3.51,2.34-1.8-3.21-6.86.05-7,2.34,7.41-.09,5.18.49,1.17,2.34,4,0.51,6.55-.46,9.35-1.17,0.29,5.74-11.32-.4-12.86,3.51,4-.15,2.65,5.14,5.85,5.85,8.26-3.14,17.56-5.73,24.56-4.68a74.93,74.93,0,0,0-12.86,4.68c5.91,0.47,8.43,3.22,8.19,7a30.4,30.4,0,0,0,11.69-5.85,6.54,6.54,0,0,0,1.17,4.68c-3.59-.17-15.39.54-15.21,10.53,1.49,0.06,1.62,1.5,3.51,1.17,3-2.85,7.55-10.33,10.52-9.35-1.43,2.47-4.4,3.39-4.68,7,1.43-.37,7.22.19,3.51,1.17-1.7.64-6-1.37-5.85,1.17,2.08,0.57-.51,1.25-1.17,2.34,2.9,1.52,4.85-3.43,5.85,0-2.8,2.27-8.26,1.88-9.35,5.85,7.41,1.27,5.32-5.78,9.35,1.17,1-2.07,4.75-1.49,3.51-5.85,5.07,5,7.89-3.94,10.52-8.18-0.16,2.88-.18,5.63,1.17,7-4.16.52-5.12,4.23-8.18,5.85,3.49-.26,4,4.32,7,1.17-1.58,3.57-1.23,9.76,0,10.53,1.75-3.1,3.18-7.37,2.34-10.53,1.58,6.51,3.32-4.58,5.85,0-3.77,2,2.93,3.17,4.67,3.51-2.15,6.38-.34,2.55-1.17,9.35-5.78,1-4,2.79-8.19,5.85,3.26-1,5.78-2.8,9.35-3.51,0.53,4,3.75-.27,3.51,3.51,2.4-1.34,5.57,1.84,2.34,2.34,0.2-2.54-4.15-.53-5.85-1.17,3,3.6-9.21,2.2-2.34,7-3.6.87-2.25-3.21-5.84-2.34-0.36,2.7,3.38,1.3,3.51,3.51-4.06.94-4.5-1.74-8.19-1.17,0.09,3,5.45,1.67,2.34,4.68-5.78.72-.6-3.81-7-3.51a5.51,5.51,0,0,1-1.17,3.51c7.2-1-.76,2.85,2.34,3.51,11.28-3.12,23.72-6,29.23-17.54,0.63,4.14-1.89,5.12-3.51,7,3.93,0.35,7-6.12,9.36-3.51-5.95,5-14.34,7.49-18.71,14-5.89-1.49-6.89.06-14,2.34,7,3.17,14.27,6,17.54,12.86-5.82-2.76-8.93-8.23-15.21-10.53-0.56,4.47.33,7.47,2.34,9.36a8.27,8.27,0,0,0-3.51,2.34c3.23-.2,4,1.8,2.34,3.51-3.24-2.08-2.1-1.49-7-3.51,0.37,1.58,1.66,2.23,1.17,4.68,3.68-.56,4.57,1.67,7,2.34,4.07-7.1,12.22-4.91,17.54,2.34,3-3.17-2.5-4.37-3.51-7,3.6-.87,2.25,3.21,5.85,2.34,3.65-4.3-6.77-9.33-1.17-11.69,0.59,3.31,3.33,4.47,5.84,5.85,3.35-1.82-2.44-5.46,1.17-7,0.16,6.25,4.74,2,5.85,5.85-3.3,3.72-7.14,6.89-9.36,11.69,1.75,0.2,4.32-.42,4.68,1.17-3,.61-11,2.13-8.19,4.68,5.88-2.89,11.66-3.07,10.52-10.52,4.72,1.6,4.14-2.1,5.85-3.51-0.49,5.8,3.5.66,4.68,3.51a62.69,62.69,0,0,0-9.36,7c5.59,3,14.91-5.05,10.52-12.86,2.21,0.26,2.58-1.32,4.68-1.17-2.13,4.75-2.78,7.36,2.34,9.36-5.15,1.87-8.75,5.28-12.86,8.18A5.51,5.51,0,0,1,890,175c4.69,0.87,8.15-5.48,5.84,1.17a7.62,7.62,0,0,1,5.85,1.17c-1.68-1.71-.9-3.71,2.34-3.51,0.24,9.59-15.22,3.49-18.71,9.35,3.72-2.88,6.16,2.61,11.69,0,1.61,2.67-3,4.4,0,4.68,5.93,0.92,8.36.82,10.52,3.51-6.23-1-7.59,2.25-12.86-2.34-0.35,3.07,4.53.92,3.51,4.68-2.08.7-4.86-3.43-5.85,0,3.15,1.13,4.54,4,8.19,4.68,0.35,2.3-1.58,2.32-2.34,3.51,2.44,0.38,9.56,2,5.85,4.68-5.85-.24-10-9.81-14-4.68,3.66,3.76,15.21,5.8,11.69,12.86-1.62-2-5.4-8.54-7-3.51,1.54,1.47,7.28,10.22,1.17,11.69,2-3.92-1.91-4.88-3.51-8.19-1.83,1.59-7,2.35-3.51,5.85-2.3.35-2.32-1.58-3.51-2.34-1.76,1.75-4.92,2.09-5.84,4.68,0.91,0.26,1.36,1,1.17,2.34,2.41,0.71,8.12-1.89,7,2.34-2.08.7-4.86-3.43-5.84,0,0.36,3.92,3.91,4.66,7,5.85,2.14-4.78,3-8,0-11.69,3.17,1.9,7.94,2.2,9.36,5.85-2.9,1.52-4.86-3.43-5.85,0,3,1.13,4,3.13,0,4.68,2.57,2.58,4.78-1.16,9.36,0-1.45,3.78,3.78.89,2.34,4.68-2.08.7-4.86-3.43-5.85,0,2.8,0.71,5.34,1.68,9.35,1.17,0.33,6.16-9-.88-9.35,2.34,6.21,2.36,4.32,2.53,0,3.51,1.54,0,1.07,2,2.34,2.34,1.75-1.85,4.78-.86,5.85,1.17-6.35,3.22-13.39-1.91-18.71-3.51,2.62,3.94,7.09,9.15,11.69,4.68-0.47,8.77-7.79,1.09-11.69,0,0.17,5.22-3-1-5.84,0,3.78,7.77,13.26,2.87,21,7-0.71.07-1.38,0.18-1.17,1.17,0.65,0,1.33.95,0,1.17-0.75-2.86-5.47-.18-5.85,1.17,5.65,3.39,10-3.79,14-1.17-3,.13-4.1,2.14-5.85,3.51,3.77-.26,4.95,2.07,9.36,1.17-1.25,4.88-6.53.44-2.34,5.85-4.24-.1-6.63-8.12-11.69-3.51,0.2,2.25,4.19,6.34,7,9.35-6.71-.31-6.89-7.14-12.86-8.18,1.82,4.93-6.49-.26-4.68,4.67,3.48-2.33,8.08,2.3,10.52,4.68-4.37,1.55-6.7-4.87-8.18-2.34,2.21,5.22,15.63,5.38,15.2,9.35-2.87-.19-11.66-5.73-15.2-4.67,1.63,1.78,4.33,5,7,2.34-2.3,5.41,1.1,1.63,2.34,3.51-3.67,5.85-5.67-4.53-11.69-3.51-0.74-5.88-4.8-8.45-9.35-10.52-2.72,1.71,2.28,3.71-2.34,3.51,0.71-4.6-1.72-6.07-3.51-8.19-0.66,5.94,7.73,17.3,15.2,15.2,2.94,4.67,2.91,15.67,7,11.69,0,1.75,4.35,4.78,1.17,5.85-0.77-1.57-2.5-2.18-4.68-2.34,0,1.17.95,1.39,1.17,2.34a5.5,5.5,0,0,1-3.51-1.17c0,1.17.94,1.39,1.17,2.34-2,0-8.54-3.8-8.19,1.17,7.16-1.84,1.79.42,5.84,3.51,1.69-.39,3.89-6.07,4.68-3.51,0.33,2.06-5.51,3.62-2.34,4.68,5.9,2.13,9.41,2.07,12.86,4.67-2.58,2.65-11.8-2.46-14,0,0.67,2.84,7.57-.55,7,3.51-2.9,1.52-5.68-2.61-5.84,0,4,2.1,1.28,4.18,4.67,5.85,1.71-1,3.71-1.75,3.51-4.68-0.65,0-1.33-.95,0-1.17,0.37,7.1,5.91,1.82,9.36,5.85-3.18.72-9.28-1.48-10.52,1.17,3.57-.06,6,1.06,7,3.51-4.17-1-7.73-1.36-12.86,1.17,5.32-1.17,8.75,3.06,10.52-1.17,3.2,4.83,9,2.48,11.69,5.84-1.7.64-6-1.37-5.84,1.17,0.91,0.26,2.3,0,2.34,1.17-5.41.3-9.33-7-14-3.51,5.14,2.27,9.63,5.18,16.37,5.85,1,2.41-3,5.25-3.51,2.34,0.91-.26,2.3,0,2.34-1.17-7.11,1.79-12.9-1.33-11.69,4.67-2.2-3.11-.22-3.95-3.51-4.67-0.09,4.81,7.88,7.65,5.85,10.52-0.79-3-3.89,4.23-4.67-1.17,5.09-.76-6.85-11-9.36-4.68,5.32,0.53,6.49,5.21,9.36,8.19-13.63-7.47-19-15.83-38.59-21,3.9,13.64,17.93,17.14,29.23,23.39-5.66.21-9.37-1.54-14-2.34,0,1.17-.95,1.39-1.17,2.34,0.77,3.52,6.74,1.84,7,5.84-7.57-.62-11.25-5.12-16.37-8.19-8.31,4,5.16,4,10.52,9.36-4.58-.09-7.29-2.06-10.52-3.51,4.33,6.75-4,1.35-3.51,7,8.67,2.41,16.26-1.36,21.05,4.68,5.92-2.26,11.61-4.77,16.37-8.19,0.25,2.6,14.19-3.34,8.19,0-4.07,3.33-12.72,2.09-15.2,7,1.27,0.28,2.81,1.93,1.17,2.34a3.2,3.2,0,0,0-3.51-2.34c1.49,3.19,4.69,4.66,7,7-4.95.23-8-7.56-12.86-3.51,4,0.78,6.31,2.35,5.84,4.68,6,0.61,12.58.67,16.37,3.51-4,1.53-8.16-2.6-9.36,0,1.8,2.16,12.85,1.1,9.36,4.68-1.06-1-6.6-3.35-7-1.17,4.56,6.35,12,9.81,21,11.69-18.67,2.21-27.12-20.87-43.27-21.05-0.14,1.2,5,2.37,1.17,3.51-2.37-1.91-3.24-5.34-7-5.85,0,1.17-.95,1.39-1.17,2.34,5.45-1-.79,3.86,2.34,3.51,1.5-.07,1.62-1.5,3.51-1.17-5.41,6.66,10.25,8.33,8.19,4.68-0.95,5.63,6.37,3,7,7-1.63,2.28-8.67-3.89-10.52-1.17,15.7,8.06,24.74,9.62,42.1,14-8.72,4-18.26-6.45-24.56-1.17,1.07-5.36-5.24-3.34-7-5.85,4.86,7.62,10.29,13.42,19.88,21.05-12.56-3-15.53-15.65-24.56-22.22,0.94,10,6.83,15,12.86,19.88-9.46.74-14.69-12.49-22.22-17.54,2.4-5.59-3.74-9.41-8.18-11.69,0,1.71,4.93,3.71,0,3.51-2-2.3-3.59-5-7-5.85,0.11,3,4.57,1.67,4.68,4.67-2.21.26-2.58-1.31-4.68-1.17,0.57,1.61,6.45,6.93,3.51,4.67-0.72-.34-4.5-2.91-4.68,0,0,5.3,7.85,2.77,1.17,5.85,0.22,4.31,3.82,2.28,4.68,3.51-3.51,0,4.93,3.25,0,4.68-0.32-2.4-3.12-2.33-4.68-3.51-0.55,4.45.5,7.3,3.51,8.19,0.18-1.38-.2-3.32,1.17-3.51-0.15,4,5.15,2.65,5.85,5.84-6.52-2.44-1.54,2.4,0,4.68-3.68.59-4.78-2.76-5.85,1.17,2.17,2.9,6.77,3.37,5.85,9.36-3.51-.07-4.19-9-7-5.85,1,2.56,7.44,6.49,2.34,8.18-1.07-6.4-.4,2.58-2.34,2.34-3.13-1.16,1.55-10.12-3.51-9.36,0.34,0.72,2.91,4.5,0,4.68-0.75-3.54-1.82-6.75-5.85-7,0.2,3.32-4,2.28-2.34,7,1.39-1.31,5.84,3,7,8.19-4.93-.53-5.38-5.53-9.36-7,1.21,3.11,6.11,10.87,1.17,12.86-1.67-6.73-6.8-12.28-10.52-10.52a3.2,3.2,0,0,0,2.34-3.51c-1.7-.64-6,1.37-5.85-1.17,4.35-1.62-3.44-.17-2.34-2.34,4.25,1.14,2.49-6.53,0-5.85a5.92,5.92,0,0,0-3.51,3.51c2.89-2.25,4.31,1,1.17,2.34,1.44,1.38,5.78,5.79,2.34,8.19-1.17-1.86-1.1-4.71-3.51-2.34-0.64-1.7,1.37-6-1.17-5.84-1.86,4.14,2.07,7.27-2.34,9.36,0-5.27,3-15,0-22.22-2.22,5.59-4,17.79-5.85,19.88-0.64-1.7,1.37-6-1.17-5.85-7.09,6.2-12.05,4.69-17.54,1.17-4.62-23.91-20.65-46.34-39.76-59.64a78.9,78.9,0,0,1-1.17,21c2.33-.78,5-4,5.84,0-0.71,1.62-4.5.18-4.67,2.34,1.91,2.76,8,1.31,10.52,3.51-3.29,3.66-10.51-2.92-11.69-1.17-0.43,5.89,6.62,4.3,7,9.36-6.54,1.86-4.34-5-8.19-5.85,2.58,6.66-2.42,13.27-1.17,22.22,1.75,0.2,4.31-.42,4.67,1.17-2.18.16-3.91,0.77-4.67,2.34,1.63,22.11-2.33,50.72-3.51,76-0.65,13.95-2,37.82,7,44.43,5.1,3.74,13.25,2.88,19.88,3.51,22.9,2.15.54,3.23,20.59,10.52V555H673.41c-0.49-4,3.5-3.51,4.68-5.84,19.94-3.06,28.58.79,42.3-4.68,20.27-8.07,16.4-43.21,17.54-67.82,1.08-23.16,1.21-44,3.51-64.32-2.07-.26-5.86,1.18-4.68-2.34,2.82-.48,2.54,2.14,5.84,1.17-0.72-3.18,1.49-9.28-1.17-10.52a7.6,7.6,0,0,0-1.17,5.84c-4.49.21-.42-1-1.17-3.51-2.21,1.22-6.73,6.1-8.19,1.17,1.73-2.17,6-1.75,5.85-5.85-5-1.83-12.66-4.77-14,2.34,2.75,2.85,2.62-1.31,4.68-2.34,0.46,2-1.73,3,0,3.51,2.07-.75,5.8-5.77,8.19-2.34-10.51,4.3-18.59,11-26.9,17.54,1.68,1.44,2.21,4,2.34,7-5.48,1.7-10.61,5.45-16.37,5.85-0.2-1.75.41-4.32-1.17-4.68-9.55,2.76-26.77-4.52-35.08-10.52,1.84-.11,4.05.16,3.51-2.34-1.21-3.47-7.86-1.5-8.19-5.85,7.26-1.72,8.68,3.18,15.2-1.17-4.58,1.5-3.92-3.2-2.34-4.67-6.12-.95-7.61-2.75-14-1.17,5-8,18.8,4.47,24.55-1.17-2.35-3.2,4.77-4.76,5.85-8.19,3.31,3.83,7.43,1.09,10.52-1.17-14.32,1.89-33.26-7.37-44.43,1.17,3.06-5-1.57-3.16-2.34-7,11.19,1.86,17.82-1.2,24.56-8.19-10.56-2.44-19.7-5.61-29.24-3.51,1-3.75,1-2.42-1.17-4.68,4.29,0.81,8.89,2,12.86,0-0.52,3,6.11,4.66,7,2.34-2.14-3.16-4-.21-5.85-2.34,1.31-.25,1.82-1.3,2.34-2.34-6-3.38-13.93-4.78-17.54-10.52,5.41,0.83,9.06,3.41,14,4.67-1.5-.19-1.5-7.13,0-3.51,0.66,2.92,7.32,5.85,9.36,3.51a23.09,23.09,0,0,1-8.19-3.51c6.86,0.16,11.64,2.39,17.54,3.51-0.17-1.38-2.08-2.65,0-3.51,4.43,6.74,17.65-2,22.22,0-1.8-2.88-1.41-7.94-5.85-8.18,2.89,1.8-3.54,4.23-5.84,2.34,10.29-9.53,11.09-14.47,16.37-24.56-6.77-3.45-11.95,1.19-15.21,7,0.2-4.63-1.79.37-3.51-2.34,2.53,3.38-.71,8.81-2.34,11.69-3-2.12,4-7.68,1.17-9.35C674,336,667,338.81,660.76,336.33a5.53,5.53,0,0,1-1.17,3.51c1.47-.25,2.39-1.82,2.34,1.17a5.5,5.5,0,0,0-3.51,1.17c-1.3-6.37,2.55-7.58,3.51-11.69-3.83,2.91-4.6-.17-10.52,3.51,1.71,2.71,3.7-2.28,3.51,2.34-1.63.84-4-.54-5.84-2.34-3.62,3-10.42,2.84-12.86,7-2.21,5.08-.76,7.44-2.34,11.69-5.87,15.84-1.4-5.43-1.17-10.52-1.77,3.69-4.38,6.53-5.85,10.52,1-5.42-1.84-1.22-2.34-3.51,0.67-1.06,4.82-4.3,2.34-4.68-3.93-1.48-6.19,4.58-8.18,1.17,1.43-.13,2.77-0.35,2.34-2.34-5-2.69-9.14,4-10.52-2.34,1.38-.18,3.32.2,3.51-1.17-2.67.33-4.39-.28-4.68-2.34,2.61-.17-1.52-2.95,0-5.84h3.51c3,2.85-2.46,2.49-1.17,7,10.28,6.64,20.17,3.41,28.07-3.51-6.15-3.41-9.87,2.67-15.2-1.17-0.57,3.32-3.66,4.14-7,4.68,3.48-6.63,9.37-5.71,15.2-8.19-3.66-1.91-7.07-5.89-7-8.19-3.34,2.93-7.72,11-12.86,8.19,7.88-4.2,13.32-10.84,19.88-16.37-2.76,0-3.44-2-7-1.17a39.85,39.85,0,0,1-9.36,12.86c1.55-4.2,1.2-5.56-1.17-5.84,1.1-2,4.33-1.91,3.51-5.85-12.86.22-25.75,5.43-31.57-2.34,5.6,2.61,15.58,3.41,21,0a7.61,7.61,0,0,0-1.17-5.85c2-.46,3,1.74,3.51,0-2.08-.57.51-1.24,1.17-2.34-1.38-.18-3.32.2-3.51-1.17,6.08-1.67.8-8.47,4.68-12.86-7.21,1.29-14.92-.59-21-3.51,6.95-1.75,14.3,5.46,17.54,0-0.72-1.62-4.5-.17-4.68-2.34,3.68-3.33,4.94,2.84,9.36,2.34-0.28-1.67-1.93-2-2.34-3.51,4.6-1.4,6.45,5.92,9.36,2.34-0.13-2.21-3.86-.81-3.51-3.51,3.74-.16,8.95,1.15,8.19-3.51-4,.92-5.15-1.1-5.85-3.51,3.71-1.36,9.21-.92,10.52-4.67-4.88,1.05-4.73-.52-5.85-2.34-1.38.34-4.42,4.71-5.84,1.17,2.74-3.1,7.11-4.58,10.52-7-4.22-.53-5.66-3-9.36-1.17,2.48-5.68-6.69-6.47-9.35-10.52,6,3.05,22.6,12.86,24.55,2.34,0.88,2.86,3.49.25,1.17-1.17,2.42-.7,7.68,1.44,8.19-1.17-1.56-1.17-4.35-1.1-4.68-3.51,3.49,0,4,3,7,3.51,0.07-1.49,1.5-1.62,1.17-3.51a23.86,23.86,0,0,1-11.69-4.68c4.16-1.71,7,3.76,8.19,1.17-3.38-6.55-12.54-3.89-15.2-5.85,2.92,0.2,3.66-1.79,4.68-3.51-1.74,0-5.22,4.79-4.68,0,3.15-1.13,4.54-4,8.19-4.68,0.46,2-1.74,3,0,3.51,0.28-1.67,1.92-2,2.34-3.51-4.9-.94-7.58-4.11-12.86-4.68-2.07.75-4.95,6.62-7,3.51,2.52-1.38,5.26-2.54,5.85-5.85-6.22-3.39-14.4,2.1-19.88-1.17,4.08-.6,8.83-0.53,11.69-2.34a16.48,16.48,0,0,1-5.85-5.85c6.53,3.6,13.46,6.81,19.88,10.53,0.46-9.82-14-10.95-12.86-17.54,2.56,2.8-1-2.83,1.17-3.51,4.3,1.16,5.3,5.62,10.52,5.85,0.87-3.6-3.21-2.25-2.34-5.85,4.16,0.12,2.67,5.9,7,5.85-0.35-2.3,1.58-2.32,2.34-3.51-5.72,2.13-1.2-2.59-5.85-4.68,4.6,1.87.41-5.05,3.51-4.68a11.66,11.66,0,0,0,7,3.51,7.61,7.61,0,0,0-1.17-5.85c4.42,1,2.31,8.6,9.35,7-1-5.42,1.84-1.23,2.34-3.51-2-3.06-6.63-3.51-8.19-7,5-.35-0.76-4.92,2.34-5.85,2.23,3.76,3.36,6,5.85,7-1.64-4.77-3.44-11.52,2.34-7,1-4.89-3.17-4.63-4.68-7,4.72,1.6,4.14-2.1,5.85-3.51-1.65,11.41,10.56,15.14,18.71,12.86-2.07-1.43-3.39-3.63-5.85-4.68,1.21-4.36-3.06-13.29-7-16.37-3.8-1.09-10.76,4.54-11.69-1.17,4.07,0,11.13.66,5.85-2.34,3.1-1.37,6.88,2.24,7,0-2.32-2-8.58-6.17-7-8.19,3,2,7.7,9.68,10.52,4.68v4.68c6.3,1.45,17.52,2.35,22.22-1.17-5.91-1.33-12.33.5-17.54-3.51,4.41-.9,5.59,1.43,9.35,1.17,0.26-.91,0-2.31,1.17-2.34,0.26,0.91,0,2.31,1.17,2.34,0.07-.71.17-1.38,1.17-1.17-7.84-3.91-14.31-11.79-8.18-15.2a5.91,5.91,0,0,0-3.51-3.51c-2.31,4-2.31,1.15,0-1.17-4.72-1.13-9.54-2.16-12.86-4.68,3-2,3.67,1.72,2.34-3.51,4.44,0.23,4.44,4.92,9.36,4.68-3-2.58-.69-12.42-8.19-8.19,1.47,0.61,7.1,2.85,3.51,4.68-1.83-1.68-4.07-2.95-4.68-5.85,6.93-1.67.54-2.55,5.85-5.85,3.86,1.6,5,5.94,9.35,7,0.17-2.83-8.46-6.36-2.34-4.68-1.17-3.55-7-8.55-3.51-12.86q2.16,10.12,8.19,16.37c-0.83-5.19-1.07-7.52-4.68-11.69,2.3-.35,2.32,1.58,3.51,2.34-0.57-4.46.33-7.46,2.34-9.35-2.55-1.35-7.56-.23-8.18-3.51,3.22,0.35,10.08,3.08,11.69,1.17-2.1.15-2.74-1.16-2.34-3.51,2.82,4.68,8.35,4.24,12.86,4.68-1.23.07-.92,1.5,1.17,1.17-2.76-9.32-12.36-11.8-21-15.2,0.71-2,5.55.09,5.85-2.34-5.44-2.26,1.11-1.63,2.34-3.51-2.41,1-4.43-3.85-2.34-3.51,0.13,0.93,3.87,3.54,3.51,1.17C683,79.68,677,73.67,681.8,72c0,4.28,2.31,6.27,4.68,8.19-0.52-4.22,7,2.26,9.35,0-0.34-2.38-3.16-2.29-3.51-4.68,3-.14,6.63,4.94,8.19,2.34-3.3-1.55-3.13-5-9.35-5.85,1.48-3.93-4.58-6.18-1.17-8.18,0.28,1.27,1.93,2.81,2.34,1.17,0.14-1.2-5-2.37-1.17-3.51,0.37,1.88,1.66-.09,1.17-2.34,4.35-.45,2.16,5.63,5.85,5.85-3.4-4.31,1.75-2.28,2.34-3.51,0-1.75-4.34-4.78-1.17-5.85,1.37,1.75,1.45,4.78,3.51,5.85,0.07-.71.17-1.38,1.17-1.17-5.41-3.13,3.38-.69,1.17-7-3.28-.46-3.6-8-8.19-12.86,12,6.85,9.83,24.74,18.71,29.24-0.35-3.08,4.54-.92,3.51-4.68-7.41-.77-6.63-9.74-11.69-12.86-0.87-3.6,4-1.43,2.34-5.85-1.47.26-2.39,1.82-2.34-1.17,7.23,1.37,9.63,13.74,15.2,12.86-4.51-4.08-2.68-1.19,0-4.68a44.15,44.15,0,0,1-8.18-4.68c5-6.63-9.62-6.61-5.85-11.69,4.42,1.84,8.87,9.8,12.86,8.18-3.34-4.84-7-9.42-10.53-14-1-2.77,1.65-5.39,1.17-1.17,3.54,3.48,6,8.08,10.52,10.53-1.69-4.31-2.2-4.59-3.51-10.53,5.6-.25,2-9.75,7-10.52-0.2,4.69-8.45,20.23,3.51,22.22-0.41-7.59-.41-8.32-2.34-14,3.16-.34,5.3,6.27,7,3.51,0-2.32-3.19-1.49-2.34-4.68,5.11-.82,2.49,6.08,5.84,7A8.32,8.32,0,0,1,740.27,30c0.74,2.71,1.5,5.25-1.17,7,3.08,1.6,4.43,4.92,8.19,5.85-7.37-11.24-5.93-17.32-5.84-25.73,3.58,1.88,4.7,6.21,9.35,7-1.7-2.75-2.91-2.62,0-4.68-0.27-1.82-4.49-5.46-1.17-7,0.28,1.27,1.93,2.81,2.34,1.17-1.91.53-1.91-6.37,0-5.85,0.79-.12,3.89,2.7,4.68,1.17,0.68-3.8-.8-5.44-1.17-8.18,5.9,0.73,2,9,7,2.34,1.87,8.05-2.37,16,0,19.88C767.2,19.37,763.55,11.4,767.17,8.9Zm-2.34,24.56c2.15-.1-0.36-10,2.34-12.86C763.63,18.58,759,32.13,764.83,33.46Zm-21-11.69c0.64,3.87,3.84,9.33,7,7C748.93,26,747.61,22.62,743.78,21.77Zm81.86,384.73c-1.19-3.63-1.15,3.32-2.34,3.51-0.94-.22-1.17-1.17-2.34-1.17,3.27-4,.85-7.17,3.51-10.52-4.39-2.29-6.94,5.92-9.36,9.36-0.94-.22-1.16-1.17-2.34-1.17,2.2-2,6.41-5.87,4.68-8.19,0-1.14,1.43-.91,2.34-1.17-0.36-1.59-2.93-1-4.68-1.17a5.5,5.5,0,0,1,1.17,3.51c-3.84-1.78-5.54-5.75-8.19-1.17-2.19-2.64-4.74-9.32-9.35-5.84,0.65,2.43,1.82,2.48,3.51,1.17-7.17,8.84,3.73,22.34,9.35,29.24,4.17-1.29,5.94-5,10.52-5.85,0.48-2.82-2.13-2.54-1.17-5.85,1.37,0.19,1,2.13,1.17,3.51C824.47,413.12,824.74,409.49,825.64,406.49Zm63.14-212.83c1.49,2.8,3.82,4.76,8.19,4.68C894.53,196.49,892.21,194.53,888.78,193.67Zm-40.93-46.78c-0.94-1-3.2-.69-3.51-2.34-6.91.5-10,4.84-15.2,7,4.75,5,12.61,5.09,18.71,4.68C849.77,154.36,846.81,151.36,847.86,146.89ZM777.69,27.61c-3.55-.43-2.43,3.81-3.51,5.85H780c-0.3,2.43-5.13.32-5.85,2.34,0.55,5.18-1.61,5.82,0,9.35,3.61-4.57,7-9.35,8.19-16.37C780.52,28.69,777.91,29.35,777.69,27.61Zm-15.2,5.85c-2.39,2.88,1,6-1.17,10.52C763.39,44.53,764.32,36.62,762.49,33.46ZM739.1,38.14c-4.14-.39-2.88-3.22-7-1.17v5.85c4.54-2.46,7.23,1.47,10.52,3.51C745.94,43,734.75,43.08,739.1,38.14Zm0,7c-3.45,1,2.72,1.75,1.17,4.68,3.64-3.66,2,4,2.34,7,2.43-.65,2.48-1.82,1.17-3.51C752.46,58.89,745.24,47.17,739.1,45.15Zm10.52,14a52.57,52.57,0,0,0-5.85-2.34c-2.76,4.21,4.37,6.84,5.85,10.53C752.53,66.44,748,60.55,749.63,59.19Zm38.59-21a14.08,14.08,0,0,0-5.85,7c3.3-1.85,5,1.35,8.19-1.17C791.56,40.25,788.72,40.37,788.22,38.14Zm16.37,16.37c-0.66,1.09-3.25,1.77-1.17,2.34-2.68,1.22-3.25,4.55-5.84,5.85,2.48,2.15,4.35-1.67,7-1.17-0.42-5.74,5.94-6.88,7-14-3,3-7.73,7.93-10.52,4.68-1.37.19-1,2.13-1.17,3.51C802,55.83,802.38,54.25,804.59,54.51Zm-16.37-5.85c-3.93-.43-1.95,5.07-3.51,7C788.33,55.79,788.2,52.15,788.22,48.66ZM794.07,51c-3.68-.17-4,3-4.68,5.85C793.71,57.67,794.55,55,794.07,51Zm-10.52,3.51V51c-1.62.46-3.31,6.64-4.68,3.51,0.5,0.14-3.72,8.07,1.17,8.18,0.1-1.66.19-3.31-1.17-3.51C781.55,58.76,780,54.07,783.54,54.51Zm1.17,2.34c-3.12,1.94-1.27,3.14-3.51,7h3.51C783.4,60.18,784.61,61.22,784.71,56.85Zm8.19,7c0.87-4.38-1.32-5.7-4.68-5.85C787.34,62.4,789.54,63.72,792.9,63.87Zm-87.7-2.34c1.95,1.56,1.82,5.2,3.51,7,2.62-1.95-2.14-6.35-2.34-9.35-2.46,1-3.21,6.17-1.17,8.19C707.8,67.2,703.68,64.43,705.19,61.53Zm32.74,1.17c-2.92-1.54-3.66,4.62-4.67,1.17-1.52,4.67,7.81,8.54,11.69,11.69C741.1,70.39,742.78,66.88,737.93,62.7Zm44.44,3.51c-4.47-.57-3.66,4.13-5.85,5.85C777.13,73.33,783.55,70.58,782.37,66.2Zm-42.1,21c5.87-.8,7.32,2.81,8.19,7,3.48-5.47-6-8-9.36-10.53C736.24,81.27,740.85,85,740.27,87.25Zm8.19,1.17c1.78-8.81-9-15.19-16.37-18.71,3.87,3.66,4.31,4.89,4.68,10.52C742.26,79.91,743.77,85.14,748.46,88.42ZM721.56,72c-0.22,1,.46,1.1,1.17,1.17,3.45,1-2.71,1.75-1.17,4.68,4.55-.92-1.42,6.27,4.68,5.85C725.65,78.88,726.65,72.42,721.56,72Zm64.31,2.34c0.2-2.53-4.15-.53-5.85-1.17C779.95,78.56,783.47,75.56,785.88,74.39Zm-26.9,0c-2.07-3.12-.85,6.85-1.17,9.35C759.89,86.86,758.67,76.89,759,74.39Zm39.76,7c-0.85-3.84,2.32-1.79,2.34,0,3-.28-1.61-2,0-4.68-3.11,0-6.68-.44-8.19,1.17-0.11,3.19,1.95,2.36,0,4.68C790.4,85.4,795.1,79.74,798.74,81.41Zm15.2,0c0.19,3.7-3.11,3.91-2.34,8.18,1.14,0,.91-1.43,1.17-2.34,2-.43,2.21.91,2.34,2.34,3.81-.82,2.1-5.32,3.51-5.85-1.53-2.87-8.69-5.79-9.35,0C811.59,83.73,810.75,80.55,813.95,81.41Zm-91.22,2.34c-3.73-1.65-3,7-1.17,7C726.91,90.8,721.62,86.66,722.73,83.74Zm8.19,3.51c-3,2.86-5.61,11-3.51,15.2C732.26,100.23,732.17,92.46,730.92,87.25Zm44.44,5.85C774,89.34,772,94.23,773,96.61c2.76,0.83,7.42,2.68,7-2.34C779,91.42,771.9,95.3,775.36,93.1Zm43.26,0c-4.28-.77-4.49,2.53-8.18,2.34,2.34,1.94,4.33,4.25,8.18,4.68C819,97.38,820.91,95.29,818.62,93.1Zm-65.49,0c-3.84,2.07,1.37,4.74,2.34,5.84,1.59-.36,1-2.93,1.17-4.68C755,94.37,753.33,94.46,753.13,93.1Zm56.13,4.68c-0.53,3.65,2.5,3.74,5.84,3.51-0.87,2.64-6.56.46-9.35,1.17-1.59,6.26,5.73,3.62,7,7,2.65-1.25,4.25-3.55,4.68-7C814.42,101.2,813.1,98.23,809.27,97.78ZM705.19,98.95c-0.33,3.06.43,5,3.51,4.68C709,100.57,708.27,98.59,705.19,98.95Zm44.43,1.17H745v4.68Q751,106.16,749.63,100.12Zm-9.35,0H735.6c-0.31,4.84,4.54,1.55,4.68,3.51C742,103.11,739.81,102.13,740.27,100.12Zm55,11.69c0.5-2.62,2.51-3.73,3.51-5.85,1.27-3-7.25-1.88-3.51-3.51-1.6-1.52-8.76,1.31-9.35,4.68-0.25,5.82,7.63,5.32,9.35,5.85C796.56,112.76,795.89,111.81,795.23,111.81Zm-81.85-9.35c-3.63.27-3.65,4.15-4.68,7,4.69,4.54,4.06,2.08,7,0C716.64,105.43,714.42,104.53,713.38,102.46ZM739.1,106c-5,4.14-3.43,12-2.34,17.54,4-2.61,6.9-6.35,11.69-8.19A15,15,0,0,0,739.1,106Zm100.57,1.17c-3.6-.87-1.43,4-5.85,2.34-0.81,3.14,2.42,2.26,3.51,3.51-2.39,2.68-6.12-1.71-8.19,2.34-1.24,4.36,4.38,1.85,3.51,5.85,1.66-1.43,2.66-4.46,1.17-5.85,4.24,0,2.37,6.2,4.68,8.19,2-3.45,2.48-8.43,2.34-14,1.19,0.76,1.21,2.69,3.51,2.34C844.53,108.51,841,108.88,839.67,107.13ZM697,108.3c-0.88,2.64.08,5.95-5.84,5.85,0.5-1.83,3.68-1,2.34-4.68-7.33,1.9-4.48,2.48-8.19-1.17,0.17,2.9.22,5.67-2.34,5.85,0.7,3.2,6,1.8,5.84,5.85C695.21,119.73,701.08,111.91,697,108.3Zm112.26,2.34h-5.85C802.41,115.48,809.26,114.2,809.27,110.64Zm12.86,4.68c0.06,3-8.1,8.5,2.34,3.51V113c-3.68-1.31-2.65-.1-7,0,0.81,0.94,1.82,3.2,0,3.51C818.6,120.07,820.57,115.14,822.13,115.32Zm-100.56-3.51c-3,.62-11.14,3.42-3.51,4.68-0.23-.95-1.17-1.16-1.17-2.34,2.49-.54,2.23,1.67,2.34,3.51a5.52,5.52,0,0,1,3.51-1.17C723.23,114,721.93,113.39,721.56,111.81Zm62,5.85c0.77,1.57,2.5,2.18,4.67,2.34-0.92,2.59-7.24-.22-5.85,4.68,2-1.71,7.05.73,10.52,1.17-2.36-3.21,3.08-6.44,2.34-11.69-1.89,1.91-4.89-1-9.35,0C788.65,119.51,787.13,115.77,783.54,117.66Zm-30.41-2.34c-5-.35-1.19,6.24-1.17,8.19h5.85C756.56,120.47,753.59,119.16,753.13,115.32Zm-52.62,2.34c0.71,1.09,2.72,4.31-1.17,3.51,0.36,1.59,2.92,1,4.67,1.17C704.35,119.28,703.59,117.3,700.51,117.66Zm107.58,1.17c-2.1-.15-2.46,1.43-4.68,1.17-2.08,3.15,5.15,2.26,1.17,3.51,1.75,2.51,2.86-.84,5.85,1.17C811.44,120.94,808.59,121.06,808.1,118.83ZM826.81,120c3,3.08-1.89.92-1.17,4.68,5.09-.8,6.47,2.1,8.18,4.68C835.52,126.81,832.27,119.25,826.81,120ZM714.55,136.37c3.29-1.23,1.46-4.63,5.85-2.34-0.64-2.08-.6-4.86-2.34-5.85,0.65-3.39,1.82,1.79,3.51,1.17,0-1.21-5.31-7.12-9.36-8.19q-1.71,1.79-3.51,3.51c3.15,1.91,6.2,3.93,9.36,5.85-2.39,3.06-7.32-1.18-8.19-3.51C706.8,131.27,717.1,131.68,714.55,136.37Zm63.14-11.69c-2.58.15-.5,5-1.17,7,3.23,0.5,1.1-4.36,3.51-4.68C779.74,125.74,777.71,126.22,777.69,124.67ZM858.38,127c-1.43-.21-14.08-1.65-12.86,4.68h4.68c-1.4-1.53-.46-1.84,0-3.51C851.94,132.38,855.12,127.91,858.38,127Zm-25.73,5.85c3.1-2.06-3.45-4.26-3.51-7A7.62,7.62,0,0,0,823.3,127c-0.2,2.54,4.15.53,5.85,1.17-3.28,1.75-1.93,3.52,0,5.85,0.36,3.65-3.38-3-3.51,1.17-3-.28,1.61-2,0-4.68-1.36.19-2.08-.26-2.34-1.17,0.58,4.12-5.68,3.15-5.85,9.35C822.59,137.57,832,134.54,832.66,132.86Zm-161.37-7c-0.34,4.24,3.27,4.52,3.51,8.19,2.82,0.48,2.54-2.14,5.85-1.17C680.63,127.41,675.56,127,671.28,125.84ZM784.71,127c0.2,3.31,2.14,4.87,2.34,8.19,4.38,0.5.07-7,2.34-3.51,1.73-.51-0.46-1.5,0-3.51,1-.22,1.1.46,1.17,1.17C792.86,126.26,787.08,128.24,784.71,127Zm21.05,4.68c0,1.14,1.43.91,2.34,1.17-0.22.95-1.17,1.16-1.17,2.34-2,.43-2.21-0.91-2.34-2.34a5.5,5.5,0,0,1-3.51,1.17c2,2.19,3.14,5-2.34,5.85-0.48,2.82,2.14,2.54,1.17,5.85,3.74-1.32,8.19-1.94,8.19-7,6.26,3.33,8.7-3.59,10.52-8.19C815.19,125.94,808.93,129.34,805.76,131.69Zm-21.05,0c-3.51,3.88-1.3.67-1.17-3.51-5.39,2.15-3,10.12-1.17,14,1.71-1,3.71-1.75,3.51-4.68C780.91,140.14,787.74,134.59,784.71,131.69ZM752,128.18c2.19,2.23-.69,2.12,0,5.85,1.65-2.24,5.68-2.12,8.19-3.51C759,128.14,755.66,128,752,128.18Zm-62,0c-1.49.26-1.53,3.49,0,3.51,0,1.14-1.43.91-2.34,1.17,0.32,2.71,3.12,2.69,4.67,1.17C693.2,130.43,689.12,131.78,690,128.18ZM760.15,134c-0.81-2.92-3.12,2.17-5.85,1.17,1,1.74,3.77,1.69,5.85,2.34C760.4,135.53,758.16,134.51,760.15,134Zm80.69,1.17c-4.29-.39-6.5,1.3-9.36,2.34C832,141.32,843.18,141.36,840.84,135.2Zm-159,1.17c-1-1.76-1.75.32-4.68-1.17,2.46,3,4.93,6,8.19,8.18C688.14,137.73,677.57,139.56,681.8,136.37Zm92.38,1.17c-2.53-4.19-7.58,7.43-1.17,5.85C773.61,139.71,770.26,138.61,774.19,137.54Zm21,2.34c-1.92-5.22-6.21,1.65-9.35,2.34,0.32,4-.9,9.48,1.17,11.69,3.49-2,6.28-4.63,10.52-5.85a6.38,6.38,0,0,0-5.85-5.85,6.55,6.55,0,0,0-1.17,4.68c-1.68-.26-0.41-3.49-2.34-3.51C790.62,140.72,790.48,141.23,795.23,139.87Zm-18.71-2.34c-1.59,4.06-5,14,2.34,14,1.37-1.75,1.45-4.78,3.51-5.85C780.72,142.69,778.42,140.32,776.52,137.54Zm-46.77,1.17c-3.35-.23-6.38-0.15-5.85,3.51C727.25,142.44,730.28,142.36,729.75,138.71Zm86.53,8.18c3.62,1.72,9.39,4.67,9.36,4.68,16.67-1.77-1.7-19.9-3.51-8.19-0.33,2.17,2.9,1.66,3.51,4.68-3.24-2.06-3.31-.86-5.85-2.34C824.82,143.46,818.26,146.17,816.28,146.89Zm4.68-4.68c-0.93-2-7.84-.14-7,3.51C816.33,144.6,818.57,143.33,821,142.21ZM718.06,141c-3.19-.85-2.35,2.32-4.68,2.34,1.44,3.55,4-1.27,7,0C720.11,142.11,718.07,142.59,718.06,141Zm35.08,4.68c-2.1,2.18,3.67,6.41,3.51,10.53,3.3,1,3-1.65,5.85-1.17C757.92,153.41,755.83,149.26,753.13,145.72Zm9.36,5.85c-2.36-2.7-3.89-6.25-8.19-7C756.9,147,756.77,152.22,762.49,151.57Zm-14-7h-4.68c1,7.68,6.34,5.29,8.19,10.52C754.07,152.9,748.3,148.67,748.46,144.55Zm-23.39,4.68c1.5,1.6,5.52,1.6,7,0-1.06-2.45-3.45-3.57-7-3.51,0,1.14-1.43.91-2.34,1.17-0.53,5.59-.53,4.94,0,10.53,3.29-.22,3.2-3.82,5.85-4.68C725.54,152.46,725.57,154.22,725.07,149.23Zm-4.68,2.34h-8.19c0.73-2.78,7.2.18,8.19-2.34-1.84-2.51-9.84-1.34-10.52,1.17,1.18,4.67,7,4.68,9.35,8.18C720.64,157.91,718.46,154.17,720.39,151.57Zm86.53,3.51c1.75,1.37,2.86,3.38,5.85,3.51,1.22-1.47,5.38-6.59,4.68,0a5.5,5.5,0,0,1,3.51-1.17c-1.42-3.65-2.19-7.95-8.19-7C818,154.17,808.49,150.25,806.93,155.08Zm-22.22,3.51c-0.34,5.39,1.42,9.56,4.68,14a1.18,1.18,0,0,0,0-2.34c7.31-6.8,5.22-9.72,9.36-17.54C790.85,151.47,789.78,157,784.71,158.58Zm-52.62,9.35c1.69-3.77,1.1-9.81,1.17-15.2-4.31,1.15-5.8,5.12-9.36,7A11.68,11.68,0,0,0,732.09,167.94Zm95.89-14c-1.54.41-1.84,2.06-3.51,2.34,2.29,3.17,10,1,12.86,3.51C840.67,156,827.9,158.32,828,153.91Zm-109.92,8.19c0.36-3.89,4.06,5,3.51-1.17a17.41,17.41,0,0,1-10.53-7c-3.87,4.71,3.92,7.73,3.51,12.86,5.47,0.46,3.88.71,9.35,1.17-0.28-2.06-2-2.67-4.68-2.34C719.33,163.94,719.42,162.29,718.06,162.09Zm106.41-3.51c3.18,1.34,5.32,7.86,9.35,4.68-1.25,5.93,7.45,1.91,5.85,8.19,6-1.85,12.68,6.66,14-1.17C844.3,169,835.86,158.69,824.47,158.58Zm-7,2.34c-0.33,2.4-3.13,2.33-4.68,3.51,3.81,1.34-.41,4,2.34,7-3.75.25-2.85-4.17-4.67-5.85-1.54.41-1.84,2.06-3.51,2.34,0.66,2.43,1.83,2.48,3.51,1.17a5.5,5.5,0,0,0-1.17,3.51c-4.52-2.35-4.61-1.89-8.19,1.17,2.63,1,13.24,0,15.2-3.51,4.26,6,12.33-1.67,17.54,1.17v-3.51c-1.27.29-.79,2.33-2.34,2.34-2.16-.17-0.72-4-2.34-4.68-2-.32-5.84,3.29-7,0-0.2-2.54,4.15-.53,5.85-1.17-0.41-1.34-2.06-3-2.34-1.17-0.73-1.2-.71-4-5.85-3.51C823.54,163.51,821.61,162.62,817.45,160.92ZM752,159.75c-5.46,2,2.17,2.73,2.34,5.85-2.06,2.16-3.62-.3-4.68-2.34-2.91,1.94,3.24,10.41-3.51,10.52,2.12,9.18,5.33,17.28,10.53,23.39,4.21-10.86-2.08-27.53-1.17-35.08C755.21,160.41,752,161.69,752,159.75Zm55,1.17c-1.71,1-3.7,1.75-3.51,4.68,1.85,1.86,5.37-.57,5.85-3.51C807.91,162.28,807.18,161.84,806.93,160.92Zm-60.81,0h-3.51c3,0.93.63,7.17,4.68,7C746.12,165.08,746.9,165.45,746.12,160.92Zm56.13,3.51c-5.17,1.73-.89,6.64-5.85,9.36C798.37,175,805.11,168.45,802.25,164.43Zm-124,11.69c1.36-1.73,1.36-2.95,0-4.68,2.39,0.84,4.63,3.67,7,1.17-0.36-1.59-2.93-1-4.68-1.17,7.81-1.59-1.57-6.2,8.19-5.85-1.32-2.56-15.86,1.9-22.22-1.17-0.09,7.11,4.38,9.65,5.85,15.2,1.7-1,4.53-.93,3.51-4.68a10.51,10.51,0,0,1,4.67,4.68c-0.51,1.74-1.5-.46-3.51,0,0.17,2.56,2.95,2.51,5.85,2.34C681.87,179.57,681.52,176.41,678.3,176.13Zm92.38-9.35c-3.93.75-3.75,5.61-3.51,10.53C771.86,177.31,770.42,171.19,770.68,166.77Zm-35.08,4.68c-0.26-4,4.32.16,1.17-4.68h-2.34c-1.1,6.17,3.57,6.57,5.85,9.35,3.19-1.08-1.63-3.66,0-7C737.95,169.12,738.79,172.3,735.6,171.45ZM780,169.11h-3.51c-0.78,5.45,1.84,7.51,2.34,11.69,1.66-.1,3.31-0.19,3.51,1.17,2.42-1,1.23-8.14,0-9.36C778.37,177.52,781.82,170.78,780,169.11Zm-56.13,4.68c-4.88,2.43.85,7.45,4.68,8.19,0.12-3,.66-5.57,2.34-7-2.45-3.79-7.15-5.32-14-4.68C718.83,173.08,720,175.8,723.9,173.79Zm-24.55,9.35c-1.31,2.6-7.39,4-3.51,8.19,4.14-2.31,2.31-1.52,7,0-1.31-1.44-1-2.4,1.17-2.34,0.56-6.41-4.36-7.33-7-10.53-0.34-2.09,4.54-.07,3.51,2.34,3-2.32-3-5.53-4.68-7,0.77-.82,10.84.28,7,4.68,4.3,0.71,3.13-10-1.17-8.19,1.4,1.54.46,1.84,0,3.51-2.7.36-1.3-3.38-3.51-3.51-5-.4-3.16,4.26-2.34,7-4.44,1.72-.23-5.23-4.67-3.51,0.32,2.67-.28,4.4-2.34,4.68,1.64,2.38,4-1.15,7,1.17a3.22,3.22,0,0,1-3.51,2.34v2.34c1-.22,1.1.46,1.17,1.17C697.1,186.35,695.74,182.27,699.35,183.14Zm161.37-10.52c-0.91-2.8-2.84,5.64-1.17,5.85,2-1.07,4.06-2.17,3.51-5.85-1.14,0-.91,1.43-1.17,2.34C860.75,174.92,861,173.53,860.72,172.62Zm7,3.51c1.38,2.13,6.1.92,8.18,2.34-2.9,3.58-7.09-1.4-11.69,0,0.2,2.93-1.8,3.66-3.51,4.68,8.93,3.35,16.2-2.93,22.22-9.35,0.2-2.53-4.15-.53-5.85-1.17C880.24,175.91,870.56,172.9,867.74,176.13Zm-36.25-2.34a105,105,0,0,0-32.74,4.68c4,0.64,10,3.18,14,0,1.8,2-.41,4.26,1.17,8.19-3.3-.21-1.46-5.56-5.85-4.68,2.92,4.7-3-.15-7,1.17,0.72,1,1.41,2.09,0,2.34,0.18,2.91,4,.34,4.68,0,1.17,0.92-.44,4.09,2.34,5.85-3.49.26-4-4.32-7-1.17-0.84-1.09,0-4.7-5.85-3.51,7.62,4.54-3.18-.24-5.84,2.34,5.48,7,23.49,9.39,29.23,5.85,4.11-4.47,2-15.12,10.53-15.2,0.55-2.49-1.67-2.23-3.51-2.34C825.43,174,833.29,178.71,831.49,173.79ZM844.35,175c8.55,4.74-9,1.43-12.86,5.85,2.29,2.39,5.87,3.49,10.52,3.51-0.22-.95-1.17-1.17-1.17-2.34,0.17-2.61,2.95,1.52,5.84,0-2,1.12-3.45,3.67-1.17,5.85,4.19,0.3,4.28-3.51,8.19-3.51,0.85-3.19-2.32-2.35-2.34-4.68,2.1-.15,2.46,1.43,4.68,1.17C855.86,175.14,848.17,177,844.35,175Zm-3.51,1.17c-1.54-2.58-9.09-1.38-9.36,1.17C834.18,181,836.7,174.8,840.84,176.13Zm-129.8,0c-2,1.07-4.06,2.17-3.51,5.85h7C713.86,179.54,712.09,178.19,711,176.13Zm-23.38,2.34c-0.28-2.06-2-2.67-4.68-2.34,0.12,4.95,3.15,7,7,8.19C689.72,182.4,681.95,179,687.65,178.46Zm45.61,0c-3.31-2.52,1.61,6.2-1.17,7-1,.22-1.1-0.46-1.17-1.17-0.62-1.8-1.22-.07-1.17,1.17,2.76,1.51,2.17-.15,5.84,1.17C736.75,182,732.1,183.13,733.26,178.46Zm33.91,1.17c-1.61,1.81-2.35,7-1.17,8.19C768.39,185.59,768.34,182.74,767.17,179.63Zm111.09,3.51c-0.55,2.5,1.67,2.23,3.51,2.34-2.95,5,9.46,3.33,10.52,2.34C889,184.85,884.36,183.28,878.26,183.14ZM831.49,189c4.59-.3,4.35,4.23,9.36,3.51-1.15-5.87-11.63-2.41-11.69-9.36-1.27,2.63-5.63,2.17-4.68,7,3.94,0.74,6,3.36,11.69,2.34C835.84,190.09,831,192.22,831.49,189Zm-108.75-5.85h-3.51c0.15,3.36,1.47,5.55,5.85,4.68C725.06,185.5,721.88,186.33,722.73,183.14Zm49.12,1.17c3.3,4,3,8.47,2.34,14,6.17,2.62,7.61-3.15,5.85-9.35C772.37,192.78,779.17,184.19,771.85,184.31Zm-87.71,1.17c-0.74,4.26,2.42,4.6,5.85,4.68C690.74,185.91,687.57,185.56,684.14,185.48Zm187.1,2.34c-4.14-3.3-10.15,1.5-14,2.34C861.81,191.73,867.56,191.38,871.25,187.82Zm-98.23,0c-5.71,1-1.65,4.51-1.17,8.19C774.46,195.5,772.32,190.24,773,187.82Zm-101.73,2.34c-0.26-3.64-5.82-2-9.36-2.34-0.87,4.77,3.77,4,2.34,9.35C667.19,192.49,667.17,193,671.28,190.16Zm-14-2.34c3.16,3.8-5.94,1.72-2.34,9.35,2.43-.68,3.78-2.46,5.85-3.51C661.31,190,657.61,190.58,657.25,187.82Zm0,12.86c0.72,1.62,4.5.18,4.68,2.34,2.76-1-.07-6-1.17-7C657.67,195.65,656.92,197.62,657.25,200.68Zm72.51-1.17c-0.35-1.51.1-5.88-4.68-5.85,0.76-1.19,2.69-1.21,2.34-3.51a7.6,7.6,0,0,0-5.84-1.17c2.17,4.85,3.37,10.66,9.35,11.69C731.25,198.59,729.81,198.28,729.75,199.51Zm-19.88-9.36c0.08,4.21,4.88,3.7,9.35,3.51C719.07,187.18,712.58,192.34,709.87,190.16Zm-39.76,3.51c2.06,3.4,6.91,4,12.86,3.51-0.72-1-1.41-2.09,0-2.34C678.55,193.74,673.51,189.13,670.11,193.67Zm201.14-1.17c-5.2-.92-7,1.56-11.69,1.17,0.54,5.4,14.13,9.38,16.37,2.34C873.55,194,871.26,200,871.25,192.5ZM821,198.34c3.63,0.12,5.59-1.43,8.19-2.34C828.15,190.88,820.75,192.84,821,198.34Zm-36.25-3.51c-1.28,3,4,6-1.17,5.85,4.12,1.49,6.8,2,12.86,5.85v-5.85c2.13,1.38.92,6.1,2.34,8.19,2.32-1.95,1.49.11,4.67,0-0.43-2,.91-2.21,2.34-2.34C802,200,791.9,194.09,784.71,194.83ZM745,193.67c1.63,4.22,4.14,4.52-2.34,3.51,0.12,3,4.36,1.88,5.85,3.51-0.77,3.5-2.5-1.12-4.68,0-0.55,4.06,6.35.67,7,3.51C752.67,201.48,748.18,195.16,745,193.67Zm112.26,1.17c-5.48,3.09,4.42,5.68,0,10.53-1.37-.19-1-2.13-1.17-3.51-2.58.15-.5,5-1.17,7,3.94-2.06,3.66-1.55,9.36-2.34C864.39,200.13,857.23,201.06,857.21,194.83ZM718.06,196q-0.81,5.49,4.67,4.68Q722.52,196.22,718.06,196Zm134.48,4.68c4.53-4.95-5.72-3.55-7-1.17C843.08,203.31,852.37,194.75,852.54,200.68ZM636.2,198.34c0.36,4.38,3.91,4.75,7,3.51,1.45,3.78-3.78.89-2.34,4.68,2.72,0.85,8.74,3,8.19-2.34C643.55,203.47,641.89,198.88,636.2,198.34Zm59.64,14c0.09,3.43.43,6.59,4.68,5.85a8.27,8.27,0,0,0-3.51-2.34q1.71-1.79,3.51-3.51c1.68,1.44,2.22,4,2.34,7,6-2.1,10.58-1,15.2-5.85-0.89-3.4-4.16-4.41-7-5.85,0.51-1.74,1.5.46,3.51,0-1.07-2.05-2.18-4.06-5.85-3.51,3.73-4.09.26-4.76-5.84-4.68,0.77,2.73,1.83,9.59-4.68,8.19C699.7,212,698.2,210.17,695.84,212.38Zm2.34-8.18a20.77,20.77,0,0,0-9.36-4.68c0,4.26-6.09,2.48-4.68,8.19,2.75-.37,2.62-3.62,4.68-4.68,2.53,2.6-4.79,5.29-3.51,10.53a5.51,5.51,0,0,1,3.51-1.17C689.13,208.79,692.72,207.62,698.18,204.19ZM866.57,203c-0.33,2.09,1.1,2.4,1.17,1.17,3.3-.18,2.93,3.3,4.67,4.68-5.92-5.07-12.17,2.38-16.37,2.34,1.52,7.45,14,3.95,16.37,10.52-3.54-.36-4.18-3.62-9.35-2.34,3.6,2.41,5.24,2.44,10.52,4.68,2.65-6.07,12.13-5.22,16.37-9.35,1.79-1.75-1.82-7.34,3.51-4.68-3.29-6.85-7.25-1.32-8.19-9.35-5.08,0-10.52-.39-14,1.17a1.18,1.18,0,0,0,2.34,0c2.07,1,1.49,4.75,5.85,3.51,0.33,1.89-1.11,2-1.17,3.51C874.66,206.62,872.39,203,866.57,203Zm-18.71-2.34c0.13,2.21,3.86.81,3.51,3.51-1,3.43-2.94-1.52-5.85,0,1.66,3.84,4.44,1.11,4.68,4.68a5.5,5.5,0,0,1,3.51-1.17,7.61,7.61,0,0,1-1.17-5.85A6.57,6.57,0,0,0,847.86,200.68Zm-42.1,1.17c-1.49,3.94,2.81,2.44,7,1.17C811.3,198.37,805.8,203,805.76,201.85Zm-26.9,0c-0.36-1.59-2.93-1-4.68-1.17v5.85C778.43,207.65,775.17,201.28,778.86,201.85Zm-8.19-1.17h-3.51c0.6,3.3-2.09,9.88,3.51,8.19a8.28,8.28,0,0,1-3.51,2.34c1.21,4.68,4.64-.27,5.84-2.34C772.17,206.21,772,202.89,770.68,200.68Zm-97.06,1.17c-0.5-2.61-5.76-.47-8.19-1.17C666.06,204.68,671.07,202.47,673.62,201.85Zm-3.51,3.51c0.41,1.54,2.06,1.84,2.34,3.51,2.08-3.59,3.4-3.49,8.18-2.34-0.19-1.36.26-2.08,1.17-2.34C678.94,199.49,674.11,204.49,670.11,205.36ZM831.49,203c-0.52,3,6.11,4.66,7,2.34C839.61,201.13,833.9,203.73,831.49,203Zm-111.09,1.17c-1.33.22-.65,1.17,0,1.17,0,1.14-1.43.91-2.34,1.17,0.41,1.54,2.06,1.84,2.34,3.51,1.19-.76,1.21-2.69,3.51-2.34v-3.51c-1.36-.19-2.08.26-2.34,1.17C720.57,205.58,720.46,204.9,720.39,204.19Zm124,12.86c-1.45,3.78,3.78.89,2.34,4.68,3.66,0.54,3.74-2.5,3.51-5.85C847.44,217.39,848,215.73,844.35,217.05Zm-1.17-11.69c-3.65-.54-3.74,2.5-3.51,5.85h4.68c-1.55,1.68-5.35,2.95-2.34,5.85C848.54,217.07,844.45,207.93,843.18,205.36Zm-17.54,12.86c3.08,1.13,1.09,6.2,5.85,3.51,1.57,0.77,2.18,2.5,2.34,4.68-2.49.55-2.23-1.67-2.34-3.51-2.43.66-2.48,1.82-1.17,3.51,0,1.14-1.43.91-2.34,1.17,3.27,4.32,8.41-5.51,10.52-2.34,3.37-3.45-1.64-8.43,0-14-2.83-1.84-5-4.36-10.52-3.51-1.63,1.49-.51,5.73-3.51,5.85-3.86-1.75,2.43-2.86,1.17-5.85-7-4.4-16.75,2.73-23.39,5.85,1.06,4.44,4.7.85,8.19,1.17-0.77,1.57-2.5,2.18-4.68,2.34-0.15,2.1,1.43,2.47,1.17,4.68,0.69-2.53,12.61.33,9.36,5.85a5.51,5.51,0,0,1,3.51-1.17v-4.68c1.66-.1,3.31-0.19,3.51,1.17C822.1,218.78,827.42,221.9,825.64,218.22Zm-40.93-12.86c4.61,2.63,2,5.2,2.34,11.69,4.33-.14,2.94-1.7,2.34-4.68,1.19,0.76,1.21,2.69,3.51,2.34C795.47,210.37,789.77,205.81,784.71,205.36Zm-1.17,0c-5.18,1.76-.36,7.27,0,10.52C787.12,212.78,785.22,208.82,783.54,205.36Zm-87.71,2.34c-3.29,3.61-4.12,3.4-7,8.18,1.68,0.63,2.86-4.56,3.51-1.17C693.81,212.69,696.28,211.65,695.84,207.7Zm-50.28,12.86c5.13-1.33,3.84,0,8.18,1.17,2.69-3.77,1.38-2.67,7-3.51-2.22-1.43-7.49-2.9-9.36-1.17,1.36-3.14,7.68-4.74,9.36-1.17,1.71-1,3.7-1.75,3.51-4.68-4.52.75-6.22-2.14-8.19,1.17-1.37-.19-1-2.13-1.17-3.51-7-.73-7.7,4.77-11.69,7C643.23,218.21,646.41,217.37,645.56,220.56Zm0-9.36c-1.24-2.65-7.35-.45-10.53-1.17,0.16,2.18.77,3.91,2.34,4.68,3.93-.85,2.38-5.77,4.67,0C644.25,214.59,642.86,210.85,645.56,211.21Zm107.58,3.51h-3.51c-0.86,4,4.31,1.93,4.68,4.68C758.58,217.55,751.59,217.65,753.13,214.71Zm-15.2,8.19c-0.28-3-2,1.61-4.67,0,0.32-2.4,3.12-2.34,4.67-3.51-2.61-5.28-6.58-1.93-12.86-2.34,1.78,4.5,1.14,2.32-2.34,1.17,1.76,3.74,5.15,10.62,9.36,8.19-1.06-3.94-2.62-.14-4.68-2.34,1.57-3.33,6.14,0,5.85,2.34C735.64,226.06,735.55,223.24,737.93,222.9Zm-105.24-7c-1.7,2.54,1.55,10.1,7,9.36C637.52,222,634.67,219.36,632.69,215.88ZM780,219.39c-0.21-1,.46-1.1,1.17-1.17-2.66-3.42-2.21,1.49-1.17,3.51,1.66-.1,3.31-0.19,3.51,1.17,1.73-.51-0.46-1.5,0-3.51H780Zm16.37,1.17c1.87,2,5.27,2.53,9.36,2.34C804.15,218.11,801.47,220.47,796.4,220.56Zm62,0c1.1,2.48,5.69,7.49,5.85,1.17C861.41,222.21,861.69,219.59,858.38,220.56ZM745,221.73c-1.18,3.52,2.6,2.07,4.67,2.34a5.51,5.51,0,0,0-1.17,3.51C755,227.52,749.49,220.92,745,221.73Zm-30.4,3.51c2.56,4.15,8.56,1.25,12.86,4.68C725.91,225.28,717.83,221.13,714.55,225.24Zm0-1.17c-0.28-1.69-9.62-2.72-8.19,1.17C710.05,225.81,710.49,223.13,714.55,224.07Zm-37.42,2.34c0.93-2.7,7.84,3,7-3.51-2.67,1.22-7.05.74-9.35,2.34,1.06,2,2.62,4.5,4.68,2.34C679.43,226.44,678,226.67,677.13,226.41Zm-3.51-2.34c-3.14-3.44-6.47,2.82-9.35,3.51C666.24,232.7,670.56,225.08,673.62,224.07Zm21.05,0c2.87,2.2,5.72,4.41,10.52,4.68C703.09,225.78,699,224.78,694.67,224.07Zm-3.51,0c-2.23.5-2.94,2.52-5.85,2.34v5.85c5.56-.1,4.45,6.46,8.19,8.18-2.22-2.81,1.69-7,2.34-10.52,2.24,0.13-1.37,3.92,0,7,2.82-.54,2.48-6.42,8.19-3.51C700.6,228.66,695.06,230,691.16,224.07Zm-43.27,5.85c0.41,1.54,2.06,1.84,2.34,3.51C655.26,231.32,652.14,227.26,647.89,229.92Zm163.71,2.34c0.76,1.19,2.69,1.21,2.34,3.51,4.35,1.24,3.77-2.46,5.84-3.51-0.13-3-3.91-2.32-7-2.34C816.23,232.32,817.11,234.24,811.6,232.26Zm-97.06,0c1.63,0.41.1,2.06-1.17,2.34,2.47,1.85,6.19.23,10.52-1.17-2.53-1.75-6.58-2-10.52-2.34C713,233.18,714.48,233.49,714.55,232.26ZM635,234.6c4.13,0,8.74,2.27,14,1.17C647.52,230.93,638.08,231.63,635,234.6Zm212.83,1.17c-2.55-2.79-10.63.47-15.2,2.34,7.57,2.21,14.52.28,19.88,3.51-0.85-2.38-3.52-4.78-5.85-2.34C846.59,237.61,846.49,236,847.86,235.76ZM739.1,239.27c2.23-.81-1.26-1.82-1.17,0a1.19,1.19,0,0,1,0-2.34q-1.49-2.6-5.84-2.34c2.42,3.08,3.08,2.47,3.51,5.84C737.49,240.77,737.61,239.34,739.1,239.27Zm-11.69-3.51c1.74,1,1.69,3.76,2.34,5.85,2.6-.49.91-6.2,0-7-1.89-.33-2,1.1-3.51,1.17C726.46,237.09,727.41,236.41,727.41,235.76Zm-28.06,1.17c1.75,1.37,1.38,4.86,4.67,4.68Q704.83,236.12,699.35,236.93Zm15.2,3.51c-4.13,4.32,5.51,6.61,5.85,7C724.43,243.72,716.22,242.35,714.55,240.44Zm-60.81,0a7.6,7.6,0,0,1-5.84,1.17C648.54,245.44,654.41,246.26,653.74,240.44ZM843.18,251c1.64-3.41,4,2.07,7,1.17-1-3.3,1.65-3,1.17-5.84-1.18.35-15.05-10.17-17.54-1.17,3.31-1,3,1.65,5.85,1.17-2.85,3.15-7.62-1.66-12.86,0,4.57,4.4,12.47,5.46,19.88,7C846.34,249.23,843.52,253.4,843.18,251Zm-37.42-1.17c1.7,1.81,4.56,2.46,8.19,2.34-0.63,5.42-4.56,2.18-8.19,2.34,1.42,4.51,5.45-.85,5.84,4.67,2.64-.65-1.42-1.82,1.17-3.51,0.95,0.23,1.17,1.17,2.34,1.17-0.49,2.24-.42,5-3.51,4.68,1.13,2.38,4.49,2.53,8.19,2.34,0.62-4.05,3.13-6.23,3.51-10.52,1.19,0.76,1.21,2.69,3.51,2.34-3.82,1.24-3.06,7.07-7,8.19,2.32,2.36,9.52-.16,8.19,5.85,2.1,0.15,2.47-1.43,4.68-1.17-4.2-4.38-3.38-13.77-7-18.71-3,2.48-2.07,1.19-4.68,1.17-1.74-.51.46-1.5,0-3.51-3.57,1-2.81,3.29-7,1.17C818.83,243.19,809.92,250.35,805.76,249.8Zm-22.22,5.85c0.83-3.18-5.52.84-4.68-2.34,1.08-3.19,3.66,1.63,7,0-1.89-4.74-6.3-6.95-12.86-7,0,2.75-2,3.44-1.17,7,2.76,1.5,2.17-.15,5.84,1.17-5.5,2.35.18,2.86-3.51,7C777.63,259.86,778.61,255.78,783.54,255.64Zm-106.42-8.19a10.84,10.84,0,0,0,7,4.68C684,248.39,681.49,247,677.13,247.46Zm197.63,2.34c-3.94,3.26,1.73,6.77,3.51,8.19,2.94-1.17-.93-5.17-3.51-4.68C876.15,251.77,875.21,251.46,874.75,249.8ZM691.16,251c1,4.17,2.88.14,7,1.17C697.19,249.9,693,249,691.16,251Zm178.91,21c-2.18-.16-3.91-0.77-4.68-2.34-4.14,3.47,5.53,3,4.68,7,1.33-.22.65-1.17,0-1.17-0.64-2.59,2.23-1.66,2.34-3.51-2.55-8.44-6.76-12.94-11.69-21-3.33,1.74-6,4.16-5.85,9.35,3-2.11,3.67.36,2.34,3.51,5.61-1.16,10.7,4.92,7,3.51C866.46,268.19,869.34,267.78,870.07,272Zm-24.56-15.2A65,65,0,0,0,829.15,251c0.3,7.11,3,11.79,4.67,17.54C841.1,265.66,846.44,267,845.52,256.81Zm-208.15,4.68c5,3.37,13.27,0,17.54-1.17-1.83-1.59-7-2.35-3.51-5.85,2.07,1,1.49,4.74,5.84,3.51C652.3,246.54,641.75,256,637.37,261.49Zm62-8.19c2.11,1.79,3.58,4.21,8.18,3.51C704.69,254.38,706.47,253.72,699.35,253.3Zm-8.19,1.17c-3.14,1.7,4.89,5.6,7,2.34C698.37,253.5,691,257.79,691.16,254.48Zm181.25,1.17c1,3.31,6.45,12.25,14,12.86C883.66,262.33,875.2,261.82,872.41,255.64Zm-198.79,0c-2.06.28-2.67,2-2.34,4.68,2.3,1.6,6.68,1.12,9.35,2.34C679.85,258.77,675.36,258.57,673.62,255.64Zm-32.74,1.17c-2.24-3.29-6.1,1.61-9.36,1.17C633.92,264.52,636.72,257.94,640.88,256.81ZM658.42,265c-3.19-1.06,3.56-2.62,0-4.68q-2.6,1.49-2.34,5.85c2.09-.15,2.46,1.43,4.68,1.17v-3.51C659.4,263.64,658.67,264.09,658.42,265Zm129.8-1.17c-0.29-1.27-2.33-.79-2.34-2.34a10.52,10.52,0,0,0-4.68,4.68C779.39,267.09,785.41,265.39,788.22,263.83Zm-32.74-2.34c-1,.72-2.09,1.41-2.34,0-3.32,1.56.9,5.2,1.17,7C756.89,268.36,754.8,263.54,755.48,261.49Zm-78.35,2.34c-2.07,2.2-3.41-1.39-5.85,1.17-0.68,4.19,3.46,3.55,7,3.51C678.44,266.41,676.87,266,677.13,263.83Zm-38.59,7c0-1.13,1.43-.91,2.34-1.17a52.35,52.35,0,0,1,2.34,5.85c1.13-4.44.5-2.87,7-2.34-5.59-2.95.44-3.32-3.51-7,2.93-.2,3.66,1.8,4.68,3.51q2.6-1.49,2.34-5.85a3.23,3.23,0,0,0-2.34,3.51c-1-2.94-5.34-2.46-9.36-2.34,2.94,2.83-2.35,2.6-4.67,3.51-0.05,3.56,2.47,4.55,3.51,7C643.1,275.41,640.15,271,638.54,270.84Zm173.07,7c0.94-2.83,4.81,3.67,7,0a3.22,3.22,0,0,1-3.51,2.34c1,2.45,6.53-.38,5.85-3.51-1.89.33-2-1.1-3.51-1.17,0.51-1.73,1.5.46,3.51,0v-5.85c-4.28.77-4.49-2.53-8.19-2.34a5.5,5.5,0,0,0-1.17,3.51c-3.28-1.15,1.7-3.12-1.17-4.67-3.57.84-4.26-1.2-7-1.17,0.93,2.58,2.35,4.67,5.85,4.68-0.65,2.38-3.52,2.29-1.17,4.67,1.14,0,.91-1.43,1.17-2.34,2.71,2.44-1.31,4.93,2.34,7C812.93,278.81,812.25,277.86,811.6,277.86ZM633.86,266.17c-0.51-2.62-5.76-.48-8.19-1.17C626.74,269.44,630.37,265.85,633.86,266.17Zm21,1.17c0,1.14,1.43.91,2.34,1.17,0,1.14-1.43.91-2.34,1.17,0.42,1.34,2.06,3,2.34,1.17,1.37,0.19,1,2.13,1.17,3.51a6.56,6.56,0,0,1,4.68-1.17,5.5,5.5,0,0,1-1.17-3.51C657.56,270.93,658.59,266.77,654.91,267.34Zm205.81,3.51c-2.32-.18,9.4,8.93,7,12.86,2.66,0.85,6,1,8.18,2.34-5.69,4.19,9.15,4.34,10.53,0q1,4.56-3.51,3.51c2.11,1.78,3.58,4.21,8.19,3.51-2.91-9.18-12.24-11.93-16.37-19.88-1,.52-2.09,1-2.34,2.34v2.34c3.93-2.16.58-.14,1.17,3.51-1.54-1.4-1.84-.46-3.51,0C872.44,277.6,864.25,275.08,860.72,270.84Zm-81.85,2.34c2.59,2.68,2.26,2.72,4.68,7h2.34C785.31,276.09,783.52,273.2,778.86,273.19Zm9.35,2.34c-0.43-2,.91-2.21,2.34-2.34-0.76-1.19-2.69-1.21-2.34-3.51-2.82-.48-2.54,2.14-5.85,1.17C783.69,273,783.76,276.48,788.22,275.52Zm-124-5.85c-0.4,5,4.26,3.16,7,2.34C670.2,270,667.63,269.43,664.27,269.68Zm192.94,8.19c-3,.92,3.29,4.09,0,5.84-1.36-2.92-4.08-4.5-3.51-9.36-5-1.21-10.35-2.12-15.2-3.51a5.51,5.51,0,0,0-1.17,3.51c-2.32,0-1.49-3.19-4.68-2.34-0.85,5.12,2.32-.94,2.34,2.34-1.06,3.17-4.3-1-4.68-2.34-3.06,3.9,6,5.65,9.36,7-2.14,2.44-9.83.55-9.36-3.51-2.33,10.63,7.83,6.22,12.86,11.69,1.57-.77,2.18-2.5,2.34-4.68,1.74,1,1.69,3.77,2.34,5.85,6.41-1.59,10.88,3.18,14,1.17,0.36,4.77-2.44.62-4.68,1.17-0.17,1.56,3.93,4.35,1.17,4.68,0.36,1.59,2.93,1,4.68,1.17,2.38-2.77-2.12-5.75,4.68-4.68-3.86-1.6-3.26-7.66-8.19-8.19C864.35,283,859,281.25,857.21,277.86ZM825.64,272c-4.45-.94-1.49,5.53-2.34,8.19,2.1-.15,2.47,1.43,4.68,1.17C828.36,277.09,826.68,274.87,825.64,272Zm-133.31,1.17c-6.79-2.87-14.32,3.58-21,4.68,3.95,7.26,12.25.42,17.54-1.17-0.19-1.37-2.13-1-3.51-1.17C687.07,271.78,690.36,275,692.33,273.19Zm22.22,7c1,3.31-1.65,3-1.17,5.84a7.6,7.6,0,0,0,5.85-1.17c0.33-1.89-1.1-2-1.17-3.51,3.6,4.76,6.1-1.4,9.35-3.51C725.72,276.63,720.19,281.51,714.55,280.2Zm1.17-2.34c3.2,3.12,9.22-.86,10.53-3.51C723.68,271.87,717.77,276,715.72,277.86ZM752,274.35c0.08,3.15,2.67,5.62,4.68,3.51C757,274.78,755,274,752,274.35Zm-25.73,10.53c1.33,0.22.65,1.17,0,1.17,0.77,3.5,2.5-1.12,4.67,0-0.31-2.28,2.16-10.18,2.34-4.67,3.4-1.64-2.07-4-1.17-7-3.24,2.61-4.35,7.34-8.19,9.36C724.32,285.05,726,286.67,726.24,284.88Zm76-8.19q-5.5-.81-4.68,4.68C799.78,279.78,802.76,282.71,802.25,276.69Zm-125.13,21c1,0.52,2.09,1,2.34,2.34,8.43-3.12.68,0.32-1.17-3.51,2.23,0.28,5.18-2.58,9.36-3.51,1.12-4.72,1-10.72,4.67-12.86-5.16-1.83-13.7,8.62-11.69,14-1.36.19-2.08-.25-2.34-1.17C676.53,294.08,678.62,294.82,677.13,297.74Zm145-16.37c-3.22,2.92,4.2,5.09,5.85,7C832,284.65,823.8,283.27,822.13,281.37Zm-121.61,1.17c-0.38,4.41-7.9,1.16-7,11.69,1.37-.19,1-2.13,1.17-3.51a5.5,5.5,0,0,0,3.51,1.17c-0.52-1-1-2.09-2.34-2.34,1.75-2.72,2.86-1.79,5.85-1.17C702.56,285.68,706.34,282.94,700.51,282.54Zm-18.71,2.34c-2.54-1.7-7.95,3.7-8.19,8.19C678.82,292.81,678.43,287,681.8,284.88Zm-49.11,2.34v-3.51c-4.18,2.72-7.31.21-11.69,3.51C625.45,290.5,628,285.27,632.69,287.22Zm197.62-2.34q0.22,4.46,4.68,4.68Q835.81,284.06,830.31,284.88ZM806.93,286c3.11,3.91,8.76,5.28,12.86,8.19C821.1,285.4,812.83,289.63,806.93,286Zm-85.36,0c-1.59.37-1,2.93-1.17,4.68-2.49.55-2.23-1.67-2.34-3.51h-5.85c0.47,3,3.49,3.53,3.51,7,4.1-2.81,5.3-1.55,10.53-2.34C727.13,287.5,720,291.09,721.56,286Zm115.77,1.17c-0.81,3.92,2,4.28,4.67,4.68C840.63,290.16,841,286.67,837.33,287.22ZM711,297.74c-2.45-.37-3.08-2,1.17-3.51-1.82-2.46-2.09-6.48-5.85-7,5,6.65-5.11,10.2-9.36,5.85-0.13,2.91-2.19,3.62,0,5.85-4.64,1.13-3.63-3.38-4.68-5.85-2.38.34-2.29,3.16-4.67,3.51,6.2,3.15,12.49,6.22,15.2,12.86C707,306.94,704.87,298.2,711,297.74Zm-49.11-9.35c2.07,3.6,4.95,1.95,7,3.51,1,0.21,1.1-.46,1.17-1.17v-2.34C666.8,289.61,665.24,289.61,661.92,288.39ZM849,289.56c-2.21.13-.81,3.86-3.51,3.51,1.41,3.27,8.4,1,10.53,3.51,2.8-1.75-1.85-5.85-4.68-5.85v3.51C849.8,293.46,849.19,291.73,849,289.56Zm-194.12,0h-4.68C649.31,294.06,655.83,294.06,654.91,289.56Zm169.56,1.17c0.72,1,1.41,2.09,0,2.34,1.08,3.19,3.66-1.63,7,0C830.41,291,827.83,290.48,824.47,290.72Zm-205.81,8.19a10.85,10.85,0,0,0,4.67-7c2.42,2.12-2.05,7.23-3.51,9.35,1.17,3.9,6.09,4.05,7,8.19,2.81-2.49,2.05-4.35,1.17-7h5.85c0.66-4,2.2-7.16,4.67-9.35C631.68,292,619.78,287,618.66,298.91Zm180.08,2.34a11,11,0,0,1-9.36,1.17c1.58,4.82,6.56.17,9.36,2.34-0.15-2.1,1.43-2.47,1.17-4.68,1.56,2.87,3.53-2.11,4.68,1.17,1.33-.22.65-1.17,0-1.17,0.19-1.37,2.13-1,3.51-1.17-1.61-4.24-5.11-6.59-10.52-7C801.27,299.18,794.21,297.09,798.74,301.25Zm-7-9.35c-2.31.81-3.12,3.12-3.51,5.85,3.09-1.84,3.63-1.3,2.34,2.34,0.94-.22,1.17-1.17,2.34-1.17,1-.21,1.1.46,1.17,1.17C797.69,296.71,788.2,295.88,791.72,291.89ZM651.4,295.4c-1.76-1.66-5-4.33-7-2.34-0.55,2.49,1.67,2.23,3.51,2.34-4.23,2.74-6.56-.29-11.69,4.68C642.66,302,645.09,297,651.4,295.4Zm219.84,1.17v-2.34a5.5,5.5,0,0,0-3.51-1.17v3.51c-1.54-1.4-1.84-.46-3.51,0C865.67,300.13,868.25,295.3,871.25,296.57ZM842,321.13c2.46,3,8.63,2.29,14,2.34,5.14-6.67,7-13.54,2.34-22.22-5.56.85-13.4-6.75-23.39-8.18,0.19,1.36-.26,2.08-1.17,2.34,2.38,1.52,2.79,5,4.68,7-8.34,3.13-5.66-6.64-14-7,1.06,2.05,4.1,2.14,5.85,3.51-0.32,2.76-4.35-.11-4.67-1.17-3.48,2.43,5,8.94,0,12.86,1.31,1.81,3.8,2.44,3.51,5.85a25.31,25.31,0,0,1,10.52,1.17,5.5,5.5,0,0,0-1.17,3.51c3-2.25,6.24-2.94,8.19,1.17A6.58,6.58,0,0,0,842,321.13Zm-35.08-28.06c4,6.51,7.8,13.25,11.69,19.88h5.85v-8.18a6.56,6.56,0,0,1-4.68,1.17c0.24-1.59-2.79-8.29,1.17-9.35C816.34,292.83,812.91,294.09,806.93,293.07ZM773,294.23c-3.62-2.4-6.89,5.55-5.84,11.69a5.5,5.5,0,0,1,3.51-1.17C771.29,298.14,768.15,299,773,294.23Zm-35.08,10.53c1.59,1.14,1.52,3.94,3.51,4.67-2.12,1-3.23,3-5.85,3.51,3.1,1.42,6.65-2.87,10.52-2.34,0.33-1.89-1.1-2-1.17-3.51,0.5-2.28,3.34,1.91,2.34-3.51,1.59,0.36,1,2.93,1.17,4.68,2.3-2,3.13-5.44,3.51-9.36-3.63.12-3.34-3.68-8.19-2.34-0.33,1.89,1.1,2,1.17,3.51-3.6.87-2.25-3.21-5.85-2.34,0.12,3.63-1.43,5.59-2.34,8.19-2.21-1.54-.86-9.36,2.34-9.35-1.92-3.33-6.35.56-8.19,1.17,1.23,4.89-2.46,7.92,0,10.53C734.31,303.81,736.72,311.38,737.93,304.76Zm143.84,1.17c-2.46-1.73,1.54,2.84,3.51-1.17,1-.22,1.1.46,1.17,1.17,4.91,0.84-7.35-5.25-4.68-5.85q-1.49-2.61-5.85-2.34C875.78,301.83,884.85,302.78,881.77,305.93Zm-8.19-8.19c-2.82-.48-2.54,2.14-5.85,1.17,2.33,3.9,4.34,8.13,11.69,7C878.33,302.35,873.74,302.26,873.58,297.74Zm-15.2,1.17c1.25,3,6.93,1.64,8.19,4.68C868.65,301.81,862.82,298,858.38,298.91Zm-143.83,0c-1.33.22-.65,1.17,0,1.17-0.28,3-2-1.61-4.68,0-0.09,3.7-4.74,6-4.68,12.86C707.76,308.23,716.89,304.74,714.55,298.91Zm-29.24,1.17c5.52,2.12-.5,2.49,3.51,7,5.27-1.48,9.48,1.23,12.86,4.68C701.73,307.64,692,297.56,685.31,300.08Zm125.13,8.19c4.7-1.23-.64-5.29-1.17-8.19-2.24,2.44-6.76,2.6-8.19,5.85C802.85,307.68,808.82,304.06,810.44,308.27Zm-159-7c-2.82-2.74-7.11,3-9.36,4.68C645.56,309.37,649.61,303.41,651.4,301.25Zm32.74,0c-1.09,1.25-4.31.37-3.51,3.51a5.51,5.51,0,0,1,3.51-1.17c0.43,2-.91,2.21-2.34,2.34C683.88,309.89,687.14,302.78,684.14,301.25Zm-67.82,0a5.5,5.5,0,0,1-3.51,1.17c0,1.14,1.43.91,2.34,1.17,0,1.14-1.43.91-2.34,1.17,1.07,2,2.17,4.06,5.85,3.51C618,305.82,615.76,304.93,616.32,301.25Zm42.1,3.51c-1-3.4-1.75-1.32-4.68-1.17,3.28,4.49.47,2.53-1.17,7C657.29,309.5,655,304.92,658.42,304.76Zm58.47,1.17c-3-.52-5.13,5.4-9.36,7,0.36,1.59,2.93,1,4.68,1.17,0.48-2,3.06-7.71,4.68-4.68,2.53,0.2.53-4.14,1.17-5.85C716.71,304,715.09,305.65,716.89,305.93ZM642,309.43c4.21,0.13-12.08-2.37-4.67-4.67-3.17-3.47-5.14,4.14-8.19,4.67,3.06,2.79,6.44,5.25,11.69,5.85C637,313.4,638.93,310.46,642,309.43Zm-22.22-5.85c-2,.59-0.56,7.46,3.51,5.85C623.52,306.13,619.82,306.71,619.83,303.59Zm154.36,1.17c-0.9,6.62,4,3.71,7,2.34C781.07,304.11,777.29,304.78,774.19,304.76Zm-19.88,0c-2,4.24-5.91,6.56-8.19,10.52,3.69,0.57,4.13-2.11,8.19-1.17C750,310.62,755.67,311.19,754.31,304.76Zm107.58,1.17c1.81,1.7,1,6,1.17,9.36,6.71,1.48,6.56,9.81,16.37,8.19C873.57,317.63,872.18,307.33,861.89,305.93ZM722.73,307.1c1.07,5.55,5.43,7.82,5.85,14C735.13,318.08,728.92,303.76,722.73,307.1Zm-44.43-1.17a26.35,26.35,0,0,0-7,2.34c1.27,3.83,5.29,5.61,7,5.85C681.19,313,676.69,309.62,678.3,305.93Zm-16.37,7c1,0.22,1.1-.46,1.17-1.17,1.33,0.22.65,1.17,0,1.17,2.52,3.21,5.37-1.16,8.19,1.17-2.39-3.73-2.88-2.58-3.51-7C665.81,309,660.91,308,661.92,312.94Zm-1.17-4.67c-2.27-.67-8.29,4.93-11.69,7C653.82,318.21,659.64,314.83,660.76,308.27Zm23.38,1.17c0,2,0,3.9,0,5.85,1.36-.19,2.08.26,2.34,1.17C690.09,314.67,688.74,309.19,684.14,309.43Zm10.53,2.34a5.5,5.5,0,0,1,1.17,3.51c1.14,0,.91-1.43,1.17-2.34,1.54,1.4,1.84.46,3.51,0C699.45,310.91,696.42,309.92,694.67,311.77Zm24.55,0c-3.56,3.45-8.85,5.18-12.86,8.19,1,2.51,2.88,4.14,7,3.51C713.81,318.06,717.86,316.26,719.22,311.77Zm73.67,1.17c0.5,2.23,2.52,2.94,2.34,5.85C799.57,317.92,796.64,312.48,792.9,312.94Zm87.7,1.17c0.24,4.44,7.25,2.1,7,7,2.82,0.48,2.54-2.14,5.85-1.17C889.33,317.86,885.48,315.47,880.6,314.11Zm-17.54,2.34c-2.15,2.47-4,3.39-2.34,7,4.14-2,4.11,0,9.36,0-0.41-1.54-2.06-1.84-2.34-3.51-2.76,0-3.45,2-7,1.17C860.73,318.81,863.91,319.64,863.06,316.45ZM628,322.3c3.16,5.48,7.49-1.19,7,4.68,1.49-2.81,5.13-3.45,4.68-8.19C635.5,315.58,628.55,315.85,628,322.3Zm32.75-3.51c0.52,3.38,8.84-1,9.35,2.34C673.11,318.18,663.8,316.33,660.76,318.79ZM752,324.64c2.74-.3.67-5.13,0-5.84-1,.72-2.09,1.41-2.34,0C746,320.68,752,322.49,752,324.64ZM637.37,327c1.55,2.73,5.22,3.35,8.19,4.68,2.11-1.79,3.58-4.21,8.18-3.51,0.11-3.61-3.53-3.48-7-3.51C652.38,318.76,640.92,323.22,637.37,327Zm15.2-4.68c-0.85,3.19,2.32,2.35,2.34,4.68,4.06,0.94,4.49-1.74,8.19-1.17,0-1.14-1.43-.91-2.34-1.17a5.5,5.5,0,0,0,1.17-3.51h-5.84C660,324.64,656.74,322.43,652.57,322.3Zm135.65,1.17c-0.36-2.47-4.06,1.23-3.51,3.51,4.37,1.25,3.34-2.9,7-2.34C792.05,321.44,784.74,326.71,788.22,323.47Zm16.37,1.17c-0.24,6.1,3.46,7,7,10.53C815,330,806.4,328.33,804.59,324.64Zm-3.51,0a5.5,5.5,0,0,1-3.51,1.17c1.06,2.06,4.3,1.93,4.68,4.68C805.43,329.42,801.06,326.39,801.08,324.64ZM885.28,327c1.18,1.93,5,1.27,7,2.34,0.22-1-.46-1.1-1.17-1.17,0.51-1.73,1.49.46,3.51,0C893.66,325.47,887.45,324.94,885.28,327Zm-12.86-1.17c-3.46,2.05,4.48,2.43,3.51,5.85,2.33-2,1.49.1,4.68,0a5.52,5.52,0,0,1-1.17-3.51C876.07,328.39,873.49,327.85,872.41,325.81Zm-19.88,0c-3.19-.85-2.35,2.33-4.68,2.34,1.06,2,4.1,3,5.84,1.17A5.5,5.5,0,0,1,852.54,325.81Zm-31.57,0c-0.87,3.6,3.21,2.25,2.34,5.85C827.86,330.56,824,326.06,821,325.81Zm-140.33,0c-3.37.14-7.65-.64-9.35,1.17C671.85,328.59,681.82,329.82,680.63,325.81ZM854.87,327c-0.37,5.31,3,7.08,7,10.52C861.1,337.06,860.45,326.51,854.87,327ZM678.3,330.48c-0.22-1.33-1.17-.65-1.17,0-7.28-1.67-12.25-3.48-15.2,3.51C668.8,336.3,673.28,333.36,678.3,330.48Zm203.47-1.17c3.13,4.35,1.92,5.81,7,8.19C890.28,335.55,884.89,330.53,881.77,329.31Zm-37.42,0c-1.33.22-.65,1.17,0,1.17,0,1.14-1.43.91-2.34,1.17,7.23-.5,6.82,6,12.86,5.84-1.45,4.05-3.4,2.15-5.85,3.51q0.22,4.46,4.68,4.68c-1,3.43-2.94-1.52-5.84,0,0.73,4.73,6.64,4.27,10.52,5.84-0.18-3.3,3.31-2.93,4.68-4.67C859.63,338.21,853.11,332.64,844.35,329.31ZM849,341c-1.69-1.82-2.46-4.56-3.51-7-3-1.27-5.57,3.55-7,0-3,1.58,2.83,4.08,2.34,7,2.36-.77,4-0.26,4.67,2.34C847.05,342.93,847.36,341.29,849,341Zm42.1-10.52c1.13,2.38,4.49,2.53,8.18,2.34C899.15,329.48,894.43,330.69,891.13,330.48Zm-105.25,0c-2.59,1.68,1.47,2.85-1.17,3.51,1.93,3.13,5.94,4.2,8.19,7,2.6-.91,4.56-2.46,8.19-2.34-3.92-1.3-6.07-6.74-9.36-2.34-3.45-1,2.72-1.75,1.17-4.67C789.32,332.5,788.64,330.46,785.88,330.48Zm-18.71,1.17V334H773C772.74,332.19,768.67,328.39,767.17,331.66Zm-65.49,5.84c-0.5,2.23-2.52,2.94-2.34,5.85,4.05,0.94,4.49-1.74,8.18-1.17C707.13,339.07,704.46,338.23,701.68,337.5Zm2.34,0c3.7,1.61,3.91.25,8.19,0,0.81-6.54-4.92.72-4.68-4.68C705.82,333.84,703.82,334.57,704,337.5ZM835,334c-3.26,2.47-.81,3.4-2.34,7C837.45,340.29,835,337.8,835,334Zm-109.92,2.34c1.57-1.41-11.37,1.5-10.52,7C720.73,343.68,720.73,337.84,725.07,336.33Zm56.13,8.19c-1.26-3-4.23-4.35-4.68-8.19H766c0.69,5-.84,7.73-1.17,11.69C771.38,347.95,774.74,344.69,781.2,344.52Zm-64.31,12.86c5.23,2.55,6.86-4.56,11.69-5.85C723.73,346.45,719.24,353.29,716.89,357.38Zm14-3.51c-2.54-2.46-6.83,3.24-9.35,4.67C725.46,364.2,727.61,355.64,730.92,353.87Zm-16.37-2.34c8.81-.72,13.88-10.83,15.2-15.2-3.6-.87-2.25,3.21-5.85,2.34C727.24,344.22,713.85,342.21,714.55,351.53Zm66.65-11.69c0,2.32,3.19,1.49,2.34,4.68h8.18C788.86,342.31,786,340.1,781.2,339.84Zm-83,5.85a5.53,5.53,0,0,1,1.17,3.51c4,0.43,10-3.13,10.52-2.34C711.51,341.45,704.15,346.07,698.18,345.69ZM697,351.53v4.68c1.93-1.59,6.82,1,11.69,0,0.54-5.29-1.22-3.27,2.34-8.19C706,348.83,704.09,352.76,697,351.53Zm170.73-9.35c-1.64.41-.1,2.06,1.17,2.34-0.19,1.37-2.13,1-3.51,1.17,1.06,2.06,4.3,1.93,4.68,4.68C871.09,348,869.59,345.53,867.74,342.18Zm-40.93,1.17c-2.85-2.48,1.31,1.67,2.34,2.34-0.21,2-5.56-.55-4.68-3.51-3.13,5.06,6.12,8.81,10.52,7,0.33,2.09-1.1,2.4-1.17,1.17-2.91,3.75,7.21,4.44,8.19,8.18C840.31,351.2,835.11,349.42,826.81,343.35Zm-94.72,7c0.95-.22,1.17-1.17,2.34-1.17,1.87-5.61-5-1-1.17-4.68-0.29-1.27-2.33-.79-2.34-2.34-2.07,1.84-7.16,4.18-4.67,7C728,347.34,731,348.33,732.09,350.36Zm64.31,7c2.12,2.63,5.91,2.75,9.36,1.17a6.56,6.56,0,0,1-1.17-4.67c-1.36.19-2.08-.26-2.34-1.17-5.14,6.08.16-5.33-7-4.68-0.69,4.06-5.77,2.89-8.18,2.34,2.65,4.39,2.56,15,9.35,11.69C794.46,359.73,796.51,360.57,796.4,357.38Zm-12.86-7c-0.27,4.56,2.51,6.06,3.51,9.35C787.92,359.15,787.23,350.25,783.54,350.36Zm-2.34,0c-4-.51-6.56.46-9.35,1.17,2.48,3.37,8.67,3,10.52,7C785.34,357,780.65,353.36,781.2,350.36Zm-39.76,2.34c-1.33.22-.65,1.17,0,1.17-0.19,1.37-2.13,1-3.51,1.17,0.55,7.71,1.14,8.15,7,10.53-1.4-1.34-.46-3,0-1.17,3.18,0.84-.84-5.51,2.34-4.68C746.08,356.64,742.65,355.78,741.44,352.7Zm84.19,4.68c-1.33.22-.65,1.17,0,1.17-2.21,2.88-5.3-3.19-8.19-3.51C812.74,359.48,830.15,366.43,825.64,357.38ZM764.83,355c8.38,6.82,13.07,17.34,22.22,23.39-0.33-2.09,1.1-2.4,1.17-1.17,2.62-.51.48-5.76,1.17-8.19-2.39.65-2.29,3.52-4.68,1.17,0.77-1.57,2.5-2.18,4.68-2.34C782.26,363.17,778,356.19,764.83,355Zm-72.5,5.85c1.73,1.43-3.85,5.44-8.19,4.68,0.51,2.23,2.52,2.94,2.34,5.84,3.32-1.65,6.94,1.65,7-4.68,5.23,1.75,5.85-1,10.52-2.34,0.2-2.53-4.15-.53-5.84-1.17,1.06-2.05,4.09-2.14,5.84-3.51-11.52-5.29-21.2,6.59-31.57,1.17-0.75,4.26,5.57,1.45,5.85,4.68C681.88,361.28,688,365.41,692.33,360.89Zm145-1.17c-0.69,6.86,3.07,7.48,8.18,5.85A13,13,0,0,0,837.33,359.72Zm-37.42,5.85a5.91,5.91,0,0,1,3.51-3.51c-1-2.45-6.53.37-5.84,3.51,3.68-.57,2.65,3.59,7,2.34V364.4C802.49,364.25,802.12,365.83,799.91,365.57Zm-143.83-4.68c4.23,7,19.22,8.36,26.9,8.19C681.87,366,664.88,363.46,656.08,360.89Zm156.7,8.19c-2.21-.21-4.8,1.7-1.17-3.51,0.36-2.7-3.38-1.3-3.51-3.51-2.85,8.56,8.17,19.68,16.37,24.55-2.59-5.6-6.5-9.87-9.36-15.2-2.44-.49-3.09.8-4.67,1.17A3.19,3.19,0,0,1,812.78,369.07Zm-92.38-3.51c-3.72.56-4.89,3.68-9.36,3.51C713.18,371.51,720.87,369.62,720.39,365.57Zm95.89,1.17c0.86,6.15,4.3,9.74,7,14C823.52,378.17,820.85,368.44,816.28,366.73Zm-87.7,0c-0.07,3.92,9.14,7.93,9.35,1.17C733.6,368.73,732.92,365.91,728.58,366.73Zm-64.31,1.17c-6.15,5,16.78,5,18.71,5.85C681.94,368.66,668,373.25,664.27,367.9Zm167.22,1.17c-1.57,3.52.54,7.22,4.68,8.19C836.62,372.51,835.74,369.11,831.49,369.07Zm-9.36,1.17c0.51,2.23,2.52,2.94,2.34,5.85C828.81,375.22,825.88,369.78,822.13,370.24Zm-17.54,2.34c-1-1.08-5.52-1.73-7-2.34-3.87,1.75,2.43,2.86,1.17,5.85-5.68-4.74,2.18,4.67,2.34,8.19C805.3,383.43,801.62,374.68,804.59,372.58Zm40.93-1.17c-3.18,1.07,3.12,2.17,1.17,5.85h4.68C850.55,374.18,846,374.79,845.52,371.41Zm-52.62,0c-4.23-1.11-1.63,4.6-2.34,7,2.59,0.64,1.66-2.23,3.51-2.34C791.9,373.83,791.92,375.17,792.9,371.41Zm14,1.17c-2.07,3.3-1.44,18.77,3.51,22.22,4.19-.56,6.76-1.9,10.52,0C819.92,386.35,812.52,381,806.93,372.58Zm23.39,1.17c-2.56.17-2.51,2.95-2.34,5.85a7.6,7.6,0,0,0,5.85,1.17C833.36,377.73,830.33,377.24,830.31,373.75Zm-95.89,3.51a26.28,26.28,0,0,1,2.34,7c4.81-.26,2.55-7.59,8.19-7C743.16,373.38,739.08,376,734.43,377.26Zm-35.08,0a5.53,5.53,0,0,1,1.17,3.51c4.53,1,4.16-2.86,7-3.51C707,373.31,702,376.6,699.35,377.26Zm140.32,0c-1.86,2.37-.68,24,7,24.55-0.36,1.59-2.93,1-4.68,1.17,1.4,3.28,5,4.39,5.85,8.19,4.59-2.72,4.35,1.43,9.35,1.17-5.22-6.58-6.43-23-14-23.38C846.26,384.72,839.36,382.4,839.67,377.26Zm-154.36,1.17c-2.1-2.4-6.16,3.13-10.52,2.34,3.33,4.07,10.65,4.16,16.37,5.85,0.85-3.19-2.33-2.35-2.34-4.68,5.55-.55,1.29,1.46,3.51,3.51,3.68,0.56,4.57-1.66,7-2.34C696.66,378.55,682.46,382.18,685.31,378.43Zm-9.35,0c-2.47-1.84-5.74.21-9.36,2.34C667.73,382.57,673.41,379.08,676,378.43Zm176.58,0h-4.68c1.19,5,5.87,6.6,9.35,9.36-1.29-2.21-1.49-5.52-2.34-8.19C853.07,382.42,852.42,384.6,852.54,378.43Zm-132.14,7c-4.14-.13,2.48-3.86-1.17-3.51-6.28,8.1,15.9,8,14-2.34C728.75,377.19,720.68,379.89,720.39,385.44Zm71.33,1.17c-1-3.3,1.65-3,1.17-5.85h-4.68c1.17,6.24,6.38,8.43,8.19,14-0.25,1,3.87-7.09,0-9.36C794.15,387.61,795.48,387.59,791.72,386.61ZM745,380.77c-2.26,1.63-2.24,5.55-5.85,5.85a26.47,26.47,0,0,1,2.34,7C746.44,390.58,742.62,385.4,745,380.77Zm91.21,1.17c-1.32,3.18-1.73,8.1,0,11.69C841.21,393.11,835.22,385.89,836.16,381.93Zm43.27,3.51c-3.22,4.44,2.35,10.09,5.84,11.69C884.2,392.37,882.72,388,879.43,385.44ZM856,389c-3.33,1.56.9,5.2,1.17,7C860.61,394.34,856.88,390.2,856,389ZM700.51,394.8c4.59,2.72,4.35-1.43,9.36-1.17-4.11-4.81-13.59,2.95-17.54,5.85C695.39,402.83,700.52,398.39,700.51,394.8ZM697,393.63c0.2-2.53-4.15-.53-5.84-1.17,3.54,3.88-6.47,1.31-7,4.67C688.28,400.43,692.13,393.47,697,393.63Zm21.05,5.85c0-4.48-3.35,5.34-8.19,3.51-0.72,3.54,7.39,2.91,0,3.51a8.25,8.25,0,0,0,3.51,2.34c3.69-.59,5.13-3.44,9.35-3.51,1-3.3-1.65-3-1.17-5.84C721.37,401,714.43,401,718.06,399.48ZM678.3,403c-0.14,4.12-1.7.32-4.68,2.34,0.87,2.64,6.56.46,9.36,1.17C683.33,403.41,680.53,403.48,678.3,403Zm181.25,1.17c-1.56.81,0.58,3.12-1.17,5.84a6.58,6.58,0,0,0,4.68,1.17C861.37,409.35,860.6,406.61,859.55,404.16ZM695.84,420.52c-0.85-2.08-2.12-.17-3.51,0-0.82-4.33,4.1-2.92,5.85-4.67,0-3.4-6.61-2.77-8.19-1.17,0.34-1,3.16-5.12,3.51-2.34,2.87-6.5-7.62-.37-8.19,3.51C687,419,691.63,423.59,695.84,420.52Zm-12.86,0c1.17,2.48,4.72,5.67,7,3.51,0.16,0.08-7.94-2.64-2.34-3.51C687.48,417.62,683.69,420.18,683,420.52Zm-4.68-9.35c0-1.14,1.43-.91,2.34-1.17-0.73-2.5-7.2-1.1-8.18,0-0.53,3.26,6.37-.92,5.85,2.34C679.62,412.12,678.95,411.17,678.3,411.17Zm3.51,7c-2.86-.13-0.25-3.86,1.17-3.51-1.17-2.94-5.17.93-4.68,3.51,1,0.52,2.09,1,2.34,2.34,2-1.06,4.51-2.61,2.34-4.67C681.84,415.88,682.07,417.28,681.8,418.19Z"/><path class="cls-2" d="M773,379.6c-0.73-2.14-4.88,2-4.68,4.68,2.1-.15,2.47,1.43,4.68,1.17C772.34,384.74,770.28,379.9,773,379.6Z"/></svg>