<svg id="Layer_1" data-name="Layer 1" xmlns="http://www.w3.org/2000/svg" viewBox="0 0 1024 460"><defs><style>.cls-1{fill:#82a94a;}.cls-2{fill:#f0e9d3;fill-rule:evenodd;}</style></defs><title>terrain-texture6-bottom</title><path class="cls-1" d="M1024,351.91H0v61.83H7.71l25.5-11.89c7.58-1.38,15-3.34,22.51-4,8.47-.69,17-0.16,25.56-0.16,3.73,0,7.5-.35,11.18.06,12.25,1.39,23.09-2,33.14-8.84,8-5.37,16-10.54,26.22-17.22,4.32,0.85,11.22,2.82,18.24,3.43,7.89,0.69,15.89.16,23.15,0.16,12.47-10.2,26.37-5,37.39-6.41l28.81,19.57c4.57-1.33,8.44-3.54,12.17-3.31,6.06,0.38,10.6-2.95,15.85-4.46,2.87-.83,5.77-1.57,8.69-2.17,14.55-3,25.43,9,39.17,9.75,3.24,0.18,6.66,2.06,9.48,3.93,10.62,7,22.23,9.34,34.78,8.78,8.47-.38,17.92-2.19,25.2.82,6.5,2.69,13-.24,18,2.62,6.06,3.44,12,2.68,18,2.82,9.05,0.21,18.12-.14,27.17.12,7.42,0.21,14.39-.43,19.9-6.37h28.64l6.9-6.57h21.13l18.26-9.53c11.52,0.22,23.64-1.66,34.24,6.28,11.41-13.76,28.7-14.6,43.91-18.86l77.19,31.79c4.4,0,10.91.77,17.16-.19a41.86,41.86,0,0,1,24,3.94c8,3.79,16.35,4.09,22.63,1.86,5.81-2.06,11.06-2,16.54-2.29,7.42-.46,14.89-0.12,21.16-0.12l19.2,9.89,6-4.18c1.55,1.27,3.26,3.77,4.57,3.58,14-2,25,6.71,37.58,9.81,17.62,4.35,34.58,12.24,53.56,9.92,3.63-.44,7.93,1.32,11.36,3.12a122.79,122.79,0,0,0,34.84,12.06c12.39,2.24,24.78,4.76,37.2,7"/><path class="cls-2" d="M158.27,84.46c2.37-.36,2,2,3.77,2.26C161.37,88.3,157.83,86.48,158.27,84.46Z"/><path class="cls-2" d="M116.77,146.33H119c-0.36,2.37.94,3.08,2.26,3.77C119.7,151.89,116.64,148.77,116.77,146.33Z"/><path class="cls-2" d="M112.24,164.44c3.12,0.14,2.55,4,5.28,4.53C115.84,170.35,112.26,167.22,112.24,164.44Z"/><path class="cls-2" d="M199,166.7c3.1-.25.07,3.94,0,5.28C196.78,170.89,200,169,199,166.7Z"/><path class="cls-2" d="M196.75,196.88c1.78-2.16,4.28.75,6-.76a3.55,3.55,0,0,0-.75,2.26C199.65,198.52,199.51,196.39,196.75,196.88Z"/><path class="cls-2" d="M138.65,202.17c0.1,1.35-.92,1.59-0.75,3-1.22.21-1.3-.71-2.26-0.75v-1.51C137,203,137.22,202,138.65,202.17Z"/><path class="cls-2" d="M183.17,7.5c0.71,3.24-2.34,5-.75,6.79A3.81,3.81,0,0,0,184.68,12c-1.34-2.18.15-7.19-2.26-8.3C184,2,186.06,6.07,185.43,9a23.84,23.84,0,0,0,3-7.55c0.09,7.8-1.26,13-1.51,19.62,2-1,2.14-3.9,3-6,1,0.5,1.4,1.61,1.51,3,1.86-3.58,1.45-7.69,3-12.83,2.28,1.14-.63,3.31,0,5.28q1.16-1.11,2.26-2.26c1.18,2,.57,4-0.76,6,0.52,2.37,2,1,3.77.76-1.22,1.8-1.2,4.83-2.26,6.79,2.44,0.93.58-2.44,3-1.51-0.58,4.52-4.9,6.47-3,11.32,1.65-3,2.28-2.9,3.77-5.28,2.21,0.64-1,1.9,0,3.77,2.35-2.42,3.5-6.06,3.77-10.56,2.84,2.72-3.19,10.53.76,15.09,1.65-.11,1.62-1.9,1.51-3.77-3.21.43,3.23-3.52,0-7.55,4.58,1.39,1.71-6.06,3-10.56,1.16,1.05,2.14,3.91.76,5.28,0.68,2,1.82-1.59,2.26-2.26,2.37,2.92-2.71,4.8-1.51,9.05,2.42-1.7,8.46-13.68,6-4.53-3.69,2.09-5.92,5.66-7.55,9.81a0.76,0.76,0,0,0,1.51,0c2.17,1.26-1.4,3.06-3,3,1.07,2.33-1.11,3.9-2.26,6,0.7,1.35,3-2.67,2.26,2.26,1.89,1,2.36-3,3-.75-1.94,2.74-2.57,2.61-3.77,5.28,0.19,0.82,1.5.51,1.51,1.51-0.1-1.82,4.9-2.47,4.53-6.79-2-.47-0.13-0.39-1.51-2.26,0.12-.89,1.38-0.64,2.27-0.76-0.56-4.26.39-5.37-.76-9.05,2.36-.66,3.11-2.93,3.77-5.28,1.82,4.15-4,5.61-1.51,11.32,1.81,0.3-.42-3.44,2.26-2.26-0.74,2.52-2.4,4.14-3,6.79,2.42,0.16,1.84-2.69,3-3.77,2.15,2.22-2.7,6.95-.76,9.05,2.12-3.57,2.53-10.28,6.79-13.58-1.23,8.58-6.14,13.48-8.3,21.13,1.19-2,3.73-2.6,2.26-5.28,1.5,0,1,2.06,3,1.51V46.73c-0.33-1.12-1,.3-2.26,0,0.6-2.32,1.51-2.41,3.77-1.51,1.17-1.1,1.58-2.94,1.51-5.28-1.81-.3.42,3.44-2.27,2.26-0.56-2.32,2.07-1.45,1.51-3.77,0.77,0.49.78,1.73,2.26,1.51A89.57,89.57,0,0,1,224.67,52c6-3.46,4-11.44,7.55-18.11,2.56,3.6-2.36,6.17-1.51,10.56,0.77-.49.78-1.73,2.26-1.51,0,1.78-1.3,2.22-.75,4.53,1.33-.67,1.25-3.35,3-1.51-2.8,3-6.62,4.95-6.79,10.56-4.11-2.29-5.83,2.23-8.3,2.26,0.87,6.18-4.25,7.71-6.79,8.3,1.78,0.94,3.42.06,7.55,0,2.24-.78,1-5.07,3.77-5.28-0.65,2.62,0,2.86-1.51,5.28,3.48-.79,2.9-5.65,6-6.79-1,2.54-.77,6.27-3,7.55,4.56-.27,8.8-3.41,10.56.75-8.29,2.27-9.57,11.56-15.85,15.85,1.86,0.38,2.67,1.83,3,4.53,1.9-.62,1.05-4,2.26-5.28,1.77,0.19.43,3.32,0,3.77,2.73,0.21,1.73-3.31,3-4.53,2.45,4,.17-3.19,3.77-2.26-2,2.74,1,2.23,1.51,0,1.45,1.26-1.92,4.08-3.77,4.53a4.9,4.9,0,0,1,.76,3.77c2.09-5,8-6.06,8.3-12.83,2.71,2.83-2.29,5.53,0,8.3-0.64.14-.71-0.29-0.75-0.76-1-.73-4.69,2.32-5.28,4.53,2.88,0.61,2.92-1.61,3.77-3,1.34,0.55.11,1.37,0,2.26,3.54,0.52,2.79-3.25,5.28-3.77C243,84.92,242.06,85,242,86c5-1.5,3.46-6.09,1.51-9.81,1.11,1.41,3,2,3,4.53,3-5,3.74-8,6.79-15.09,1.68,1.74-1.24,7.11-1.51,11.32,0.24,2.5,2.33-2.94,3,0-2.81,1.72-4.26,4.79-7.55,6,1.88,0.33,7.62,1.47,8.3-.76,1.75,0.21,1.73,2,.76,3,2.71-3.11,5.2-1.8,6.79-6,1.29,4.07-5.39,6.67-9.05,8.3,1.56,2.68,3.89-.32,4.53.76-2.6,3.08-9.52-1.41-12.83-.76-3.29.14,0.9,3.59-2.26,3,0.38,2.75,5.11-.48,5.28,3.77-1.84-.67-3.27-1.76-6-1.51-0.82.19-.51,1.5-1.51,1.51,0.5,0.29,4.68.21,2.26,3,4.34,0.15.81-2.87,4.53-3-0.86,3.37-.45,1,1.51,2.26-2.71,2.32-8.15,1.91-11.32,3.77-0.14,2.13,2.84,1.76.76,3.77-1.4-.11-0.46-2.55-1.51-3a17,17,0,0,1-4.53,1.51c0.64,2.21,1.9-1,3.77,0,0,0.73-.92.59-1.51,0.75,2.66,1.53,6.8,3.86,9.06,1.51-0.47.67-.91,1.35,0,1.51-1.57,2-3.18.4-4.53,1.51,0.15,0.61.76,0.75,0.76,1.51,1.71-1.31,4.82-1.22,5.28-3.77,2.42,1.83,2.66.91,5.28,0,0.4,1.93,1,2.64-.76,3.77,0.66,2.23,1.13-1.75,3-.76-2.42,3.7,1.17,1.64.76,5.28-0.19.82-1.5,0.51-1.51,1.51-3.21-.45-1.46-3-5.28-1.51,1.93,0.95,3.69,4.53,7.55,3-0.14.61-.76,0.75-0.75,1.51,0.44-2.65,6.85,3.92,7.55-.75,0.94-2,3.86,2.27,2.26,3-2.72,1.15-6.32-3-6.79.76-3.44-2.09-7.42-3.64-10.56-6-2.32-.56-1.45,2.07-3.77,1.51,0.85,1.91,3.72,1.82,3.77,4.53,1.45-.9-1.49-4.62,3-3.77-3.91,3.15,1.32,5.12,0,6,2.82,0.81,2.15-1.87,4.53-1.51-0.28,1.28.59,1.42,1.51,1.51-2.81.55-4,1-6,3-0.38-3.47-6.6-5.38-9.06-9.05-2.4,0-7.78,1.47-8.3-2.26,1.35-.1,1.59.92,3,0.75,0-2.19-4.26-1.78-5.28-.75,2.32,2,3,5.54,7.55,5.28,0.21,2-.28,3.25-2.26,3,0.42,2,9.33,4.5,9.06,0,3,1-.21,1.56,0,3.77-4-.13-3.85-0.49-7.55,0-0.23,2,2.93.59,2.26,3,2.06-1.88,3.22-.31,5.28-1.51,1.52,1.74-3.12.77-3.77,1.51,1.55,1.72,4.88,1.66,4.53,5.28-1.1-.66-2.92-0.6-2.26-3-2.31-.55-2.75.77-4.53,0.75,1.52,1.88,7.28,7.95,8.3,0,0.56,3.85,2.36,2,6.79,2.26-3.55,1.22-6.32,2.26-8.3,3,0.09,2.17,3.22,1.31,3,3.77,3.34,0.36,3.75-1,6,0,0.1,1.35-.92,1.59-0.76,3,0.93-.84,1.55-0.66,1.51.76a43.44,43.44,0,0,1-4.53-1.51c-2.49,1.13,2.53.89,1.51,3-1-.76-2.81-0.71-3-2.26-1.79.73-3.71,1.33-3,4.53,0.92,1.09,2.88,1.14,3.77,2.26,2.47-1.88,8.82,0,8.3-6q2.94,0.68,2.26-2.26c2.47,6.26-5.79,8.28-9.05,11.32-1.89-1.93-2.53-.44-5.28-1.51,3.68,3.81,9.13,1.43,12.07,3-2.29,2-.77,2.8,0,5.28-3.76-3.14-2-3.57-7.55-5.28-0.93,2.44,2.44.58,1.51,3-1.32-2.92-7.47-3-6-4.53-3,2.22-1.17-3-5.28-.75,1.49,1,3.51,1.52,3.77,3.77,1.35,0.1,1.59-.92,3-0.75-0.52,2.77,10.78,7.59,13.58,4.53,1.39,0.88.52,4,3.77,3,0.89-.12.64-1.38,0.76-2.26,2.89-.14.27,0.62,0.76,2.26,2.67,0.41,1.86-2.67,4.53-2.26-1.63,1.85-3.83,5.54-5.28,3,3,5.23,9.14,2.79,8.3-5.28,1.56,1.85,1.22,8.24-1.51,8.3,5.93,2.51,9.94,2.19,15.09-2.26,2.76,5-9.23,1.83-8.3,7.55-0.14-2.32-5.1-3.7-3,0a25.22,25.22,0,0,0-9.81-6c3.94,5.59,9.75,6.05,15.09,9.06-1,2,.81,2.54.75,4.53,4.86,0.91,7.31.58,10.56-1.51,0.23,2-1.57,1.95-3,2.26-0.56,2.58,3.07,1,2.26,3.77-2-.5-2.87-2.16-4.53-3-3,3.67-2.05-.93-4.53,1.51-1.94-2.52-4.42-.44-7.55-2.27,2.29,1.48,2.18,5.36,6,5.28a1.16,1.16,0,0,1-.76,1.51c2.21,2.26,14.05,6.1,13.58-3.77,2.48,0.78-.57,8.26-4.53,7.55,1.4,0.42,2.81,3.84-.75,3,0-.73.92-0.59,1.51-0.76-2.07-.17-3.49-0.95-6-2.26-0.13,2.65,2.55,2.48,3,4.53a4.23,4.23,0,0,1,3-.75c-1.87,1.33-1.23,1.38.76,2.26-0.27,1-1.33,1.18-1.51,2.26,3.47,1.53,3.32,2.66,4.53,6.79-2.8.54-3.24-1.29-6-.76-0.42-7.78-4.39-7.69-6.79-12.82,1,0.26,1.18,1.33,2.26,1.51,0.21-3-3.23-2.31-3-5.28-1.89.78-2.39,3.42-3.77,0.76-2,.85,1,2.92,1.51,3.77-0.52,1.88-2-1.4-3.77-.75,1.92,3.14,1.11,1.65,3.77,4.53,0.47-3.84,1.28-.28,4.53-1.51,0.13,3.68-2.66.93-3.77,2.26,1.71,2.9,3.1-.5,3,3-1.93,2.58-3.81,5.36-1.51,8.3-2.84-3.32-.78,1.55-3,3,4.81,1.37,3.92-3.79,7.55-1.51-0.74,1-2,1.51-3,2.26,0.11,1.4,2.55.46,3,1.51,2.4-1.91-2.77-5.83,3-5.28,0.28-4.55-6.28-2.28-6-6.79,2.46,3,2.52-.25,5.28-0.76-4.78,3.47,1.43,3.69,2.26,7.55,4.31,0.79,4.42-2.63,7.55-3-1.7,3.89-4.1,3.4-5.28,6.79-1.1-1.41-1.44-3.58-4.53-3-1,.23-0.63,1.89-0.75,3,2.93,0.16,2.43,1.86-.76,3,4.11,0.06.28,2.34,0,6-3,.28-4.61-1.77-6,0.75-0.88-.12-0.64-1.38-0.75-2.26-0.89.12-.64,1.38-0.76,2.26-0.88-.12-0.64-1.38-0.76-2.26-1.33.18-1.72,1.3-1.51,3-7.44-1.1-10.72-9-18.11-3.77,0.11,2.16,3.15,1.38,5.28,1.51-1.57,2.85-5.94,0-3.77,5.28-1.65-1.36-5-1-4.53-4.53H247.3c-0.52-2.51,1.56-1.22,2.27-.76-0.65-3.12-3.39-4.15-6-5.28-0.52,2,1.56,1.46,2.26,2.26-0.5,2.26-1.61-.72-3,0a5.37,5.37,0,0,0,2.26,1.51c-3.16.88-9.91-1.14-13.58-2.26,2.16-1.9,9.28,2.33,10.56-.76-4.88-.74-9.38-3.68-14.34-0.76,0.31,2.55,2.93-2,2.26,1.51-16.85,4.78-23.66,19.59-37,27.92,0.73,21.75,2.74,44.48,5.28,65.65,2.58,21.5-2.11,44.61,4.53,63.38,21.5,3.9,31.55-1.74,48.42,6.79-43.33,1.75-51.49.26-98.68,0.76,16.89-7.26,13.06-.23,30.64-6.79-0.39-16.5.42-36.33-.75-61.12-0.94-19.77,3.61-40.73,0-52.82-1.32-4.42-7-5.69-9.81-9.06-3.84.32-6.71-.33-8.3-2.26-4.86,1.43-8.95,3.63-11.32,7.55-2-1.13,1.2-3.25,1.51-4.53-4.72,1.82-7.13,6-12.07,7.55-2-.68,1.73-1.69,1.51-3a15.33,15.33,0,0,0-4.53,4.53c-3.24-3.43,6.18-6.08,8.3-9.06,0.44-2.7-2.23-2.29-4.53-2.26-1.39.21-3.15,6.31-3,4.53-0.06.76-3.48,8.4-5.28,2.26,0.73,0,.59.92,0.76,1.51,3-2.07,3.73-6.33,6-9.06-2.44,1.83-5.36,3.19-5.28,7.55-2.73-2.35-2.15,3.43-5.28,3,0.69-3.08,3.56-4,3.77-7.55-0.14-.61-0.76-0.75-0.76-1.51-3,.73-4.25,3.3-6,5.28-1.75-1.31,1.45-4,3-4.53-4.25,0-6.91,8.17-9.05,12.83-3.21.44-4.79-.74-5.28-3-5.31,3.1-6.85-3.24-12.07-.76,1.4-1.78-3.12-2.47-1.51-6.79,1.18,0.32.64,2.37,3,1.51,0.56-2.32-2.07-1.45-1.51-3.77-0.21-1.58-2,1.09-3-.75a13.07,13.07,0,0,0,0-7.55c1.66,0.6,1,3.55,3,3.77,3.31-3,4.41-5.64,10.56-8.3-1.46-2.65-6.34-1.18-9.06-.76-1.41,3.42,3,1,2.27,3.77-2.93.62-3-5.5-4.53-3.77-2.1.34,0.59-4.11-1.51-3.77,1.75-2.89,1.1,2.84,3,2.27,2.11-1.31.71-2,.75-4.53,6.4,1.18,15-7.36,16.6-15.84-0.68-2.94-2.78,2.5-3,0,0.47-2.54,4.18-1.85,4.53-4.53-5,1-9.47,9.13-15.09,12.07,0.17,10.19-2.06-.43.76-3-2.37-.35-2.13,1.9-3,3-2.31.55-2.75-.77-4.53-0.76a0.76,0.76,0,0,1,1.51,0c6.06-4.25,12-8.64,18.11-12.83-0.33-1.12-1,.3-2.26,0,2.17-.09.39-4.14,3-3.77-1.26,1.5.07,1,0,3,2,1.34,1.46-3.32,2.26-.76,0-1.24,1.42-1.64,3-3-0.14-1.21-3.59,1.23-3-2.26-5.48,6.46-16.18,3.68-18.86,12.07-2.3-2.31-2.16,1.67-3.77,2.26-1.92-3,3.63-4.9,4.53-7.55-3.57.7-4.13,4.42-7.55,5.28,3.19-3-.39-4.49,5.28-4.53-3.14-2-8-1.48-12.07-.76,0.06-1.07.12-2.14-.76-2.26,1.19,0.91,4.8-1.28,5.28.76,3.05-2.2-.65-5.05,0-8.3,3.72,2.93.95,7.67,6,9.06a5.36,5.36,0,0,0,1.51-2.27c0.13-1.64-2.68-.34-3.77-0.75q1-1.68,3.77-1.51c-1.41-2.11-3.36-3.68-3.77-6.79,1.93,1.84,3,4.52,5.28,6,2.26-.5-0.72-1.61,0-3,2.57-.56,1.25,2.78,3,3,1.88-.52-1.4-2-0.75-3.77,0.82-1.73,1.25,3.21,2.26,3.77,3.68-1.61,9.61-1,13.58-2.26a2.23,2.23,0,0,0-1.51-1.51c4.77-.07,9.64-1.29,12.07-7.55-1.07-2-4.68-1.36-3.77-5.28,0.47,2.65,5.78,3.29,4.53,5.28,2.19-.65.85-1.13,0.75-3,3.07,0.64,5.76-1.94,3.77-6,0.77-2.34.74,2.14,1.51,2.26,4.89-1.58,7.13-3.79,9.81-6-2.67,1-2.46-1.6-6-3.77-2.74,0-.18,5.36-3.77,4.53,1.45-1.07,1.36-3.67,2.26-5.28-2.89.12-.73,5.3-4.53,4.53,1.29-.72,1.65-2.37,2.26-3.77-2,.78-4.92.61-4.53,3.77-2.42-1.08-4.91.71-5.28,3.77-0.73,0-.59-0.92-0.76-1.51-1.69.32,0,4-1.51,4.53-1.34-.55-0.11-1.37,0-2.26-2.29,0-.73,3.8-3,3.77,1.16-1.45,1.73-8.92,2.26-9.81-3.56-1-11.06,9.49-15.09,1.51,2.79,3.61,9.94.07,9.06-2.26-2.75-2.18-5.67.28-6.79-3.77,3,3.7,5.5-.63,9.06-0.76-1.7-2.25,1.09-4.62-1.51-5.28,1.37,1.7-5.67,2.16-5.28-1.51,1.88-.12,2.33,1.18,3.77,1.51-0.21-2.55-1.2-4.33-.76-7.55,2.74,0.78,3,4,4.53,6,3.05-2.76-.41-5.55-0.76-9.05,2.13,1.9,2.82,5.23,6.79,5.28-0.48,1.53-3.53.5-3.77,2.27,2.21,2.18,3.58-2.25,4.53-.76,2.05-.69-2-1.4-0.76-3.77,1.37,0.72,4.42.94,2.26,3,1.33-.68,2.2-1.82,3.77-2.26-0.1-1.67-3.2-.32-4.53-0.76,3.78-3-.65-7.87,0-11.32,0-1.77,2.06.28,1.51,1.51,1-1.13.24-3.25,0-4.53-1.35-.1-1.59.92-3,0.76,0.52-1.49,2-2,3.77-2.26-0.64-2.21-1.9,1-3.77,0,0.28,2.08-2.78,2.59-4.53,3-2.23-1.09-.65-1.69-1.51-4.53-1.44.33-1.9,1.63-3.77,1.51,0.62-2.13-1.06-2-.76-3.77a2.08,2.08,0,0,1,1.51,2.26c1.5,0,1-2.06,3-1.51,0.3-1.81-3.44.42-2.27-2.26,3.09,1.94,3.43-2.43,4.53,1.51,2.19-.65.85-1.13,0.75-3,3.47,1.26,3.66-2.39,5.28-.76-0.46-.67-0.91-1.35,0-1.51-3.42-2.11-9.09-2-14.34-2.26,0.67,2.61,3,3.53,3.77,6-3.19-.59-4-3.52-4.53-6.79-4.36.59-4.69-2.85-6.79-4.53,1.25-1.63,2,3,4.53.75-1.52,1.54.33,1.48,0.76,3,5.76-1.61,3.68-1.08,6.79.76,1-1.29-3.32-3.69-2.26-7.55,1,2.31,3.57,9.18,6,5.28,0.9,2.11,2.72,3.31,6,3-0.58-1-3.44-5.83,0-6-1.85,3,2,5.76,4.53,6.79,1.88-.52-1.4-2-0.75-3.77,2.27-.76,1.34,1.68,1.51,3,2.67-.34,4.36-1.68,7.55-1.51,0.13-1.64-2.68-.34-3.77-0.76,0.41-1.58,1.33-2.84-.75-3.77,1.57-2.48,3.18,1.27,4.53,1.51,1.5,0,1-2.06,3-1.51-0.84-1.43-1-3.56-1.51-5.28-1.81-.3.42,3.44-2.26,2.26-0.21-1.22.71-1.3,0.76-2.26h-4.53c-1-1.48-.72-4.31-1.51-6,2.82,2.7,8,.94,11.32-1.51-0.23-1-1.89-.63-3-0.76,2.27-2,2.26-4.89,4.53-1.51-0.23-4.48-5.73-3-7.55-.76-0.3,1.81,3.44-.42,2.26,2.26-2.81,1.92-3.65-3.3-3-3-1.14-.51-4.52,1.47-6.79.75-3.24-1-2-7.08-6-3.77,0.36-3.2-9.64-1-7.55-8.3,1.26,1,1.17,3.36,2.26,4.53,3,0.29,3.35-1.4,4.53.76,1.12-1.39,1.44-3.59,1.51-6,2.75,3.87,5.35,9,9.81,9.06-3.61-2.66-.81-6-2.26-9.81,2.17,3.64.47-2.15,3.77-1.51-2,3.16-1.43,8-.76,10.56,1-1.36.37-2.77,0.76-6,1.79,1.73,3.1,3.94,6.79,3.77,0.31-3.58-2.57-4-2.26-7.55a2.08,2.08,0,0,1,1.51,2.26c2.29-.93-0.82-2.59,0-4.53,1.61-.35,1.44,1.08,1.51,2.26,2.41,0.65,2.33-1.19,3.77-1.51-9.1-.11-8.65-7.85-13.58-10.56a3.55,3.55,0,0,0,.75-2.26c2.3-.29,1.28,2.74,3,3,0.41-.21.75-3.33,1.51,0,1-.15,1.4-3.14,1.51,0,2.21-.64-0.45-2.43,0-3.77,1.33,1.08,1.72.69,1.51-1.51a2.08,2.08,0,0,1,1.51,2.26c1.09-1.17,2.51-2,3-3.77,1.34,0.55.11,1.37,0,2.26,2.78-.74,3.92-3.12,6.79-3.77-0.82-.52-6.76.25-7.55,2.26-1.93-1.44-5.06-3.2-2.26-5.28-3-.11-5.46,3-8.3.76,0.64-2.21,2.43.45,3.77,0-5.68-4.19-21.83.81-18.87-12.07,1.12,0.64,1.09,2.43,1.51,3.77,2.31,0.55,2.75-.77,4.53-0.76-2.22-2.48-5.54-7.3-4.53-10.56A26,26,0,0,0,150,75.4c-1.81-2-4.19-3.36-5.28-6-3.44.12-3,.63-6,0,2.26-3.69,7.13-.15,10.56-2.26-0.39-6.4-11.45-2.13-12.07-8.3,1.89-.13,1.83,1.69,3,2.27,2.12,0.32-1.89-2.81.75-3,2,0.31.46,3.33,4.53,3-0.09-2.55-3.28.09-1.51-3.77-2.42-.13-6-1.48-7.55-4.53,2.52-2,2.8,4.72,7.55,3,3.28-3.27.19-3.06-4.53-5.28-0.27-.12,1.15-1.07,1.51-0.76-0.74-2.31-2.54.34-3,.76-3.68-2.11-7.58-4-8.3-9.06a16,16,0,0,1,5.28,6c0.88-.12.64-1.38,0.76-2.26,1.47,1,2.32,2.71,4.53,3-0.5-2.52-1.94-4.1-5.28-3.77a17,17,0,0,1-1.51-4.53c2.27-.76,1.34,1.68,1.51,3,2.63-2.44-2.13-3.86-.76-7.55a2.08,2.08,0,0,1,1.51,2.26c2.14-2.86.48-5.39,3-8.3,2.36,2-1.15,13.47,4.53,15.85,0.41-2.67-2.67-1.86-2.26-4.53,1.58,0.47,2.84,3.87,3.77.75,1.88,0.11.22,2.56,0,3,3.7-1.63,3.32,0,6.79.76-0.24-1.77-1.19-2.83-.76-5.28,2.46,5.14,2.51,5.88,8.3,9.05,1.35,0.23,0-2.93-1.51-2.26,0.52-1.49,2-2,3.77-2.26-1.09-3.27-1.69.8-4.53,0-3.45-6.34-7.15-6.41-9.05-12.07,0.59-1.68.43-4.09,2.26-4.53-1.1-2.45-4.33-5.85-3-8.3a14.92,14.92,0,0,1,2.26,5.28c2.54-.68.09-1.69,1.51-3,2.1,2.93,2.47,7.59,4.53,10.56,0.1-1.42,1.85-2.55.75-3.77,0.84-2.21,2.45,1,2.26,2.26,1.95-1,.17-4.62,0-6,4.23,0.55.75,8.81,3,11.32,1.74-2,.27-7.28.76-10.56,1.49-2.85-.19,3.6,1.51,3,2.32-3.29-3.55-8.24-1.51-11.32,1.39-.71.46,4.32,1.51,1.51,1,4,1.77,8.29,3.77,11.32,1.82,0.31,1.64-1.38,3.77-.76-2.52-1.18-1.7-1-1.51-4.53,2.41,3.73,4,4.41,4.53,9.06-1.43-.08-0.52-2.5-2.26-2.27-0.55,2.31,1.3,2.22.76,4.53,2.43-.86,1.94-5.09,2.26-6,4.73,1.2-2.32,6.35.75,8.3,1.5-3.35,5.22-10-.75-9.06,1.48-1.41.43-3.63-2.26-3,3.45-4.15-2.42-9.48-2.27-15.09,1.5,0,1,2.06,3,1.51-2.92,3,1.78,6.47,1.51,11.32,1.66-2.28-1.31-4,2.26-3.77-1.55-3-3.17-5.88-3.77-9.81,2.29,0,1.88,2.65,2.26,4.53,3.89-1.86-1.6-4.08-.75-7.55,4.07,1.68.44-1.27,2.26-3,0.9,2.88,3.15,7.57,2.26,9.81C183.52,13.38,180.07,8.28,183.17,7.5ZM196,15.8c-1.05,4.73-7.62,10.28-4.53,14.34,1.74-3.62.3,1.61,0.76,1.51C195.86,29.48,198.42,19.09,196,15.8Zm50.56,95.83c2.59-.17,3.29-2.24,3.77-4.53C247.89,107.43,245.94,108.25,246.55,111.62ZM136.39,255.74c-0.36-2.37,2-2,2.26-3.77-1.93.08-3.6,0.43-4.53,1.51C135.87,253.24,135,255.65,136.39,255.74Zm-25.65-10.56c-1.14,3.14-5.15,3.4-6,6.79,3.18,0.7,9.55-1.35,10.56-5.28A17.06,17.06,0,0,1,110.73,245.17Zm4.53,0.76c1.17-1.09,3.52-1,4.53-2.26-1.74.23-.84-2.18-2.26-2.26-1.1,1.92-4.57,1.46-5.28,3.77C113.67,245,113.91,246,115.26,245.93ZM153,129.73c-0.42-1.64-2.2-5.78-3.77-3.77C150.6,127.09,151.1,129.11,153,129.73Zm6.79-27.92c2.06,0.07,1.52-1.26,3,0-0.64-3.23.48-3.85-2.27-5.28-2.71,1.07-6.24,4.47-8.3,3.77-0.45,2.41,1.42,2.33,0,3.77,0.46,0.22,2.9,1.88,3,0-2.88.56-.86-2.78,0-3,2.08,2.06.71-1.1,2.26-1.51C157.42,103.24,162,96.8,159.78,101.81Zm5.28-49c-1.07-3.21-1.28-7.27-5.28-7.55C161,50,163,49.71,165.06,52.77ZM152.23,33.91c2.07,5.2,2.86,7.14,6.79,8.3-2.28-4.08-6.42-8.61-9.81-13.58C148.6,32.18,150.68,37,152.23,33.91Zm39.24,3c3.37,0.19.87,2.72,2.26,3.77,0.69-2.55,4.82-9,1.51-10.56C193.84,32.25,192.78,34.71,191.47,36.92Zm-27.92-1.51a8.38,8.38,0,0,0,3.77,5.28c-2.51-3.45-1-6.46-3.77-9.81C163.47,32.69,166.68,37.32,163.55,35.41Zm40,5.28c3.22-5.5-.38-6.21-0.76-9.81C199.57,36.81,200.72,36.9,203.54,40.7Zm-34.71-1.51c0.08,1.93.43,3.6,1.51,4.53a49.54,49.54,0,0,1,1.51-5.28c-1.62-.9-1.76-3.27-3-4.53C167.18,38.36,172.91,37.15,168.83,39.19Zm-29.43,2.26c-0.68-2.08-.23-5.3-1.51-6.79C137.72,38,136.47,40.1,139.41,41.45Zm58.85,3c1.63-2,3.31-5.34.76-7.55C200.13,40.24,195.54,43.18,198.26,44.47Zm-32.45,2.26c2.34-.76,2.93,4,4.53,1.51-2,.54.54-3.56-1.51-3C168.76,46.68,165.89,43.92,165.81,46.73Zm2.26-3c-2.53-2-5.59-3.46-7.55-6-0.2,3,.29,5.24,2.27,6,0.12-.89-0.13-2.14.75-2.27,0.43,1.84.65,3.88,3,3.77C166.58,44.23,167.89,44.53,168.08,43.71Zm21.13-1.51c-0.76,2.27,1.68,1.34,3,1.51V41.45A4.24,4.24,0,0,0,189.21,42.2Zm-9.81,4.53c0.16-.91.84-0.46,1.51,0V45.22c-0.76,0-.9-0.61-1.51-0.76-0.17.59,0,1.49-.76,1.51-0.42-1.34-.39-3.14-1.51-3.77C175.8,43.62,178.07,45.7,179.4,46.73Zm-4.53,0c0.36-2.37-.94-3.08-2.26-3.77C171,44.51,172.61,46.79,174.87,46.73ZM201.28,52c-0.22-3.35,3.29-8.44-.76-9.05C199.9,46.93,200.74,48.51,201.28,52Zm-57.35-4.53c0.17-.59,0-1.49.76-1.51-0.54,2.83,2.38,3.32,3.77,6,2.49-2.48-2-1.8-1.51-4.53,1.91,1.36,4.28-1.43,5.28,1.51-3.9,3.83,4.27,8.18,6.79,10.56,0.13-1.13-.27-2.78.76-3,0.1,1.86.11,3.64-.76,4.53,2.69,2.44,4.31,1.88,6.79,3,0.92-3.59-2.89-2.91,0-4.53-2.59,0-5.82-3.19-4.53-4.53,1.34,0.68,1,3.06,3.77,2.26-2.81-8.56-13.73-10.26-21.13-12.07C143.82,46.11,142.59,46.93,143.93,47.49Zm49,8.3A14.39,14.39,0,0,1,197.51,49c0.32-1.66-2.26-4.16-3-2.26A2.06,2.06,0,0,1,196,49c-0.46-.22-2.9-1.88-3,0,1.47,0.79-2.8,2.17-2.26,4.53A2.08,2.08,0,0,1,193,55C192.56,55,192.12,55.64,193,55.79Zm18.11,0.75c2.24-.71,1.73-8.16,3.77-4.53-0.37-2.43,3.52-4.46,1.51-6C213.86,48.27,210.67,53.84,211.09,56.54Zm-15.85,0c0.18-2.08,2.81-1.72,3.77-3-1.56.06,1.56-5.34,0-5.28C198.07,50.84,193.83,54.09,195.24,56.54ZM217.12,55c3.12,1.06,3.93-4.05,2.26-5.28C219.39,52.27,216.93,52.33,217.12,55Zm-14.34-.76a4.24,4.24,0,0,1,3,.76c0.16-2.17-.19-3.83-1.51-4.53C204,51.94,202.14,51.87,202.79,54.28Zm-30.93,0c1.38,1.45,2.55-.64,3.77-1.51-1.43.17-1.66-.85-3-0.76A3.55,3.55,0,0,1,171.85,54.28Zm0.76,2.26c0.1,1.41.5,2.52,1.51,3,0.17-1.34-.76-3.78,1.51-3,0.14,2.46-1.77,3.63,1.51,3.77-0.72-3.62,3.06-5,0-6.79C176.6,55.5,173.59,55,172.61,56.54Zm-4.53,3c1,0,1-1,2.26-.76-0.1-1.4-.5-2.52-1.51-3-0.18,1.08-1.24,1.27-1.51,2.26,0.59,0.17,1.49,0,1.51.75C168,58.77,166.92,59.16,168.08,59.56Zm31.69-2.26c1,1.87-1.69,3.66,0,3.77,3-2.58,2.63,2.88,3,3.77,1.88-.48.76-5.94,3-3.77,0.66-2.42-1.16-2.36-2.26-3A2.08,2.08,0,0,1,202,60.31c-0.33-1.68,2.33-4.09.75-4.53C202.67,57.18,200.23,56.25,199.77,57.29Zm-19.62,4.53C180.09,59,179,59.39,180.9,58c-1.08-.18-1.27-1.24-2.26-1.51C178.52,58.92,178.61,61.1,180.15,61.82Zm17.35-.75c-0.39,1.12-1.12,1.9-1.51,3,1.47-.59,6.95-1,5.28-2.26C199.94,63.22,199.08,61.5,197.51,61.07Zm-27.92,5.28a2.83,2.83,0,0,0,3-3c-1.08-.18-1.28-1.24-2.27-1.51C170.44,63.68,170.46,65.46,169.59,66.35Zm18.86,7.55c0.89,0.87,2.67.86,4.53,0.76a39.5,39.5,0,0,0,1.51-5.28c0.18,1.33,1.3,1.72,3,1.51-0.13-1.89,1.16-2.36,2.26-3,0.18,0.82,1.24,1.81,1.51.75a2.05,2.05,0,0,1-1.51-2.26C195.58,66.69,191.71,69.12,188.45,73.89Zm-11.32,0c0.73-1.53,2.9-1.63,5.28-1.51,0-3.49-2.14-4.9-6-4.53C176.84,69.66,175.43,73.33,177.13,73.89ZM150,73.14c0.08-.92.23-1.79,1.51-1.51,0.21-1.72-.18-2.84-1.51-3C148.91,69.6,147.26,72.61,150,73.14Zm72.43-.76c5.29,1.21,8.23.31,9.81-3.77C226.43,68.47,225,68.77,222.4,72.39ZM129.6,70.88c3,0,7.34,5.23,12.07,3C138.11,71.26,135.36,68,129.6,70.88Zm80,2.26c0.31-1.7,4.14.11,3.77-2.26-1.13,0-3.08-2.8-3.77-.76C214,70.16,205.73,71.44,209.58,73.14Zm-18.87,7.55h1.51a2.23,2.23,0,0,0,1.51-1.51c-0.59-.17-1.49,0-1.51-0.75,1.13,0.13,2.78-.27,3,0.75-0.81,2-1.83,3.7-1.51,6.79,2.65-.74,3.67-8.18,1.51-9.05,1.43-1.09,3.34-1.69,3-4.53A36.41,36.41,0,0,0,190.71,80.69Zm7.55,0c0-.46.11-0.89,0.76-0.76,1,0,.69,1.32,1.51,1.51-0.33-3.13,3-6.51.76-9.05A3.81,3.81,0,0,1,199,74.65c-0.56,2.32,2.07,1.45,1.51,3.77C198.22,76.43,197.28,80.15,198.26,80.69Zm18.11-4.53c2,6.55,6,3.51,7.55-1.51,0.43,1.33-.91,4.43.76,4.53-0.75-3,2.25-2.27,1.51-5.28-3.15.64-3.56-1.47-6-1.51C220.51,75.27,217.47,74.75,216.37,76.16Zm-49.8,0c-1.78-.23-1.4-2.62-3.77-2.26C162.06,77.86,165.85,76.46,166.57,76.16Zm-8.3.76c-0.2-3.24-4.06-2.29-6-1.51C154,76.19,156.78,75.88,158.27,76.91Zm-6,2.26c1,1,3.69,1.17,3.77-.75C154.25,78.19,152.76,76.81,152.23,79.18Zm17.35,0c-1.57-1.75-3.18.85-4.53-1.51a4.23,4.23,0,0,0,.75,3C167.35,79.5,171.07,79.57,169.59,79.18Zm9.81,3c2.05-.46,3-2.07,3-4.53h-3A3.7,3.7,0,0,0,179.4,82.19ZM156,86.72c2.32,0.48,7.77,3.19,9.06,0-4.68-.49,5.19-1.22,1.51-3-0.68,1.82-1.17-2.76-2.26-3C160.71,81.87,157.41,83.35,156,86.72Zm18.87-1.51c-0.76-2-1.24-4.29-3.77-4.53C168.61,84.38,171.22,88,174.87,85.21Zm9.05,4.53c-0.46,0-.89-0.11-0.76-0.76,0.55-1.76,2.06-6.44-1.51-6,0,2.29-2.28,6.71.76,7.55C182.6,89.08,183.66,90.92,183.92,89.74Zm7.55,6.79q-0.17-2.81,1.51-3.77c-0.41-1.81-3.26-5,0-6,0.07,1.18-.1,2.62,1.51,2.26,0.75-3.43-3.88-3.74-4.53-1.51-0.87-1.58.35-2.84-2.27-3.77-0.07,2.34.34,4.19,1.51,5.28,0.17-.59,0-1.49.76-1.51C191.95,90.24,188.92,94.87,191.47,96.53Zm21.88-9.05c1.33-.43,4.43.91,4.53-0.76-2.57-.81,2.1-0.23.76-2.26-1.78,0-2.22-1.3-4.53-.76C214.41,85.52,212.73,85.34,213.35,87.48Zm33.2-.76c1.41-1.61,7.43,1.93,8.3-2.26C251.58,84.24,245.28,84.91,246.55,86.72Zm-95.83,1.51a4.92,4.92,0,0,0,3.77.75c-0.13-1.13.27-2.78-.76-3-0.2,1.18-1.65.52-2.26,0A3.56,3.56,0,0,1,150.72,88.23Zm57.35,3c-2.1.34,0.59-4.11-1.51-3.77a2.06,2.06,0,0,0,0,3c-1.06-.06-2.89.17-1.51,0.75C206.77,90.21,207.89,93.19,208.07,91.25ZM236,89c-0.37,3.11,3.68,1.07,3.77,0,0.81,0.7.24,2.79,2.26,2.26-1.77-3.86,1.42-1.22,1.51-3.77C239.66,87,238.89,90.55,236,89Zm-24.14,0c-0.65,2.37-2.85,3.19-3,6,1.58,0.41,2.84,1.32,3.77-.76-0.89-.12-2.14.13-2.26-0.76,3.78,1,6.51-6.19,6-4.53h-4.53Zm-47.54,8.3c3.25,0.13,2.61-6.47,1.51-8.3-2.93-.38-4,5-2.26,6.79,0.22-.67,2-3.31,2.26-1.51C166.37,96.33,164.32,95.79,164.31,97.29Zm-7.55-1.51c-0.21-4.38-7.83-2-5.28-5.28-0.46-.43-3.58-1.77-3.77,0A3.81,3.81,0,0,1,150,92.76c-1.72,1-2.84-1.95-3,0C151.19,95.5,152.39,96,156.76,95.78ZM155.25,92c1.92,0.59,3.66,1.37,4.53,3-0.55-2.31,1.3-2.22.75-4.53C157.25,90.48,156.36,89.16,155.25,92Zm78.47,2.26c2.3,0.08,5.15-3.13,6,0-1.1.66-2.39,1.13-2.26,3,2.89,0.12,2.45-3.08,3.77-4.53-3.57-.23-8.17-3.37-11.32-1.51C233,91.62,232.09,91.43,233.72,94.27ZM168.08,98c1.44,1.58,2.06,4,5.28,3.77-1.3-2.19-1.17-9.55,2.26-6.79,0.36-2.37-.94-3.08-2.26-3.77C171.17,93.08,168.84,94.78,168.08,98Zm39.24-2.26a3.56,3.56,0,0,1,.75-2.27c-1.82-1-8-3.86-6,0,0.93-1.37,2.09,2.13,3,1.51-0.7.81-2.78,0.23-2.26,2.26,3,0.44,1.93-3.1,3.77-3.77C206.68,94.4,206.43,95.65,207.32,95.78Zm9.81,6.79c3.24,0.78,6.23-2.57,4.53,1.51,2.49,0,2.88-2.14,3-4.53-2.18-.94-4.16-4.91-7.55-2.26C216.87,99.63,218.87,100.89,217.12,102.57Zm-22.64,2.26c3.42,1.41,1-3,3.77-2.26-1.4,1.33.2,2.34,1.51,3,0.18-1.08,1.24-1.27,1.51-2.27-2-1.92-1.64-4.92-4.53-2.26-0.17-1.33,2.79-4.46.76-3C195.8,100.79,196.38,101.77,194.49,104.83ZM199.77,98a7,7,0,0,0,3,4.53c1.86-.89-1.55-2.85.76-3.77a2.08,2.08,0,0,0,1.51,2.26c-0.55-2.06,1.5-1.52,1.51-3C202.89,98.28,203.23,99.05,199.77,98Zm30.93,3.77c1.4-.1,2.52-0.5,3-1.51-1.32.21-3.77-2.13-4.53,0,1.09,1.67,1.84-1,2.26.75C231,101.1,230.57,101.17,230.7,101.81Zm-55.08-.76c-0.79,1.91,2.55,3.34,3,1.51-1.25,0-.42-2.09-1.51-2.26A1.16,1.16,0,0,1,175.62,101.06Zm42.25,3.77c0.17,0.59,0,1.49.76,1.51,0-.79,1-0.59.76,0.76,1.3,0.19,4.47-1.42,2.26-2.26a1.16,1.16,0,0,1-1.51.76,2.23,2.23,0,0,0-1.51-1.51C218.59,104.54,218.52,105,217.88,104.83Zm11.32,0.76c-0.48,1.65,2.14,2.4-.76,2.26v1.51c0.85-.08,1.17,1.1,1.51,0C228.1,108.64,234.23,105.69,229.2,105.59Zm9.05,1.51c-0.68,1.31-2.78,2.08-3,0,0.92-.08,1.79-0.23,1.51-1.51-2.85-1-3.67.3-6-1.51C231.81,106.24,239.23,112.11,238.25,107.09Zm-99.6,1.51c-2-.81-2.8-2.73-5.28-3C132.79,108.48,137.32,110.12,138.65,108.6Zm45.27,3c-0.58-2.19-1.19-4.34-3-5.28C180.7,108.69,185.16,113.13,183.92,111.62Zm40-3a4.25,4.25,0,0,1,3,.76c0.22-.46,1.88-2.9,0-3C226.72,107.89,224.12,107,223.91,108.6Zm-10.56,3.77c-1.39-2.07,2.45-1.33,3-3,0.08,0.92.23,1.79,1.51,1.51-0.68-6.43-8,1.45-9.81-2.26a1.16,1.16,0,0,1-1.51.76c0.6,3.36,1.3,2.67-1.51,1.51,0.21,1.32-2.12,3.77,0,4.53,0.52-2.37,2-1,3.77-.76C209.41,110.92,212.52,112.69,213.35,112.38Zm-22.64,1.51c0.42-2,3.08-3.51,0-4.53C191.53,111.29,188.42,113,190.71,113.88Zm-45.27-2.26c-3.12,1.06-5.83-2.15-7.55,0C140.64,112.06,142.09,113.9,145.44,111.62Zm75.45,0.76c1.19,1.2,4,.21,5.28-0.76C224.17,110.86,222.33,110.83,220.9,112.38Zm-37.73,3c-1.49-1.8-4.35-4.58-4.53-1.51-0.89-.11-1.71-1.34-2.26,0C178,114.53,182.32,116.44,183.17,115.4Zm17.35,3c-3.22,1.21-3,2.9-6,3a1.16,1.16,0,0,1,.75,1.51c3.54-.58,3.05-4.47,6-3.77-0.63-2.42-.64-1.56.76-3-1.5,0-1-2.06-3-1.51C200,117.1,200.1,116.24,200.52,118.41Zm-33.2-1.51c2.4,2.23,5.59,2.75,6.79-.76C172.4,115.65,167.79,114.2,167.32,116.9ZM156,116.15c-0.08,1.43-2.49.52-2.26,2.26,2,1.78,4.4,4.58,3.77,6.79,1.15-1.87,4.69-1.35,4.53-4.53-1.48-.23-1.5,1-2.26,1.51,0-.76-0.61-0.9-0.76-1.51,2.68,0.37,3.33-5.17,0-4.53-0.86,2.37,1.18,1.83,1.51,3C157.09,120.09,158.15,116.52,156,116.15Zm3.77,9.81c2.91-.15,2-3.56,5.28-1.51v-2.26C162.34,122.48,160.25,123.42,159.78,126Zm68.66-9.05c-2-1.2-2.63-.56-0.76.76-2.55,1.21-3.22-3.2-4.53-.76C224.51,117.67,227.79,119.79,228.44,116.9Zm-9.81,2.26c-4.78,1.31-6.87-3.45-8.3.76,4.13,0.69-1.66.26-1.51,1.51,2.72,0.08,5.76,3.75,8.3,1.51a2.06,2.06,0,0,1-1.51-2.27c1,0,1-1,2.26-.75-2.1,2.09,1.4,2.43,1.51,4.53,2.82,0.81,2.15-1.87,4.53-1.51-1-2.07-3.1-6.92-5.28-5.28,1.92,1.09,2,4,3.77,5.28C220.32,122.51,218.17,122.14,218.63,119.17Zm-70.17,1.51c0.64,1.67,3.18,5.32,5.28,3-1.81-1.25-.63-5-1.51-5.28C152,120.18,148.94,119.15,148.46,120.67Zm29.43,0c0.25,1.76.77,3.25,2.27,3.77,0.67-2.2,1-2.6-.76-3.77,1.23,0.55,3.28-1.5,1.51-1.51C180.79,120.56,178.35,119.63,177.89,120.67Zm-30.93,3a4.25,4.25,0,0,1,.76-3h-3C144.56,122.56,145.85,123,147,123.69ZM202,132c1.12,0.39,1.9,1.12,3,1.51,1-.46.11-2.9,1.51-3,0.18,3.15,2.68-.34,4.53,1.51a4.25,4.25,0,0,1,.76-3c-2.78,2.59-3.76-.68-5.28,0,0.42,0,.86.61,0,0.76-0.63-.48-2.36-3.53-0.76-3.77,1.18,0.33.64,2.37,3,1.51,0.31-1.82-1.38-1.64-.76-3.77C204.66,125.07,202.27,127.46,202,132Zm7.55-4.53c2.83,0.57,2.55-2,3.77-3-0.46,0-.89-0.11-0.76-0.76h-1.51C211.2,125.57,209.9,126,209.58,127.47Zm17.35-3A5.37,5.37,0,0,1,229.2,126c-1.93.58-3.47-3-4.53-.75,1.77,1.26-.28-0.07-1.51,0-0.19,3.72,4.51.18,2.26,3,1.43-.17,1.67.85,3,0.76,0.25-1.76.77-3.25,2.26-3.77,1,3-2.48,1.54-1.51,4.53,3.93-.14,7,4.52,8.3,4.53-2.19-2.78,1.13-1.47,1.51-2.26-2.8-1.73-2.24-2.92-3,0-0.47-1.29-2.28-1.24-3-2.26C234.78,127.62,229.47,122.21,226.93,124.45Zm-8.3,8.3a4.92,4.92,0,0,0,3.77.75,5.32,5.32,0,0,0-3-4.53C220,131.11,218.32,130.93,218.63,132.75ZM217.88,126c-1.82.31-1.64-1.38-3.77-.75-0.63,1.63-2,2.57-1.51,5.28,3.85,2.32,8,.42,6-3.77-0.81.71-.24,2.78-2.26,2.26C216.38,127.48,218.43,128,217.88,126Zm-44.52,3.77V126H171.1C171.18,127.88,171.24,129.84,173.36,129.73ZM165.81,132c2.88,0.67,4.82-1.23,6,0-0.93-1.84-.64-4.9-3-5.28A13.92,13.92,0,0,0,165.81,132ZM159,129c2.55,0,3.86,2.23,6.79.76C165.46,126.16,159.74,127.26,159,129Zm20.37,3.77c-0.7-1.31,0-4-2.26-3.77C175.61,130.48,177.69,132.25,179.4,132.75Zm15.09,3c2.21-.2,2.32,1.71,4.53,1.51-0.72-2.3-.89-5.15-3-6C195.09,133.89,194.89,133.72,194.49,135.77ZM174.11,138c0.67-1.59,2.3-2.23,2.26-4.53-1.33.43-4.43-.91-4.53,0.76C175,133.09,172,138.16,174.11,138Zm9.05,3.77C180,143,183,137.9,180.9,138c-1.18.58-1.13,2.4-3,2.27,0.64-2.12,4.88-6.11-.75-6a10.77,10.77,0,0,1-2.26,5.28C177.63,139.83,181.24,143.19,183.17,141.8Zm30.18-4.53c-1.27-.31-3.39-3.56-4.53-1.51C209.19,137.61,212.18,140.69,213.35,137.28Zm8.3,3c1.36-1.74-1.75-3.83-3-5.28C219.15,137.26,219.55,139.63,221.65,140.3ZM222.4,135c0.16,4.37,5.67,3.38,9.06,4.53,1.17-2.68-2.56-.46-2.26-2.26,0.42,0,.86-0.61,0-0.76C227.92,138,224.57,135.15,222.4,135Zm-13.58,4.53c-0.42-1.34-.39-3.13-1.51-3.77-0.51,1.75-2.51,2-3,3.77C207.39,139.76,206,136.29,208.82,139.54Zm-66.4,3c3,0.44,5.09-3.92,3-6C145.28,139.37,143.07,140.19,142.42,142.56Zm6-3c2.28,1.54,5.65-1,6.79-3A8.56,8.56,0,0,0,148.46,139.54Zm15.85-.76c1.48-.23,1.5,1,2.26,1.51,0.2-1.56,3.34-.18,3-2.27-1.88.12-2.34-1.18-3.77-1.51C165.63,137.6,164.57,137.79,164.31,138.78Zm30.93,1.51c0.77-.74,1.53-1.49,2.27-2.27-1.44-.32-1.9-1.62-3.77-1.51C194.91,138.05,194.85,141.78,195.24,140.3Zm43,3.77c1.1-1.91-3.08-8.25-6-6A19.44,19.44,0,0,0,238.25,144.07Zm-83,0c0.36-1.95,4.84-3.65,2.26-6-0.22,1.57-2-1.12-2.26,1.51C158.07,140.51,153.11,143.77,155.25,144.07Zm-15.09-5.28c-0.76,2.3-1.25,1-2.26,0a32.47,32.47,0,0,0-6.79,6.79c-0.67-1.95-3.68-1.82-4.53,0,1,0,.69,1.32,1.51,1.51-0.13-3.18,1.69-.52,2.26,0,1.94-2.14,7.77-2.15,4.53-5.28,1,0.24,1.44,1.07,3,.76,0.55-3.31-1.5.61-1.51-1.51C137.85,140.26,141.63,140.93,140.16,138.78Zm101.11,6c-0.34-2.1,4.11.59,3.77-1.51-2.27-1-5.12-5.4-7.55-3.77,1,0,.69,1.32,1.51,1.51C241.17,139.2,239.95,144.62,241.27,144.82Zm-92.81-1.51c1.56,1.21,1.08,4.45,3.77,4.53-0.21-3,3.8-5.71,1.51-8.3C151.93,142.39,150.23,141.21,148.46,143.31ZM159,144.07c2.34-.18,2.93-2.1,4.53-3-1.43.17-1.66-.85-3-0.75C160.21,141.73,158.91,142.19,159,144.07Zm38.48,0c3.52,2.6,6.29,3.3,7.54,6.79,1.48,0.23,1.5-1,2.27-1.51,0.47,5.56,8.68,3.39,10.56,7.55,3-4.75,8.24-2.6,13.58-4.53-1.89-4.46-15.7-4-12.83-8.3-4,.27-5.45-2.1-8.3-3-0.41,1.1.88,3.9-.75,3.77a4.91,4.91,0,0,1-.76-3.77C204.11,142.09,201.37,140.31,197.51,144.07Zm-37.73,3.77c5.67-.85,7.81-1.92,10.56-4.53C165,141,161.16,142.66,159.78,147.84Zm73.94-2.26c-0.32-2.12,2.81,1.89,3-.75-1.74.23-.84-2.18-2.26-2.26,0.23,2.36-2.18-1.92-2.26.75a2.23,2.23,0,0,1,1.51,1.51C233.3,144.82,232.87,145.43,233.72,145.57Zm-88.28-.75c0.43,1.33-.91,4.43.75,4.53,0.25-1.77,3.29-.73,3.77-2.26-1.44-.32-3.25-0.27-3-2.26,0.42,0,.86-0.61,0-0.76A1.16,1.16,0,0,1,145.44,144.82Zm2.26,9.81c-1.23.34-1.23-4.11,0-3.77a2.08,2.08,0,0,0,1.51,2.26c-0.36-2.37,2-2,2.26-3.77H146.2C145.35,150.06,145,156.58,147.71,154.63Zm52.06,3c3.05,0.14,3.84-4.66,6-3a17.26,17.26,0,0,0-10.56-9.81c-1.36,3.67-4,6.06-4.53,10.56,1.87,2.72,3-3.41,3.77-1.51,0.62,2.68-4.68,3.31-2.26,5.28,1.54-2.48,4.12-3.93,6.79-5.28C198.39,156,200.08,155.83,199.77,157.65ZM192.22,169c1.64-4.92,8.39-7,6.79-12.83C193.44,156.61,189.44,162.65,192.22,169Zm47.53-21.13c0-1,1-1,.76-2.26-1.83-.48-2.83,3.6-1.51,3.77-0.13-1,3.84-1.51,1.51-2.26C240.47,147.54,240.4,148,239.76,147.84Zm-99.6,3c1-1,.46-3.56,1.51-4.53C139.57,145.81,138.48,150.08,140.16,150.86Zm43,8.3c4.34-1.42-1.29-4.31-.75-6.79,1.08,0.18,1.27,1.24,2.26,1.51,1-3.25-2.14-2.39-3-3.77a3.82,3.82,0,0,1,2.26-2.27c-0.06,1.06.17,2.89,0.76,1.51-0.14-2.12-1.31-3.21-3.77-3,1.41,4.48-.87,1-2.26,2.26C181.26,151,182.63,154.67,183.17,159.16Zm-15.09-9.05c2.61-3.82,2,3.12,5.28,3.77a4.25,4.25,0,0,1,.76-3c-0.89-.12-2.14.13-2.26-0.75,0.46-1.3,3.58.06,3.77-1.51C173.35,147.24,165.71,146.27,168.08,150.1Zm4.53,9.05c0.18-4.05-1.16-3.79-3-6.79-0.2,1.06-1.65.86-2.26,1.51,0.22-1.54,2-1.48,2.26-3-2.36,1.12-3.08,0-4.53-1.51-1.92,1.6-6.18.87-8.3,2.26A7.7,7.7,0,0,0,159,158.4c4.77-.68,2.76,5.68,5.28,8.3,7.69-4.8,13.29.45,18.86,3.77,0-5.68-.89-8.62-3-10.56,3.28-1.36-.73-7.57-3.77-7.55-0.94,6.22,2.76,7.81,3.77,12.07-3.48-.71-2.48-8.18-6-4.53,0.44-1.7,1.86-9.18.76-7.55C173.55,154.07,174.48,158,172.61,159.16Zm-18.87-3c-1.9-2.16,2.79-3.53,0-6-0.08,1.93-2.81,1.21-3.77,2.26v2.26C151.41,155,151.87,156.26,153.74,156.14Zm-9.05.76a4.22,4.22,0,0,0,.76,3c2.37-2.13,6.2.83,8.3-2.26C151.22,157.05,147,155.36,144.69,156.89Zm-3-.76c-0.12,2.19-3.4,5.1.76,5.28,0.45-1.34-2.21-3.13,0-3.77,0.76,1,.71,2.81,2.26,3A5.33,5.33,0,0,0,141.67,156.14Zm2.26-1.51c-0.31-1.82,1.38-1.64.76-3.77a4.91,4.91,0,0,0-3.77.76v3a17.07,17.07,0,0,0,4.53,1.51C145.36,155.22,145.22,154.35,143.93,154.63Zm-6,6.79c0.21-1.32-2.13-3.76,0-4.53,2-.54-0.54,3.56,1.51,3-0.55-2.31,1.3-2.22.76-4.53-1.46-1.53-4.12,2.39-2.26-1.51h-2.26C136.7,157.26,134.92,159.45,137.9,161.42Zm90.54-.76c-0.38,2.38-3.45,2.09-5.28,3-0.12-.89.13-2.14-0.76-2.26-1.57,3.82,6.46,3.93,6.79,8.3-0.76,0-.9.61-1.51,0.75-0.16-2.64-3.77-5.74-5.28-4.53,0.25,2.58,6.34,2.84,3,4.53,1.64,2.65,3.94,1.2,6,2.26-2.08.51-1.72,0.14-3,2.26-0.91-1.89-4.41-5.1-6-3.77,0.52,1.87-.67,3.78,0,8.3-3.12,1.91-4.77,5.29-7.54,7.55,3.28,2.28,6.7-2.29,5.28-4.53,3.49,1,2.08-3,3.77-3.77,1.39,3.7-3.13,5.36-1.51,6.79,3.39-3.41,9.39-4.19,10.56-9.81a5.33,5.33,0,0,0,1.51,2.26c4.92-4.56,7.6-4.25,13.58-9.05-4-2.32-7.08-4.88-6.79-9.81-4.65-1.54-8.93-5.46-12.83-3,1.4,4.1,7.07.09,11.32,3.77-2.55-.21-4.33-1.2-7.54-0.76,2.29,0.51,5.09,8.17,9.05,6.79v2.26c2.44-1.23,3,.73,4.53,2.26-3-.95-2.34-0.58-3,0.76-2.85,1.09-1.45-2.07-3.77-1.51q0.17,2.81-1.51,3.77c-0.43-1.5-1.51-3.86.76-5.28-1.74-1.31-6.39-3.63-5.28-5.28,2.4,2.14,6.44,6.62,9.05,6C237.1,165.47,233.23,162.71,228.44,160.67Zm-12.07-3c-1.93-.62-5.17-3.83-7.55-1.51C211.74,156.84,214.31,162.57,216.37,157.65Zm-7.55,4.53c-0.31,1.29-1-.16-2.26,0,1.21,2.3-2,4.45-1.51,6.79C206.43,167.19,212.63,164.38,208.82,162.18Zm3,0c-2.72-1.31-2.6-5.45-6-6C207.73,159.38,208.71,162.84,211.84,162.18Zm14.34-3c0.89-.12,2.14.13,2.26-0.76-2.67.41-1.86-2.67-4.53-2.26,0.62,2.13-1.06,2-.76,3.77,1.41,0,1.6.58,0.76,1.51,3.68,0.69-.19-5,1.51-4.53C225.46,157.86,226.39,157.94,226.18,159.16Zm-5.28,1.51c1.65-.11,1.62-1.9,1.51-3.77-1.4.1-2.52,0.5-3,1.51a2.09,2.09,0,0,1,2.26,1.51C220.85,159.88,219.73,160.27,220.9,160.67Zm-76.21,2.26c0-.46-0.11-0.89-0.76-0.75v2.26c2.12,0.3,4.25-3.21,3-3.77Q145.85,161.83,144.69,162.93Zm9.05,0.76v-3C148.51,163.39,145.49,167.36,153.74,163.68ZM194.49,175c-0.21-2.2.18-2.59,1.51-1.51,0.69-1.32.26-3.76,1.51-4.53v4.53c6.31-.12,7.84-10.91,2.26-12.83C199.35,166.14,188.54,170.34,194.49,175Zm56.59-5.28c4.18-1,2.27-.22,4.53.75,0.66-3.21,6.14,1.19,8.3-1.51-1.77-2-7.23-4.31-9.06-3.77,0.69,0.21,2.53,2.81.76,3-3.08-5.26-7.05-4.45-12.07-7.55,1.32,5.33,3,5.63,6.79,8.3,1.06-2.16-2.34-4.12.76-3.77C251.92,167.57,251.15,166.9,251.08,169.72Zm-32.45-3a4.22,4.22,0,0,1,3,.76c0.73-2.8-3.05-4.93-3.77-3.77C220.36,164.44,220.08,165,218.63,166.7Zm-60.36,3c0.19-2.33,3.76-1.27,3-4.53C159.22,165.19,156.84,168.73,158.27,169.72Zm0.76-6c-2.58.31-1,2-3.77,0.76,0,2-.42,4.44,1.51,4.53C157.39,167.08,158.83,166,159,163.68Zm-9.05,3c1,0.77,2.78.74,3.77,1.51-1-1.87,1.68-3.66,0-3.77C153.5,166.2,150.45,165.17,150,166.7Zm64.14,18.11c2.41-.61,3-3,5.28-3.77-1.61-3.9,1.73-3.6-.76-6,1.59,0,3.93-6.45,0-7.54-0.07,1.18.1,2.62-1.51,2.26,0.24-1,1.07-1.44.75-3-6.92-5.22-8,3.8-14.34,5.28,0.43,1.32-.91,4.43.76,4.53-0.1-1.35.75-1.77,2.26-1.51-0.53-3,1.55-3.48,2.26-5.28,1.73,2.94-2.87,8.75-5.28,7.55-0.41,5,5,4.91,3,7.55,0.21-1.78,2,.86,3,0.75,0.55-2.06-1.5-1.52-1.51-3,5.11-.21,1.5-6.63,3-7.55,2,1.89,1.38,4.68,2.26,6,2.3-2.59-2.26-4.7,0-6.79,1.25,2.54.87,5.05,3,1.51C217,179.65,212,181.91,214.11,184.81ZM166.57,169c2.54,1.08,4.94-1.28,7.55-2.26C171,166.87,167,166.09,166.57,169Zm-20.37,3.77c1.4,1.93,4.68,1.91,5.28-.75-4.06-.59,2.17-0.44,1.51-2.26-1-1-3.56-.46-4.53-1.51C150,171,147.62,171.1,146.2,172.74Zm37,4.53c-0.23-1.77-1.48-3.12,0-4.53-4.45-2.24-8-4.8-13.58-2.26,1.54,6.06,7.75,3.6,10.56,5.28-0.89.12-2.14-.13-2.27,0.76,1.44,0.32,1.9,1.62,3.77,1.51,0.82-1.93-2.29-3.6,0-4.53C181.58,174.91,182.58,179,183.17,177.27Zm88.28,2.26c2.14,0.91,6.55,3.47,9.05,1.51-7.78-.85-13.33-15.19-23.39-8.3,5.9-.61,6.91,3.65,11.32,4.53,0.3-1.3-1.12-1.93,0-2.27,2.1-.34-0.59,4.11,1.51,3.77a2.06,2.06,0,0,1,2.26-1.51A3.55,3.55,0,0,1,271.45,179.53ZM129.6,172c0.08,1.93,1.38,2.64,2.26,3.77-2.39-3.65,3.73-1.27,3.77-4.53-2.61-1-3.56,3.39-5.28.76,0.59-.17,1.49,0,1.51-0.76A3.55,3.55,0,0,0,129.6,172Zm28.67,1.51a2.42,2.42,0,0,0,3.77-.76C161.08,171.71,158.35,171.57,158.27,173.49Zm-6,6c0.19-.9,1.58-3.37,3-0.76-0.45-1.73,2.8-3.58.75-6-1.73.79-2.67,2.36-5.28,2.26C151.13,177.4,152,180.94,152.23,179.53Zm19.62,16.6c0.32-3.44,2.08-3.19.76-6.79-1.22-1-3.89-.64-4.53-2.26,1.13-.13,2.79.27,3-0.76a8.73,8.73,0,0,0-6.79-5.28c1.33-.43,4.43.91,4.53-0.76-1.77-1.53-1.65-8.88-5.28-6-0.23.55-.84,7.18-1.51,9.81a31.47,31.47,0,0,0,4.53,3c-2.38.37-2.66-1.36-5.28-.76,2,3.85,3.41,6.77,2.26,12.07,3.76,0.28,7.69,4.36,11.32,2.26-1.71.36,1.74-4.09-.76-4.53-0.17,1.34.76,3.78-1.51,3C172.17,195.33,175.68,193.72,171.85,196.13Zm83,8.3c-1.33,1.18-4.82.21-5.28,2.26-1-4-5.28-4.79-9.06-6-0.81,2.82,1.87,2.15,1.51,4.53,8.87,0.94,12.73,6.89,20.37,9.06v-1.51a2.23,2.23,0,0,0-1.51-1.51c-0.17.59,0,1.49-.76,1.51C261.62,209,258.14,205.69,254.85,204.43ZM273,193.87c-2,.21-3.25-0.28-3-2.26,1.08,0.18,1.27,1.24,2.26,1.51,0.45-1.34-2.21-3.13,0-3.77a5.35,5.35,0,0,0,1.51,2.26c1.21-1.43-.68-4.34-2.26-5.28-0.12.89,0.13,2.14-.76,2.26-0.9-6.05-2.82-6.72-6.79-9.05-1.77,3,1.42,2.31,1.51,5.28-0.76,0-.9.61-1.51,0.75-1-1.42.86-3.34-3-3,0.15,2.79,2.57,7.32,4.53,3.77,0,0.76.61,0.9,0.76,1.51-2.88-.62-0.89,3.64-3.77,3-1.47-3.56-1.62-8.44-5.28-9.81-0.12,3.46,4.56,5.06,2.26,8.3,3,0.8,2.58,5,5.28,6,0.45-1.34-2.21-3.13,0-3.77,0.52,1.69,2.27,3.78.76,5.28,3.61-.87-0.63-5.53-0.76-7.55,1.86,1.12,1.69,3.1,4.53,1.51-3.66,5.3,2.71,8.74,4.53,14.34-4.94,1.4-5.15,3.9-9.81,4.53,0.75-3.38,2.26-2.08,4.53-3,0.33-1.92-1.49-5.46-2.26-3.77,1.23-.34,1.23,4.11,0,3.77-0.09-2.15-.77-3.67-3.77-4.53,2.2,0.21,4.48-3.56,2.26-4.53a2.08,2.08,0,0,1-1.51,2.26v-3c-2.06-.55-1.52,1.5-3,1.51,0.55-2.06-1.5-1.52-1.51-3a3.55,3.55,0,0,0,2.26-.75c-0.58-4.13-3.62-7.08-5.28-6,3.05-2.23,0-8.87-1.51-11.32,0.36,2.37-.94,3.08-2.26,3.77-0.06-3-1.33-4.71-2.26-6.79-4.8,1.41-6.81,1.13-9.81,3.77,3.89,0.86,5.63,6.27,9.06,5.28-0.24,3,2,4.49,2.26,9.05,1.38,1.21,2.55-.69,3.77,1.51-1.08.29-1.27,0.91-2.26,0-0.48,5.76,6.27,4.29,8.3,7.55-1.13.13-2.79-.27-3,0.76,0.91,0.16.46,0.84,0,1.51,2.82,0.51,4.43-2.09,4.53,1.51-1.32.21-3.76-2.12-4.53,0,2.21,1.57,3.6,7.12,6.79,5.28-0.65,4.65,1.84-.49,2.26,1.51-0.09,3.78-3.7-.34-3.77,3.77,1.73,1.54,11.31-2.59,6.79,1.51,1.76-.25,3.25-0.77,3.77-2.26a2.06,2.06,0,0,1-1.51-2.26c1.08,0.18,1.27,1.24,2.26,1.51,1.88-3.66,4.51-6.56,5.28-11.32a30.48,30.48,0,0,1-4.53-3.77c-1,.46-0.11,2.9-1.51,3a3.82,3.82,0,0,1-2.26-2.27h3C274,196.2,273,197,273,193.87ZM122.05,178a4.91,4.91,0,0,0,3.77.76c-0.56-2.32,2.6-.92,1.51-3.77C125.44,175.88,123.94,177.15,122.05,178Zm138.83,3.77c1-1.22,2.67-1.86,2.26-4.53-1.68.26-4.8-3.84-3.77-1.51C261.53,177.37,259.64,180.77,260.89,181.79ZM145.44,178c1.82-.31,1.64,1.38,3.77.76-1-1.72,1.95-2.84,0-3C148.74,177.29,145.69,176.25,145.44,178Zm12.07,0.76c1.35,1.16.61,4.42,3,4.53,1.1-2.36.8-7.08,0-7.55C159.85,177.09,157.75,177,157.52,178.78Zm12.07-3c2.26,5,.85,5.3,4.53,8.3a3.55,3.55,0,0,1-2.26-.76c0.82,3.71,3.2,5.85,4.53,9.05,0.5-1.57,2.82-5.16.76-6.79,0,0.42-.61.86-0.76,0v-1.51c4.13,2,1.89,0,5.28-1.51,0.12,1.88-1.18,2.34-1.51,3.77,0.92,1.65,5.42-1.54,3-3-0.78-.27-5.62-6.92-8.3-5.28,1.55,1.47,2.48,3.56,3.77,5.28h-3C173.94,178.68,174.85,178.13,169.59,175.76Zm6.79,17.35c0.87,1.65.15,4.88,2.26,5.28,2.73-2.44,0-4.7,1.51-7.55C175.26,189.6,179.19,195.51,176.38,193.11Zm-46-14.34c0.1,1.86.11,3.64-.76,4.53,2.13,0.62,2-1.06,3.77-.76v-3A4.24,4.24,0,0,1,130.35,178.78Zm106.39,9.81c1.56,1.16,3.86,4.06,6,2.26-0.51,3.53,3.23,2.8,5.28,3.77-1.9-6.9-2.71-14.89-10.56-15.85-4,1.82-3.8,5-7.55,3.77,2.4,4.86,10.56,5.11,15.09,6.79C242.89,191.88,235.38,187.06,236.74,188.58Zm-79.23-9.05c-9,6.05-14.81,15.37-24.15,21.13,4.06-.72,8-1.58,9.81-4.53,0.08,2.82,6.54.38,8.3,0-1.84-1.16-.24-5.21.76-6-0.83,3.07-.69,5.12.75,7.55h3.77c-0.79-4.77,5.56-8.89,2.26-11.32-1.24,2.53-.7,6.85-3.77,7.55C157.5,189.32,158.63,186.5,157.52,179.53ZM276,190.09c0.16-3-2.26-7.25-3.77-6C274.32,185.2,273.36,189.44,276,190.09Zm-43,4.53c0.22-3.68,1.48,3.61,3-.76,0.76,2.52-1,2.47-3,2.26,2,4,8.43,2,9.05-1.51-4.58-3-9.34-9.76-15.09-9.06C229.8,187.73,231.21,191.35,233,194.62Zm-10.56-6c3.59,1.08,3.58,1.07,6.79,2.26-0.55-2.47-2.71-3.32-4.53-4.53C224.9,188.06,222.49,187.16,222.4,188.58Zm-23.39,3q0.17,2.81-1.51,3.77c-1.26-3.42-.41-4.78-1.51-7.55-6.05,5.94-1.33,13.23-.76,17.35a20.22,20.22,0,0,1,8.3-6.79C204.3,193.86,201.85,192.54,199,191.6Zm6.79,3.77c-1.22-.23-2,1-0.76,1.51a1.16,1.16,0,0,1,1.51-.76,4.91,4.91,0,0,1,.76-3.77c-4.47.77-1.15-1.56-3.77-2.26-0.17.59,0,1.49-.76,1.51-0.26-2-2-2.55-3.77-3C200.23,191.9,203.78,192.87,205.8,195.37Zm7.55-4.53c0-1,1.32-.69,1.51-1.51-2.21.2-2.32-1.71-4.53-1.51A2.84,2.84,0,0,0,213.35,190.85Zm-55.08,6.79c2.31-.54,2.75.77,4.53,0.76-0.25-3.27.86-7.9-1.51-9.05C161,192.85,157.8,193.4,158.27,197.64Zm24.15-3.77c0.22-1.54,2-1.48,2.26-3h-3C181.79,192,181.39,193.63,182.42,193.87Zm46,3.77c-2-3-7-3-8.3-6.79-2.31-.55-2.75.77-4.53,0.76-0.71,3.07,4.09,2.62,5.28,1.51C220,195.84,227.09,197.56,228.44,197.64Zm3-.75c0.75-3.52-3.1-2.43-4.53-3.77C226.81,196,230,195.56,231.46,196.88Zm-18.87-.76c8.94,8.92,6-.84,0,0h0ZM239,199.9c4.62-.89,4.35-0.54,7.55.76-0.63-2.39-2.2-3.84-3.77-5.28C243.93,199.29,239.33,197.46,239,199.9Zm-27.16.76c-3,1.16,1.95,4.42,0,4.53-2.69-1.08-1.24-6.3-3.77-7.55-2.68,3.16-2.39,5-.75,9.06-1.75-2.7-1.61,4.13-3.77.75,2.27-.8,1.48-4.11.76-6-3.48,1.65-10.54,5.71-7.55,9.05,0.07-1.18-.1-2.62,1.51-2.26-1,1.78.1,1.4-.75,3.77,1.69,0.32,2.4,1.62,3.77,2.26-2.41.65-2.33-1.19-3.77-1.51-0.09,2.17.41,4.94-.76,6,3.25,0.73,5.37,1.43,7.55,1.51-1.74,2-4.66,1.2-6-.75-2,3.61,6.6,2.23,6,6.79-1.93-1.34-3.3-3.24-6-3.77-0.7,4.74,4.69,7.36,8.3,5.28a44,44,0,0,1-2.26-5.28c1.48,0.23,1.49-1,2.26-1.51-1.46,2.71.29,2.76,0.76,5.28,2.44,0.93.58-2.44,3-1.51-0.43.46-1.77,3.58,0,3.77-0.2-2.46,2.93-1.6,3-3.77-1.72.21-2.84-.18-3-1.51,3.47,0.18,2.65-3.39,6-.76-3.72-8.54-.39-19.63-6-26.41C208.58,197.86,210.69,199.6,211.84,200.66Zm12.07-3c-2.21.2-2.32-1.7-4.53-1.51C218.43,198.67,223.21,199.25,223.91,197.64Zm30.18,6c-1.56-3.22-4.6-5-7.55-6.79C247.44,200.77,250,203,254.1,203.67Zm-37-3c-2-.5-2.87-2.16-4.53-3,2.17,7.39,5.22,13.89,11.32,17.35,2.27-1,4.1-2.44,7.55-2.26,0.13-1.89-1.16-2.36-2.26-3-0.09.92-.23,1.79-1.51,1.51,1.07-4-1-2.58-2.26-.76-0.55-5-3.33-7.74-7.55-9.05-0.1,1.4-.5,2.52-1.51,3C216,201.11,215.31,201.13,217.12,200.66Zm-70.93-1.51c-3.43.09-5.23,1.81-6.79,3.77-0.12-.89.13-2.14-0.76-2.26-4.1,3.19-8.86,5.73-10.56,11.32,2.28,2.24,1.66,7.39,4.53,9.05C138.18,214.54,144.22,207,146.2,199.15ZM119,239.89c6.1-1.17,8.42.85,9.81-3.77-0.18.82-1.24,1.81-1.51,0.75,0.78-2.75,3.44-9.62.76-9.05,3.86-2.93,9-8.56,9.81-12.07a59.51,59.51,0,0,1-10.56,9.81c0.18-2.33,2.1-2.93,3-4.53a32.84,32.84,0,0,0-3.77-9.05c-0.81,2-1.83,3.7-1.51,6.79,2.62,0,2.47,3,.76,3.77,0.21-2-.28-3.24-2.27-3-2,4.12-.49,7.28,2.27,7.54-1.18,1.08-.6,3.93-3,3.77,2.31-2.3-1.67-2.16-2.26-3.77C121.63,230.59,117.39,233.5,119,239.89Zm49.8-32.45c-3.25,4-6.84,7.75-12.83,9.06-0.6,2.61.84,3.19,1.51,4.53C164.8,220.51,170.21,214.11,168.83,207.45ZM152.23,215c2.65-.37,4.91-1.12,8.3-0.75-0.55-4.7-3.26-8.75-5.28-14.34-6.71,3-7.41,10.9-12.83,16.6,2.21-7.35,5.69-13.43,11.32-17.35h-6c-2.29,8.41-8,14.33-8.3,22.64v-3c-4.87,2.92-7.49,8.1-9.81,13.58,6.29-1,9.89-6.2,12.07-9.05,2.46,2.29,11.51-1.44,15.09-3C154.57,219.2,155.72,214.77,152.23,215Zm70.93-11.32c1.43,0.33,4.55-1,3.77,1.51-2.75-.12,7.71,10.14,9.81,2.26-3.89-7.21-10.76-9.12-15.85-6.79C222.71,203,224.46,200.12,223.16,203.67Zm-65.64-3.77a29.32,29.32,0,0,0,5.28,12.83c1.59-3.94,5.39-5.67,8.3-8.3-3.13-.11-0.15-0.5,0-1.51C167.6,204.21,164.54,199.2,157.52,199.9Zm21.13,3h3.77c0.17-1.43-.85-1.66-0.76-3h-3v3Zm89-.75c1.34,0,2.19,4.24,3.77,1.51-1.56-.2-0.18-3.34-2.26-3C269.18,201.65,267.86,201.35,267.68,202.17Zm-27.92,4.53a1.16,1.16,0,0,1,1.51-.76,3,3,0,0,0-4.53-2.26C238.07,204.36,238,206.45,239.76,206.69Zm-56.59,0c-0.17-1.43.85-1.66,0.76-3h-3C180.78,205.56,182.07,206,183.17,206.69Zm-11.32,15.09c-3-.3-1.57-5-3.77-6-0.86,2.66-3.05,4-5.28,5.28,4.3,1.23,9.49,1.57,13.58,3,3.21-7.6,5.09-10.55.76-18.87-1.83,1-3.9,2.38-2.26-.75h-2.26C169.86,210,169.18,218.37,171.85,221.78ZM107.72,212c1.93-.08,3.6-0.43,4.53-1.51C111,211,109,209,110.73,209c1.44,0.32,1.9,1.62,3.77,1.51,0.24-2.11,6-.36,6.79-3.77C115.19,206.87,109.13,207.1,107.72,212Zm151.66,3c-7-1.65-10.25-9.93-18.86-7.55,0.53,2.49,1.61,4.43,5.28,3.77C242.46,216.57,255,221.71,259.38,215Zm-43,5.28a7.54,7.54,0,0,0,5.28-5.28c-2.87-1.16-3.17-4.87-6-6C213.5,213,216.38,216.12,216.37,220.27Zm-19.62,5.28c-1.86.1-3.64,0.11-4.53-.76-0.75,3,1.67,4.38,0,6,3.3,0.68,7.65,2,12.82,0-11.1-1.55-8.28-15-11.32-21.13-1.13,3.94-1.42,10.08,1.51,12.07-1.66-1.73-3,.19-3,2.26C194.16,224.13,195.82,224.47,196.75,225.56ZM236,209.71c-0.18,1.08-1.24,1.27-1.51,2.27,3-.6,3.73,4.81,8.3,3-3.27,0-2.26-4.84-3-3.77C238.79,213.33,238.2,208.84,236,209.71Zm47.54,9.81c-1,0-1-1-2.26-.76-0.52,2,1.56,1.46,2.26,2.26,0.39-1.12,1.12-1.9,1.51-3-1-.77-2.78-0.74-3.77-1.51C280.15,219.37,284.63,216.65,283.52,219.52Zm-172,2.26c2.6-.2,6.22-3.3,5.28-4.53C115.67,219.43,112,219,111.49,221.78Zm66.4,3c2.31-.55,2.22,1.3,4.53.76-0.19-3.08.73-7.27-1.51-8.3A45,45,0,0,0,177.89,224.8Zm41.5-3.77c0.74-1.77,3.78-1.25,3.77-3.77C221.2,217.36,218.24,220.32,219.39,221Zm-71.68,5.28c-2.7,2.38-5.17,10-4.53,15.09,5-1.84,10.54-6.21,11.32-9.81a2.72,2.72,0,0,0,4.53-2.26c-0.89-.12-2.14.13-2.26-0.76,3.85,2.18,1.37-8.16-.76-4.53,3.49,0-.65,2-1.51,2.26V224c-2.62-.61-2.9,1.12-5.28.75C150.63,228.77,149,225.19,147.71,226.31ZM165.06,224c-0.89-.87-2.67-0.86-4.53-0.76,0.45,1.56-.93,5,0.76,5.28C162.07,226.59,164.28,226,165.06,224Zm-2.26,4.53c2.48,0.29,3.33,2.21,5.28,3,0.13-1.13-.27-2.79.76-3,0.12,0.89-.13,2.14.76,2.26a15.06,15.06,0,0,0,4.53-5.28C168.31,224.49,165.43,225.09,162.8,228.57Zm-19.62-2.26q-0.17,2.81,1.51,3.77c0-2.3,1.59-2.93,2.26-4.53C145.13,225.25,145.31,226.93,143.18,226.31ZM150,239.89c0.22,2.63,2-.06,2.26,1.51-2.12,2.19-2.06-1.13-3.77-1.51a1.16,1.16,0,0,1-1.51.76c-1.85,1.78,1.13,1.4.76,3.77-1.5,0-1-2.06-3-1.51-0.67,1.34-2.11,1.92-1.51,4.53,3.17,0.4,4.22-1.32,6.79-1.51,0.23-1.48-1-1.5-1.51-2.26,1.43,0.17,1.67-.85,3-0.76v2.26c14.21,0.79,19.37,6.31,30.94,9.05,0.51-9.87,0-14,0-24.9-2.25,0-2.57-2-4.53-2.27,0.63,8.58-1,16.8-5.28,23.39-0.07-1.19-1.92-.59-1.51-2.26,3.76-4.34,8.35-14.88,4.53-21.88-1.4,2.12-3.54,3.5-4.53,6-2.67-.88-7.9,2.14-9.81,4.53,0.73,0.86,2,5,.76,5.28-1.7-2.25-1.94-.71-2.26-3.77-1.79,1.13-.76,3.18-1.51,3.77-1.65-2.84-4.35-.7-6,2.26,0.87-.89.85-2.67,0.75-4.53h2.27c-0.63-2.3-.09-3.84-0.76-4.53C153.32,237.2,150.43,237.34,150,239.89Zm-10.56-3.77c-0.33-2.44-2.54-3-3.77-4.53-5.15,5.26-7,9.9-8.3,19.62,2.33-1,5.41-5.31,1.51-6,2.44,0.43,3.8-.23,4.53-1.51q-0.52,3.54,3,3c-1.86-2.59,1.23-5.66-1.51-6.79,3.31,0.55-.61-1.5,1.51-1.51,0.37,1.34.81-.33,1.51-0.76,0.17,0.59,0,1.49.75,1.51,2.15-3.51,5.58-5.83,3.77-11.32C137.56,228.68,140,234.24,139.41,236.12Zm-30.93,3c2.58,0-.11-2,3-2.27a3.56,3.56,0,0,1-.75,2.27c3-.52,4.31.72,6.79,0.75-0.66-3.46,1-8.52,0-9.81C115.1,233.69,109.51,234.14,108.47,239.14Zm52.06-4.53c2.49-.28,3.77-1.76,5.28-3-1.34-.67-1.92-2.11-4.53-1.51C160.42,231,160.43,232.75,160.53,234.61Zm-0.75,1.51q0.17-2.81-1.51-3.77c-0.23,1.78-2.62,1.4-2.26,3.77,0.66,1.1.6,2.92,3,2.26C159.41,236,157.25,234.73,159.78,236.12Zm36.22,6c1.11-3.67,4.89-4.67,6.79-7.55-4.22-2.44-7.74,1.2-9.05-2.26a15.46,15.46,0,0,0,0,11.32c1.41-1.34-.61-1.92,0-4.53,1.43,0.17,1.66-.85,3-0.76C197.56,240.31,193.5,241,196,242.16ZM122.05,252c5.67,0.63,5.22-8.84,5.28-11.32C123.18,242.52,122.47,248.41,122.05,252Zm17.35-7.55c-3.76-.32.3-1.62,0.76-2.26-1.08-.18-1.27-1.24-2.26-1.51C135.84,242.14,138,248.56,139.41,244.42Zm-21.13,4.53c2.06,0.07,1.52-1.26,3,0-1-1.87,2.22-3.13,0-3.77A14.91,14.91,0,0,0,118.28,248.95Zm-9.06,8.3c3.21-3.33,6-7.09,9.06-10.56C115.14,249.6,108.72,253.2,109.22,257.25Zm21.13-6c0.82-1.7,4.74-.29,3.77-3.77C131.3,246.68,129.53,250.82,130.35,251.21Zm18.86-.76c-1.19,1.28.08,4.35,3,3.77,0.42-2.67,1.79-6.28-.76-6.79-1.79.88-.68,5.13,0.76,5.28C149.28,253.91,150.67,250.76,149.21,250.46Zm0.76-2.26c-1.81,1.47-7.2-.66-6.79,3,2.31-.55,2.75.77,4.53,0.75C147.14,249.39,150.77,251,150,248.19Zm9.81,0a3.55,3.55,0,0,1-2.26-.76c0.55,2.73-1.3,2.73-.76,0h-3V252C154.2,248.8,158.28,251.84,159.78,248.19Zm-45.27,7.55c1.9-.9,5.83-3.69,3.77-6C117,251.22,113,253.89,114.51,255.74Zm9.81-2.26c-1.8-1.58-4,1.06-4.53,3,4.58-.69,4.33-2,5.28-3.77C125,253.18,125,253.61,124.31,253.47Zm-9.81,3a4.23,4.23,0,0,1-.76,3h1.51c0,0.46.11,0.89,0.75,0.76,0.71-2.06,2.32-3.22,3-5.28A17,17,0,0,0,114.51,256.49Zm3.77,6c3.71,1.14,7-5.17,5.28-4.53C122.31,260,119.73,260.71,118.28,262.53ZM107,261.77c1.82,0.31,1.64-1.38,3.77-.75q0.2-2.47-2.26-2.26C108.08,259.87,107.35,260.66,107,261.77Z"/><path class="cls-2" d="M164.31,154.63c0.33-1.12,1,.3,2.26,0-1.39,1.77-3.67,2.66-2.26,5.28,0.64,1.12,2.43,1.09,3.77,1.51C164.08,166,161.88,155.43,164.31,154.63Z"/></svg>