<svg id="Layer_1" data-name="Layer 1" xmlns="http://www.w3.org/2000/svg" viewBox="0 0 1024 620"><defs><style>.cls-1{fill:#82a94a;}.cls-2{fill:#f0e9d3;fill-rule:evenodd;}</style></defs><title>terrain-texture6-bottom</title><path class="cls-1" d="M1024,492.8H0v61.83H7.71l25.5-11.89c7.58-1.38,15-3.34,22.51-4,8.47-.69,17-0.16,25.56-0.16,3.73,0,7.5-.35,11.18.06,12.25,1.39,23.09-2,33.14-8.84,8-5.37,16-10.54,26.22-17.22,4.32,0.85,11.22,2.82,18.24,3.43,7.89,0.69,15.89.16,23.15,0.16,12.47-10.2,26.37-5,37.39-6.41l28.81,19.57c4.57-1.33,8.44-3.54,12.17-3.31,6.06,0.38,10.6-2.95,15.85-4.46,2.87-.83,5.77-1.57,8.69-2.17,14.55-3,25.43,9,39.17,9.75,3.24,0.18,6.66,2.06,9.48,3.93,10.62,7,22.23,9.34,34.78,8.78,8.47-.38,17.92-2.19,25.2.82,6.5,2.69,13-.24,18,2.62,6.06,3.44,12,2.68,18,2.82,9.05,0.21,18.12-.14,27.17.12,7.42,0.21,14.39-.43,19.9-6.37h28.64l6.9-6.57h21.13l18.26-9.53c11.52,0.22,23.64-1.66,34.24,6.28,11.41-13.76,28.7-14.6,43.91-18.86L718.17,545c4.4,0,10.91.77,17.16-.19a41.86,41.86,0,0,1,24,3.94c8,3.79,16.35,4.09,22.63,1.86,5.81-2.06,11.06-2,16.54-2.29,7.42-.46,14.89-0.12,21.16-0.12l19.2,9.89,6-4.18c1.55,1.27,3.26,3.77,4.57,3.58,14-2,25,6.71,37.58,9.81,17.62,4.35,34.58,12.24,53.56,9.92,3.63-.44,7.93,1.32,11.36,3.12a122.79,122.79,0,0,0,34.84,12.06c12.39,2.24,24.78,4.76,37.2,7"/><path class="cls-2" d="M184.62,100.69c3.38-.51,2.85,2.9,5.39,3.23C189.06,106.18,184,103.58,184.62,100.69Z"/><path class="cls-2" d="M125.34,189.08h3.23c-0.51,3.39,1.34,4.4,3.23,5.39C129.53,197,125.15,192.56,125.34,189.08Z"/><path class="cls-2" d="M118.87,214.95c4.46,0.2,3.65,5.69,7.55,6.47C124,223.39,118.9,218.92,118.87,214.95Z"/><path class="cls-2" d="M242.83,218.18c4.43-.35.1,5.63,0,7.55C239.64,224.16,244.25,221.52,242.83,218.18Z"/><path class="cls-2" d="M239.6,261.3c2.55-3.09,6.11,1.07,8.62-1.08a5.07,5.07,0,0,0-1.08,3.23C243.73,263.63,243.54,260.59,239.6,261.3Z"/><path class="cls-2" d="M156.6,268.84c0.14,1.93-1.32,2.27-1.08,4.31-1.74.31-1.86-1-3.23-1.08v-2.16C154.22,270.06,154.56,268.6,156.6,268.84Z"/><path class="cls-2" d="M220.19-9.26c1,4.63-3.34,7.12-1.08,9.7a5.45,5.45,0,0,0,3.23-3.23c-1.92-3.11.21-10.27-3.23-11.85,2.22-2.5,5.21,3.35,4.31,7.55a34.06,34.06,0,0,0,4.31-10.78c0.12,11.15-1.79,18.62-2.15,28,2.82-1.5,3.05-5.57,4.31-8.62,1.45,0.71,2,2.31,2.15,4.31,2.66-5.12,2.07-11,4.31-18.33,3.26,1.63-.89,4.73,0,7.55Q238-6.53,239.6-8.18c1.68,2.9.81,5.72-1.08,8.62,0.75,3.38,2.88,1.41,5.39,1.08-1.74,2.57-1.72,6.91-3.23,9.7,3.49,1.33.82-3.49,4.31-2.15-0.83,6.46-7,9.24-4.31,16.17,2.35-4.32,3.26-4.14,5.39-7.54,3.16,0.92-1.4,2.71,0,5.39,3.36-3.46,5-8.66,5.39-15.09,4.05,3.89-4.56,15,1.08,21.56,2.36-.16,2.31-2.71,2.16-5.39-4.59.62,4.62-5,0-10.78,6.55,2,2.44-8.65,4.31-15.09,1.65,1.5,3.06,5.58,1.08,7.55,1,2.92,2.6-2.28,3.23-3.23,3.39,4.16-3.88,6.86-2.15,12.93,3.46-2.43,12.09-19.54,8.62-6.47-5.28,3-8.45,8.08-10.78,14a1.09,1.09,0,0,0,2.16,0c3.1,1.8-2,4.37-4.31,4.31,1.53,3.33-1.58,5.57-3.23,8.62,1,1.93,4.33-3.81,3.23,3.23,2.7,1.42,3.37-4.26,4.31-1.08-2.77,3.91-3.66,3.73-5.39,7.55,0.27,1.17,2.14.73,2.16,2.15-0.14-2.6,7-3.52,6.47-9.7-2.92-.67-0.19-0.55-2.16-3.23,0.18-1.26,2-.91,3.24-1.08-0.8-6.08.55-7.68-1.08-12.93,3.37-.95,4.45-4.18,5.39-7.55,2.6,5.93-5.78,8-2.15,16.17,2.58,0.43-.6-4.91,3.23-3.23-1.06,3.6-3.42,5.92-4.31,9.7,3.46,0.23,2.62-3.84,4.31-5.39,3.07,3.17-3.85,9.93-1.08,12.93,3-5.1,3.61-14.69,9.7-19.4-1.76,12.26-8.77,19.26-11.86,30.18,1.7-2.82,5.33-3.71,3.23-7.55,2.14,0,1.37,2.94,4.31,2.16V46.79c-0.47-1.6-1.38.43-3.23,0,0.86-3.32,2.16-3.45,5.39-2.15,1.67-1.57,2.26-4.21,2.16-7.55-2.59-.43.59,4.91-3.24,3.23-0.8-3.32,3-2.07,2.16-5.39,1.09,0.7,1.11,2.48,3.23,2.15a128,128,0,0,1-2.15,17.25c8.6-4.95,5.71-16.34,10.78-25.87,3.66,5.14-3.37,8.81-2.16,15.09,1.1-.7,1.11-2.48,3.23-2.15,0,2.54-1.86,3.17-1.08,6.47,1.9-1,1.78-4.78,4.31-2.15-4,4.26-9.46,7.06-9.7,15.09C279,57.53,276.54,64,273,64c1.25,8.83-6.07,11-9.7,11.86,2.54,1.35,4.89.09,10.78,0,3.2-1.11,1.38-7.24,5.39-7.55-0.92,3.74,0,4.09-2.16,7.55,5-1.13,4.14-8.08,8.62-9.7-1.41,3.62-1.1,9-4.31,10.78,6.52-.39,12.58-4.87,15.09,1.08-11.85,3.24-13.67,16.52-22.64,22.64,2.66,0.55,3.81,2.61,4.31,6.47,2.71-.88,1.5-5.68,3.23-7.55,2.52,0.28.62,4.74,0,5.39,3.9,0.3,2.47-4.72,4.31-6.47,3.5,5.76.24-4.56,5.39-3.23-2.9,3.91,1.37,3.18,2.16,0,2.07,1.8-2.74,5.82-5.39,6.47a7,7,0,0,1,1.08,5.39c3-7.08,11.46-8.66,11.85-18.33,3.87,4-3.27,7.91,0,11.86-0.92.2-1-.42-1.08-1.08-1.47-1-6.7,3.31-7.55,6.47,4.12,0.88,4.17-2.29,5.39-4.31,1.92,0.79.16,2,0,3.23,5.06,0.75,4-4.64,7.55-5.39,0.31,1.74-1,1.86-1.08,3.23,7.09-2.14,4.94-8.7,2.16-14,1.58,2,4.32,2.86,4.31,6.47,4.3-7.11,5.34-11.38,9.7-21.56,2.4,2.48-1.76,10.15-2.15,16.17,0.34,3.57,3.34-4.2,4.31,0-4,2.45-6.09,6.85-10.78,8.62,2.68,0.48,10.89,2.1,11.86-1.08,2.5,0.3,2.48,2.88,1.08,4.31,3.88-4.44,7.43-2.57,9.7-8.62,1.84,5.82-7.7,9.53-12.93,11.86,2.23,3.83,5.56-.45,6.47,1.08-3.71,4.4-13.6-2-18.33-1.08-4.7.19,1.29,5.12-3.23,4.31,0.55,3.92,7.31-.69,7.55,5.39-2.64-1-4.68-2.51-8.63-2.15-1.17.26-.73,2.14-2.15,2.15,0.72,0.41,6.69.3,3.23,4.31,6.2,0.22,1.15-4.1,6.47-4.31-1.23,4.82-.64,1.37,2.16,3.23-3.87,3.32-11.64,2.73-16.17,5.39-0.19,3,4.05,2.51,1.08,5.39-2-.16-0.66-3.65-2.16-4.31a24.23,24.23,0,0,1-6.47,2.16c0.92,3.16,2.71-1.4,5.39,0,0,1-1.32.84-2.16,1.08,3.8,2.18,9.72,5.51,12.94,2.16-0.67,1-1.3,1.93,0,2.15-2.25,2.83-4.55.58-6.47,2.16,0.21,0.87,1.08,1.07,1.08,2.15,2.45-1.87,6.89-1.74,7.55-5.39,3.45,2.61,3.8,1.31,7.55,0,0.57,2.75,1.43,3.77-1.08,5.39,0.94,3.18,1.61-2.5,4.31-1.08-3.46,5.28,1.67,2.34,1.08,7.55-0.27,1.17-2.14.73-2.16,2.16-4.59-.64-2.08-4.27-7.55-2.16,2.75,1.35,5.27,6.47,10.78,4.31-0.2.87-1.08,1.08-1.08,2.15,0.62-3.79,9.78,5.6,10.78-1.08,1.34-2.89,5.52,3.25,3.23,4.31-3.89,1.64-9-4.22-9.7,1.08-4.91-3-10.6-5.2-15.09-8.62-3.32-.8-2.07,3-5.39,2.15,1.22,2.73,5.31,2.6,5.39,6.47,2.07-1.28-2.13-6.6,4.31-5.39-5.59,4.51,1.89,7.31,0,8.62,4,1.15,3.07-2.68,6.47-2.15-0.4,1.83.84,2,2.15,2.15-4,.78-5.67,1.39-8.62,4.31-0.55-5-9.44-7.69-12.94-12.93-3.43.06-11.12,2.1-11.85-3.23,1.93-.14,2.27,1.32,4.31,1.08,0-3.13-6.09-2.55-7.55-1.08,3.32,2.79,4.3,7.92,10.78,7.54,0.31,2.82-.39,4.64-3.23,4.31,0.61,2.83,13.33,6.43,12.94,0,4.32,1.39-.3,2.23,0,5.39-5.72-.19-5.5-0.7-10.78,0-0.32,2.83,4.18.85,3.23,4.31,2.95-2.69,4.6-.44,7.55-2.16,2.17,2.48-4.46,1.1-5.39,2.16,2.21,2.46,7,2.37,6.47,7.54-1.57-.94-4.17-0.86-3.23-4.31-3.29-.78-3.93,1.1-6.47,1.08,2.17,2.69,10.4,11.35,11.86,0,0.79,5.49,3.37,2.89,9.7,3.23-5.08,1.75-9,3.23-11.86,4.31,0.13,3.1,4.6,1.87,4.31,5.39,4.77,0.51,5.36-1.48,8.62,0,0.14,1.93-1.32,2.27-1.08,4.31,1.33-1.2,2.21-.94,2.15,1.08-3.2-1.06-5.32-1.53-6.47-2.15-3.56,1.61,3.61,1.27,2.16,4.31-1.44-1.08-4-1-4.31-3.23-2.55,1-5.3,1.89-4.31,6.47,1.32,1.56,4.12,1.63,5.39,3.23,3.53-2.68,12.6,0,11.85-8.63q4.2,1,3.23-3.23c3.53,8.94-8.27,11.84-12.93,16.17-2.71-2.76-3.61-.62-7.55-2.15,5.26,5.44,13,2,17.25,4.31-3.27,2.79-1.1,4,0,7.55-5.37-4.49-2.87-5.1-10.78-7.55-1.33,3.49,3.49.82,2.16,4.31-1.89-4.17-10.67-4.3-8.63-6.47-4.35,3.18-1.68-4.26-7.55-1.08,2.13,1.46,5,2.17,5.39,5.39,1.93,0.14,2.27-1.32,4.31-1.08-0.75,4,15.39,10.85,19.4,6.47,2,1.25.75,5.72,5.39,4.31,1.26-.17.91-2,1.08-3.23,4.13-.19.39,0.88,1.08,3.23,3.82,0.58,2.65-3.82,6.47-3.23-2.33,2.65-5.47,7.92-7.55,4.31,4.32,7.48,13.06,4,11.86-7.55,2.22,2.65,1.75,11.77-2.16,11.86,8.47,3.59,14.2,3.12,21.56-3.23,3.94,7.21-13.18,2.61-11.85,10.78-0.2-3.32-7.29-5.28-4.31,0a36,36,0,0,0-14-8.63c5.62,8,13.92,8.65,21.56,12.94-1.44,2.84,1.15,3.63,1.08,6.47,6.95,1.31,10.44.83,15.09-2.16,0.33,2.84-2.25,2.78-4.31,3.23-0.81,3.68,4.38,1.37,3.23,5.39-2.88-.71-4.1-3.09-6.47-4.31-4.32,5.24-2.93-1.33-6.47,2.16-2.77-3.6-6.31-.62-10.78-3.24,3.27,2.12,3.12,7.66,8.62,7.55,0.17,1.25-.24,1.92-1.08,2.16,3.16,3.23,20.08,8.71,19.4-5.39,3.54,1.11-.81,11.79-6.47,10.78,2,0.6,4,5.49-1.08,4.31,0-1,1.32-.84,2.15-1.08-3-.25-5-1.36-8.62-3.23-0.19,3.79,3.64,3.54,4.31,6.47a6,6,0,0,1,4.31-1.08c-2.68,1.89-1.76,2,1.08,3.23-0.38,1.42-1.9,1.69-2.16,3.23,5,2.18,4.75,3.79,6.47,9.7-4,.76-4.62-1.84-8.62-1.08-0.61-11.12-6.27-11-9.7-18.32,1.42,0.38,1.69,1.9,3.23,2.15,0.3-4.25-4.61-3.3-4.31-7.55-2.7,1.12-3.41,4.89-5.39,1.08-2.84,1.21,1.45,4.18,2.16,5.39-0.75,2.69-2.88-2-5.39-1.08,2.74,4.48,1.58,2.36,5.39,6.47,0.67-5.48,1.83-.4,6.47-2.16,0.18,5.26-3.79,1.33-5.39,3.23,2.44,4.15,4.43-.72,4.31,4.31-2.76,3.69-5.44,7.65-2.15,11.86-4.06-4.74-1.11,2.21-4.31,4.31,6.87,2,5.6-5.41,10.78-2.16-1.06,1.46-2.88,2.15-4.31,3.23,0.16,2,3.65.66,4.31,2.16,3.43-2.73-4-8.33,4.31-7.55,0.39-6.5-9-3.25-8.62-9.7,3.52,4.26,3.6-.35,7.55-1.08-6.83,5,2,5.27,3.23,10.78,6.16,1.13,6.31-3.75,10.78-4.31-2.43,5.56-5.86,4.86-7.55,9.7-1.57-2-2.06-5.12-6.47-4.31-1.46.33-.89,2.7-1.08,4.31,4.18,0.23,3.47,2.65-1.08,4.31,5.87,0.08.4,3.34,0,8.62-4.27.39-6.59-2.53-8.62,1.08-1.26-.17-0.91-2-1.08-3.23-1.26.17-.91,2-1.08,3.23-1.26-.17-0.91-2-1.08-3.23-1.9.26-2.46,1.86-2.15,4.31-10.64-1.57-15.32-12.88-25.87-5.39,0.15,3.08,4.5,2,7.55,2.15-2.25,4.07-8.48,0-5.39,7.55-2.36-1.95-7.14-1.48-6.47-6.47H311.82c-0.74-3.59,2.23-1.74,3.24-1.08-0.93-4.46-4.85-5.93-8.62-7.55-0.74,2.9,2.23,2.08,3.23,3.23-0.71,3.23-2.31-1-4.31,0a7.68,7.68,0,0,0,3.23,2.16c-4.51,1.25-14.16-1.63-19.4-3.23,3.09-2.71,13.26,3.33,15.09-1.08-7-1.06-13.41-5.25-20.48-1.08,0.44,3.64,4.18-2.87,3.23,2.16-24.07,6.83-33.81,28-52.82,39.88,1,31.08,3.92,63.54,7.55,93.78,3.68,30.71-3,63.73,6.47,90.54,30.71,5.58,45.07-2.49,69.17,9.7-61.9,2.51-73.56.37-141,1.08,24.12-10.37,18.66-.32,43.78-9.7-0.55-23.57.59-51.89-1.08-87.31-1.34-28.25,5.15-58.19,0-75.45-1.89-6.31-10-8.13-14-12.94-5.49.46-9.59-.47-11.86-3.23-6.94,2-12.78,5.19-16.17,10.78-2.92-1.62,1.72-4.65,2.16-6.47-6.74,2.6-10.18,8.5-17.25,10.78-2.92-1,2.46-2.41,2.15-4.31a21.9,21.9,0,0,0-6.47,6.47c-4.62-4.9,8.83-8.68,11.86-12.94,0.62-3.86-3.19-3.27-6.47-3.23-2,.3-4.5,9-4.31,6.47-0.08,1.08-5,12-7.55,3.23,1,0,.84,1.32,1.08,2.16,4.23-3,5.33-9,8.62-12.94-3.49,2.62-7.66,4.55-7.55,10.78-3.9-3.35-3.08,4.9-7.55,4.31,1-4.41,5.08-5.69,5.39-10.78-0.2-.87-1.08-1.08-1.08-2.15-4.34,1-6.07,4.71-8.62,7.55-2.5-1.88,2.07-5.77,4.31-6.47-6.07,0-9.88,11.67-12.93,18.32-4.58.63-6.85-1.05-7.55-4.31-7.59,4.42-9.79-4.62-17.25-1.08,2-2.54-4.46-3.53-2.15-9.7,1.69,0.46.92,3.39,4.31,2.15,0.8-3.32-3-2.07-2.15-5.39-0.3-2.26-2.88,1.56-4.31-1.08a18.67,18.67,0,0,0,0-10.78c2.38,0.86,1.4,5.07,4.31,5.39,4.72-4.23,6.3-8.06,15.09-11.85-2.09-3.79-9.06-1.69-12.94-1.08-2,4.89,4.28,1.47,3.24,5.39-4.18.89-4.27-7.86-6.47-5.39-3,.48.85-5.88-2.15-5.39,2.5-4.13,1.57,4.05,4.31,3.24,3-1.87,1-2.82,1.08-6.47,9.14,1.68,21.36-10.51,23.72-22.63-1-4.21-4,3.57-4.31,0,0.67-3.63,6-2.65,6.47-6.47-7.19,1.44-13.53,13-21.56,17.25,0.24,14.55-2.94-.62,1.08-4.31-3.38-.5-3,2.71-4.31,4.31-3.29.78-3.93-1.1-6.47-1.08a1.09,1.09,0,0,1,2.15,0c8.66-6.07,17.12-12.35,25.87-18.32-0.47-1.6-1.38.42-3.23,0,3.1-.13.56-5.91,4.31-5.39-1.79,2.14.09,1.37,0,4.31,2.9,1.92,2.08-4.75,3.23-1.08,0-1.78,2-2.34,4.31-4.31-0.2-1.73-5.13,1.76-4.31-3.23-7.83,9.23-23.11,5.26-26.95,17.25-3.28-3.3-3.09,2.39-5.39,3.23-2.74-4.22,5.19-7,6.47-10.78-5.1,1-5.9,6.32-10.78,7.55,4.55-4.23-.56-6.42,7.55-6.47-4.48-2.87-11.44-2.11-17.25-1.08,0.09-1.53.18-3.05-1.08-3.23,1.7,1.3,6.86-1.83,7.55,1.08,4.36-3.14-.92-7.22,0-11.86,5.32,4.18,1.36,11,8.62,12.94a7.66,7.66,0,0,0,2.15-3.24c0.18-2.34-3.82-.49-5.39-1.08q1.37-2.4,5.39-2.16c-2-3-4.8-5.26-5.39-9.7,2.75,2.64,4.33,6.45,7.54,8.62,3.23-.71-1-2.31,0-4.31,3.67-.8,1.78,4,4.31,4.31,2.69-.75-2-2.88-1.08-5.39,1.18-2.48,1.78,4.58,3.23,5.39,5.25-2.29,13.73-1.36,19.4-3.23-0.48-1-.95-1.93-2.15-2.16,6.81-.11,13.78-1.85,17.25-10.78-1.53-2.79-6.69-1.94-5.39-7.55,0.68,3.78,8.26,4.7,6.47,7.55,3.13-.94,1.21-1.61,1.08-4.31,4.38,0.92,8.23-2.78,5.39-8.62,1.1-3.35,1.06,3.06,2.15,3.23,7-2.25,10.19-5.41,14-8.62-3.82,1.44-3.52-2.28-8.62-5.39-3.91,0-.25,7.65-5.39,6.47,2.07-1.52,1.95-5.24,3.23-7.55-4.13.18-1,7.58-6.47,6.47,1.84-1,2.36-3.39,3.23-5.39-2.84,1.12-7,.87-6.47,5.39-3.46-1.54-7,1-7.55,5.39-1,0-.84-1.32-1.08-2.15-2.42.45,0,5.72-2.15,6.47-1.92-.79-0.16-2,0-3.23-3.27,0-1,5.42-4.31,5.39,1.65-2.08,2.47-12.75,3.23-14-5.08-1.38-15.8,13.56-21.56,2.15,4,5.16,14.21.1,12.94-3.23-3.93-3.11-8.11.39-9.7-5.39,4.3,5.29,7.86-.9,12.94-1.08-2.42-3.21,1.56-6.6-2.16-7.55,2,2.43-8.09,3.09-7.54-2.15,2.68-.17,3.34,1.69,5.39,2.15-0.3-3.65-1.71-6.19-1.08-10.78,3.91,1.12,4.28,5.78,6.47,8.62,4.36-3.94-.58-7.92-1.08-12.93,3,2.71,4,7.47,9.7,7.54-0.69,2.19-5,.71-5.39,3.24,3.15,3.11,5.12-3.21,6.47-1.08,2.93-1-2.87-2-1.08-5.39,2,1,6.31,1.34,3.23,4.31,1.9-1,3.15-2.6,5.39-3.23-0.14-2.38-4.57-.46-6.47-1.08,5.4-4.28-.93-11.25,0-16.17,0-2.53,2.94.39,2.16,2.15,1.44-1.62.35-4.65,0-6.47-1.93-.14-2.28,1.32-4.31,1.08,0.75-2.13,2.87-2.87,5.39-3.23-0.92-3.16-2.71,1.4-5.39,0,0.4,3-4,3.71-6.47,4.31-3.19-1.56-.93-2.41-2.15-6.47-2.06.47-2.71,2.32-5.39,2.16,0.89-3-1.52-2.79-1.08-5.39A3,3,0,0,1,134,188c2.14,0,1.37-2.94,4.31-2.15,0.42-2.58-4.91.6-3.24-3.23,4.42,2.78,4.9-3.46,6.47,2.15,3.13-.94,1.21-1.61,1.08-4.31,5,1.81,5.23-3.41,7.55-1.08-0.66-1-1.3-1.93,0-2.16-4.89-3-13-2.82-20.48-3.23,1,3.72,4.3,5,5.39,8.62-4.55-.84-5.75-5-6.47-9.7-6.22.84-6.71-4.07-9.7-6.47,1.79-2.33,2.89,4.28,6.47,1.08-2.17,2.2.48,2.11,1.08,4.31,8.23-2.3,5.25-1.54,9.7,1.08,1.41-1.84-4.75-5.27-3.23-10.78,1.5,3.3,5.1,13.11,8.63,7.55,1.29,3,3.89,4.73,8.62,4.31-0.83-1.42-4.91-8.33,0-8.62-2.64,4.27,2.87,8.23,6.47,9.7,2.69-.75-2-2.87-1.08-5.39,3.24-1.09,1.91,2.4,2.15,4.31,3.82-.49,6.22-2.4,10.78-2.15,0.18-2.34-3.82-.49-5.39-1.08,0.58-2.25,1.89-4.05-1.08-5.39,2.25-3.54,4.54,1.82,6.47,2.15,2.14,0,1.37-2.94,4.31-2.15-1.2-2-1.37-5.09-2.16-7.55-2.58-.43.6,4.91-3.23,3.23-0.3-1.74,1-1.86,1.08-3.23H162c-1.47-2.12-1-6.16-2.16-8.62,4,3.85,11.46,1.34,16.17-2.15-0.33-1.46-2.7-.89-4.31-1.08,3.24-2.87,3.22-7,6.47-2.15-0.33-6.4-8.19-4.31-10.78-1.08-0.43,2.58,4.91-.6,3.23,3.23-4,2.75-5.22-4.71-4.31-4.31-1.63-.72-6.45,2.11-9.7,1.08-4.62-1.46-2.83-10.12-8.62-5.39,0.51-4.57-13.77-1.46-10.78-11.86,1.79,1.44,1.67,4.79,3.23,6.47,4.34,0.42,4.79-2,6.47,1.08,1.6-2,2.06-5.12,2.15-8.62,3.93,5.52,7.64,12.91,14,12.94-5.16-3.8-1.15-8.59-3.23-14,3.09,5.19.68-3.08,5.39-2.16-2.85,4.51-2,11.36-1.08,15.09,1.4-1.95.52-4,1.08-8.62,2.56,2.47,4.43,5.63,9.7,5.39,0.45-5.11-3.68-5.66-3.23-10.78a3,3,0,0,1,2.15,3.23c3.27-1.33-1.17-3.71,0-6.47,2.3-.5,2.05,1.54,2.16,3.23,3.44,0.92,3.33-1.7,5.39-2.15-13-.16-12.35-11.21-19.4-15.09a5.07,5.07,0,0,0,1.08-3.23c3.28-.41,1.83,3.92,4.31,4.31,0.58-.31,1.08-4.75,2.16,0,1.45-.22,2-4.48,2.15,0,3.16-.92-0.64-3.47,0-5.39,1.9,1.55,2.46,1,2.15-2.15a3,3,0,0,1,2.16,3.23c1.56-1.68,3.58-2.89,4.31-5.39,1.92,0.79.16,2,0,3.23,4-1.05,5.6-4.45,9.7-5.39-1.17-.75-9.65.36-10.78,3.23-2.76-2.06-7.23-4.58-3.23-7.55-4.32-.16-7.8,4.35-11.86,1.08,0.91-3.16,3.47.64,5.39,0-8.11-6-31.18,1.15-27-17.25,1.6,0.91,1.56,3.47,2.16,5.39,3.29,0.78,3.93-1.1,6.47-1.08C148,74.5,143.3,67.62,144.74,63a37.17,37.17,0,0,0,28,24.79c-2.59-2.81-6-4.8-7.55-8.63-4.91.17-4.23,0.89-8.62,0,3.22-5.27,10.18-.21,15.09-3.23-0.56-9.14-16.36-3-17.25-11.86,2.7-.19,2.62,2.42,4.31,3.24,3,0.46-2.7-4,1.08-4.31,2.81,0.44.66,4.76,6.47,4.31-0.13-3.65-4.69.13-2.16-5.39-3.46-.19-8.61-2.11-10.78-6.47,3.6-2.82,4,6.74,10.78,4.31,4.68-4.68.27-4.37-6.47-7.55-0.38-.18,1.65-1.53,2.15-1.08-1.05-3.3-3.63.48-4.31,1.08-5.26-3-10.83-5.7-11.86-12.94,3.06,2.33,5.86,4.92,7.55,8.62,1.26-.17.91-2,1.08-3.23,2.1,1.49,3.31,3.87,6.47,4.31-0.72-3.59-2.77-5.85-7.55-5.39a24.36,24.36,0,0,1-2.16-6.47c3.24-1.09,1.91,2.4,2.16,4.31,3.75-3.48-3-5.52-1.08-10.78a3,3,0,0,1,2.16,3.23c3.06-4.09.68-7.7,4.31-11.86,3.38,2.8-1.64,19.25,6.47,22.64,0.59-3.82-3.82-2.65-3.23-6.47,2.26,0.67,4.05,5.53,5.39,1.08,2.68,0.16.31,3.65,0,4.31,5.29-2.32,4.74,0,9.7,1.08-0.34-2.53-1.7-4-1.08-7.55,3.52,7.34,3.59,8.4,11.86,12.93,1.93,0.32.07-4.18-2.15-3.23,0.75-2.13,2.87-2.87,5.39-3.23-1.56-4.67-2.41,1.14-6.47,0-4.93-9.06-10.22-9.16-12.93-17.25,0.84-2.4.62-5.85,3.23-6.47-1.58-3.5-6.18-8.36-4.31-11.86a21.31,21.31,0,0,1,3.23,7.55c3.63-1,.13-2.41,2.15-4.31,3,4.18,3.53,10.85,6.47,15.09,0.14-2,2.65-3.64,1.08-5.39,1.2-3.15,3.51,1.37,3.23,3.23,2.78-1.48.24-6.61,0-8.62,6,0.78,1.08,12.58,4.31,16.17,2.48-2.91.38-10.4,1.08-15.09,2.12-4.07-.27,5.14,2.15,4.31,3.31-4.69-5.07-11.77-2.15-16.17,2-1,.66,6.17,2.15,2.16,1.42,5.77,2.53,11.84,5.39,16.17,2.6,0.44,2.34-2,5.39-1.08-3.6-1.68-2.43-1.44-2.15-6.47,3.44,5.33,5.65,6.3,6.47,12.94-2-.12-0.75-3.57-3.23-3.24-0.78,3.3,1.86,3.17,1.08,6.47,3.48-1.23,2.78-7.28,3.23-8.62,6.75,1.72-3.32,9.08,1.08,11.86,2.14-4.79,7.45-14.3-1.08-12.94,2.12-2,.62-5.19-3.23-4.31,4.93-5.93-3.46-13.54-3.24-21.56,2.14,0,1.37,2.94,4.31,2.15-4.17,4.33,2.54,9.24,2.16,16.17,2.38-3.26-1.87-5.65,3.23-5.39-2.22-4.25-4.53-8.41-5.39-14,3.27,0,2.69,3.78,3.23,6.47,5.55-2.65-2.28-5.82-1.08-10.78,5.81,2.4.63-1.82,3.23-4.31,1.28,4.11,4.5,10.81,3.23,14C220.69-.85,215.77-8.14,220.19-9.26ZM238.52,2.6c-1.5,6.76-10.89,14.69-6.47,20.48,2.49-5.17.44,2.3,1.08,2.15C238.33,22.15,242,7.3,238.52,2.6Zm72.22,136.89c3.7-.25,4.69-3.21,5.39-6.47C312.66,133.51,309.87,134.67,310.74,139.49ZM153.36,345.37c-0.51-3.38,2.9-2.85,3.23-5.39-2.76.11-5.14,0.61-6.47,2.16C152.62,341.81,151.33,345.25,153.36,345.37Zm-36.65-15.09c-1.63,4.48-7.36,4.86-8.62,9.7,4.54,1,13.65-1.93,15.09-7.54A24.36,24.36,0,0,1,116.72,330.28Zm6.47,1.08c1.67-1.56,5-1.44,6.47-3.23-2.49.33-1.2-3.12-3.23-3.23-1.57,2.74-6.54,2.09-7.55,5.39C120.91,330,121.25,331.5,123.18,331.36Zm53.89-166c-0.6-2.34-3.14-8.26-5.39-5.39C173.67,161.59,174.38,164.47,177.08,165.36Zm9.7-39.88c2.94,0.1,2.17-1.79,4.31,0-0.92-4.61.69-5.49-3.24-7.55-3.87,1.53-8.92,6.39-11.85,5.39-0.64,3.44,2,3.33,0,5.39,0.66,0.31,4.15,2.68,4.31,0-4.12.8-1.23-4,0-4.31,3,2.95,1-1.57,3.23-2.15C183.41,127.52,189.94,118.32,186.78,125.48Zm7.55-70.06c-1.53-4.59-1.83-10.39-7.55-10.78C188.48,51.4,191.35,51,194.33,55.42ZM176,28.47c3,7.43,4.08,10.2,9.7,11.85-3.25-5.82-9.17-12.3-14-19.4C170.81,26,173.79,32.95,176,28.47Zm56.05,4.31c4.81,0.27,1.24,3.88,3.23,5.39,1-3.65,6.88-12.79,2.15-15.09C235.44,26.11,233.93,29.63,232.05,32.78Zm-39.88-2.15a12,12,0,0,0,5.39,7.55c-3.59-4.93-1.39-9.22-5.39-14C192.05,26.74,196.64,33.35,192.17,30.62Zm57.13,7.55c4.6-7.86-.54-8.87-1.08-14C243.62,32.61,245.26,32.75,249.3,38.17ZM199.71,36c0.11,2.76.61,5.14,2.15,6.47A70.77,70.77,0,0,1,204,34.94c-2.31-1.28-2.52-4.67-4.31-6.47C197.35,34.83,205.53,33.1,199.71,36Zm-42,3.23c-1-3-.33-7.57-2.15-9.7C155.26,34.31,153.48,37.33,157.68,39.25Zm84.08,4.31c2.32-2.8,4.73-7.62,1.08-10.78C244.42,37.52,237.87,41.73,241.75,43.56ZM195.4,46.79c3.34-1.08,4.19,5.74,6.47,2.16-2.93.77,0.77-5.09-2.15-4.31C199.61,46.72,195.51,42.77,195.4,46.79Zm3.23-4.31c-3.61-2.86-8-4.95-10.78-8.62-0.29,4.24.42,7.49,3.24,8.62,0.17-1.27-.19-3.06,1.08-3.24,0.61,2.63.92,5.55,4.31,5.39C196.49,43.21,198.37,43.65,198.64,42.48Zm30.18-2.16c-1.09,3.24,2.4,1.91,4.31,2.16V39.25A6.06,6.06,0,0,0,228.82,40.33Zm-14,6.47c0.23-1.3,1.2-.66,2.15,0V44.64c-1.08,0-1.28-.87-2.15-1.08-0.24.84,0,2.13-1.08,2.16-0.59-1.92-.55-4.48-2.15-5.39C209.67,42.35,212.92,45.32,214.81,46.79Zm-6.47,0c0.51-3.38-1.34-4.4-3.23-5.39C202.87,43.62,205.11,46.87,208.34,46.79Zm37.73,7.55c-0.31-4.78,4.7-12.06-1.08-12.93C244.1,47.08,245.29,49.34,246.07,54.34Zm-81.92-6.47c0.24-.84,0-2.12,1.08-2.15-0.77,4,3.4,4.74,5.39,8.62,3.56-3.54-2.89-2.58-2.15-6.47,2.73,1.94,6.11-2,7.55,2.15-5.58,5.47,6.1,11.68,9.7,15.09,0.19-1.61-.39-4,1.08-4.31,0.14,2.66.16,5.19-1.08,6.47,3.85,3.49,6.16,2.68,9.7,4.31,1.31-5.13-4.13-4.16,0-6.47-3.7.06-8.31-4.55-6.47-6.47,1.91,1,1.37,4.38,5.39,3.23-4-12.23-19.62-14.65-30.18-17.25C164,45.91,162.22,47.08,164.14,47.87Zm70.06,11.86a20.56,20.56,0,0,1,6.47-9.7c0.45-2.37-3.23-5.94-4.31-3.23A2.94,2.94,0,0,1,238.52,50c-0.66-.31-4.15-2.68-4.31,0,2.1,1.13-4,3.1-3.23,6.47a3,3,0,0,1,3.23,2.15C233.61,58.65,233,59.52,234.21,59.73Zm25.87,1.08c3.2-1,2.46-11.65,5.39-6.47-0.53-3.48,5-6.37,2.15-8.62C264,49,259.48,56.95,260.08,60.8Zm-22.64,0c0.26-3,4-2.46,5.39-4.31-2.23.08,2.23-7.63,0-7.55C241.48,52.66,235.42,57.31,237.44,60.8Zm31.26-2.15c4.46,1.52,5.61-5.79,3.23-7.55C271.94,54.7,268.43,54.78,268.7,58.65Zm-20.48-1.08a6.06,6.06,0,0,1,4.31,1.08c0.22-3.1-.27-5.47-2.15-6.47C249.92,54.24,247.3,54.13,248.22,57.57Zm-44.19,0c2,2.08,3.65-.92,5.39-2.15-2,.24-2.38-1.22-4.31-1.08A5.07,5.07,0,0,1,204,57.57Zm1.08,3.23c0.15,2,.71,3.6,2.15,4.31,0.25-1.91-1.09-5.4,2.15-4.31,0.19,3.52-2.53,5.19,2.16,5.39-1-5.18,4.37-7.08,0-9.7C210.81,59.32,206.51,58.62,205.11,60.8Zm-6.47,4.31c1.38-.06,1.5-1.38,3.23-1.08-0.15-2-.71-3.6-2.15-4.31-0.26,1.54-1.78,1.82-2.15,3.23,0.84,0.24,2.12,0,2.15,1.08C198.57,64,197,64.55,198.64,65.12Zm45.28-3.23c1.4,2.67-2.41,5.23,0,5.39,4.26-3.69,3.76,4.11,4.31,5.39,2.68-.69,1.08-8.49,4.31-5.39,0.94-3.46-1.66-3.37-3.23-4.31a3,3,0,0,1-2.15,3.23c-0.48-2.4,3.33-5.85,1.08-6.47C248.06,61.72,244.57,60.39,243.91,61.88Zm-28,6.47c-0.09-4-1.62-3.48,1.08-5.39-1.54-.26-1.82-1.78-3.23-2.16C213.56,64.21,213.69,67.31,215.89,68.35Zm24.79-1.08c-0.56,1.59-1.6,2.71-2.16,4.31,2.1-.84,9.92-1.48,7.55-3.23C244.16,70.35,242.92,67.88,240.68,67.28Zm-39.88,7.54q4.11-.19,4.31-4.31c-1.54-.26-1.82-1.78-3.24-2.16C202,71,202,73.54,200.79,74.82ZM227.74,85.6c1.28,1.24,3.81,1.22,6.47,1.08a56.43,56.43,0,0,0,2.16-7.55c0.26,1.9,1.86,2.46,4.31,2.16-0.19-2.7,1.65-3.38,3.23-4.31,0.26,1.17,1.77,2.59,2.15,1.08a2.93,2.93,0,0,1-2.15-3.23C237.92,75.3,232.4,78.77,227.74,85.6Zm-16.17,0c1-2.19,4.14-2.33,7.55-2.15,0-5-3.06-7-8.62-6.47C211.15,79.55,209.14,84.79,211.57,85.6Zm-38.8-1.08c0.12-1.32.32-2.56,2.15-2.16,0.3-2.46-.26-4.05-2.15-4.31C171.25,79.46,168.89,83.76,172.77,84.52Zm103.48-1.08c7.56,1.73,11.76.44,14-5.39C282,77.85,279.95,78.27,276.24,83.44ZM143.66,81.29c4.32-.06,10.48,7.47,17.25,4.31C155.82,81.84,151.89,77.21,143.66,81.29Zm114.26,3.23c0.45-2.43,5.91.16,5.39-3.23-1.61,0-4.41-4-5.39-1.08C264.22,80.26,252.42,82.1,257.92,84.52ZM231,95.3h2.16c1.21-.23,1.68-1.2,2.15-2.16-0.84-.24-2.13,0-2.15-1.08,1.61,0.18,4-.39,4.31,1.08-1.15,2.8-2.62,5.29-2.15,9.7,3.78-1.06,5.24-11.69,2.15-12.93,2-1.56,4.78-2.41,4.31-6.47A52,52,0,0,0,231,95.3Zm10.78,0c0.06-.66.16-1.28,1.08-1.08,1.42,0,1,1.89,2.15,2.15-0.48-4.48,4.29-9.3,1.08-12.93a5.44,5.44,0,0,1-3.23,3.23c-0.8,3.32,3,2.07,2.15,5.39C241.69,89.22,240.36,94.54,241.75,95.3Zm25.87-6.47c2.92,9.36,8.52,5,10.78-2.15,0.62,1.9-1.3,6.33,1.08,6.47-1.07-4.3,3.22-3.24,2.15-7.55-4.5.91-5.09-2.09-8.62-2.15C273.54,87.56,269.2,86.82,267.62,88.83Zm-71.14,0c-2.54-.33-2-3.74-5.39-3.23C190,91.26,195.45,89.27,196.48,88.83Zm-11.86,1.08c-0.28-4.62-5.8-3.27-8.62-2.15C178.47,88.88,182.5,88.44,184.62,89.91ZM176,93.14c1.37,1.47,5.28,1.67,5.39-1.08C178.88,91.74,176.75,89.77,176,93.14Zm24.79,0c-2.25-2.5-4.55,1.21-6.47-2.15a6,6,0,0,0,1.08,4.31C197.59,93.61,202.91,93.7,200.79,93.14Zm14,4.31c2.93-.66,4.23-3,4.31-6.47h-4.31C213.33,92.37,213.33,96.08,214.81,97.45Zm-33.42,6.47c3.31,0.68,11.1,4.55,12.94,0-6.68-.7,7.41-1.74,2.15-4.31-1,2.6-1.68-3.95-3.23-4.31C188.11,97,183.4,99.11,181.39,103.92Zm27-2.15c-1.09-2.86-1.77-6.13-5.39-6.47C199.4,100.58,203.12,105.69,208.34,101.77Zm12.93,6.47c-0.66-.06-1.28-0.16-1.08-1.08,0.79-2.52,2.95-9.2-2.15-8.62-0.06,3.27-3.26,9.59,1.08,10.78C219.38,107.29,220.89,109.92,221.27,108.23Zm10.78,9.7q-0.24-4,2.15-5.39c-0.58-2.58-4.66-7.17,0-8.62,0.11,1.69-.14,3.74,2.16,3.23,1.08-4.9-5.54-5.35-6.47-2.15-1.25-2.26.5-4.05-3.24-5.39-0.11,3.34.49,6,2.16,7.55,0.24-.84,0-2.12,1.08-2.15C232.74,108.94,228.41,115.57,232.05,117.93ZM263.31,105c1.9-.62,6.33,1.3,6.47-1.08-3.67-1.15,3-.33,1.08-3.23-2.54,0-3.17-1.86-6.47-1.08C264.83,102.21,262.42,102,263.31,105Zm47.43-1.08c2-2.29,10.62,2.76,11.85-3.23C317.93,100.37,308.93,101.34,310.74,103.92Zm-136.9,2.16a7,7,0,0,0,5.39,1.08c-0.19-1.61.39-4-1.08-4.31-0.28,1.68-2.36.75-3.23,0A5.08,5.08,0,0,1,173.84,106.08Zm81.92,4.31c-3,.49.84-5.87-2.15-5.39-1.25,1.59-1.25,2.71,0,4.31-1.51-.08-4.12.24-2.16,1.08C253.91,108.91,255.51,113.17,255.77,110.39Zm39.88-3.23c-0.52,4.44,5.26,1.53,5.39,0,1.15,1,.34,4,3.23,3.23-2.53-5.52,2-1.75,2.16-5.39C300.9,104.38,299.8,109.39,295.65,107.16Zm-34.49,0c-0.92,3.39-4.07,4.55-4.31,8.62,2.25,0.58,4.05,1.89,5.39-1.08-1.27-.17-3.06.19-3.23-1.08,5.4,1.41,9.29-8.84,8.62-6.47h-6.47ZM193.25,119c4.64,0.19,3.72-9.24,2.15-11.86-4.19-.54-5.74,7.13-3.23,9.7,0.32-1,2.92-4.72,3.23-2.16C196.19,117.64,193.26,116.87,193.25,119Zm-10.78-2.15c-0.3-6.26-11.18-2.8-7.55-7.55-0.65-.62-5.11-2.53-5.39,0a5.45,5.45,0,0,1,3.23,3.23c-2.46,1.48-4.05-2.78-4.31,0C174.52,116.47,176.23,117.16,182.47,116.86Zm-2.15-5.39c2.75,0.84,5.23,2,6.47,4.31-0.78-3.3,1.86-3.17,1.08-6.47C183.17,109.29,181.89,107.41,180.31,111.47Zm112.1,3.23c3.28,0.12,7.35-4.47,8.62,0-1.57.94-3.41,1.61-3.23,4.31,4.12,0.17,3.51-4.4,5.39-6.47-5.1-.33-11.67-4.82-16.17-2.16C291.4,110.92,290.08,110.64,292.42,114.7Zm-93.78,5.39c2.05,2.26,2.94,5.69,7.55,5.39-1.86-3.13-1.68-13.64,3.23-9.7,0.51-3.39-1.34-4.4-3.23-5.39C203.05,113,199.73,115.43,198.64,120.09Zm56.05-3.23a5.08,5.08,0,0,1,1.08-3.24c-2.6-1.36-11.48-5.52-8.62,0,1.33-2,3,3,4.31,2.16-1,1.15-4,.33-3.23,3.23,4.22,0.63,2.75-4.43,5.39-5.39C253.78,114.89,253.43,116.68,254.69,116.86Zm14,9.7c4.63,1.11,8.9-3.67,6.47,2.15,3.55,0,4.12-3.06,4.31-6.47-3.12-1.34-5.94-7-10.78-3.23C268.34,122.36,271.2,124.16,268.7,126.56Zm-32.34,3.23c4.89,2,1.47-4.28,5.39-3.23-2,1.9.28,3.34,2.16,4.31,0.26-1.54,1.77-1.82,2.15-3.24-2.81-2.74-2.34-7-6.47-3.23-0.24-1.9,4-6.37,1.08-4.31C238.24,124,239.06,125.42,236.37,129.79Zm7.55-9.7a10,10,0,0,0,4.31,6.47c2.65-1.28-2.21-4.07,1.08-5.39a3,3,0,0,0,2.15,3.23c-0.78-2.94,2.14-2.17,2.16-4.31C248.37,120.43,248.85,121.54,243.91,120.09Zm44.19,5.39c2-.15,3.6-0.71,4.31-2.15-1.89.3-5.38-3-6.47,0,1.55,2.39,2.63-1.36,3.23,1.08C288.52,124.47,287.91,124.56,288.1,125.48Zm-78.69-1.08c-1.13,2.73,3.64,4.78,4.31,2.16-1.78,0-.6-3-2.15-3.23C211.33,124.17,210.67,124.58,209.41,124.4Zm60.36,5.39c0.24,0.84,0,2.12,1.08,2.15,0.06-1.13,1.38-.85,1.08,1.08,1.86,0.27,6.38-2,3.23-3.23-0.24.84-.9,1.25-2.16,1.08-0.23-1.21-1.2-1.68-2.15-2.16C270.8,129.37,270.69,130,269.78,129.79Zm16.17,1.08c-0.69,2.35,3.06,3.43-1.08,3.23v2.15c1.21-.11,1.68,1.57,2.15,0C284.38,135.24,293.14,131,285.95,130.87ZM298.88,133c-1,1.87-4,3-4.31,0,1.32-.12,2.55-0.32,2.16-2.15-4.08-1.45-5.24.43-8.62-2.16C289.68,131.81,300.28,140.2,298.88,133ZM156.6,135.18c-2.79-1.16-4-3.9-7.55-4.31C148.22,135,154.7,137.35,156.6,135.18Zm64.68,4.31c-0.83-3.13-1.7-6.2-4.31-7.55C216.67,135.31,223,141.64,221.27,139.49Zm57.13-4.31a6.07,6.07,0,0,1,4.31,1.08c0.31-.66,2.68-4.15,0-4.31C282.42,134.17,278.7,133,278.4,135.18Zm-15.09,5.39c-2-3,3.51-1.9,4.31-4.31,0.12,1.31.32,2.55,2.15,2.15-1-9.19-11.49,2.07-14-3.23-0.24.84-.9,1.25-2.15,1.08,0.86,4.79,1.85,3.81-2.16,2.15,0.3,1.89-3,5.38,0,6.47,0.75-3.38,2.88-1.41,5.39-1.08C257.68,138.49,262.12,141,263.31,140.57ZM231,142.73c0.6-2.86,4.4-5,0-6.47C232.14,139,227.7,141.4,231,142.73Zm-64.67-3.23c-4.46,1.51-8.33-3.07-10.78,0C159.43,140.11,161.51,142.75,166.3,139.49Zm107.79,1.08c1.7,1.71,5.77.3,7.55-1.08C278.77,138.41,276.15,138.37,274.09,140.57Zm-53.9,4.31c-2.13-2.57-6.22-6.55-6.47-2.16-1.27-.16-2.44-1.92-3.23,0C212.86,143.65,219,146.37,220.19,144.88ZM245,149.19c-4.6,1.72-4.31,4.15-8.62,4.31,0.84,0.24,1.25.9,1.08,2.16,5.05-.82,4.36-6.38,8.62-5.39-0.9-3.46-.92-2.23,1.08-4.31-2.14,0-1.37-2.94-4.31-2.15C244.2,147.32,244.38,146.09,245,149.19ZM197.56,147c3.43,3.19,8,3.93,9.7-1.08C204.81,145.25,198.22,143.17,197.56,147ZM181.39,146c-0.12,2-3.56.75-3.23,3.23,2.84,2.55,6.29,6.55,5.39,9.7,1.64-2.67,6.7-1.93,6.47-6.47-2.12-.32-2.14,1.46-3.23,2.16,0-1.08-.87-1.28-1.08-2.16,3.82,0.52,4.76-7.39,0-6.47-1.23,3.39,1.69,2.62,2.15,4.31C182.94,151.59,184.45,146.49,181.39,146Zm5.39,14c4.16-.21,2.9-5.08,7.55-2.15v-3.23C190.44,155,187.46,156.34,186.78,160ZM284.87,147c-2.84-1.71-3.76-.8-1.08,1.08-3.64,1.72-4.6-4.58-6.47-1.08C279.26,148.13,283.94,151.17,284.87,147Zm-14,3.23c-6.83,1.88-9.82-4.93-11.86,1.08,5.9,1-2.37.37-2.15,2.15,3.88,0.12,8.23,5.36,11.86,2.16a3,3,0,0,1-2.16-3.24c1.38-.06,1.49-1.38,3.23-1.08-3,3,2,3.48,2.16,6.47,4,1.15,3.07-2.68,6.47-2.15-1.4-3-4.43-9.89-7.55-7.55,2.74,1.56,2.89,5.73,5.39,7.55C273.27,155,270.2,154.52,270.86,150.27Zm-100.25,2.15c0.91,2.39,4.54,7.6,7.55,4.31-2.59-1.78-.89-7.09-2.15-7.55C175.65,151.72,171.3,150.24,170.61,152.43Zm42,0c0.36,2.52,1.11,4.65,3.24,5.39,1-3.15,1.37-3.72-1.08-5.39,1.76,0.79,4.69-2.14,2.15-2.15C216.8,152.27,213.31,150.93,212.65,152.43Zm-44.19,4.31a6.06,6.06,0,0,1,1.08-4.31h-4.31C165,155.13,166.88,155.8,168.46,156.74Zm78.69,11.86c1.59,0.56,2.71,1.59,4.31,2.15,1.5-.66.16-4.15,2.16-4.31,0.25,4.49,3.82-.48,6.47,2.15a6.07,6.07,0,0,1,1.08-4.31c-4,3.7-5.37-1-7.55,0,0.6,0,1.22.87,0,1.08-0.9-.69-3.37-5-1.08-5.39,1.69,0.47.92,3.39,4.31,2.16,0.44-2.6-2-2.34-1.08-5.39C250.9,158.7,247.49,162.12,247.14,168.6Zm10.78-6.47c4,0.81,3.65-2.82,5.39-4.31-0.66-.06-1.28-0.16-1.08-1.08h-2.15C260.24,159.42,258.39,160.08,257.92,162.13Zm24.79-4.31a7.67,7.67,0,0,1,3.23,2.15c-2.76.83-5-4.22-6.47-1.08,2.53,1.79-.4-0.1-2.16,0-0.26,5.32,6.45.25,3.23,4.31,2-.24,2.38,1.22,4.31,1.08,0.36-2.51,1.11-4.64,3.23-5.39,1.39,4.27-3.55,2.2-2.15,6.47,5.62-.2,10,6.46,11.85,6.47-3.13-4,1.62-2.1,2.16-3.23-4-2.47-3.21-4.16-4.31,0-0.68-1.84-3.26-1.78-4.31-3.23C293.93,162.34,286.34,154.61,282.72,157.82Zm-11.86,11.86a7,7,0,0,0,5.39,1.08c-0.39-3.2-1.87-5.32-4.31-6.47C272.83,167.33,270.41,167.08,270.86,169.68Zm-1.08-9.7c-2.6.44-2.34-2-5.39-1.08-0.9,2.33-2.79,3.68-2.16,7.55,5.5,3.32,11.42.6,8.63-5.39-1.15,1-.34,4-3.23,3.23C267.64,162.14,270.57,162.91,269.78,160Zm-63.6,5.39V160h-3.23C203.07,162.72,203.15,165.52,206.18,165.36ZM195.4,168.6c4.12,1,6.88-1.76,8.63,0-1.33-2.62-.91-7-4.31-7.55C198,163.25,196.22,165.46,195.4,168.6Zm-9.7-4.31c3.65,0,5.51,3.19,9.7,1.08C194.89,160.26,186.73,161.83,185.7,164.28Zm29.1,5.39c-1-1.88,0-5.79-3.23-5.39C209.4,166.44,212.37,169,214.81,169.68ZM236.37,174c3.15-.28,3.31,2.44,6.47,2.16-1-3.28-1.27-7.35-4.31-8.62C237.23,171.3,236.94,171.07,236.37,174Zm-29.1,3.23c1-2.28,3.28-3.18,3.23-6.47-1.89.62-6.33-1.3-6.47,1.08C208.56,170.17,204.2,177.41,207.26,177.22Zm12.93,5.39c-4.54,1.66-.17-5.58-3.23-5.39-1.69.82-1.61,3.42-4.31,3.24,0.91-3,7-8.73-1.08-8.62a15.39,15.39,0,0,1-3.23,7.55C212.28,179.79,217.44,184.59,220.19,182.61Zm43.12-6.47c-1.82-.44-4.84-5.08-6.47-2.16C257.37,176.62,261.64,181,263.31,176.14Zm11.86,4.31c1.94-2.48-2.51-5.47-4.31-7.55C271.6,176.12,272.16,179.51,275.17,180.46Zm1.08-7.55c0.22,6.24,8.11,4.83,12.94,6.47,1.67-3.83-3.66-.65-3.23-3.23,0.6,0,1.22-.87,0-1.08C284.13,177.16,279.34,173.11,276.24,172.91Zm-19.4,6.47c-0.6-1.92-.55-4.48-2.15-5.39-0.73,2.51-3.59,2.88-4.31,5.39C254.79,179.69,252.87,174.73,256.84,179.38ZM162,183.69c4.27,0.62,7.27-5.6,4.31-8.62C166.06,179.14,162.91,180.3,162,183.69Zm8.62-4.31c3.25,2.2,8.07-1.49,9.7-4.31A12.23,12.23,0,0,0,170.61,179.38Zm22.64-1.08c2.12-.32,2.14,1.46,3.23,2.16,0.29-2.22,4.77-.26,4.31-3.24-2.68.17-3.34-1.69-5.39-2.15C195.14,176.6,193.63,176.88,193.25,178.3Zm44.19,2.16c1.11-1.06,2.18-2.13,3.24-3.24-2.06-.46-2.71-2.32-5.39-2.15C237,177.25,236.89,182.58,237.44,180.46Zm61.44,5.39c1.57-2.72-4.41-11.79-8.62-8.63A27.78,27.78,0,0,0,298.88,185.84Zm-118.57,0c0.51-2.78,6.92-5.21,3.23-8.63-0.32,2.25-2.92-1.6-3.23,2.16C184.34,180.77,177.26,185.42,180.31,185.84Zm-21.56-7.55c-1.08,3.28-1.78,1.37-3.23,0a46.38,46.38,0,0,0-9.7,9.7c-1-2.78-5.25-2.6-6.47,0,1.42,0,1,1.89,2.16,2.16-0.19-4.54,2.41-.74,3.23,0,2.77-3.06,11.09-3.07,6.47-7.55,1.46,0.34,2.06,1.53,4.31,1.08,0.78-4.73-2.14.87-2.16-2.16C155.46,180.41,160.85,181.36,158.76,178.3Zm144.44,8.62c-0.48-3,5.88.84,5.39-2.16-3.24-1.47-7.32-7.72-10.78-5.39,1.42,0,1,1.89,2.16,2.15C303.05,178.89,301.31,186.63,303.19,186.92Zm-132.58-2.16c2.23,1.73,1.55,6.36,5.39,6.47-0.3-4.29,5.43-8.16,2.15-11.85C175.56,183.45,173.14,181.76,170.61,184.76Zm15.09,1.08c3.34-.26,4.19-3,6.47-4.31-2,.24-2.38-1.21-4.31-1.08C187.39,182.51,185.54,183.16,185.7,185.84Zm55,0c5,3.71,9,4.71,10.78,9.7,2.12,0.32,2.14-1.45,3.24-2.15,0.68,7.94,12.4,4.84,15.09,10.78,4.23-6.78,11.77-3.71,19.4-6.47-2.71-6.37-22.43-5.7-18.32-11.86-5.77.38-7.78-3-11.86-4.31-0.59,1.57,1.26,5.57-1.08,5.39a7,7,0,0,1-1.08-5.39C250.11,183,246.19,180.48,240.68,185.84Zm-53.9,5.39c8.1-1.21,11.16-2.74,15.09-6.47C194.3,181.46,188.75,183.84,186.78,191.23ZM292.42,188c-0.46-3,4,2.7,4.31-1.08-2.49.33-1.2-3.12-3.23-3.23,0.33,3.37-3.12-2.74-3.23,1.08,1.21,0.23,1.68,1.2,2.15,2.16C291.82,186.92,291.19,187.79,292.42,188ZM166.3,186.92c0.62,1.89-1.3,6.33,1.08,6.47,0.35-2.53,4.7-1,5.39-3.23-2.06-.45-4.64-0.39-4.31-3.23,0.6,0,1.22-.87,0-1.08C168.22,186.68,167.55,187.1,166.3,186.92Zm3.23,14c-1.76.48-1.76-5.88,0-5.39a3,3,0,0,0,2.15,3.23c-0.51-3.38,2.9-2.85,3.23-5.39h-7.55C166.16,194.41,165.71,203.72,169.54,200.93Zm74.38,4.31c4.36,0.2,5.49-6.66,8.62-4.31a24.66,24.66,0,0,0-15.09-14c-1.94,5.24-5.71,8.66-6.47,15.09,2.67,3.89,4.21-4.88,5.39-2.15,0.89,3.84-6.68,4.72-3.23,7.55,2.2-3.54,5.89-5.61,9.7-7.55C241.94,202.9,244.35,202.65,243.91,205.25Zm-10.78,16.17c2.34-7,12-10,9.7-18.33C234.86,203.76,229.15,212.39,233.13,221.41ZM301,191.23c0.06-1.38,1.38-1.49,1.08-3.23-2.61-.69-4,5.14-2.15,5.39-0.18-1.46,5.48-2.15,2.15-3.23C302.06,190.81,302,191.43,301,191.23Zm-142.28,4.31c1.5-1.38.66-5.09,2.15-6.47C157.9,188.33,156.35,194.44,158.76,195.54Zm61.44,11.86c6.21-2-1.84-6.16-1.08-9.7,1.54,0.26,1.82,1.78,3.23,2.15,1.41-4.64-3.06-3.41-4.31-5.39a5.45,5.45,0,0,1,3.23-3.24c-0.08,1.51.24,4.12,1.08,2.16-0.2-3-1.88-4.59-5.39-4.31,2,6.4-1.24,1.49-3.23,3.23C217.47,195.75,219.43,201,220.19,207.4Zm-21.56-12.93c3.72-5.46,2.88,4.45,7.55,5.39a6.07,6.07,0,0,1,1.08-4.31c-1.27-.17-3.06.19-3.23-1.08,0.65-1.86,5.11.08,5.39-2.16C206.17,190.38,195.25,189,198.64,194.47Zm6.47,12.93c0.26-5.79-1.66-5.42-4.31-9.7-0.28,1.51-2.36,1.23-3.23,2.15,0.32-2.2,2.92-2.11,3.23-4.31-3.38,1.6-4.41,0-6.47-2.15-2.74,2.29-8.82,1.24-11.86,3.23-0.45,4.77,1.07,7.55,3.23,9.7,6.81-1,3.94,8.12,7.55,11.86,11-6.86,19,.65,26.95,5.39,0-8.12-1.26-12.31-4.31-15.09,4.68-1.94-1-10.81-5.39-10.78-1.34,8.88,3.94,11.15,5.39,17.25-5-1-3.54-11.68-8.62-6.47,0.63-2.43,2.66-13.11,1.08-10.78C206.45,200.13,207.79,205.77,205.11,207.4Zm-27-4.31c-2.71-3.08,4-5,0-8.62-0.11,2.76-4,1.73-5.39,3.23v3.23C174.82,201.4,175.48,203.26,178.16,203.09Zm-12.93,1.08a6,6,0,0,0,1.08,4.31c3.38-3,8.86,1.19,11.85-3.23C174.56,204.39,168.46,202,165.22,204.17Zm-4.31-1.08c-0.18,3.13-4.86,7.29,1.08,7.55,0.64-1.92-3.16-4.48,0-5.39,1.08,1.43,1,4,3.23,4.31C164.83,206.36,163.35,204.24,160.91,203.09Zm3.23-2.15c-0.44-2.6,2-2.34,1.08-5.39a7,7,0,0,0-5.39,1.08v4.31a24.39,24.39,0,0,0,6.47,2.15C166.18,201.78,166,200.54,164.14,200.93Zm-8.62,9.7c0.3-1.89-3-5.38,0-6.47,2.93-.77-0.77,5.08,2.15,4.31-0.78-3.3,1.86-3.17,1.08-6.47-2.08-2.19-5.88,3.41-3.23-2.15h-3.23C153.81,204.69,151.26,207.81,155.52,210.64Zm129.35-1.08c-0.55,3.4-4.92,3-7.55,4.31-0.17-1.27.19-3.06-1.08-3.23-2.24,5.46,9.22,5.62,9.7,11.86-1.08,0-1.28.87-2.16,1.08-0.22-3.77-5.39-8.2-7.55-6.47,0.35,3.69,9.05,4.05,4.31,6.47,2.34,3.78,5.63,1.72,8.62,3.23-3,.73-2.46.2-4.31,3.23-1.29-2.7-6.3-7.28-8.62-5.39,0.75,2.67-1,5.4,0,11.86-4.46,2.73-6.81,7.56-10.78,10.78,4.69,3.26,9.57-3.27,7.54-6.47,5,1.39,3-4.22,5.39-5.39,2,5.28-4.47,7.66-2.16,9.7,4.84-4.87,13.41-6,15.09-14a7.62,7.62,0,0,0,2.16,3.23c7-6.52,10.86-6.07,19.4-12.93-5.69-3.32-10.12-7-9.7-14-6.64-2.2-12.76-7.8-18.33-4.31,2,5.86,10.1.13,16.17,5.39-3.65-.3-6.19-1.72-10.78-1.08,3.27,0.72,7.28,11.67,12.93,9.7v3.23c3.48-1.76,4.28,1,6.47,3.23-4.23-1.35-3.34-.82-4.31,1.08-4.07,1.56-2.07-3-5.39-2.15q0.24,4-2.16,5.39c-0.61-2.15-2.16-5.51,1.08-7.55-2.48-1.87-9.12-5.19-7.55-7.55,3.43,3.06,9.2,9.45,12.93,8.62C297.24,216.41,291.71,212.48,284.87,209.56Zm-17.25-4.31c-2.76-.89-7.39-5.47-10.78-2.16C261,204.09,264.69,212.28,267.62,205.25Zm-10.78,6.47c-0.44,1.84-1.39-.23-3.23,0,1.72,3.28-2.89,6.35-2.16,9.7C253.43,218.87,262.29,214.86,256.84,211.71Zm4.31,0c-3.88-1.87-3.72-7.78-8.62-8.62C255.28,207.72,256.68,212.66,261.16,211.71Zm20.48-4.31c1.27-.17,3.06.19,3.23-1.08-3.82.58-2.65-3.82-6.47-3.23,0.89,3-1.52,2.79-1.08,5.39,2-.06,2.28.83,1.08,2.15,5.25,1-.27-7.11,2.15-6.47C280.62,205.55,281.94,205.66,281.64,207.4Zm-7.55,2.15c2.36-.16,2.31-2.71,2.15-5.39-2,.15-3.6.71-4.31,2.15a3,3,0,0,1,3.23,2.16C274,208.43,272.43,209,274.09,209.56Zm-108.87,3.23c-0.06-.66-0.16-1.28-1.08-1.08v3.23c3,0.43,6.08-4.59,4.31-5.39Q166.88,211.21,165.22,212.79Zm12.93,1.08v-4.31C170.68,213.45,166.37,219.12,178.16,213.87ZM236.37,230c-0.3-3.14.26-3.7,2.15-2.15,1-1.89.37-5.38,2.16-6.47v6.47c9-.17,11.2-15.58,3.23-18.32C243.3,217.38,227.86,223.38,236.37,230Zm80.84-7.54c6-1.36,3.24-.32,6.47,1.08,0.94-4.59,8.77,1.7,11.86-2.15-2.53-2.89-10.33-6.16-12.94-5.39,1,0.3,3.62,4,1.08,4.31-4.4-7.51-10.07-6.35-17.25-10.78,1.88,7.61,4.27,8,9.7,11.86,1.52-3.09-3.34-5.88,1.08-5.39C318.42,219.42,317.31,218.46,317.21,222.49Zm-46.35-4.31a6,6,0,0,1,4.31,1.08c1-4-4.36-7-5.39-5.39C273.33,215,272.93,215.73,270.86,218.18Zm-86.23,4.31c0.26-3.33,5.37-1.82,4.31-6.47C186,216,182.59,221.07,184.62,222.49Zm1.08-8.62c-3.68.44-1.37,2.91-5.39,1.08,0,2.86-.6,6.35,2.15,6.47C183.36,218.72,185.42,217.18,185.7,213.87Zm-12.93,4.31c1.42,1.1,4,1.06,5.39,2.15-1.4-2.67,2.4-5.23,0-5.39C177.81,217.47,173.45,216,172.77,218.18Zm91.62,25.87c3.45-.87,4.34-4.29,7.55-5.39-2.3-5.57,2.48-5.14-1.08-8.62,2.27-.07,5.61-9.21,0-10.78-0.1,1.69.14,3.74-2.15,3.23,0.34-1.46,1.53-2.06,1.08-4.31-9.89-7.46-11.45,5.43-20.48,7.55,0.62,1.89-1.3,6.33,1.08,6.47-0.14-1.93,1.07-2.52,3.23-2.16-0.76-4.35,2.21-5,3.23-7.54,2.48,4.2-4.1,12.49-7.55,10.78-0.59,7.16,7.19,7,4.31,10.78,0.3-2.55,2.88,1.23,4.31,1.08,0.78-2.94-2.14-2.17-2.16-4.31,7.3-.3,2.14-9.47,4.31-10.78,2.82,2.7,2,6.69,3.23,8.62,3.28-3.71-3.22-6.72,0-9.7,1.79,3.63,1.24,7.22,4.31,2.15C268.48,236.68,261.37,239.91,264.39,244.05Zm-67.91-22.64c3.62,1.55,7.05-1.82,10.78-3.23C202.83,218.42,197,217.31,196.48,221.41Zm-29.1,5.39c2,2.75,6.68,2.73,7.55-1.08-5.8-.84,3.1-0.62,2.15-3.23-1.38-1.5-5.09-.66-6.47-2.16C172.85,224.29,169.42,224.47,167.38,226.8Zm52.82,6.47c-0.33-2.52-2.11-4.46,0-6.47-6.35-3.21-11.46-6.86-19.4-3.23,2.2,8.66,11.07,5.15,15.09,7.55-1.27.17-3.06-.19-3.24,1.08,2.06,0.46,2.71,2.32,5.39,2.15,1.17-2.76-3.27-5.14,0-6.47C217.93,229.91,219.36,235.74,220.19,233.27Zm126.12,3.23c3.05,1.3,9.35,5,12.93,2.15-11.11-1.22-19-21.71-33.42-11.86,8.42-.87,9.87,5.22,16.17,6.47,0.42-1.86-1.6-2.76,0-3.24,3-.48-0.84,5.88,2.15,5.39a2.94,2.94,0,0,1,3.23-2.15A5.08,5.08,0,0,1,346.31,236.51ZM143.66,225.73c0.12,2.75,2,3.77,3.23,5.39-3.42-5.22,5.33-1.82,5.39-6.47-3.73-1.47-5.08,4.84-7.55,1.08,0.84-.24,2.12,0,2.15-1.08A5.07,5.07,0,0,0,143.66,225.73Zm41,2.15c1.61,1.71,4.41.8,5.39-1.08C188.64,225.33,184.73,225.14,184.62,227.88ZM176,236.51c0.27-1.29,2.26-4.81,4.31-1.08-0.64-2.46,4-5.12,1.08-8.62-2.47,1.13-3.82,3.37-7.55,3.23C174.42,233.46,175.67,238.52,176,236.51Zm28,23.71c0.45-4.92,3-4.56,1.08-9.7-1.74-1.5-5.56-.91-6.47-3.23,1.61-.19,4,0.38,4.31-1.08a12.47,12.47,0,0,0-9.7-7.55c1.89-.62,6.33,1.3,6.47-1.08-2.53-2.18-2.36-12.68-7.55-8.62-0.33.79-1.2,10.25-2.15,14a45,45,0,0,0,6.47,4.31c-3.4.53-3.81-1.94-7.55-1.08,2.82,5.49,4.87,9.67,3.23,17.25,5.38,0.4,11,6.23,16.17,3.23-2.44.51,2.48-5.85-1.08-6.47-0.25,1.91,1.09,5.4-2.15,4.31C204.49,259.08,209.49,256.78,204,260.22ZM322.6,272.08c-1.9,1.69-6.88.3-7.54,3.23-1.45-5.74-7.54-6.84-12.94-8.62-1.15,4,2.68,3.07,2.15,6.47,12.68,1.34,18.19,9.84,29.1,12.94v-2.16c-0.23-1.21-1.2-1.68-2.15-2.15-0.24.84,0,2.12-1.08,2.15C332.27,278.6,327.29,273.88,322.6,272.08ZM348.47,257c-2.82.3-4.64-.39-4.31-3.23,1.54,0.26,1.82,1.78,3.23,2.15,0.64-1.92-3.16-4.47,0-5.39a7.64,7.64,0,0,0,2.16,3.23c1.72-2-1-6.21-3.23-7.55-0.17,1.27.18,3.06-1.08,3.23-1.29-8.64-4-9.6-9.7-12.93-2.53,4.25,2,3.29,2.15,7.55-1.08,0-1.28.87-2.15,1.08-1.47-2,1.23-4.78-4.31-4.31,0.22,4,3.67,10.45,6.47,5.39,0,1.08.87,1.28,1.08,2.15-4.12-.89-1.27,5.2-5.39,4.31-2.09-5.09-2.32-12.06-7.55-14-0.18,4.94,6.52,7.24,3.23,11.86,4.26,1.14,3.69,7.09,7.55,8.62,0.65-1.92-3.16-4.48,0-5.39,0.74,2.41,3.24,5.4,1.08,7.55,5.16-1.25-.9-7.9-1.08-10.78,2.65,1.61,2.42,4.43,6.47,2.15-5.23,7.56,3.88,12.49,6.47,20.48-7.05,2-7.36,5.58-14,6.47,1.08-4.82,3.23-3,6.47-4.31,0.48-2.74-2.13-7.8-3.23-5.39,1.76-.48,1.76,5.88,0,5.39-0.13-3.08-1.1-5.24-5.39-6.47,3.14,0.31,6.39-5.08,3.23-6.47a3,3,0,0,1-2.15,3.23V261.3c-2.94-.79-2.17,2.14-4.31,2.15,0.79-2.94-2.14-2.17-2.15-4.31a5.07,5.07,0,0,0,3.23-1.08c-0.83-5.9-5.18-10.11-7.55-8.62,4.36-3.18,0-12.66-2.15-16.17,0.51,3.38-1.34,4.4-3.23,5.39-0.09-4.23-1.9-6.72-3.23-9.7-6.86,2-9.73,1.61-14,5.39,5.56,1.23,8,9,12.94,7.55-0.34,4.26,2.93,6.42,3.23,12.93,2,1.73,3.65-1,5.39,2.16-1.54.42-1.82,1.29-3.23,0-0.68,8.23,9,6.13,11.86,10.78-1.61.18-4-.39-4.31,1.08,1.3,0.23.66,1.2,0,2.15,4,0.72,6.33-3,6.47,2.15-1.89.3-5.38-3-6.47,0,3.15,2.24,5.15,10.17,9.7,7.55-0.94,6.64,2.64-.7,3.23,2.16-0.12,5.4-5.29-.48-5.39,5.39,2.47,2.2,16.16-3.71,9.7,2.15,2.51-.36,4.65-1.1,5.39-3.23a3,3,0,0,1-2.16-3.23c1.54,0.26,1.82,1.78,3.23,2.16,2.68-5.23,6.44-9.37,7.55-16.17a43.55,43.55,0,0,1-6.47-5.39c-1.5.66-.16,4.15-2.15,4.31a5.45,5.45,0,0,1-3.23-3.24h4.31C350,260.32,348.53,261.5,348.47,257ZM132.88,234.35a7,7,0,0,0,5.39,1.08c-0.81-3.32,3.71-1.31,2.15-5.39C137.73,231.29,135.58,233.1,132.88,234.35Zm198.34,5.39c1.49-1.75,3.81-2.65,3.23-6.47-2.39.37-6.85-5.48-5.39-2.16C332.14,233.41,329.43,238.27,331.22,239.74ZM166.3,234.35c2.6-.44,2.34,2,5.39,1.08-1.48-2.46,2.78-4.05,0-4.31C171,233.3,166.65,231.83,166.3,234.35Zm17.25,1.08c1.94,1.66.87,6.32,4.31,6.47,1.57-3.37,1.14-10.12,0-10.78C186.88,233,183.89,232.9,183.55,235.43Zm17.25-4.31c3.23,7.17,1.22,7.57,6.47,11.86a5.07,5.07,0,0,1-3.23-1.08c1.17,5.29,4.57,8.36,6.47,12.93,0.71-2.24,4-7.37,1.08-9.7,0,0.6-.87,1.22-1.08,0V243c5.9,2.85,2.7,0,7.55-2.16,0.17,2.68-1.69,3.34-2.15,5.39,1.31,2.36,7.74-2.2,4.31-4.31-1.11-.38-8-9.88-11.85-7.55,2.21,2.1,3.54,5.08,5.39,7.55h-4.31C207,235.29,208.31,234.5,200.79,231.11Zm9.7,24.79c1.24,2.35.22,7,3.23,7.55,3.9-3.48.05-6.71,2.16-10.78C208.89,250.89,214.51,259.34,210.49,255.91Zm-65.75-20.48c0.14,2.66.16,5.19-1.08,6.47,3,0.89,2.79-1.52,5.39-1.08v-4.31A6.06,6.06,0,0,1,144.74,235.43Zm152,14c2.23,1.65,5.51,5.8,8.62,3.23-0.73,5,4.62,4,7.55,5.39-2.72-9.86-3.88-21.28-15.09-22.64-5.77,2.6-5.43,7.08-10.78,5.39,3.43,6.94,15.08,7.31,21.56,9.7C305.5,254.14,294.78,247.26,296.73,249.44ZM183.55,236.51c-12.91,8.65-21.16,22-34.5,30.18,5.8-1,11.39-2.26,14-6.47,0.12,4,9.34.55,11.86,0-2.62-1.66-.34-7.45,1.08-8.63-1.18,4.39-1,7.32,1.08,10.78h5.39c-1.13-6.81,7.94-12.7,3.23-16.17-1.78,3.62-1,9.78-5.39,10.78C183.53,250.49,185.15,246.46,183.55,236.51Zm169.23,15.09c0.23-4.23-3.23-10.36-5.39-8.62C350.42,244.61,349,250.66,352.78,251.59Zm-61.44,6.47c0.31-5.26,2.12,5.15,4.31-1.08,1.08,3.6-1.5,3.53-4.31,3.23,2.88,5.69,12,2.84,12.93-2.15-6.55-4.24-13.35-13.95-21.55-12.94C286.81,248.22,288.82,253.39,291.34,258.06Zm-15.09-8.62c5.13,1.54,5.11,1.53,9.7,3.23-0.79-3.53-3.87-4.75-6.47-6.47C279.81,248.69,276.37,247.4,276.24,249.44Zm-33.41,4.31q0.24,4-2.15,5.39c-1.79-4.88-.58-6.82-2.16-10.78-8.64,8.49-1.9,18.9-1.08,24.79,2.84-4.35,7.07-7.31,11.86-9.7C250.39,257,246.88,255.09,242.83,253.75Zm9.7,5.39c-1.75-.32-2.91,1.46-1.08,2.16,0.24-.84.9-1.25,2.16-1.08a7,7,0,0,1,1.08-5.39c-6.38,1.1-1.65-2.23-5.39-3.23-0.24.84,0,2.13-1.08,2.16-0.37-2.86-2.83-3.64-5.39-4.31C244.56,254.18,249.64,255.57,252.53,259.14Zm10.78-6.47c0-1.42,1.89-1,2.16-2.15-3.16.28-3.31-2.44-6.47-2.16Q259.2,252.48,263.31,252.67Zm-78.69,9.7c3.29-.78,3.93,1.1,6.47,1.08-0.36-4.67,1.23-11.29-2.16-12.93C188.56,255.54,184,256.32,184.62,262.37Zm34.5-5.39c0.31-2.2,2.92-2.11,3.23-4.31H218C218.23,254.29,217.65,256.65,219.12,257Zm65.75,5.39c-2.84-4.35-10.06-4.31-11.86-9.7-3.29-.78-3.93,1.1-6.47,1.08-1,4.38,5.84,3.74,7.55,2.15C272.8,259.8,282.95,262.26,284.87,262.37Zm4.31-1.08c1.07-5-4.43-3.48-6.47-5.39C282.54,260,287.11,259.41,289.18,261.3Zm-27-1.08c12.77,12.75,8.63-1.2,0,0h0ZM300,265.61c6.61-1.26,6.21-.78,10.78,1.08-0.9-3.41-3.15-5.48-5.39-7.55C307,264.74,300.43,262.12,300,265.61Zm-38.8,1.08c-4.29,1.66,2.78,6.32,0,6.47-3.85-1.54-1.78-9-5.39-10.78-3.83,4.51-3.42,7.09-1.08,12.94-2.5-3.85-2.3,5.91-5.39,1.08,3.24-1.14,2.11-5.86,1.08-8.62-5,2.36-15.06,8.16-10.78,12.93,0.1-1.69-.14-3.74,2.15-3.23-1.39,2.54.14,2-1.08,5.39,2.42,0.45,3.43,2.31,5.39,3.23-3.44.92-3.34-1.7-5.39-2.16-0.13,3.1.59,7.06-1.08,8.62,4.64,1,7.67,2,10.78,2.15-2.49,2.93-6.66,1.71-8.62-1.08-2.91,5.15,9.42,3.18,8.62,9.7-2.76-1.92-4.71-4.63-8.62-5.39-1,6.78,6.7,10.51,11.86,7.55a62.88,62.88,0,0,1-3.23-7.55c2.12,0.32,2.14-1.45,3.23-2.15-2.09,3.87.41,3.95,1.08,7.55,3.49,1.33.82-3.49,4.31-2.16-0.62.66-2.52,5.11,0,5.39-0.28-3.52,4.18-2.29,4.31-5.39-2.46.3-4.05-.26-4.31-2.15,5,0.25,3.78-4.85,8.62-1.08-5.31-12.2-.56-28-8.62-37.73C256.5,262.7,259.51,265.18,261.16,266.69Zm17.25-4.31c-3.16.28-3.31-2.43-6.47-2.15C270.57,263.85,277.4,264.68,278.4,262.37ZM321.52,271c-2.23-4.6-6.58-7.08-10.78-9.7C312,266.85,315.68,270,321.52,271Zm-52.82-4.31c-2.89-.71-4.1-3.09-6.47-4.31,3.09,10.56,7.46,19.85,16.17,24.79,3.25-1.42,5.86-3.48,10.78-3.23,0.18-2.7-1.66-3.37-3.23-4.31-0.12,1.32-.32,2.56-2.16,2.16,1.52-5.79-1.44-3.69-3.23-1.08-0.79-7.11-4.76-11.05-10.78-12.93-0.15,2-.71,3.6-2.15,4.31C267.06,267.34,266.11,267.36,268.7,266.69Zm-101.33-2.15c-4.9.13-7.47,2.59-9.7,5.39-0.17-1.27.19-3.06-1.08-3.23-5.86,4.56-12.66,8.18-15.09,16.17,3.26,3.21,2.37,10.56,6.47,12.93C155.92,286.53,164.56,275.78,167.38,264.53Zm-38.8,58.21c8.71-1.68,12,1.22,14-5.39-0.26,1.17-1.77,2.59-2.15,1.08,1.11-3.92,4.91-13.74,1.08-12.93,5.52-4.19,12.9-12.23,14-17.25a85,85,0,0,1-15.09,14c0.25-3.34,3-4.19,4.31-6.47-1.1-5-3.22-9-5.39-12.93-1.15,2.79-2.62,5.29-2.15,9.7,3.75,0,3.53,4.33,1.08,5.39,0.3-2.82-.39-4.63-3.24-4.31-2.92,5.88-.7,10.4,3.24,10.78-1.69,1.55-.85,5.62-4.31,5.39,3.3-3.29-2.39-3.09-3.23-5.39C132.29,309.45,126.23,313.6,128.57,322.74Zm71.14-46.35c-4.65,5.77-9.76,11.08-18.32,12.94-0.85,3.73,1.2,4.55,2.16,6.47C193.95,295,201.68,285.9,199.71,276.39ZM176,287.17c3.78-.53,7-1.61,11.85-1.08-0.79-6.72-4.66-12.5-7.54-20.48-9.59,4.3-10.59,15.57-18.32,23.72,3.15-10.5,8.13-19.18,16.17-24.79h-8.62c-3.27,12-11.45,20.47-11.86,32.34v-4.31c-7,4.18-10.7,11.57-14,19.4,9-1.37,14.13-8.86,17.25-12.93,3.51,3.28,16.45-2.06,21.56-4.31C179.33,293.18,181,286.86,176,287.17ZM277.32,271c2,0.48,6.5-1.47,5.39,2.15-3.93-.17,11,14.49,14,3.23-5.55-10.3-15.37-13-22.64-9.7C276.68,270,279.18,265.91,277.32,271Zm-93.78-5.39a41.88,41.88,0,0,0,7.55,18.33c2.27-5.63,7.7-8.1,11.85-11.85-4.48-.15-0.22-0.71,0-2.16C198,271.76,193.59,264.6,183.55,265.61Zm30.18,4.31h5.39c0.24-2-1.22-2.38-1.08-4.31h-4.31v4.31Zm127.19-1.08c1.91,0,3.12,6.05,5.39,2.15-2.22-.29-0.26-4.77-3.23-4.31C343.06,268.11,341.19,267.67,340.92,268.84ZM301,275.31c0.24-.84.9-1.25,2.16-1.08a4.34,4.34,0,0,0-6.47-3.23C298.63,272,298.51,275,301,275.31Zm-80.84,0c-0.24-2,1.22-2.38,1.08-4.31H217C216.78,273.69,218.62,274.37,220.19,275.31ZM204,296.87c-4.25-.42-2.24-7.1-5.39-8.62-1.23,3.79-4.36,5.69-7.54,7.55,6.15,1.75,13.56,2.25,19.4,4.31,4.58-10.85,7.28-15.07,1.08-27-2.61,1.36-5.57,3.4-3.23-1.08h-3.23C201.18,280,200.21,292,204,296.87Zm-91.62-14c2.76-.11,5.14-0.61,6.47-2.16-1.76.78-4.69-2.14-2.15-2.15,2.05,0.46,2.71,2.32,5.39,2.15,0.34-3,8.5-.51,9.7-5.39C123.08,275.57,114.43,275.9,112.41,282.86Zm216.66,4.31c-10-2.36-14.64-14.18-26.95-10.78,0.76,3.56,2.3,6.33,7.55,5.39C304.9,289.42,322.8,296.76,329.06,287.17Zm-61.44,7.55a10.77,10.77,0,0,0,7.55-7.55c-4.09-1.66-4.53-7-8.62-8.62C263.52,284.26,267.65,288.77,267.62,294.71Zm-28,7.55c-2.66.14-5.19,0.16-6.47-1.08-1.07,4.22,2.38,6.26,0,8.62,4.72,1,10.92,2.88,18.32,0-15.86-2.22-11.83-21.46-16.17-30.18-1.61,5.63-2,14.4,2.15,17.25-2.37-2.48-4.3.26-4.31,3.23C235.89,300.22,238.27,300.71,239.6,302.26Zm56.05-22.64c-0.26,1.54-1.78,1.82-2.15,3.24,4.32-.86,5.33,6.87,11.85,4.31-4.68-.07-3.23-6.91-4.31-5.39C299.65,284.79,298.81,278.38,295.65,279.62Zm67.91,14c-1.38-.06-1.5-1.38-3.23-1.08-0.75,2.9,2.23,2.08,3.23,3.23,0.56-1.59,1.59-2.72,2.15-4.31-1.42-1.1-4-1.06-5.39-2.15C358.74,293.42,365.14,289.54,363.56,293.64Zm-245.76,3.23c3.71-.29,8.88-4.71,7.55-6.47C123.77,293.5,118.56,293,117.79,296.87Zm94.86,4.31c3.3-.78,3.17,1.86,6.47,1.08-0.26-4.41,1-10.39-2.16-11.86A64.27,64.27,0,0,0,212.65,301.18Zm59.29-5.39c1.06-2.53,5.4-1.79,5.39-5.39C274.52,290.55,270.3,294.77,271.94,295.79Zm-102.4,7.55c-3.85,3.4-7.39,14.26-6.47,21.56,7.09-2.62,15.05-8.87,16.17-14a3.89,3.89,0,0,0,6.47-3.23c-1.27-.17-3.06.18-3.23-1.08,5.5,3.12,2-11.66-1.08-6.47,5,0-.92,2.8-2.15,3.23V300.1c-3.74-.87-4.14,1.61-7.55,1.08C173.71,306.85,171.34,301.73,169.54,303.34Zm24.79-3.23c-1.28-1.24-3.81-1.22-6.47-1.08,0.64,2.23-1.33,7.08,1.08,7.55C190.05,303.73,193.21,302.94,194.33,300.1Zm-3.23,6.47c3.54,0.41,4.75,3.15,7.54,4.31,0.19-1.61-.38-4,1.08-4.31,0.17,1.27-.19,3.06,1.08,3.23a21.51,21.51,0,0,0,6.47-7.55C199,300.74,194.85,301.59,191.09,306.57Zm-28-3.23q-0.24,4,2.16,5.39c0-3.28,2.28-4.19,3.23-6.47C165.86,301.81,166.11,304.23,163.06,303.34Zm9.7,19.4c0.32,3.76,2.92-.09,3.23,2.16-3,3.13-2.95-1.62-5.39-2.16-0.23.84-.9,1.25-2.15,1.08-2.64,2.54,1.61,2,1.08,5.39-2.14,0-1.37-2.94-4.31-2.15-1,1.92-3,2.74-2.16,6.47,4.52,0.57,6-1.88,9.7-2.15,0.32-2.12-1.46-2.14-2.16-3.23,2,0.24,2.38-1.22,4.31-1.08v3.23c20.29,1.13,27.67,9,44.2,12.93,0.73-14.1.06-20,0-35.57-3.22,0-3.66-2.81-6.47-3.24,0.89,12.26-1.44,24-7.54,33.42-0.1-1.7-2.75-.84-2.16-3.23,5.37-6.19,11.93-21.25,6.47-31.26-2,3-5.05,5-6.47,8.62-3.81-1.26-11.29,3.06-14,6.47,1,1.22,2.81,7.11,1.08,7.55-2.43-3.21-2.77-1-3.23-5.39-2.56,1.62-1.08,4.54-2.16,5.39-2.36-4.06-6.22-1-8.62,3.23,1.24-1.27,1.22-3.81,1.08-6.47h3.24c-0.89-3.29-.13-5.49-1.08-6.47C177.55,318.9,173.43,319.09,172.77,322.74Zm-15.09-5.39c-0.47-3.49-3.63-4.28-5.39-6.47-7.36,7.51-10.06,14.14-11.86,28,3.32-1.4,7.74-7.59,2.15-8.63,3.49,0.61,5.42-.33,6.47-2.15q-0.75,5.06,4.31,4.31c-2.66-3.7,1.76-8.08-2.15-9.7,4.72,0.79-.87-2.14,2.15-2.15,0.52,1.92,1.15-.47,2.16-1.08,0.24,0.84,0,2.13,1.08,2.16,3.07-5,8-8.33,5.39-16.17C155,306.72,158.58,314.66,157.68,317.35Zm-44.19,4.31c3.69,0-.15-2.81,4.31-3.24a5.08,5.08,0,0,1-1.08,3.24c4.33-.74,6.15,1,9.7,1.08-0.94-4.94,1.42-12.17,0-14C122.95,313.88,115,314.52,113.48,321.66Zm74.37-6.47c3.55-.4,5.39-2.52,7.55-4.31-1.92-1-2.74-3-6.47-2.16C187.69,310,187.72,312.54,187.86,315.19Zm-1.08,2.16q0.24-4-2.16-5.39c-0.33,2.54-3.74,2-3.23,5.39,0.94,1.58.86,4.17,4.31,3.23C186.25,317.22,183.16,315.36,186.78,317.35ZM238.52,326c1.58-5.25,7-6.67,9.7-10.78-6-3.49-11.05,1.71-12.93-3.23a22.09,22.09,0,0,0,0,16.17c2-1.92-.87-2.74,0-6.47,2,0.24,2.38-1.22,4.31-1.08C240.76,323.33,235,324.35,238.52,326ZM132.88,340c8.1,0.9,7.46-12.63,7.55-16.17C134.49,326.48,133.48,334.91,132.88,340Zm24.79-10.78c-5.37-.45.43-2.31,1.08-3.23-1.54-.26-1.82-1.77-3.23-2.15C152.58,326,155.71,335.11,157.68,329.2Zm-30.18,6.47c2.94,0.09,2.17-1.8,4.31,0-1.4-2.68,3.17-4.48,0-5.39A21.3,21.3,0,0,0,127.5,335.67Zm-12.94,11.85c4.58-4.76,8.56-10.12,12.94-15.09C123,336.6,113.84,341.75,114.56,347.53Zm30.18-8.62c1.17-2.43,6.77-.41,5.39-5.39C146.1,332.43,143.56,338.35,144.74,338.91Zm26.95-1.08c-1.7,1.82.11,6.22,4.31,5.39,0.6-3.81,2.56-9-1.08-9.7-2.56,1.26-1,7.33,1.08,7.55C171.78,342.77,173.77,338.26,171.69,337.83Zm1.08-3.23c-2.58,2.09-10.28-.94-9.7,4.31,3.29-.78,3.93,1.1,6.47,1.08C168.72,336.3,173.91,338.62,172.77,334.59Zm14,0a5.07,5.07,0,0,1-3.23-1.08c0.78,3.9-1.86,3.9-1.08,0h-4.31V340C178.81,335.47,184.65,339.8,186.78,334.59Zm-64.68,10.78c2.71-1.29,8.32-5.27,5.39-8.62C125.67,338.92,119.89,342.74,122.11,345.37Zm14-3.23c-2.57-2.25-5.66,1.51-6.47,4.31,6.54-1,6.19-2.8,7.55-5.39C137.14,341.72,137,342.34,136.12,342.14Zm-14,4.31a6,6,0,0,1-1.08,4.31h2.16c0.06,0.66.16,1.28,1.08,1.08,1-2.95,3.31-4.6,4.31-7.55A24.28,24.28,0,0,0,122.11,346.45Zm5.39,8.62c5.3,1.63,10-7.39,7.54-6.47C133.26,351.5,129.57,352.48,127.5,355.07ZM111.33,354c2.6,0.44,2.34-2,5.39-1.08q0.29-3.53-3.23-3.23C112.92,351.28,111.89,352.4,111.33,354Z"/><path class="cls-2" d="M193.25,200.93c0.47-1.6,1.38.42,3.23,0-2,2.53-5.25,3.8-3.23,7.55,0.91,1.6,3.47,1.56,5.39,2.15C192.93,217.15,189.78,202.08,193.25,200.93Z"/></svg>