<svg id="Layer_1" data-name="Layer 1" xmlns="http://www.w3.org/2000/svg" viewBox="0 0 1024 617.77"><defs><style>.cls-1{fill:#eaeaea;}</style></defs><title>terrain-texture5-top</title><path class="cls-1" d="M297.48,262a3,3,0,0,0-.08.91A4.7,4.7,0,0,0,297.48,262Z" transform="translate(0 -0.23)"/><path class="cls-1" d="M285.29,180c-0.07-.33-0.12-0.69-0.16-1.07A3.18,3.18,0,0,0,285.29,180Z" transform="translate(0 -0.23)"/><path class="cls-1" d="M217,144.36a0.33,0.33,0,0,1-.15-0.08A0.13,0.13,0,0,0,217,144.36Z" transform="translate(0 -0.23)"/><path class="cls-1" d="M1018.63,587.53c-6.68-6.68-12.75-13-19.12-19.37-12.5,7-24,11.78-36.88,10-11.12-1.58-21.27,4.64-32.65,3.25l-10.77-11.6L881.67,565c-3.24-3.61-7.13-8-10.8-12H849.56c-8.69-4-15.56-7.11-23.56-10.44V531.41c-7-2.66-13.22-6.86-19.74-7.13-7.13-.29-14.35,3.07-23.74,5.37l-14.11-9.21c-5,0-12.63,2.23-17.38-.55-6.43-3.76-12.35-.94-19.77-3.28-1.89-2.36-4.83-5.61-6.92-8.61h-22.5c-2.42-3-5.39-6.74-7.55-9.43-9.54-2-12,5.48-17.08,9.17L653,491.44c-9.75,5.66-19.35,2.16-29-3.15l-4.86,3.53c-1-.13-2.19,0-3-0.43-9.07-5.13-18.37-10-27-15.71-6.32-4.19-13-2.64-20.22-3.11l-7.78,7-15.86-17.78c-6.31-2.07-10.51-3.59-14.8-4.83-8.1-2.34-16.16-6-24.39-6.44-12.39-.71-23.13-3.54-30.39-13.25l-31.12,10.57c-5.36-5.36-10.31-10.84-15.82-15.67s-11.36-8.78-17.54-13.48l-21.93-4.39L364.6,392l-15,10.17c-9.3,0-20.68,1.51-31.49-.34-18.76-3.21-37.64-1.34-56.23-3.37l-0.78-.1c-8.61-28.74-1.12-76.08-5.13-110.08-0.45-3.78-1.09-7.51,0-10.78,1.1,0.18,1.29,1.27,2.3,1.54,0.57-2.37-2.11-1.48-1.53-3.85,4.23,0.88,7.75-3.6,0-.77,0.62-2.67-1.14-3-.77-5.39,5.68,0.31,10.79,0,13.81-2.31-3.78-.65,1.86-3.27,2.3-4.62-4.89-.8-3.42,4.79-6.91,5.39-3.79-1.12-7.79,2.72-9.21-.77,0.57-1.23,3.76.18,3.07-2.31-1.32-.3-2,1.14-2.3,0-0.16-2.21.2-3.91,1.53-4.62,2.74,1.51,4.21-.24,5.37-2.31-1.37,0-4.46,2.07-5.37,0,2.75-5.6,15.57-2.59,18.42-3.85,1.63,1.82,7.07,5,3.84,6.93a5,5,0,0,0,3.84.77c0.1,3.33,4.6,7.16,0,8.47,3.28-.21,3.91,2.23,5.37,3.85-1.36.18-3.84-.78-3.07,1.54,1.81,0,2.26-1.33,4.6-.77,0.34,2.74,2.78,3.37,3.84,5.39-1.68-5.68-3-7-5.37-11.56,0.77,0,.91-0.62,1.53-0.77,4,1.1,4.41,5.84,6.91,8.47,1.09-2.3-.42-2.81,2.3-3.85-3.79-.43.8-0.4,0.77-1.54-4.41-1.22-8.71-2.55-10-6.93,4.73-1,2.16,2.37,4.6,2.31,0.2-4.31-5.81-2.38-6.91-5.39a5.45,5.45,0,0,1,1.54-2.31c3.36,1.15,7,.73,7,3.71,0.28-1.19,1.31-1.63,2.23-2.17,5.41,1.37,7.73-1.75,10.74-.77,5.58,1.82,2.88,11.45,10.74,8.47,2.05,1.53,1.64,5.54,4.6,6.16-1.21-2.38-1.9-5.28-3.07-7.7-1.58.78-4.56-3.61-6.14-5.39,3.71-1.79,5.1-2.34,10.74-4.62,0,2-.43,4.54,1.54,4.62,0.31-1.86-1.4-1.67-.77-3.85,0.77,0,.91-0.62,1.53-0.77a6.29,6.29,0,0,0,5.37,0c0.44,2.17,5.13,4,6.14,3.08-2.61-1.49-5.23-3-6.91-5.39,4.48,1.92,10.58,2.22,10.74,8.47-0.47-.22-3-1.92-3.07,0,2.29,1.23,4.56,3.48,6.91.77-3.24-.33-3.4-4.09-3.84-5.39,3.79,1.59,8.16,2.59,6.91,9.24,1.43-.74,2.56,2.31,3.07,0-4.14-2.11.24-5.9-3.84-7.7,2.7,0.1,12.18,5.2,13.81,2.31-4-.48,1.62-1,0.77-3.08-2.43,2.13-8.64,3.75-10.74,0,1.43-.11,2.56-0.51,3.07-1.54a1.18,1.18,0,0,1-.77-1.54c-4,4.71-16,.28-22.25-3.08,4.4-3.55,10.37-2.24,13.81-1.54,0.32-3-2.3.41-3.07-2.31,9.81-4.92,16.66,11.07,23.79,8.47-2.62-1.35-5.93-1.68-3.07-4.62-2.45-.66-2.91.67-3.84,1.54a10.83,10.83,0,0,1-3.84-3.85c3.4,0.79,10.32.68,12.28-.77-6.83,2-8.68-4.92-6.14-7.7-1.74,1.43-4.47-.58-3.07-1.54,3.72,1.57,6.16.28,8.44,1.54,0.16-3.08,3.61-2.52,5.37-4.62-1.35-.7-3.83-0.27-4.61-1.54-0.21-2.07,5.41-2.2,6.14-.77a5.45,5.45,0,0,0-2.3,1.54c3.47-.11,3.85-3.32,5.37-5.39a12.79,12.79,0,0,1-9.21,2.31c1.77-.83,7-2.14,5.37-3.85a21.36,21.36,0,0,1-7.67,3.85c-2.41-1.41,2.58-2.61,0-3.85-1.52,3.41-7.39.87-8.44,3.08,0.89-4.26.54-11.81,1.53-17.72-2.94,4.24-2.41,12-3.07,18.49-1.75-.11-3-4.64-4.6-2.31,1.32,1,3,1.59,3.07,3.85-1.07,0-5,7.12-10,3.08,1-.13,1-4.7,0-2.31-2.7,4.41-10.11.94-11.51-3.08,1.85-.32,1.67,1.41,3.84.77,0.42-3-4.45-.67-4.6-3.08,3.71-1.16,1.69-8.07,8.44-6.16,0.75-3.73-4.29.29-3.84-1.54,3.09-5.26,3.54-3.14,8.44-8.47-1.91-.12-2.38,1.21-3.84,1.54,0.4-1.14,1.13-1.94,1.54-3.08a5.85,5.85,0,0,0-3.47,2.75l0.4,0.33c-0.2,0-.39,0-0.58,0-3.29,5.17-4.49,14.53-9.4,10.06,1-1.07,3.76-.34,3.84-2.31-2.56.77-2.52-1.07-2.3-3.08-3.59-.21,1,3-2.3,3.08-0.19-1.35-1.32-1.75-3.07-1.54-0.73,1.43,2.3,2.58,0,3.08a2.89,2.89,0,0,1-3.07-3.08c3.23-5.77,10.5.28,13-6.16-1.32-.31-2,1.14-2.3,0a0.78,0.78,0,0,0,0-1.54c-1.35,3.42-8.29,3.41-10,2.31-0.39-4,3.77-3.4,3.84-6.93-2.39-.54-3.3,4.31-5.37,1.54a29.91,29.91,0,0,1,10.74-3.85c1,3.9,1.88,8,6.33,8.42l0.18-.28c-2.48-2-7.12-5-4.21-9.68,4.15,2.51,10.22,3.09,13.81,6.16-0.44.69-4.14,1.86-2.3,2.31,1.81-.24,1.43-2.68,3.84-2.31,0.31,1.49,3,.61,2.3,3.08-0.11,2.46-3.42,1.7-4.61,3.08,2.93,0.64,5,.45,6.91-1.54-2.64-.68.91-0.69-1.53-3.08a28.62,28.62,0,0,1,13,3.85c0.95-2.49-2.48-.59-1.53-3.08,4.15,2.33,9.09-.42,11.51-2.31-3.18,1.48.8-4.64-1.54-2.31,0.13,1.93-1.18,2.41-2.3,3.08-0.79-2.86-3.48-.17-0.77.77-1.59-.46-5,1-5.37-0.77,3.54,0.53,3.25-7.3.77-6.16-0.39,14-22.32,1.5-29.16-1.54,1.71-2.9,6.46-2.76,8.44-5.39,0.73,1.43-2.3,2.57,0,3.08,0.39-4.79,4.45-3.52,4.6-5.39,3,2.71,7,12.32,11.51,8.47-6.16.54-5.92-5.35-9.21-7.7,3.07-1.18,4.54-1.85,6.14,1.54,0.62-7.44,10.27-6.87,13,0-0.55-3.33-2.86-4.83-2.3-7.7,1.09,0.18,1.29,1.27,2.3,1.54,0.1-7.4,9.09.58,11.51-6.16,3.33-.6,5.56,2.15,6.14-1.54-1.37-.46-3.19,2.26-3.84,0,0.78-2,1.26-4.38,3.84-4.62-0.46-1.6.95-5.06-.77-5.39-0.21,3.16-2.89,7.66-6.14,10,0.47-4.48-2.28,4.38-5.37,1.54,0.69-1.36,2.82-1.27,3.07-3.08-4.33,1.61-6.92,2.24-6.91-2.31-3.92,1.34-5.35-.2-9.21.77,4.69-5.6,8.57-4.64,16.12-3.85a0.78,0.78,0,0,0,0,1.54c0.27-1.83,3.7-4.43,1.54-6.16-0.11,1.43-.51,2.58-1.54,3.08-0.66-3.33-7.77,1.54-9.21-2.31,3.83-.54,8-4.79,7.67-6.94a1.18,1.18,0,0,1-1.53.77,4.35,4.35,0,0,0-.77-3.08c2.77-.59,7.1-3.62,5.37-6.16a4.21,4.21,0,0,1-3.07,3.08c1-2.09,3.41-2.74,3.07-6.16-2.39-.54-3.3,4.31-5.37,1.54,2.12-.48,4.92-4.25,3.07-6.16a5.47,5.47,0,0,1-1.54,2.31c0.23-2.54,2.65-3.85,0-5.39,0,3.32-.75,5.93-3.07,6.93-1.06-2.77-.47-4.91-2.3-5.39-2.54,2.6,4.6,6.11,1.53,9.25-0.69-1.62,0-4.6-3.07-3.85,0.16,1.7,3.12,3.66,0,2.31-0.2,2.52,3,1.63,3.07,3.85a2.11,2.11,0,0,0,0,3.08c-1.66-1.74-2.62.64-5.37,0-0.17-.6,0-1.52-0.77-1.54-1.05,3.11,1.38,2.73,2.3,3.85-1.15.13-2.83-.28-3.07,0.77,2.83,0.67.44,5.63-1.53,6.16-0.17-1.46.86-1.7,0.77-3.08-2.09-.07-1.54,1.28-3.07,0-0.2,2.26,1.73,2.37,1.53,4.62-1,0-1.06,1-2.3.77,0.44-4.48-5-4.79-7.67-3.85,0.24-1,1.09-1.47.77-3.08-3.63.05-3.91-3.57-7.67-1.54,3.9,1.13-.62,3.34,3.07,3.08a2.28,2.28,0,0,1-1.53,1.54c-2.17-3-8.44-1.8-10.74-4.62,1.46-1.67,3.27-7.49,5.37-3.85-1-3.64-1.91-4.38,1.53-6.16,2.2,1.64,7.65,0,10,1.54-0.21-2.61-3.91-1.73-4.61-3.85,3.18-.76,1.38-3.67,6.91-3.08-0.22.47-1.91,3,0,3.08-0.74-3.31,3.77-1.35,3.84-3.85-3.32-.4-4.75.23-6.14-0.77,1.58-1.36.67-2.38,1.53-3.08,0.72,1.4,3.46-.78.77-1.54a5.41,5.41,0,0,0,4.6-3.08c-0.89-.13-0.83-1.22-0.77-2.31-3,.31-3.28,3.39-6.14,3.85,0.89-3.48,4.88-3.83,6.14-6.93-1.75-1.06-2.89,2-3.07,0,0.32-1.73,4.21.12,3.84-2.31-3.93.21-1.24-3.29-3.84-3.08,0,2.33-2.84,9.74-8.44,6.16,1.24-1.32,4.82-.3,4.6-3.08-1.92-1-2.4,3-3.07.77,0.52-1.79,2.55-2.06,3.07-3.85-1.92.1-2.4,1.47-3.07-.77,0.64-1.45,2.83-4,0-4.62,0.21,1.76-.18,2.9-1.53,3.08-1.06-3.37-3.54-1-4.6-2.31,0.13-1.15-.27-2.84.77-3.08,1.44,1.36-1,2.38,1.54,3.08,0.63-2.35.09-3.92,0.77-4.62,2.9-1.11,1.47,2.12,3.84,1.54-0.47-3.55,6.59.45,5.37-3.85-2.39.81-6.66,3-8.44,0,1.91-2.85,2.21-2.53,2.3-6.93-3.76.14-9.13,4.52-10.74,0,2.36-.24,6.67-2.5,5.37-3.85,0,0.47-.11.91-0.77,0.77-0.73-1.43,2.3-2.57,0-3.08-1.45,1.37-1.32,4.32-3.84,4.62-2.12-2.9-2.26-1.29-6.14-.77,3.49-2.87-1.05-5.83-2.3-8.47,1,0,.7-1.35,1.53-1.54,3.83,2.79,10,2.62,10.74-3.08-2.92-1.13-.15,3.44-3.07,2.31,2.46-2.85-3.34-2.35-6.14-2.31-0.3,1.33,1.14,2,0,2.31-2.27-1.49-5.27-1.23-5.39-3.32-0.15,1-1,1.23-2.28,1-0.22-5.09.12-1.17-2.3-.77-1.45-1.55.94-3.58,3.07-3.85,3.14-.3,4.4,5.29,6.91,3.08-1.93-1.66-4.28-2.9-6.14-4.62,4.77-5.41,9,5.39,13,.77-3.81.23-6.2-1-7.67-3.08,0.77,0,.91-0.62,1.53-0.77,1.45,0.08.53,2.52,2.3,2.29,0.17-1.46-.86-1.11-0.77-3.11h3.07c0.49,2-2.18,2.48.77,2.34,0.77-.61-0.29-2.68,1.54-3.84-3,.2-2.45-2.39-0.77-3.07-1.91-1-3.18,2.26-3.84,0,1.86-4.34,4.69-3.35,6.91-7.7-3.53,2.28-1.22-1.89-3.07-3.08-0.3,2-.39,4.23-1.53,5.39-0.77,0-.91.62-1.54,0.77-0.11-2.22,2.13-6,0-7.7-1.89.91,1.57,2.91-.77,3.85-0.84-.77-1.27-5.81-2.3-3.85,1.54,5.15,2.2,11.66-1.53,14.64-2.29-2.25.06-5-3.84-6.16,2,0.22,3.3-.28,3.07-2.31-3.39,2.22-3.26.74-5.37-1.54-0.44,1.35.93,4.52-.77,4.62-2.57-.7-0.67-1.72,0-3.08-3.72.92-7.67,4.1-10,2.31,5.37-2.32,11.83-3.54,13.81-9.24-2.07-.21-3.69,3.08-2.3,0-1.79,1.15-3.31-.26-3.84.77,2.27,1.11-3,1-3.07,2.31,1.15,0.13,2.83-.28,3.07.77-1.48.31-.61,3-3.07,2.31-1.15-2.12-1.82-1.65-3.84-3.85,1.93-.36,5.26.1,6.14-3.08-2.42-.37-1.74,2.37-4.6,1.54a3.64,3.64,0,0,0-.77-2.31c2.89-2.65,5.19.34,8.44-1.54a14,14,0,0,0-5.37-2.31c2.72-.09-1.63-2.55.77-2.31,2.17-.12,1.79,2.31,3.84,2.31,0.3-1.33-1.14-2,0-2.31A13.9,13.9,0,0,1,339.61,68c-0.42-3.53.16-3.59-2.3-5.39,1.91-1.42,5.78-.87,6.14-3.85-2.41-.36-2,2.08-3.84,2.31,1.42-1.36-.2-2.39-1.53-3.08a14.32,14.32,0,0,1-6.91,3.85,3.75,3.75,0,0,0-1-2.31c1.45-.17,1.83.87,2.83,0.77V57.24c-5,2.15.05,0.31-2.83-.77-1.35.7-1.15,2.84-3,3.08,0.86-2.73,1.57-5.67,5.43-5.39,0,1-1,1.07-.74,2.31,2.9-.17,2.21-4,4.62-4.62-1.85,3.16,2.29.18,4.61,0.77,0.09-3.22-4.48-1.2-4.6-2.31,2.11-1.66,3.21.45,5.37-.77-1.67-3,1.59-4.25,0-6.16a2.1,2.1,0,0,1-2.3,1.54c1-.07,1-5.54,0-3.08-2.16,5.5-3.28,9.64-6.91,4.62,0.93-.16.47-0.86,0-1.54,2.45-.66,2.91.67,3.84,1.54,1-1.81-.39-1.72,1.54-3.08-2.43-3.17-4.26,0-6.91.77-0.24-1-1.09-1.47-.77-3.08,3.63,1.55,1-3.23,5.37-3.85,2.17,1.32-.29,3,2.3,3.08,1.6-1.53-.57-2.7-1.54-3.85a3.6,3.6,0,0,1,2.3.77c-2.24-3.57-3-4.2-3.07-7.7-2.1,4.06-2.07,10.25-7.67,10.79,0.12-.91-0.13-2.19.77-2.31,0.17,0.6,0,1.52.77,1.54-0.2-2.71.89-2.82-.77-5.39,0.89-1.93,3.06-2.58,3.07-5.39-2.7-.19,1.19-1.65-0.77-4.62-1.8-1-1.72.39-3.07-1.54a21.14,21.14,0,0,0,0,7.7c-2.73-1.2-.46,2.62-2.3,2.31,0.23-1.52-1-1.53-1.53-2.31,2.14-3.51-.84-4.16,1.53-6.93-4,3.75-1.13-6-3.07-3.85-0.44,1.36.93,4.53-.77,4.62-0.06-2.5-.39-4.74-1.53-6.16-1.36,1.29.68,2.58,0,5.39-1.34.71-4.12,0-3.84,2.31,2,0.83,3.66-2.34,4.6,0-3.14,1.49,2.27,2.54,1.53,6.16-2.33-1.9-4.06.5-6.91-3.08-0.3,3.64,3.15,3.51,2.3,7.7-1,0-1.06-1-2.3-.77,0.51,3.17,3.72,5.36,0,6.93,1.85,1.54,3.72-1.34,5.37.77-3,3.36-9.36-.1-8.44-6.93-1.58.28-3.4,4.21-2.3,4.62,0.68-2.07,2.14,1.33,1.53,3.08,3.71,0.14.76,1.38,3.07,1.54-2.77.52,2.36,5.08-1.54,6.93-2-.8-2.58-3.05-4.6-3.85,0.66,2.4,2.25,3.31,0,5.39-1.67.22-.95-2-2.09-2.27q-0.08.5-.14,1c0.39,1.81,2.24,2.17,2.24,4.38-1.45.09-.53,2.55-2.3,2.31,0.11-.91,1.37-1.75,0-2.31,0,0.43-.62.87-0.77,0a18.26,18.26,0,0,0,.84-4.38,3.53,3.53,0,0,1-.07-1l0.21,0a13.19,13.19,0,0,1,2.09-5.43c-2.9-.09-1.14,4.51-3.84,4.62,0.41-2.09.61-1.92,1.54-4.62-1.32-.3-2,1.14-2.3,0,0.22-2.4,1-6.88-2.3-11.55-0.11,1.43-.5,2.57-1.53,3.08-0.17-.6,0-1.52-0.77-1.54,0.58,3.9-2.93-1.65-3.07.77,1.58,0.66.81,5.36,0,6.16,1.94-.58,3.6,2.94,2.3,3.08-1.21-.07-0.6-2-2.3-1.54-0.43,3.77,3.48,3.18,4.6,5.39-1.9,1-3.72-1.72-3.84,0,0.65,2.17,2.63,3,3.84,4.62a3.6,3.6,0,0,1-2.3-.77c-0.81,3.38,2.6,2.53,2.3,5.39-2-1.42-2.91-1.83-5.37-.77,0-3.66-1.79-1.86-3.07-3.08,0.34-4.62,1.91-8.49-2.3-11.56-1.63,1.69,1.17,4.28-1.54,5.39-1.13-1.69-1.5-4.15-3.07-5.39-1,5.41,3.11,5.61,3.84,9.25-2.21-.13-4.55-4.1-6.14-2.31,1.7,1.89,4.4,2.77,6.91,3.85-2.37.91,0.12,1.93-1.54,3.08-1.53,0-1-2.1-3.07-1.54-0.66,1.8,2.68,3.32.77,3.85-2.51,1.14-2.22-4.33-3.84-1.54,0.72,2.36,4,2.1,5.37,3.85-4.61.14-3.38,1.89-5.37,3.85-1.61-2.22,1-4.57-.77-6.16-0.2,1.2-1.68.53-2.3,0-0.9,2.48-1.25,6.34-3.84,3.08-1.87,4.74,1.25,7.07-2.3,8.47,0-1,1.35-.7,1.53-1.54-1.35-1.45-2.38,1.05-3.07-1.54,1.11-1.83,1.16-1.89,2.3-2.31a5,5,0,0,0-3.84-.77c-1.88,1,.84,2.87-0.77,3.08-2.64-1.59.35-5.82,2.3-7.36C271,61,268.11,62,268.24,61h3.84c-0.46-6-.75-6.74-2.3-11.13-3.09,1.07-4.32,2.41-6.14-.94,2.44-1.85,8.38.12,6.14-3.16,0.55,1.25-3.62,1.2-3.07,0a2.14,2.14,0,0,0,0-3.1c2.12,0.27,5.69-1.92,3.84-3.09,0.33,1.24-2.86,2.58-3.07.77,1-4.16,5.82-7.82-.77-10,0.25,1.81,1.21,2.89.77,5.39-1.14.4-1.93,1.14-3.07,1.54-0.14-4.51-3.34-8.23-2.3-11.55-2.3,0-2.75,5.91-4.6,3.85,2.34-1.15-1.64-4.39,1.54-3.85C258.41,23.71,257,22.59,256,21c0.89,5.49-4.64,5.81-4.6,12.33q2.51-.21,2.3,2.31c-5.7-2.81-2.31-9.26-5.37-12.33-0.42,1.12.9,4-.77,3.85,1-3.55-3.84-1.28-2.3-5.39-3.15.17-3.26,3.4-6.91,3.08,1.07-2.21-2.09-3.91,0-4.62,2.23,3.85.49-2.93,4.6-1.54-0.88,1.58,1.2,3.67,1.53,1.54-0.62-1.2,1-2,2.3-3.85-1.68-1.94-.59-3.07-1.53-4.62-3.51,1.61-3.6,6.66-7.67,7.7a3.64,3.64,0,0,0-.77-2.31c3.12,0.22,1.73-.28,1.53-2.31,0.77,0,.91.62,1.54,0.77-1.38-3.34,3.18-4.83,0-8.47-1.91.08-2.38,1.44-3.84,0,1.48,3.11.93,5.65-.77,10-0.77,0-.91.62-1.53,0.77-1.06-4.81.69-6.18,0.77-10.79-2.71-1.49-3.43.36-6.14,0.77-0.63-2.18,1.08-2,.77-3.85-4-1-1,5.21-3.07,6.16C225.41,8.31,224,7.18,223,5.63c-0.11,1.43-.5,2.57-1.54,3.08-1.77.24-.85-2.22-2.3-2.31-2.68.67-1.89,5.28-2.3,6.16-0.43-1.88-3-1.64-2.3-4.62-2.41-.88-1.87,1.21-3.07,1.54-2-2.06.46-4.06,0-6.93-2.92-1.13-.15,3.44-3.07,2.31,1.62,6.3-.87,8.23-1.54,11.55-5.14-.48-3.27,0-1.54,2.31-3.65-1.1-3,2.16-4.6,3.08a14.73,14.73,0,0,1,2.3-6.16c-2.84-.89-1.7-5.17-1.54-10-3-.26-0.66,5.26-3.07,1.54-0.39,1.95-1.14,4.67-3.84,6.16-0.78-1-.75-2.84-1.54-3.85,1-.64,4.38-2.7,2.3-3.85-2.56,2.17-.11-4.4-3.07-5.39A7.15,7.15,0,0,1,190,5.63c1.34-3.61-4.3-4.13-4.6-1.54,2.75,1.57.93,6-.77,6.16,1.48-2.72-.36-3.44-0.77-6.16-2.38.18-3,2.14-4.6,3.08,2,2.47,1.08.85,3.07,3.85a2.1,2.1,0,0,0-3.07,0c-0.7-1.69-.09-3.11-3.07-3.85-1,2.72-2.64,6.45-3.84,3.08-1.88,3.17,1.64,3.47,1.53,6.93a3.6,3.6,0,0,1-2.3-.77c2.06,4.45,2.46,2.43-.77,5.39,3.12,1,7.63-.18,10,3.08-3.74.74-4,.44-7.67,1.54-0.42-1.37-.39-3.2-1.54-3.85-1.06.47-.12,3-1.53,3.08-0.81-2.27-1.06-5.1-2.3-6.94a1.18,1.18,0,0,1-1.54.77c0.18,3.44,4.56,6.69,3.07,9.24,0-1-1.35-.7-1.54-1.54,0.87-1.86-1.78-2.55-1.54-4.62-1.71,3,.89,7.26-0.77,9.24,0-1-1.35-.7-1.53-1.54,1.19-1.18-1.08-2.82-1.54-4.62,0.68,2.47-2.53,1.06-2.3,3.08q1.18,1.13,2.3,2.31c-3.59-1.17-4.11-1.46-6.14,0-0.88-1.68-.15-5-2.3-5.39-0.44,1.35.93,4.52-.77,4.62-0.77-1-1.27-2.32-2.3-3.08-0.42,1.12.9,4-.77,3.85-3.08-1.43-3.48-2.55-3.84-5.39-3.62.27-.72,2.31-3.07,3.85,2.66-.2.93,3,0.77,3.08-3-.37-2.68-4-4.6-5.39,1.19,2.74-2.61.47-2.3,2.31,3.92,0,.14,2.89,3.07,3.85-1.1.95-1.45,2.65-1.53,4.62-4.07-2.16-2.85,7.71-1.53,10.78-1.37.46-3.19-2.26-3.84,0,1.44,1.59,4,.89,4.6,1.54-1.83.57-.64,6.19-3.07,3.85,1.49,2.76-.3,2.82-0.77,5.39,3.57-.68-0.52,2.54,1.53,2.31,1.88-2.38-1.38,1.67.77,1.54a5.43,5.43,0,0,1,1.53-2.31,2.13,2.13,0,0,0,1.54,2.31c-0.4-2-1-2.7.77-3.85,2.23,0.67.86,1.15,0.77,3.08,1.54,0.17,3.11-3.44,4.61-.77,0,3-5.26,2.9-1.54,5.39,1.26-4.14,6.79-8.06,10.74-6.93-4.46,2.2-5.42,7.91-11.51,8.47-0.43-1.87-.66-4-3.07-3.85,1.18,3.47-.85,3.67-2.3,6.16-0.23-.68-1.54-3.92-2.3-1.54a4.68,4.68,0,0,1-2.3,4.62c3.77,0.25-.8,4.4,2.3,4.62-3.8.38-4.23,3.43-4.61,5.39-1.11-1.45-1.13-4-3.07-4.62-0.63,4,4.85,5.89,3.07,8.47-1.75-1.32-2.45-3.71-4.6-4.62,0.42,1.12-.9,4,0.77,3.85,1.46-.15,4.71,8.6,5.37,9.25-1.56-.23-1.5-2.09-3.07-2.31,0.67,2.47-2,1.6-2.3,3.08,0.93-.24,2.65,2.23.77,2.31-1.55-2.86-1.18-2.88-1.54-6.93-3.69,2-1.18,5.32,0,7.7-1.1-.3-1.29-0.93-2.3,0-3-2.1.18-7-1.53-9.24a2.13,2.13,0,0,1-1.54,2.31c-0.12-.91.13-2.19-0.77-2.31,0.31,4.51,2.74,6.41.77,10,0.21-1.76-.18-2.9-1.53-3.08-0.93,3.76,1.73,3.91,2.3,6.16-3.39,1.05-5.54-3.11-6.91-1.54,1.77,2.08,4.13,3.56,8.44,3.08,0.55,3.28,2.3,3.07,2.3,5.39,0-3.4,5.19-2,6.14,0-5.58-.25-8.13.53-9.08,3.42,0.39-1.83-2.55-.32-1.67-2.65-2.41-.38-2,2.66-3.84.77-0.73,1.43,2.3,2.58,0,3.08-2.76-.57-0.78-5.9-3.07-6.93-1.85,5.73,4.17,7.6,2.3,10.78-3.36-1.25-4-5.27-5.37-8.47-0.36,7.31,4.55,8.58,1.53,13.1-2.38-1.46-4.3-3.38-3.84-7.7-3-1.24-.27,3.33-2.3,3.08-1-1.8-1.3-4.34-2.3-6.16-0.77,1.88-.25,1.64-0.77,4.62,3.55,2.47,3.48,7.61,2.3,13.86-4.79-2-4-9.55-6.14-12.32-0.36,4.47.3,8.1,2.48,10-1.56-.22-1.89-2.08-2.89-2.31v5.39c4-.77,10.78,1.73,7.5,3.85,2.81,1,4-3.5,5.28-1.54,0.21,2.07-5.75,1.9-3.11,3.85,3.4-1.09,4.68-4.65,8.42-3.85-2.2,2.64-.21,8.19-3.08,11.56-1.27,0-.44-2.14-1.54-2.31-0.54,2.37-.54,1.48,0,3.85-1.35.7-3.83,0.27-4.61,1.54,1.77-.24.85,2.23,2.3,2.31-0.12-2.95,3.13-2.51,4.6-3.85-0.86,1.11-.83,1.88.77,2.31-0.32-2.88,2.3-2.37,3.07-.77a53,53,0,0,1-5.37,3.85c3.05,0.24,3.86-1.78,6.91-1.54a2.47,2.47,0,0,0,.77,3.85c0.21-3,.49-5.5,3.07-7.7,0.09,2.73,2.54-1.64,2.3.77-0.33,1.47-2.19,1.39-1.53,3.85,4.51-.16,6.31,2.4,8.44,4.62-0.41,4.57-.87,4.94-3.07,4.62,0.89,1.16,2.22,1.88,2.3,3.85-3,3.24-4.74-.4-6.14,3.08a51.16,51.16,0,0,0-7.67-3.08c3.3,3,0,1.51,0,3.08,2.35,0.56,2.26-1.33,4.6-.77-2,3.74.17,13-4.6,12.32,0.61,0.09,2.33,2.55.77,2.31-0.77,0-.91.63-1.54,0.77-3.57-2.28-1.88-5.73-2.3-8.47-0.76,3.61-1.82,2.9-4.61,1.54-0.31,1.86,1.4,1.67.77,3.85,1.51,0.23,1.52-1,2.3-1.54-0.07,4.18,4,4.21,4.6,7.7-3.32,0-1.37,1.52-3.84,3.08,4.64-1.63,6.4,3,10.74,3.85-3.74,2.07-7.38-.26-9.21,3.08a7.12,7.12,0,0,0-4.6-3.08c1.18,2.39,1.88,2.4-1.54,3.08,0.26,1.8.79,3.32,2.3,3.85,0.46-3.16,3.3.33,6.14,0.77-2.6.65-6.91-.32-10,1.54,2.16,2.6,6.49-1.76,8.44.77-1.15.13-2.83-.27-3.07,0.77,1.58,0.21.72,2.87,2.3,3.08-0.54-2.59,1.58-2.53,2.3-3.85,2.41-.37,3.14,1,3.84,2.31-1.43.11-2.56,0.51-3.07,1.54,2.17,0.64,2-1.09,3.84-.77-1,1.91,1.71,3.74,0,3.85-3.32,1.08-5.08-3.35-6.14,0,2.66-.67,2.63,1.19,1.53,2.31,5.19,0,13-2.84,16.88.77-5.09,3.62-13.75,3.66-19.19,6.93-0.77-.6-1.92-4.63-3.07-2.31,1.06,0.77-.33,1.27,1.53,2.31-2.28.67-3.79-3.29-4.6-1.54,2.61,0.82-2.14.24-.77,2.31,5.49,2.38,19.94-3.16,28.39-6.93,0.27,2.56-1.06,1.86-3.07,3.08-4.59,2.8-29.63,18.33-31.46,4.62-0.85,4.59,5.85,9.36,12.28,6.93,1.79,4.91-3.61,6.61-2.3,8.47,0.61-1.7,2.68-1.93,3.84-3.08-3.81-8,9.16-12.31,14.58-13.1-1.35,3.78-1.65,8.62-3.84,11.56,1.11-.42,4,0.9,3.84-0.77-3.08-.91.63-7.31,1.54-9.25,0.72,2.35,3.73,2.42,3.84,5.39a2.93,2.93,0,0,1-4.61-.77c2.07,5,6.45,3,7.67,8.47a3.6,3.6,0,0,1-2.3-.77c-0.37,3.2,4.42,1.21,4.6,3.85,0,3.26,1.46,4.95-.77,6.93-3.21-.66-4.18.94-5.37,2.31,1.8-.24,2.88-1.21,5.37-0.77,0.1,1.54-5.21,3.58-1.54,3.85,2.19-2.32,3.29-2.74,4.6-4.62,0.22,2.66,6.42-2.3,9.21.77-0.91,1.9-2.9-1.58-3.84.77,2.31,0.77,5.57.57,6.14,3.08-4.64,3-13,.34-13-0.77,0.51,1.2-.92.61,0.77,3.08-8.13,1-10.31-4-15.35-6.16,2.76,5.2,13.34,9.58,16.88,6.93,0,1-1,1.07-.77,2.31,2.3-.8,6-4.21,8.44-2.31-4.6,4.67-13.15,8.47-21.49,6.93,1.92,4.07,6,.73,9.21,0,5.94,1.23,8.06,6.29,10.74,10.79-2.16.81-1,3.05-3.84,1.54,0.49,1.88,1.55,4-1.54,3.85-1-1.91,1.71-3.74,0-3.85-1.74,3.93-2.85-.29-5.37,2.31a2.27,2.27,0,0,1-1.53-1.54c0.29-2.38,2.61-3,0-4.62-1,1.93.39,2.41-.77,3.08-2.05-1-1.3-4.86-3.07-6.16,0.48,2.59-2.52,5.62-.77,6.93,1.72-2.17,4.73.85,3.84,3.85,3.9,1.73,8.8,2.47,10,6.93-3.08-1-9,.51-9.21-3.85-8.19,1.28-8.62-11.89-13.81-16.18,0.68,3.05-.17,4.71.77,6.16a1.18,1.18,0,0,1,1.54-.77c0.39,2.18,1.86,3.27,2.3,5.39-3.32,1.48-4.75-2.85-6.14-.77,0.47,3.63,7.75.44,7.67,4.62-4.32,1-7.81-4.88-9.21,0,5.17-.66,5.27,3.56,10.74.77,1.15,1.15,3.23,1.38,3.84,3.08-5.25-1.47-8.93-2.21-13.81,0,2.94-.22,7.4.82,11.51,1.54a3.64,3.64,0,0,0,.77,2.31c-0.18,2.13-2.85,1.76-3.84,3.08,7.54-4.68,8.77,8.57,17.65,6.16,0,2.87,3.41,2.22,6.14,2.31,1.88,3.72,9.25,3.52,11.51,4.62,14.88-9,35.84-15.77,51.42-21.57-0.6-.17-1.51,0-1.53-0.77,7.85-3.64,19-8.7,23.79,0,4.1,7.45,1.41,28.6.77,42.37-1.19,25.69,1.44,53.9-.66,68.75a52.76,52.76,0,0,1-12.54-9.7c-5,3.17-9.4,7-10.68,13H198.37c-1.83-2-4.87-5.69-6.55-7.7-13,.72-25.13-0.94-35.37,2.68-11.17,3.94-21.81.6-32.55,2.95l-8.75-9.48c-1.09.45-1.82,0.77-2.56,1.07-14.61,5.9-29.08,12.21-43.93,17.4-3.74,1.31-8.73-1-15.33-1.92-10.06,4.2-15.18,2.34-21.35-9.4L18,383.85,1.31,398l1.74,2c-0.9,6.49-2.67,12.56-2.69,18.52L0,618H1024V584.61C1022,585.75,1019.88,586.88,1018.63,587.53ZM366.47,235.18a15.17,15.17,0,0,1-5.37,2.31C361.68,235.5,363.55,234.81,366.47,235.18Zm-2.3-2.31c-1.11,1.19-3,1.62-5.37,1.54C358.9,232.21,362,233,364.17,232.87Zm-0.77,15.4c-3.86,2.82-7.05-1.63-10.74-1.54,0.33-1.47,2.19-1.39,1.54-3.85-2.62-.58-1,3.13-3.84,2.31C353.73,237.61,365.35,240.53,363.4,248.27Zm-10.74-8.47c-0.77,2.51-6.78,6.36-6.91.77C349.59,241.15,349.51,240.86,352.66,239.8Zm29.93-80.88a3.59,3.59,0,0,1-3.07,3.08Q379,158.38,382.59,158.92Zm-5.37,6.93a23.49,23.49,0,0,0-3.84,6.16C372.42,170.75,374.42,165.9,377.22,165.85Zm-34.53-67a4.29,4.29,0,0,0,3.07.77c0.54,2.67-2.69,2.76-3.84,1.54A3.64,3.64,0,0,0,342.68,98.83Zm-5.37-11.56c-1,1.32-1.59,3-3.84,3.08C333.62,88.19,334.81,87.08,337.31,87.28Zm-6.14-41.6c-2.26,3-3.88,2.61-4.6-.77C328.37,44.9,328.83,46.24,331.17,45.68Zm-2.3,5.39c2.87,0.63.4,5-3.07,3.85C325.21,52,329.87,54.39,328.87,51.08Zm-221,72.41c0.87,0.15.43,0.77,0,.77,0.24,1,1.92.64,3.07,0.77-1.1,2.24-.59.87,1.53,0.77a1.18,1.18,0,0,0,.77,1.54c-0.1,1.7-3.25.33-4.6,0.77,0.1,1.7,3.25.33,4.6,0.77-3.32,3,1.07,1,1.53,3.85C105.62,134.71,106.86,126,107.86,123.48Zm34.53,154.06c1.24-1.69,5.3.27,5.37,2.31A10.93,10.93,0,0,1,142.39,277.55ZM272.08,117c-0.57,2,2.65.71,1.54,3.63-1-.78-2.83-0.87-3.84-1.65-0.44,1.12-3.53,5.42-3.07,1.48,0-2,.57-1,1.54-0.8,0.12-2.17-2.17-1.94-3.07-3.09-1.6.22,1.14,2.08-1.54,2.3a14.71,14.71,0,0,0,3.07,4.62c-5.93,2.62-15.71,3.29-20.71.77v-5.39c-1,.71-1.7,2.41-1.54,4.62-4.4.51,0.84-3.87-3.84-3.08,0.88-.91.87-2.72,0.77-4.62a10.9,10.9,0,0,0,5.37,2.31c0.36-1.64-1.1-1.47-2.3-1.54,3.23-3.17,11.54-1.25,14.58-4.62-0.9-1.35-3.81,1.78-6.14,1.54a1.19,1.19,0,0,0-.77-1.54c3.81-1.57,6.88-3.65,12.28-3.63,0.62,3.43,6.26,5.7,3.07,8.7h4.6Zm3.84,22.66c1.24-.22,1.32.73,2.3,0.77,0.56,2.1-1.52,1.55-1.54,3.08C275,143.64,276.34,140.78,275.92,139.66Zm2.3-27.73c1.49,1.7,2.2,3.15,2.3,7.7-1.13-.4-1.93-1.14-3.07-1.54C279,115.73,276.47,114.08,278.22,111.93Zm13,12.07h2.3c-0.18,3-2.72,2.4-4.6,3.08C288.74,125.06,291.94,127,291.27,124Zm3.75,7.19c1.21-.06,3,0.37,3.11-0.77,0.93,1.15,3.64,3.21.79,3.85,2.76,1.57,5.23,3.14,3.85,6.93-2.17-.64-2,1.09-3.83.77-1.11-1.2-1-3.6-2.3-4.62-1.92.53,1.42,2.27,0.77,4.06-1.89-.67-3.33-1.41-3.07-4.41H298v-2C296,134.4,295.27,134.67,295,131.19Zm2.39-11.56c0.15-.87.77-0.43,0.77,0,1.81-.24,1.43-2.67,3.84-2.31a4.2,4.2,0,0,1-3.84,3.85A1.19,1.19,0,0,0,297.4,119.63Zm6.14-10c0.51-2.31,1.64.74,3.07,0-0.18-1.35-1.32-1.76-3.07-1.54-0.11-2.17,1.88-2.22,3.84-2.31,0.06,1.22-.37,2.94.77,3.08-1.15.9-1.88,2.22-3.84,2.31A1.19,1.19,0,0,0,303.54,109.62Zm6.91,6.16a12.73,12.73,0,0,1-.77,8.47c-2.49-.33-1.53-4.12-3.07-5.39C308.66,117.58,306.72,116.07,310.45,115.78Zm28.39,24.65c-4.42,1.24-3.64-1.08-8.44-.77C332.22,138,338,136.63,338.84,140.43ZM334,114.24v-2.31c2,0.1,1.62-.94,3.07-0.77A3.32,3.32,0,0,1,334,114.24Zm1.78,67c-7.34,2.27-10.24-.89,0,0h0Zm2.22-2.31v1.54c-1-.14-0.68.3-0.73,0.77-0.75,0-.58-0.94-0.75-1.54a3.69,3.69,0,0,1-2.33.77C333.4,177.9,337,179.29,338,178.95Zm-10.67,6.16c1.61-3.3,4.85-.22,8.44-1.54a2.89,2.89,0,0,1-3.07,3.08,3.63,3.63,0,0,0,.77-2.31A14.29,14.29,0,0,1,327.33,185.11Zm1.54,3.85c-0.24,1-1.92.64-3.07,0.77-0.35-2.41,1.64-2.46,3.84-2.31,0,0.75-.94.6-1.53,0.77C328,188.84,328.4,188.92,328.87,189Zm-3.07,43.91c-0.91,2.35-3.26.21-3.84,3.85-1.3-1.11.64-5.47,3.07-5.39A1.19,1.19,0,0,0,325.8,232.87Zm-8.44,5.39c-3.4-1-6.45-2.25-6.91-6.16-4.55.2-7.12-1.59-10-3.08,0.52-1.79,1.38-3.24,3.84-3.08-0.43-1.57-2.31-1.51-.77-3.08a4,4,0,0,1-6.14,0c-0.41-1.11,3-1.88.77-2.31,3,0.35,12.16,1.13,13.81,5.39-0.75,1-2,1.54-3.07,2.31-0.13,1.93,1.18,2.41,2.3,3.08,1.9-.56-2.53-2.32,0-3.85,2.21,1,1.58,4.88.77,6.93,2.87,0.82,2.19-1.91,4.61-1.54a2.27,2.27,0,0,0,1.54,1.54C317.81,237,316.05,235.39,317.36,238.26Zm-2.3,3.85a3.63,3.63,0,0,0-.77,2.31c-5-2-2.11-2-6.91-.77C307.55,240.86,313.2,240.81,315.06,242.11Zm-9.21-9.24c4.93-.84,3.85,4.36,7.67,4.62C311,239,307.29,235,305.85,232.87Zm-11.51-16.18c2.53,1.15-1.3,2.18-1.53,3.08-4.45-2.78-.61-7.41.77-10.79,3.14,1.21,1.3,7.7-.77,8.47C293.07,218.54,294.15,217.53,294.33,216.69Zm-12.28,6.93c-2.62.2-3.69,1.95-6.91,1.54-0.84-2.24-1-5.21-3.84-5.39,1.27,2,2.35,4.1,2.3,5.39a4.74,4.74,0,0,1-5.37-.77c-0.32-6.48,6.27-6,6.91-11.56,5,0.9,7.19,4.6,10.74,6.93a2.89,2.89,0,0,1-3.07,3.08c-0.11-4.25-3.06-5.66-4.61-8.47C276.78,217.14,282.12,219.69,282.06,223.62ZM262.1,175h2.3c0,1-.94.64-1.54,0.82,0.45,1.83,1.18,3.56-1.53,3.83C262.22,177,262.86,179,262.1,175Zm0.77,47.08c3.25-.28.67,3.34,0.77,4.62C261.94,226.61,263.31,223.44,262.87,222.08Zm1.54-6.93c-1.52-1.46-.37-3.64,0-5.39,2.79,0.49-1.78,3.6.77,3.85a25.31,25.31,0,0,0,2.3-5.39c1.7,0.6,3,1.62,5.37,1.54,0.21,3-3.28,2.35-3.07,5.39C266.6,215.36,266.79,214.14,264.41,215.15Zm-13.81-1.54c2.08,0.47,1.86,7.06.77,10C249.6,221.8,251.09,216.71,250.59,213.61Zm-1.54-39.28c1.75-1.06,2.89,2,3.07,0,1.81,0.21-.88,2.06-0.77,3.08C250.24,176.74,248.93,176.25,249.06,174.33Zm0,3.08c-0.5.78-1.76,0.8-1.53,2.31-1,.13-1.53-3.92-2.3-1.54-2.27-1.11.92-3.1,3.07-2.31A1.18,1.18,0,0,0,249.06,177.4Zm0,1.54c1.67,1.73-1.13,5.5-3.07,6.16C246.37,180.73,248.27,182.65,249.06,178.95Zm3.07-6.93c-1-.24-0.64-1.93-0.77-3.08-2.4,1-.4,1.59-1.54,3.85-2.25.69-2.36,0.69-4.61,0,2.91-3.24,5.51-6.79,10-8.47-0.32,1.86,1.4,1.67.77,3.85C252.44,170,252.71,168.22,252.13,172ZM256,131.19c-4.94,1-3.12-3.05-5.37-3.08,0.1-1.7,3.26-.33,4.61-0.77C254.56,129.51,256.28,129.33,256,131.19Zm3.07-.77c-0.17-1.11-2.29-.27-2.3-1.54,4.51-4.07,12.18-3.19,17.65,0,0.54,3.19-2.69-.8-3.84,1.54,1.5,1.07,4.75,2.71,3.07,4.62a5.77,5.77,0,0,1-4.6-3.85c-1.35.91-1.42,7,.77,6.93-0.21,1.82-2-.88-3.07-0.77,1.28,2,3.13,2.59.77,4.62-0.83-4.21-6.42-.71-3.84-5.39-2.84,2.54-3.22,7.55-8.44,7.7,0-4.15-2-6.21-5.37-6.93-0.36-2.42,2.06-2,2.3-3.85,1.56,0.23,1.51,2.08,3.07,2.31a2.11,2.11,0,0,0-1.53-2.31c1.15-2.15,3.31-1.37,4.6,0C261,133.29,256.34,130.63,259,130.42Zm17.65,50.07c-0.21,1.59-3.4.18-3.07,2.31-1-.27-1.21-1.36-2.3-1.54-0.82-2.88,1.91-2.19,1.54-4.62a0.78,0.78,0,0,1,0,1.54C273.88,178.42,274.64,179.5,276.68,180.49Zm0.77-7.7c1.11,0.42,4-.9,3.84.77,2-.19-1.05-1.33,0-3.08,1.1-1.19,5.49,1,6.14-2.31,1.67-.14,2.44.94,2.3,2.62,1-.24.64-1.78,0.77-2.78h3.07c0.21,3,6.41,3.49-3.07,5.09-0.13,1.67,2.72.2,3.84,0.62,1.29,2.57-.49,2.55-0.77,5.32-2.08.55,0.55-3.67-1.53-3.12-1.6.44,1.11,2.89,0.77,4.6a3.87,3.87,0,0,0-2.3,2.3c-0.78-1.6-.06-3.14-1.54-5.4-3.4,1.13,1.18,2,0,5.39-1.33-.82-3.15-1.15-3.68-2.78a9.08,9.08,0,0,0,2.14,4.32c-3.74,2.29-3.87,4-8.44,4.62,1-3.32-3.65-1-3.07-3.85,2.21,2.29,1.33-1.93,3.84-1.54-1.54-1.57-.2-2.05.77-3.08-1.66-1.6-4.23,5.6-6.91,3.08,0.44-1.87,2.9-1.71,4.6-2.31,0.12-2.17-2.17-1.93-3.07-3.08C274.86,175.31,278.26,176.16,277.45,172.78Zm2.3-43.91c1.1,0.95,1.45,2.65,1.54,4.62C279.66,132.88,278.3,130.33,279.75,128.88Zm-7.67,56.43c-0.93,2.32-3.35-.31-2.3-2.31h2.3C272.24,184,270.77,185,272.08,185.31ZM269,148.9c-0.22-1.38.73-1.58,0.77-.77,0.9-.12.65-1.4,0.77-2.31-1.38-.1-1.62.94-3.07,0.77a1.18,1.18,0,0,0,.77,1.54c-1.31,2.71-1.55-1.93-3.07-1.54,0.7-1.61,2.26-2.35,4.6-2.31C271.12,145.29,272.58,149.17,269,148.9ZM268.24,162c-0.58-1.21-2.43-1.15-2.3-3.08C268.69,158.29,269.75,160.56,268.24,162Zm3.84,28.5c0.51,3.08-2,3.1-4.6,3.08A7.12,7.12,0,0,1,272.08,190.5Zm5.37,12.32c1.4,4.23-3.2,2.44-3.07,5.39-1-1.07-3.62-.47-4.6-1.54C272.44,205.5,273.32,202.53,277.45,202.82Zm-3.84-14.64a3.59,3.59,0,0,1,3.07,3.08c-1.85-.31-1.67,1.41-3.84.77A5,5,0,0,1,273.62,188.19Zm-3.84-47.76c-0.57,2.37,2.11,1.48,1.53,3.85a3.61,3.61,0,0,0-2.3-.77c-0.15-4.12,2.65-5.41,0-8.47,0.95-1.4,3.42,2.17,4.6,3.08C273.67,140.68,271.36,138.39,269.78,140.43Zm-16.88,3.85c-3,1-1.45-3.93-6.14-1.54,0.68-1.63,2.34-2.28,2.3-4.62,1.14,0.4,1.93,1.14,3.07,1.54C252.57,141,251.2,144.19,252.9,144.28Zm-4.6,2.31c1.48,1.56,3.09,1.79,5.37.77,0,4.23-1.57,2.18-4.61,3.08A5,5,0,0,1,248.29,146.59Zm3.84-13.87c-1.92.64-3,2.11-5.37,2.31,1.28-1.53-.07-1,0-3.08,1.24,0.22,1.32-.73,2.3-0.77-0.53-1.92-2,1.43-3.84.77q0-1.92,0-3.85c0.75,0,.6.94,0.77,1.54,0.75,0,.6-0.94.77-1.54C249.14,129.05,251.72,129.8,252.13,132.73Zm-3.29,20c0.11,2.17-1.84,2.22-3.84,2.31V152A5.1,5.1,0,0,0,248.84,152.75ZM246,162v-5.39c5-3.42,8.34-1.11,12.28.77C255.86,160.6,249,159.71,246,162Zm13,1a36.86,36.86,0,0,1,0,6.16c-1.51-1.31-2.06-3.16-2.3-6.16H259Zm-2.3-14.1c-0.24-.54,4.38-6,6.91-3.85-0.69-2.25-.69-2.36,0-4.62,1.32,1,3,1.59,3.07,3.85-1.82.48-3.57,1-3.84,3.08-0.89-1.46-2.22-2.08-2.3.77C259.59,150.1,256.81,147.42,256.73,148.9Zm3.84,12.32c1.09,1.16,2.84,3.32,1.54,4.62C260.14,165.76,260.58,163.27,260.57,161.23Zm1.43-5.39v-3.08c3-.88,1.87,1.21,3.07,1.54C264.56,155.33,264,155.73,262,155.84Zm2.41,7.7c3.11-4.38,5.13,4.47,0,0h0Zm13.81,46.22c4.29-.5,4.27-8.83,8.44-6.93-0.28-3.2,3.16-5.63,7.67-3.08,1.71,9.68-5.3,10.6-6.14,17.72C284.11,215.66,279.86,214,278.22,209.76Zm16.88-3.85c0.65-1.85.49-2,.77-5.39,1.56,0.23,2,1.54,3.07,2.31C298,204.15,297.35,205.86,295.1,205.91Zm13-77c2.09-.56,1.55,1.53,3.07,1.54-0.43.95-3-.57-2.3,3.08C307.22,133.4,308.59,130.23,308.15,128.88Zm6.91,27.73c-0.23-2.41,2.22,2,2.3-.77,1.84,1.9-3.47,3.15-5.37,3.85C310.38,156.46,317.37,158,315.06,156.61ZM312,162.77c1.48-.31.61-3,3.07-2.31-0.4,1.14-1.14,1.94-1.54,3.08-1.21.06-2.93-.37-3.07,0.77C308.33,164,310.41,161.89,312,162.77Zm-3.84-13.86c1.54-2.36,2.84-.18,5.37-1.54C312.92,149.17,309.81,150.48,308.15,148.9Zm5.37-5.39c-2.24.19-2.65-1.45-3.84-2.31,0.32-1.72,4.07-.6,4.61,0A3.64,3.64,0,0,0,313.52,143.51Zm-6.14,13.1c-3.32-1-.41-4.32,0-6.16C310.26,150,307.19,154.81,307.38,156.61Zm0.77,12.32c1,0.27,1.21,1.36,2.3,1.54,2.15-.75-1.11-2.05.77-3.08A29.31,29.31,0,0,0,325,174.33c-2,1.74,2.41,1.69,0,3.85-1.35-.18-1.75-1.33-1.53-3.08-2.62-.58-1,3.13-3.84,2.31,0.68,1.58,5.34.81,3.07,3.08-0.75,0-.6-0.94-0.77-1.54-0.75,0-.59.94-0.77,1.54-3.2.65-3.62-1.5-6.14-1.54-0.22,1.38.73,1.58,0.77,0.77,1.91,0.11.22,2.61,0,3.08-2.09-2.69-1.67.12-2.3,1.76a0.67,0.67,0,0,1-.77-0.56h-1.54c1.51-2,.44-3.93-2.3-3.3-0.78.5-.79,1.66-2.3,1.43,1.68-2.8-.91-0.52-3.07-0.83C303.15,175.26,306.76,173.19,308.15,168.93Zm22.26,2.31c-2.08,2.16-8.09,2.55-8.44-2.31,0,3.61-6.89,1.86-5.37-1.54,2.41-.36,2,2.08,3.84,2.31C320.11,163.73,326.49,170.34,330.4,171.24ZM318.13,190.5a14.3,14.3,0,0,1-6.14.77c0.48-2.35,4.13-1.5,4.61-3.85C318.9,186.64,318,189.14,318.13,190.5Zm-14.58,3.85c0.27-1.21,1.35.67,1.53-.77,0.75,1.91-1.29,3.76,1.54,6.16-1.15,2.55-1.88-1.6-3.84-.77C302.91,197.73,305.35,195,303.54,194.35Zm-3.84-3.08c2.29-2.92,9.78-5.67,16.88-6.16A39.63,39.63,0,0,1,299.71,191.27Zm-0.77-3.08c1-2.05,3.57-2.58,3.84-5.39,1.6,1.21,5.1.54,6.91,1.54a1.54,1.54,0,0,1-3.07,0C304.47,186,303.22,188.64,298.94,188.19ZM297.4,177.7c0-4.41,5.42-3.7,5.37-7.7h2.3C302.39,172,302.73,177.91,297.4,177.7Zm5.37,16.65c-0.54,2.32-4.6,5.1-6.91,3.08C296.58,194.8,300.14,195,302.78,194.35Zm-6.91,12.32a6.29,6.29,0,0,1,5.37,0c-1.33,2.15,1.58,3.23,3.07,6.16-0.07,2-3,1.1-3.07,3.08-1.36-1.92-1-.83-3.84-0.77,0,0.75.94,0.86,1.54,1-0.15.63-.77,0.81-0.77,1.81h-1.53c0.12-4,.63-3.29,0-6.43,1.56,1.55,1.5-.48,3.07-0.91C298,209.11,295,211.79,295.87,206.68ZM307.38,219c1.9,0.2-3.37,1.23-4.6,0,0-1.14,4.56-1.11.77-1.54,0.19-.84,1.53-0.52,1.53-1.54,0.88,0.27,1.94,1.36.77,1.54C306,218.3,307.37,218,307.38,219Zm-10.74,6.93c1.43-1.51,2.81-.24,4.6,0q-1.12,1.19-2.3,2.31Q296.43,228.46,296.64,225.93ZM314,230.56v-2.31c0,0.12.41,1.4,0.53,2.31,1-.24.52-1.93,0.65-3.08,1.57,0.74,3,1.57,4.54,2.31-0.12.9-1.43,0.65-2.33,0.77,0.78,2.17,3.24-.21,4.59,0-0.06,2.51-.75,4.15-2.84,4.62C318.82,231.3,315,231.13,314,230.56Zm9.5-3.08c-5.44-.19-8.14-3.13-9.21-7.7-1.81.54-4.87,1.77-4.61-1.54,7.79-1.14,10.08,3.23,14.58,5.39A5,5,0,0,0,323.5,227.48Zm-15.35-10a4.34,4.34,0,0,1-.77-3.08,9.51,9.51,0,0,1,6.91,1.54C313.2,218.11,311.81,216.92,308.15,217.46Zm-0.77-6.16c-0.31-2.94-2.07-1.17-.77.77-3.28-1.84-4.46-5.8-5.37-10,2.41-.37,3,1.1,4.6,1.54-0.5,1-1.64,1.43-3.07,1.54,0.78,2.17,3.26-.21,4.6,0,1.83,2.59.55,3.67,3.84,3.85C310.69,210.51,309.17,211,307.38,211.3Zm0-11.55c2.15-2.25-2.11-2.41-.77-6.16,8.42-1.06,14.11-1.34,21.49-2.31C321.38,194.28,315.19,197.82,307.38,199.75ZM333,170.47c0-.86-1.34-0.67-1.3.77-2.21-1.63-5.77-2-6.26-5.39,4.19,0.76,5.56,3.28,7.56,2.31v2.31ZM322.73,161h4.6c-0.69,0-2.82-3.06-3.07-1.43-1.14-.34.3-0.93,0-2.26a32,32,0,0,0,9.21.69C332.47,160.94,324.09,166,322.73,161Zm10-9.78c-2.12-1.2,2.42-2.12,3.07-3.08,1.45,0.09.53,2.55,2.3,2.31C337.5,152.91,332.4,149.64,332.71,151.22Zm-2.3-4.62c-2.89-2.14,3.39-4.13,4.6-2.31C334.31,145.9,330.68,144.56,330.4,146.59Zm4.6,0c0.42-1.83,3-3.2,4.6-1.54C338.84,146.33,336.35,145.89,335,146.59Zm-9.21-8.47c1.8-.25,2.88-1.22,5.37-0.77C330.12,137.9,325.39,141,325.8,138.12Zm-4.6-2.31c-1.83-2.4,2.55-3.71,5.37-3.85A8.52,8.52,0,0,1,321.19,135.81Zm-0.77,7.7c1-2.76,2.52-.24,4.6-1.54C325.76,144.75,322,143,320.43,143.51Zm0.77-19.26c-2-1.06-.17-4.72,0-6.16C325,118.65,319.8,121.25,321.19,124.25Zm10.74,28.5a3.63,3.63,0,0,0-.77,2.31c-1.58-.47-5.33,1.24-4.6-1.54,1.11-.42,4,0.9,3.84-0.77a0.78,0.78,0,0,0-1.53,0c-1.14-.34.3-1,0-2.31-1.94,1.72-6.87,1.94-6.14,2.31-0.93.53-2.82-2.28-3.84-5.39C321.66,148.25,329.51,147.61,331.94,152.75Zm-11.51,10c-0.71,1.64-5.58,1.05-4.61-1.54C318.24,160.86,318.82,162.32,320.43,162.77Zm-5.37-32.35a2.1,2.1,0,0,0-1.54-2.31c1-1.32,1.59-3,3.84-3.08C318.85,126.75,317.77,130.56,315.06,130.42Zm-0.77-12.32c0.1-1.9-.94-1.31-0.77,0-2.65-3.5,2.74-1.94,3.84-3.08C319.28,116,316.55,118.74,314.29,118.09Zm0.77,20c0.35,2.15-4.18-.6-3.84,1.54-1.81-.21.88-2.06,0.77-3.08C314.08,136,313.53,138.11,315.06,138.12ZM312,128.88c-1.3.28-1.45-.6-1.53-1.54-0.65-.14-0.72.3-0.77,0.77-2.35-.75.88-2.06,0.77-3.08Q312.16,126,312,128.88Zm-5.37,8.47c-1.91.12-2.38-1.21-3.84-1.54C303.12,134.3,308.16,134.42,306.61,137.35Zm-12.28,5.39c-0.89,1-5,1.76-3.84-1.54,0.62,0.15.76,0.77,1.53,0.77s0.6-.94.77-1.54A2.12,2.12,0,0,1,294.33,142.74ZM292,128.11c-1.55,5.06-3.25,4.48-3.84,6.93,0.28-1.31-.6-1.45-1.53-1.54-0.63-2.18,1.08-2,.77-3.85C290.54,130.71,289.86,128,292,128.11ZM284.36,85c1.43-.74,2.56,2.31,3.07,0,1.52,1.46,1.31,2.7.77,4.62C286.64,86.09,286.12,88.26,284.36,85Zm5.37,65.48c-2,.34-1.72-2.85,1.53-3.08-0.78,3.33-1.56,6.66-6.14,6.16C286,151.8,288.89,152.17,289.73,150.44Zm3.84-3.08c1.85-.24,3.72,3.36,5.37.77-2.63-1.11,4.28-3.69,2.3-.77,0.88-.27,1.94-1.36.77-1.54,5.22-1.31,2.58,5,1.54,9.24-2.06.53-1.48-1.59-2.3-2.31-2.25.65,0.46,2.48,0,3.85-0.62-.15-0.77-0.77-1.54-0.77-0.78.5-.79,1.77-2.3,1.54-0.38,1.5,3.81,2.77,3.07,0,3.34,2.67-2.59,2.47-1.53,5.39-2.06.53-1.48-1.59-2.3-2.31-1,.24-0.64,1.93-0.77,3.08-5.29,1.91-7.49-1.66-12.28,0,0.1-1.38-.94-1.63-0.77-3.08,1.6,0.33,2-.53,3.07-0.77-0.67-2.24-1.15-.87-3.07-0.77a5,5,0,0,1,.77-3.85C290.33,155.93,291.32,151,293.57,147.36Zm-10.74-27c-2.2-.11-1.4-3.39-1.53-5.39h2.3C285.37,117,282.17,117.48,282.82,120.39Zm0-14.63c-2,.23-2.52-1.07-2.3-3.08,0.75,0,.6.94,0.77,1.54,0.9-.12.65-1.4,0.77-2.31C285.28,101.63,282.61,104.42,282.82,105.77ZM282.06,107c1,1,1.57,5.87-.77,5.93-1.18-.41,0-0.69.77-0.66C281.17,110.34,279,110,279,107h3.07Zm-4.6,46.53c0.37,2.43-2.36,1.75-1.53,4.62a3.6,3.6,0,0,0-2.3-.77A4.2,4.2,0,0,1,277.45,153.53Zm-3.07-40.06c-2.17.64-2-1.08-3.84-.77-0.56-2.1,1.53-1.55,1.53-3.08C273.43,110.32,274.75,111.05,274.38,113.47Zm-34.53,14.64c-0.67-1.58,3.9-1.54,1.53-2.31-2.36-1.18,3.4-.75,2.3,1.54C241.84,127,242,128.74,239.85,128.11Zm3.22,21.57c-0.24,1-2.07.64-3.07,0.77v-4.62C242,146.05,241.38,149.06,243.07,149.67Zm4.46-40.06c2.46-1.37,6.79-2.35,9.21-1.54-2.36,1.83-6.68,1-6.91,3.08C248.82,110.89,248.62,109.8,247.52,109.62Zm14.58-9.24c-0.27,1-1.35,1.21-1.54,2.31-2.45.66-2.37-1.21-3.84-1.54,0.23-1.57,2.08-1.51,2.3-3.08C260.06,98.83,260.54,100.14,262.1,100.37Zm-1.54-9.24c1.78,0.27,3.6.5,3.07,3.08a1.18,1.18,0,0,0-1.53.77Q260.4,94,260.57,91.13ZM264.41,88a0.78,0.78,0,0,1,0-1.54c-3.7,1-.79-2.6-3.07-1.54-0.83-.19-0.52-1.53-1.53-1.54,0.19-.84,1.53-0.52,1.53-1.54,2.42-.38,2.71,1.39,5.37.77C264.1,84.42,265.45,83.68,264.41,88ZM256.73,55.7c-0.23-2,1.06-2.53,3.07-2.31C260,55.42,258.74,55.91,256.73,55.7ZM257.5,95c-2.45.66-2.37-1.21-3.84-1.54,0.22-1.57,2.08-1.51,2.3-3.08A44.16,44.16,0,0,1,257.5,95Zm0.77,1.54c-1,1.32-1.59,3-3.84,3.08,1.51-3.63-.76-1-3.84-2.31a3.64,3.64,0,0,0,.77-2.31C255.76,94.94,255.33,96.24,258.27,96.52Zm-7.67-13.87c-2-.41-2.69-1-3.84.77-1.52-.6-0.41-5,1.54-4.62a3.63,3.63,0,0,0-.77,2.31c2.74-1.16-.82-3.86,3.07-3.85A11.68,11.68,0,0,0,250.59,82.66ZM249.06,58c-2,.22-3.3-0.28-3.07-2.31C248,55.48,249.83,55.44,249.06,58Zm0,2.31a17.45,17.45,0,0,1-1.53,4.62c-0.14.65,0.3,0.73,0.77,0.77-2.22,1.36-.5-3-1.54-5.39-2.43,1.54.17-2-3.84,0-0.32-1.61.53-2,.77-3.08A29,29,0,0,1,249.06,60.32Zm-6.14,3.85c-1.91,1.17-2.72,3.43-2.3,6.93-2.71-4-3.76-2.35-1.53-8.47C241,62.51,241.46,63.84,242.92,64.17Zm-1.53,94c-2.41,4.08-1.28-3.53-1.53-6.16,1.09,0.06,2.17.12,2.3-.77,1.83,4,4.31,14.2-2.3,14.64C238.85,161.77,242.07,161.92,241.39,158.15ZM253.66,199c-1.64-.48-0.72-4.74,0-5.39,3,0.86,4.19,1.51,3.07-2.31,2.59-.89.14,3.7,2.3,1.54C260.77,195.36,256.17,198.13,253.66,199Zm3.84-8.47c-1.6-.43-1.63-1.2-0.77-2.31-1.68.11-1.65,1.94-1.53,3.85-5.08-.84.09-5.63,3.07-5.39a2.27,2.27,0,0,0,1.54,1.54C259.57,191.24,257.14,187.33,257.5,190.5Zm-0.77-7.7c-1.9-.74,1.06-3,0-5.39-2,.09-1.52,2.58-1.53,4.62-3.34-.15-1.4-1.34-1.53-3.85-0.75,0-.6.94-0.77,1.54-2.64-1,.87-6.69,4.61-6.16,1.06,1.24.65,4,2.3,4.62C259.94,180.88,257.21,180.71,256.73,182.8Zm3.07-13.09c0.91-.89,2.71-0.87,4.6-0.77-1.25,4.26-4.57,2.34-3.84,7.7C258.83,175.82,260.28,171.79,259.8,169.7Zm1.53,75.49c0.79-3.31,1.5-6.71,3.07-9.25,1,1,2.32.47,3.07-.77-0.18-2-1.32,1.06-3.07,0,0.77-2.06,2.1-3.54,3.07-5.39,1.45,0.85,3.63,1,5.37,1.54a2.12,2.12,0,0,0-2.3-1.54c0.1-1.7,3.26-.33,4.61-0.77a20.31,20.31,0,0,0-3.84,6.93c-1.56-.43-1.51-2.32-3.07-0.77,3.1,3.47-1.81,7.81-5.37,9.24,0.51,2.31,1.64-.74,3.07,0-0.4,1.14-1.13,1.94-1.53,3.08C262.93,247.19,263.8,244.52,261.34,245.19Zm5.37,3.08c-2.44-1.52,1-3.58,2.3-3.85-3.29-1.64,1.63-3.18,1.53-6.16,2,1.56,4,3.16,3.84,6.93a4.29,4.29,0,0,0-3.07-.77c-0.57,3.49,2.11-1.18,1.54,2.31C270.53,247,266.88,245.88,266.71,248.27Zm0.77,2.31c1.32-1.32,7.69-4.29,7.67,0h-7.67Zm8.44-.77c-0.23-2,1.06-2.53,3.07-2.31C279.22,249.53,277.92,250,275.92,249.82Zm4.6-6.16c-4.36-.88-1.12,1.62-3.84,1.54,1.24-3.73-2.24-4.7-5.37-7.7,1.59-2.78,3.58-1.66,6.91-1.54,0.73-2.78-3-1.07-4.6-1.54-0.17-5.25,8.9-5.42,11.51-6.93,0.77-.45,3.36-3.85,3.84-3.85-0.77,0,14.53,9.06,15.35,10,0.62,0.73-.45,4.84,1.53,3.85a4.33,4.33,0,0,0-.77,3.08c-3.44-.11-6.57.08-8.44,1.54-1.64-.56-0.87-4.21,1.08-4-2.81-.82-2.4-3.54-3.39-7.59-2.71.5,0.48,4.58-1.53,6.93a3.61,3.61,0,0,0-2.3-.77c4.61,6.79-4.14,7-9.21,7.7,1.24-2.38.66-3,1.53-4.62C281.92,238,279.55,241.06,280.52,243.65ZM302,245c-0.22,1-2.08,1.51-2.3,3.08-1.12-.67-2.43-1.08-2.3-3.08H302Zm-16.88,8.67c-1.6-.45-2.54-1.62-3.9-2.31,1-1.32,1.77-3,3.77-3.08v2.31c0-.41-1.18-0.8-2.24-0.77C283,251.63,285.49,251.25,285.13,253.67Zm3.07-1.54c-2.75.45-2.33-2.28-2.3-4.62A17.33,17.33,0,0,1,290.5,246c0.55,2.35-.79,2.81-0.77,4.62-1.48-.31-0.61-3-3.07-2.31C287.53,249.2,288.85,249.67,288.2,252.13Zm0.77,0c0.44,0.87,2.44,4.73,5.37,3.08,0.12-2.43-3.11-1.5-3.84-3.08,0.41-2.16,1.13-4,1.53-6.16,2.89-.59,3.67.94,6.14,0.77-0.12.9-1.4,0.65-2.3,0.77,0.84,3.49,7.53-.69,6.91-2.31,2.66-.48,6.46.51,12.28,0,0.39,4.75-2.13,6.59-1.54,11.55C305.24,258.31,287.17,258.48,289,252.13ZM319.07,266c-0.51,2.31-2.07-.74-3.07,0v-3.85C318,262.37,317.38,265.38,319.07,266Zm-4.78-9.24c0.6-4.28,1.39-8.36,2.3-12.32,3.55,2.86,9.09,3.71,10.74,8.47C325.14,256.34,318.78,255.61,314.29,256.75Zm6.14-12.32c2.57-1.27,6.31,2.89,10,3.08C326.59,250,322.67,246,320.43,244.42Zm13.81,3.08c1-3,3.43-.16,5.37-1.54-0.28,1.31.6,1.45,1.53,1.54C338.43,250.4,336.9,245.14,334.24,247.5ZM345,244.42c-0.66,2.08-4.43,3.28-4.6,0C342.63,245.12,342.74,245.12,345,244.42Zm-13,1.54a6.91,6.91,0,0,1,3.07-3.08c-3-.69-1.55-3-2.3-4.62-1.38,1.7-.67,5.49-1.53,7.7-5.11,0-6.91-3.33-10.74-4.62,0.15-.87.77-0.43,0.77,0,4.38-10,13.11-5.56,21.49.77C338,245.58,336.81,243.35,331.94,246Zm5.37-10.78c-1,1.66-4.08-1-5.37-1.54-0.42-1.71,1.46-1.1,1.53-2.31C335.5,231.87,335.1,234.83,337.31,235.18Zm-8.44-7.7c2.34,0,3,1.63,4.6,2.31-4.13,1.26-3.66,1.75-8.44,0C324.9,227.6,330.05,230.72,328.87,227.48ZM325,221.31c-4.26-.09-10.11-5.25-13-9.24,5.31,1.09,6.78,6,13,6.16C326.09,220,323.05,221.13,325,221.31Zm0-4.62c-4.46.37-5.61-2.58-8.44-3.85C319.59,210.42,326.26,210.69,325,216.69Zm10-13.1c-2.93,3-9.28,1.07-10,4.62-3.92-1.29-6,2.13-10.74,0,1.06-3.35,4-.08,6.14,0,0-2.64-5.52-2.12-9.21-3.08a17.49,17.49,0,0,1-1.53-4.62c3.53,1.09,7.83-6.26,8.44-.77,2-1.57,1.7-1.95,2.3-3.85a17.21,17.21,0,0,1,4.6,1.54c1.08-.27.07-1.36-0.77-1.54,2,0.49,9.9-.67,9.21,2.31,1.65-1.16-.55-1.88.77-3.85-3.08,1-6.67,2.49-9.21,0,4-.85,6-4.13,10-4.62V199a2.33,2.33,0,0,0-2.3,1.54c-0.14.65,0.3,0.73,0.77,0.77,0.87-.15.43-0.77,0-0.77C334.15,198.44,335.62,201.85,335,203.6Zm1.53-2.31c-2.86-2.18,1.84-7.32-.77-9.24,1-.29,5.7-2.46,9.56,1.84a0.9,0.9,0,0,1,.41.47c-0.14-.17-0.28-0.31-0.41-0.47-1.09-.55-3.26,1.8-4.19-0.3C339.72,195.47,338.44,198.1,336.54,201.29Zm0.77,1.54c0-2.34,1.62-3,2.3-4.62,1.53,0,1,2.1,3.07,1.54C341.72,201.61,339.54,202.24,337.31,202.82Zm16.88-13.09c-0.9-1.8,3.2-1.5,5.37-.77C358.61,190.47,355.07,188.62,354.19,189.73ZM355,182c0.77-3,2.64-.12,5.37-0.77C359.56,184.26,357.69,181.38,355,182Zm13,10c-0.69-.68-0.06-2.35-3.07-2.31,1.38-2.57,7.12,1,7.67-.77C374.75,190.66,368.91,190.84,368,192Zm8.44-6.93c-2.17-1.21-3.26.89-5.37-.77C371.87,182.34,376.23,182.46,376.45,185.11Zm-11.51,0c4.2,0.74,3.22,2.83,7.67,2.31-1.56,3.13-8.11-2-6.14,0C365,189.36,363.68,186.81,364.94,185.11Zm-3.84-12.32c2,1,2.41,1.59,1.54,3.85a3.6,3.6,0,0,0-2.3-.77C360,174.25,360.86,173.82,361.1,172.78Zm0.77,7.7c-2.35.56-2.8-.79-4.61-0.77C358.37,178,362.43,175.74,361.87,180.49Zm-8.44-1.54c-0.92-1-.3-1.21,0-2.31a4.29,4.29,0,0,0,3.07.77c-0.09,2.74-2.54,3.1-5.37,3.08A2.12,2.12,0,0,1,353.42,178.95Zm2.3,3.85c-1.23,1.34-3.45,1.67-6.14,1.54C350.79,181.71,352.85,182.23,355.73,182.8Zm-14.58,13.1c2.32-.24,6,0.86,6.14-1.54,1,0.27,1.21,1.36,2.3,1.54C349,198.34,340.71,201.66,341.15,195.89Zm3.07-5.39c-3.67-2.09-5.58-1.16-9.21-3.08,2.93-4.59,8.11-2.48,13.81-.77C348.37,189,346,189.51,344.22,190.5Zm1.54-11.55c1-.51,1.43-1.65,1.53-3.08,4,2.55-1.86,6.27-6.14,5.39,4.14-2.54-3.57-1.89-3.07-5.39,3.89,0.23,5-3.55,8.44-1.54C346.54,176.14,345.2,176.59,345.75,178.95ZM339,173.55V172c2-.64,2,1.09,3.84.77C342.35,173.43,339,175.2,339,173.55Zm6-2.31c-0.15,1.08-5,.49-4.6-1.54C343,169.09,343.62,170.56,345,171.24Zm-6.14-1.54c-2.89-.18-4.14-2-3.84-5.39-1.69,2-3.1,1-3.84-1.54,4.07,1.55,2.59-3.39,6.91-3.85,1.38-.1,1.62.94,3.07,0.77a2.12,2.12,0,0,1-2.3,1.54c0.71,2.1,2.4-1.08,4.6,0C342.83,165,340,166.46,338.84,169.7Zm-0.69-26.19c-0.14-.65-0.16-0.73.84-0.77V141.2c1,1.07,3.68.34,3.76,2.31a0.78,0.78,0,0,0,0-1.54C348.44,140.62,340.45,147.57,338.16,143.51Zm3.76-4.62c-6.87-4.26,4.88-3.26,4.6-6.93C349.38,134.67,342.25,136.89,341.91,138.89Zm18.42,6.16c2.22-.41-1.18,3-0.77.77-1.48.31-.61,3-3.07,2.31-0.57-2.37,2.65-.94,1.53-3.85C359.14,143.87,359.9,147.28,360.33,145.05ZM357.26,141a1.36,1.36,0,0,0-.77,1.26c2.5,0.2,2.22-2.54,3.84-3.22,2.32,1.64-2.2,3.08-2.3,4.84-1.82-.48-3.57-0.87-3.84-2.87h3.07Zm-4.6-8.27c0.14-.65-0.3-0.73-0.77-0.77,0.56-1.37,1.4-.11,2.3,0a4.35,4.35,0,0,0-.77,3.08c-1.7.42-1.09-1.47-2.3-1.54C351.14,132.75,352.06,132.9,352.66,132.73ZM351.12,135c-0.07,1.09-.13,2.18.77,2.31-0.44.72-2.13,1.17-.77,1.54-0.75,2.36-2-.88-3.07-0.77,0-.75.94-0.6,1.53-0.77-1.15-2.55-1.88,1.6-3.84.77C347.3,135.3,348.3,135.43,351.12,135Zm-7.78-17.63c1.65,0.07,5-.39,5.48,2.22-1.3.28-1.45-.6-1.54-1.54-0.83.19-.52,1.53-1.53,1.54-2.12.58-1.38-1.71-2.41-2.22a2.45,2.45,0,0,1-.66-0.09A1.16,1.16,0,0,1,343.34,117.41ZM342.68,125c1.38,0.1,1.62-.94,3.07-0.77,0.15,3-1.22,4.42-3.84,4.62A5,5,0,0,0,342.68,125Zm4.6,4.62c-0.81,1.77-3.47,4-5.37,2.31C342.5,130,344.36,129.28,347.29,129.64Zm-6.91,0c-0.23,3.27-3.23-.5-3.84,1.54C334.61,130.35,339.11,127.49,340.38,129.64Zm-8.44-27c2.45-.46,2.37,1.44,3.84,0,0.1-1.38-.94-1.63-0.77-3.08a3.61,3.61,0,0,0,2.3.77c-1.06,1-.47,3.64-1.53,4.62-2.25-.21-2.85-1.06-3.84,0C330.8,104.66,332.24,104,331.94,102.68Zm0.77,6.16c-2.81-.17-2.94-1.06-5.37,0C328.29,107,333.19,103.51,332.71,108.85Zm-1.53-8.47c-0.36,2.72-1.94,4.22-3.07,6.16-1.76-2.18.44-3.48,0.77-6.93C330.11,99.39,330.19,100.33,331.17,100.37Zm1.53-16.95c-1.75-.56-3.92-0.69-5.37-1.54C328,79,333.3,80.45,332.71,83.43Zm0,4.62c-0.77,6-4,5.41-5.37,7.7-1.52-.23-0.34-3.22,1.21-3.14-1.9-.53-0.4-4.48-2-5.33-0.84.43-.14,3-1.54,4.62-0.9-.12-0.65-1.4-0.77-2.31-1.66-.13-0.35,2.73-0.77,3.85C317.2,89.08,329.21,81.11,332.71,88Zm-11.51,7.7c-2.41.86-2,.36-3.84-0.77C318,93.31,321.64,92.63,321.19,95.75Zm-1.71-14.64c-0.56,1.37-1.48.11-2.48,0V79.57c3,0.21.08-3.29,4-3.08-1.52.53,0.48,4.59-2.3,3.85C318.57,81,319,81.07,319.48,81.12Zm-2.12-29.27c2.29,0.65-4,3-.77,4.62,0.87-.15.33-0.77-0.1-0.77,1.11-.16,1.51-1.4,4.51-1.54v2.31c-1,0-.5-0.94-0.67-1.54a6.15,6.15,0,0,1-4.56,2.31,2.24,2.24,0,0,0-1.51-1.54A15.35,15.35,0,0,1,317.36,51.84Zm-2.3,43.91c-1.33,2.16-2,.72-4.6.77,0.27-1,1.35-1.21,1.53-2.31C314.08,93.65,313.53,95.74,315.06,95.75ZM312,57.24c-1.08,1.49-.42,4.72-3.84,3.85C308.59,59,309,56.77,312,57.24Zm-4.6,35.43c2.43-.27.56,2.55-2.3,3.08-1-3.36,1.83-2.79,2.3-4.62C308.5,91.47,307.3,91.81,307.38,92.67Zm-3.07-31.58c2.09-.56,1.54,1.53,3.07,1.54-0.91,1.1-4.07,1.46,0,1.54-1.67,1.15-1.22,4.42-3.84,4.62A19.35,19.35,0,0,1,304.31,61.09Zm0.77,59.31c2,2.09,1.52,6.69,1.54,10.79-2.17-.13-3.2-1.41-5.37-1.54,0.55-2.79,2.52-4.15,3.07-6.93-1.58-2.75-.65,3.37-3.07,2.31C301.87,122.83,303,121.11,305.08,120.4Zm-3.84-75.49c-1.94-.87-2.23-3.41-2.3-6.16,1,0.89,2.59,4.19,2.3,0C304.08,41.31,299.31,42.71,301.24,44.91Zm-0.77,37.75c2.14,1.46-.14,4.93-0.77,6.16-0.87-.15-0.43-0.77,0-0.77C298.16,85.07,298.46,85,300.47,82.66Zm-6.14,4.62c2-.9,3.3,2.47,3.07-0.68,0.9,0.13.65,1.4,0.77,2.4h-2.3c-0.14,1,.3.64,0.77,0.68C296.4,91.31,294,88.78,294.33,87.28Zm-3.84-30a3.6,3.6,0,0,0,2.3.77c0.56,2.1-1.53,1.55-1.54,3.08C289.6,61.22,290.92,58.36,290.5,57.24Zm5.37,46.22c-1.85,1.3-5.1,3.66-6.14,0C291.82,102.78,293.47,102.41,295.87,103.46ZM292,110.39a3.63,3.63,0,0,0-.77,2.31,2.12,2.12,0,0,1-1.53-2.31c-0.9.12-.65,1.4-0.77,2.31-1-.24-0.64-1.93-0.77-3.08C290.37,109,290.18,110.7,292,110.39Zm-6.14-46.22c0.68,0.48,1.37.93,1.54,0,0.87,0.15.43,0.77,0,.77-0.42,1.58,1.46,1.84,1.53.77,2.18,2-2.53,3.58-3.84,4.62C283.57,69.46,286.78,66.92,285.89,64.17Zm-0.77,8.47a1.18,1.18,0,0,0,.77,1.54c-1.24,2.07-2.43,1.14-3.84,0C282.24,72.83,283.38,72.43,285.13,72.64Zm-7.67,14.64c6-.08,10.42,6.43,6.14,10-1.72-.33-0.31-3.8-0.77-5.39-3.26,1.16-.42,4.15-0.77,6.16-2-.27-2.59-2-3.07-3.85,0.75,0,.59.94,0.77,1.54C282.15,91.35,275.95,93.56,277.45,87.28Zm-2.3.77c0.15,0.62.77,0.77,0.77,1.54-0.31,1.71-2.2,3.17.16,1.54a0.71,0.71,0,0,1,.92.77v2.31c-1-1.07-3.78-.47-4.76-1.54C271.93,89.79,272.69,88.15,275.15,88ZM274.38,99.6c-0.31-2.6-3,2.05-2.3-1.54,3.5,0.94,3-2.11,6.14-1.54,0.25,1.81,1.21,2.89.77,5.39-1-.27-1.21-1.36-2.3-1.54-1.36.77,0.41,3.11-.77,4.62-1.43-.62-3.1-1-3.84-2.31,0.5-1.31,1.76-.48,1.54.77,0.62-.15.76-0.77,1.53-0.77q-1-1.71-3.84-1.54C271.43,99.72,273.91,100.67,274.38,99.6Zm-3.07,9.25c-1-1.07-3.62-.47-4.61-1.54C267.42,105.66,272.29,106.25,271.31,108.85Zm-1.53-27c-2.36-.54-1.47-0.54-3.84,0,0.28-1.31-.6-1.45-1.53-1.54C265,79,270,79.85,269.78,81.89ZM268.24,58c-0.62-.15-0.76-0.77-1.54-0.77-1.48.31-.61,3-3.07,2.31C263,57.31,268.28,54.74,268.24,58Zm-4.6-4.62a1.18,1.18,0,0,0-1.53.77c-0.58-1.21-2.43-1.15-2.3-3.08C262,50.92,264,51,263.64,53.39ZM259,30.28c0.83,2,3.83,1.8,3.07,5.39-3.28.17-3.91-1.79-5.37,0.77C256.27,34.57,258.18,32.37,259,30.28Zm-3.07,8c4.13-.88,3.22.1,6.91,0.61,0.28-1.31-.6-1.25-1.53-1.34-0.14-.65.3-0.57,0.77-0.57h1.53c-0.37,5-3.4,5.12-1.53,9-2.54-3.31-3.54,1.25-5.37,2.94-1.35-.7-1.27-2.91-3.07-3.15,2.12,0.36,4.07-3.47,6.91-4.66A2.3,2.3,0,0,0,259,39.54c-1.07,4-2.7.57-4.61,1.84,0.5,0.78,1.76.62,1.54,2.62h-2.3C253.25,41,255.62,40.51,256,38.29ZM255.2,84.2c-0.15.88-.77,0.43-0.77,0-0.62.66-2.1,0.46-2.3,1.54-2.25-.65,1-1.94,0-3.85C254.59,81.21,253.72,83.89,255.2,84.2Zm-2.3-43.91c0.08,2.18-3,5.09-1.53,6.16,0.13,1.67-2.72.35-3.84,0.77-0.17,2.48,1.36,3.26.77,6.16-2.61.77-2.86-.48-3.84,2.31-2.72-2.78,1.4-5.23,2.3-6.93-3.67-.35-2.1,4.56-6.14,3.85,2-1.63,2.41-4.77,5.37-5.39a3.64,3.64,0,0,1-.77-2.31c-1.8.24-.45,3.65-3.07,3.08,0.07-2.1-1.28-1.55,0-3.08-0.72.82-2.83,0.24-2.3,2.31-2.08-.7.78-2.7,0.77-3.85-4,1.26-2.69,6.11-2.3,8.47a2.85,2.85,0,0,1-3.84,0c0.43-1.88,3-1.64,2.3-4.62-0.18-2.13-4.33-.28-3.84-3.08a0.54,0.54,0,0,1,.74.56c0-2,8.61-2.8,11.54-6,0.7-.75.68-3.22,6.14-1.54C251.76,38.35,252.5,39.15,252.9,40.29ZM223.73,257.52c0.59,2.2-4.41-1.86-6.14-2.31,1.38-2.57,11.54-8,12.28-1.54-0.65.14-.72-0.3-0.77-0.77,0.11,1.43-5.21,5.82-6.14,2.31C221.48,254.9,221.85,258.71,223.73,257.52Zm-10,.77c3.54-1.47,5.08,1.63,6.91,1.54-2.08,2.18-3.47.27-6.14,1.54C214.46,260.15,214.9,258.43,213.76,258.29ZM213,261.37c-1.85,3-6.09,3.65-10,4.62,1.42-3.86,7.86-6.28,10.74-6.16C213.79,261,209.2,260.94,213,261.37Zm-34.53-4.62c1.42,1.8,7.05,5.34,3.07,7.7,0.94,1.11,2.93,1.17,3.84,2.31,0.56,2.1-1.52,1.55-1.53,3.08,0.51,0.71,4.47-.68,5.37,1.54-3.7,1.36-4.63-.12-10.74,0,0.38,0.81,5.83,1.55,1.53,2.31,1.49,1.78,4.68-1.21,6.91.77-0.47.68-.93,1.38,0,1.54-9,9.89-15.73-4-13-13.86a0.78,0.78,0,0,0-1.53,0c-0.59-7.27,7.2-5.87,15.35-5.39,0.69,2.49-2.5,1.08-3.07,2.31s3.62,1.25,3.07,0c2,1.06.17,4.72,0,6.16,0.91,0.7,3.32,3.75,4.61,1.54,1.76,0.61-1.32,2.69-1.54,3.85-4.34-2.32-7.39-5.94-6.91-13.1C182.36,260.61,181.1,256.83,178.46,256.75ZM170,281.4c-3.14-.23.13,1.07-0.77,3.08-4.2.31,0.25-3.28-3.07-3.85-1.18.41,0,.8,0.77,0.77-1.61,3.08-5.89-2.21-5.37-6.16,1.9-.6,2.27-0.25,3.84-2.31-1.33-2.5-2,2-4.6.77,0.27-1,1.35-1.21,1.53-2.31-2.17-.14-1.79,2.9-3.84.77-0.56-3.37,1.53.62,1.53-1.54,0.55-1.25-3.62-1.25-3.07,0-1.11-.18-0.27-2.3-1.53-2.31,5.41-1.54,12.74-1,14.58-7.7,2.39,4,1.59,11.24,4.61,14.64-0.09,1.46-2.54.53-2.3,2.31,1.54-.72,4,0,3.84,4.62-2.43-.13-2.56,2-5.37,1.54C171,282.47,170.06,282.38,170,281.4Zm-6.91,2.31c0.82-1.75,2.33,2.21,4.6,1.54-0.18,1.36-1.32,1.76-3.07,1.54C164.86,285,164.46,283.89,163.11,283.71Zm0,3.85c-2.92,1.64-5,0-7.67-.77-0.32-3.92,2.17-5,3.84-6.93,2,0,2,2.14,3.07,3.08-0.75,2.16-2-1.12-3.07.77C160.4,285.15,163.48,284.62,163.11,287.56Zm-6.91-43.91c3.28,1.59,10.66,5.73,16.12,7.7C167.12,252,157.89,246.61,156.2,243.65Zm10.74,8.47c-1.65,1.36-6.65-.48-9.21-0.77C160,246.18,162.8,252.49,166.95,252.13Zm2.3-15.41c1.77-5.15,4.16-9.69,9.21-11.55a3.63,3.63,0,0,0-.77,2.31c1.81-1.13,1.43-1.63,3.84-.77a3.88,3.88,0,0,0-2.3-2.31c0.81-1.5,3.12,1.95,6.14.77a1.18,1.18,0,0,0,.77,1.54c-0.65,2.26-1.93-1-3.84,0,1.68,1.91,5.29,1.88,6.91,3.85-1,3.09-1.59-.21-3.84,0-0.28,1.31.6,1.46,1.54,1.54-2.18,1.34-5.88,3.33-7.67.77,1.62,3.82-1,1.39-2.3,0,1.42,2.05-.81,5.94-3.07,8.47,1.46,1.16,2.91-4.23,6.14-3.85a5,5,0,0,1,.77,3.85c-3.4,1.46-5.11,4.62-8.44,6.16-4.57-2-8.79-6.25-13-9.25,4.83-.28,7.33-2.92,9.21-6.16C170.18,232.19,168.81,235.36,169.25,236.72Zm14.58-27c1.61,0.44,2.19,1.91,4.61,1.54q-1,1.71-3.84,1.54c0.63,2.18-1.08,2-.77,3.85-0.55,1.25,3.62,1.25,3.07,0,1,1.26-2.73,4.42-5.37,4.62,1.34-1.57-.57-1.51.77-3.08-1.91.09-2.38,1.44-3.84,0-0.58,2.63,3.12,1,2.3,3.85-8.1-.71-4.4-8.62,3.07-7.7C181.45,213.3,182.87,211.53,183.83,209.76Zm-7.67-18.49c-0.24,1.63-2.66-.81-2.3-2.31,4.34-6.21,6.59-1.79,8.44,4.62-4.09.92-5.55-3.69-4.61-5.39C175.13,186.76,174.46,191,176.15,191.27ZM147,204.37c1.12-1.7,5-.61,6.14-2.31,1.38,1.44-3.2,3.43-5.37,3.85A1.18,1.18,0,0,0,147,204.37Zm-13.81-23.08c-0.83-.19-0.52-1.54-1.54-1.55-2.05-.23,2,3-1.53,2.3,0.12,0.9,1.4.65,2.3,0.77-0.63,2.92-5.07,1.21-4.6-1.51,1.67,0.14,2.44-.29,2.3-2.29h5.37C135.72,181,133.27,179.83,133.18,181.28Zm0.59,7.68c-0.65,2.75-1.78.09-4.78,0.77v-1.54c1,0.14.81-.3,0.85-0.77C132.22,186.84,130.87,190.08,133.78,189ZM137,128.88c-1.54-1-1.71-3.42-2.3-5.39,2.08,1,1.91,3,4.61,1.54-0.09,2.91,1.5,4.14,3.84,4.62-0.33,1.72-3.78.31-5.37,0.77a4.34,4.34,0,0,0,.77-3.08C137.25,127,137.1,127.93,137,128.88Zm28-59.32v2.31c-2,.33-2-0.53-3.07-0.77C162.11,69.75,163,69.35,165,69.56Zm1.18-13.86c0.22,2-.28,3.31-2.3,3.08C163.66,56.76,164.16,55.46,166.18,55.7ZM165.41,75a21.23,21.23,0,0,0,6.91,1.54c-1.22,2.77-4.44,1.23-1.53,4.62-3.37,3.33-5.87-1.23-8.44,0,0.53,1.52,2,2.05,3.84,2.31,0.57,2.62-2.83,1.27-3.07,3.08,0.15,0.62.77,0.77,0.77,1.54,2.08-.48,1.91-3.22,4.6-3.08-0.23,1.57-1.54,2.05-2.3,3.08,1.52,0.86,1.52-.15,0,2.31,2.88,0.58,2.6-2,3.84-3.08a3.61,3.61,0,0,0,2.3.77c0.55,1.85.36,2.84,0.77,6.16-1.77.79-4.08,1-3.84,3.85-3.63-.56-5.69.45-6.14,3.08-2.37-.09,1.43-5.36-0.77-3.08-2.4-1.24,1.57-2.44,1.54-3.85a17.23,17.23,0,0,0,4.6,1.54c1.78-1.55,1-5.65,3.84-6.16-0.43-1.74-1.2.93-2.3-.77-1.14,1.42-1.47,3.66-1.54,6.16-1.6-.45-2.48-1.62-3.84-2.31-0.1-1.38.94-1.63,0.77-3.08-3.06,1.56-2.46,6.78-5.37,8.47-1.93-1.4-2.18-4.49-4.6-5.39,0.48-.64,3.88-2.7,3.07,0,2.12-2.82-2-1.84-4.6-1.54,2-2.6,3.08-6.15,6.14-7.7-0.37-2.14-5.17,4-4.6-1.54-2-.24.72,4.32-2.3,3.08,1.52-1-.24-5.38,2.3-5.39-0.51-2.31-1.64.74-3.07,0,0.31-2.42,4.95-2.81,5.37-.77,0.75-1.81,3.3-1.83,4.6-3.08C163,77.41,165.61,78,165.41,75Zm1.54-3.85c0.1-1.7,3.25-.33,4.6-0.77a3.63,3.63,0,0,0-.77,2.31C168.34,73.3,168.41,71.43,166.95,71.1Zm37.6-38.79c-1.12,2.06-4.21-.31-3.84-2.31H203C202.75,31,203.17,32.41,204.55,32.31Zm0,34.17c0.23,1.38-3,0-2.3-1.54-1.53.25-7.57,2.49-7.67-.77C197.4,63.87,202.38,62.59,204.55,66.48ZM203.78,58c1.38-.1,1.62.94,3.07,0.77-0.27,1-1.35,1.21-1.54,2.31C204,60.9,203.57,59.76,203.78,58Zm-3.84,10H203c-0.23,2-1.54,2.05-2.3,3.08C199.67,70.84,200.08,69,199.94,68Zm-0.77-.75c0.92,4-2.42,7.8-2.3,8.47-2,.92-4.06-4.63-4.6-7.7,1.3,0.28,1.45-.6,1.53-1.54C196.47,65.86,196.76,67.63,199.18,67.25Zm13,36.75h2.3c-1,2-2.08,4.43,0,1.65,2.3,0.51-.73,1.7,0,3.14-1.56-1.34-1.51.49-3.07-.86C211.14,106.08,212.86,107,212.22,104Zm1.53-45.22c-3.49.42-4.19-2-4.6-4.62,1.85,0.32,1.67-1.41,3.84-.77C211.06,55.31,213.87,56.41,213.76,58.78ZM212.93,34.9c0.51-1,2.07-1.43,3.07-1.54v3.08C214,37,214.46,34.91,212.93,34.9Zm5.43-.77c1.52,0,1,2.1,3.07,1.54-0.69,1.36-1.85,2.25-2.3,3.85C217.95,38.2,219.4,36.72,218.36,34.13Zm1.54,55.44c-2.23,1.1-.86.44-0.77-1.56h-1.53c-1,1-.64,2-0.77,3.11-1.55,1-.11-5.58,0-6.16C217.76,86.57,219.72,87.18,219.9,89.56Zm0.77-20c3.7-1.26,6.38,4,2.3,3.85,0.22-1.24-.73-1.33-0.77-2.31-1.61.21,1.11,2.06-.77,3.08C219.74,74.09,221.11,70.92,220.66,69.56Zm12.28,2.31c2.28,1.18-1.09,5.17-2.3,3.08C230,72.48,233.17,73.9,232.94,71.87Zm-3.84,163.31c0.11,2.16-1.88,2.44-3.84,2.53,1.57-1.25,0-5.71,1.53-6.71h2.3c0.21,2,.26,3.63-2.3,2.86C227,235,229.09,233.91,229.11,235.18Zm-5.37-9.25c0.07-2,3-1.1,3.07-3.08,1.81,1,1.48,4.16,2.3,6.16-1-.11-2.85,2.59-3.07.77-0.75,0-.6.94-0.77,1.54C223.24,230,226.78,226.91,223.73,225.93Zm-7.67,16.95c-1.62,1.58-4.82-1.8-5.37-3.85,1.54-2.23,2.84,2.22,5.37,1.54C216.22,241.89,214.75,242.57,216.06,242.88Zm-11.51,8.47c-3.31-.31-2.23-1.42-4.61-1.54,0.86-2.74,2-5.21,5.37-5.39C206.74,246.08,204.3,248.53,204.55,251.36ZM188.43,190.5c-0.7,1.61-2.27,2.35-4.61,2.31-0.42-3.43-4-3.72-3.07-8.47,1.11,0.94,1.16,2.94,2.3,3.85-0.31-3,3.58-.18,1.55,2.31,2.94-.38,2.39-4.53,5.39-4.62V189c-2,1.28-1-.07-3.08,0C186.63,190.27,187.5,190.41,188.43,190.5Zm-24.56-13.1c-0.7-3.25-.59-3.88-0.77-8.47,1.6,1.68,2.19-.38,4.6,0-2.82,5.23,4.6,1.82,3.84,6.93,0.52-.6,4.57-2,3.84.77C169.78,177,167.65,176.48,163.88,177.4Zm6.91,1.54c0,2-2.14,2-3.07,3.08-1.12-.67-2.43-1.16-2.3-3.08C167.12,177.16,168.4,179.21,170.78,178.95Zm-16.12-.77c-1.33-1.46,3.25-4.72.77-7.7-1.63,1.7.1,6.77-3.84,6.16-0.63-2.18,1.08-2,.77-3.85-1.53.77-1.21,3.41-3.84,3.08,1.56-6.91,8-8.91,13-12.32,2.69,0.21-1.93,2.87.77,3.08-1.69,3.36-6.88-1.44-6.91,3.08,1.16-2.22,4.47-.85,6.14-0.77,0.86,3.83-1.12,8.49,3.07,11.55-2.34,1.8-6.28-1.37-9.21-1.54,0.1-2.21,5.27.67,5.37-1.54C159.24,176.71,155.77,175.86,154.67,178.18ZM137,185.88c2.49-.45,3.57.52,5.37,0.77-1.44,1.47.46,1.39,0,3.85-2.26.59-4.4-2.25-6.14-1.54C134,188.29,138.57,188.35,137,185.88Zm-2-1.54v-3.85c3-.28,1.38,3.24,3.84,3.08C139,185.24,137,183.92,135,184.34Zm3.55-2.31c2.46-4.83-2.12-.37-2.3-4.62,4.86-1.9,8.12,1.8,10.74,3.85C142.26,184.44,143.91,182.39,138.55,182Zm6.14-17.72c1.82-4.89,7.79-.71,7.67-4.62,3.48-.42,4.6,1.55,6.91,2.31-3,4.17-9.33,5-15.35,6.16-1.18-3.75,2.81-2.31,3.84-3.85C147.26,162,146.12,165,144.69,164.31Zm0.77-30.81q-1,1.71-3.84,1.54a3.64,3.64,0,0,1-.77-2.31,5,5,0,0,1,3.84-.77A1.19,1.19,0,0,0,145.46,133.5Zm4.6,8.47c-2.44.12-9.41-1.83-11.51-4.62C142.83,135.95,148,138.74,150.06,142Zm11.51,2.31c-4.84,0-6.66-7.53-10.74-9.25A21,21,0,0,1,161.57,144.28Zm-5.37-13.87c0,3.74-2.69,1.85-3.84,3.08C150.38,132.19,153.55,129.62,156.2,130.42Zm3.84,28.5c-2.25-3-5.18-.55-7.67-3.08,0.07-2,3-1.1,3.07-3.08-2,.09-2.69,1.41-3.84,2.31-3.79-1.56,2-2.56,1.54-5.39,3.76,0.42,3,4.67,7.67,2.31,0,1.53,2.09,1,1.53,3.08-1.62-1.7-2.27,1-4.6.77C158,157.32,161.25,155.9,160,158.92ZM149.3,148.13c2.17,0.64,2-1.08,3.84-.77-0.45,1.6-1.61,2.49-2.3,3.85C149.48,151,149.08,149.89,149.3,148.13Zm6.91-3.08c-0.33,1.14-1-.3-2.3,0a4.33,4.33,0,0,0,.77-3.08c2.85,0.48,3,3.62,6.14,3.85-1.12,1.81-4.11-.95-4.61-2.31A0.78,0.78,0,0,0,156.2,145.05Zm9.21-2.2c-2.41-.15-3.69-0.85-3.84-3.85h2.3C162.77,142,166,140.48,165.41,142.85Zm-3.41,13c1,1.28.76-.07,2.86,0,0.64,1.67,2.09,2.63,1.64,5.39-2.25.2-2.5-1.74-4.5-1.54v-3.85Zm1.11-48.53c0.32-1.61-.53-2-0.77-3.08-1.69.1-.32,3.27-0.77,4.62-2.43-2.41-.29-1.75-5.37-0.77,0.27-.88,1.35-2,1.53-0.77a18.52,18.52,0,0,1,3.84-3.85c2.69-.14,2.52,2.6,4.6,3.08C165.51,107.7,165,106.32,163.11,107.31Zm-4.61,10c-2-2.5-.32-4.2-1.53-6.93C159.52,110.66,158.17,114.83,158.5,117.32Zm-5.37,23.11c-4.55.46-4.93-3.27-6.14-6.16C150.08,135.28,151.88,137.58,153.13,140.43Zm-3.07,5.39c0,0.75-.94.6-1.54,0.77-0.56.66,0.2,4-1.53,5.39-2.34-1.25-4.8-2.37-5.37-5.39C143.75,142.77,145.93,145.81,150.06,145.82Zm-0.77,25.42a3.63,3.63,0,0,0-.77,2.31c-1.6.33-2-.53-3.07-0.77C145.57,171.1,147.39,171.13,149.3,171.24ZM143.92,184h5.37c-0.13,1,.17,1.16.77,1.32-1.28,2.45-1.64-2.48-4.6-.88-0.27,3.61,6.26.34,5.37,4.57-1.31.28-1.45-.41-1.54-1.35C146.43,189,142.59,188,143.92,184Zm26.86-23.54c-2,.23-0.6-3-3.07-2.31-0.06-2.83-1.61-6.42,1.54-4.62-0.15.87-.77,0.43-0.77,0C166.72,155.14,173.51,157.76,170.78,160.46ZM173.85,95c1,0.27,1.21,1.36,2.3,1.54-0.11-1.44-.5-2.58-1.53-3.08,3.05-2.26,4.75,3.42,9.21,2.31-1.63,1.18-2.86,2.78-4.6,3.85-2,.61-4.37-4.43-4.6-0.77C172,98.13,174.24,97.4,173.85,95Zm8.44,13.87c1.11-2.78,4,.14,5.37,1.54-1.29,2.15-4.7-2.46-2.3,1.54-1.74,2.28-6.52-1.81-7.67-1.54-2-3.56,3.72-4.73,4.61-6.16,2.52,0.55,5.78.37,6.14,3.08a5.8,5.8,0,0,1-5.37-1.54,3.6,3.6,0,0,1-2.3.77C181.26,107.32,182.52,107.33,182.3,108.85Zm11.51,27c0.13-1.67-2.72-.35-3.84-0.77,0.65-2.86,4.33-3.53,6.91-2.31-0.48,3.63-4.33,3.87-4.6,7.7-2.42-1.54-4.14-1.49-6.91-3.85,1.27-1.55,2.06-3.58,4.6-3.85-0.56,1.75-2.31,2.31-3.84,3.08C188.17,136.88,191.56,135.77,193.81,135.81ZM206.08,99.6c1.87,0.44,3.95.66,3.84,3.08-1.46,1.44-1.39-.46-3.84,0C207.36,101.15,206,101.71,206.08,99.6Zm3.07,33.9c2.58,0.49,2.46,3.69,2.3,6.93-0.72-.44-1.16-2.14-1.53-0.77C208.84,138.35,210.3,136.08,209.15,133.5Zm0-34.66c-1.56-.56-3.13-2.32-1.54-3.85,2.62,0.32,1,2.08,3.84.77C211.68,97.78,208.48,96.36,209.15,98.83Zm-2.3,27c-1.68-.11-1.65-1.94-1.54-3.85C208.65,122.09,206.71,123.28,206.85,125.79Zm-0.77,17.72c0.87,0.15.43,0.77,0,.77,2.61,1.53,6.72.57,7.67,6.16-0.82-1.49-3.53-1.07-4.6-2.31-0.93,2-.43,4.24-0.77,6.16-1.28,1.81.07-.28,0-1.54-1.46.33-1.39,2.2-3.84,1.54,1.66,1.6.1,2.49-.58,3.85,2.37,0.58,1-2.65,4-1.54V159h-4.22c-3.28-3,1.76-7.44,1.53-10.05,1,0.27,1.21,1.34,2.3,1.52,0.1-1.38-.94-1.64-0.77-3.09-2.64.69-3.33,3.33-6.91,3.08C202.24,148.38,204.92,146.71,206.08,143.51ZM220.66,142a8.47,8.47,0,0,1,1.53,9.24c-1.56-.23-2-1.54-3.07-2.31-0.23-1.78,2.22-.86,2.3-2.31C218.4,146.24,222.14,144.81,220.66,142Zm-1.54-21.57c2.38,0.18,2.4,2.73,3.07,4.62C219.67,125,219.27,122.83,219.13,120.4Zm13,6.93c-3.31,1-1-3.67-3.84-3.08-2.19,1.35,1.5-1.16,2.3-1.54C233.2,123.54,230.69,125.05,232.18,127.33Zm-1.53,63.94c-2,0-.94-0.57-0.77-1.54-1.54-.26-2.4.16-2.3,1.54-1-.77-2.86-0.73-3.07-2.31-1.48.31-.61,3-3.07,2.31-0.57-1.46-2.29-.54-0.77-2.31-2.4.93-3.54,3.12-5.37,4.62-2.87-1.5-8.44-4.92-5.37-7.7-1.79.24-3.17,1.51-4.61,0,2.09-1.26,5.92-1.34,7.67-.87,0.1,1.38-.94,2-0.77,3h1.53c1.73,0-.93-1.11.77-2.22,6.22,0.52,10.13,4.57,16.12,3.13C230.48,190.23,231.95,191,230.64,191.27Zm-22.25,21.57c2,3.77,5-2,8.44.77-2,2.3,2.46,5.14-.77,6.16-2-2.65-1.53.57-6.91,0C209.88,216.47,206.78,214.68,208.39,212.84Zm8.44-2.31c-2.4,1.18-5.94,1.23-9.21,1.54,0.56-2.36-1.32-2.27-.77-4.62,3.77-.65,6.86-3.11,10,0-1,2.37-3.41-1.44-4.6.77C213.25,209.5,215.64,209.41,216.83,210.53ZM206.08,239.8a6.29,6.29,0,0,0-5.37,0c-0.79-2.59,2.39-1.2,3.84-1.54-0.12-.9-1.4-0.65-2.3-0.77-0.56-2.1,1.52-1.55,1.53-3.08,2.09-.56,1.55,1.53,3.07,1.54C207.49,238.13,205.77,237.95,206.08,239.8Zm-5.37-17.72c-2-3.86,5.09,1.37,1.53,3.85C199.47,225.66,202.36,220.26,200.71,222.08ZM183.83,138h2.3c-0.06,1-.13,2.24.77,2.37-0.49,1.56-3.59.48-3.84,2.28C180.83,141.57,184.42,140,183.83,138Zm6.14,9h-2.3c2,2,1.72,4.51,1.54,7.5-0.92-.87-1.39-2.3-3.84-1.64,1.51-3.28-2.52-4.84-2.3-9.09C186,142.89,189,143,190,147Zm-6.14,10.38c2.66-.36.44,4.18,2.3,4.62,0.14,0.65-.3.73-0.77,0.77-0.65-.14-0.72.3-0.77,0.77C182.8,161.95,183.2,159.6,183.83,157.38Zm0.77,27c-0.55,1.25,3.62,1.25,3.07,0,1.3,0.14-.36,3.66-2.3,3.08-0.33-1.47-1.65-1.94-1.53-3.85C184.48,183.43,184.55,183.87,184.6,184.34Zm4.6-25.42c2.29,0,2.61,2,4.6,2.31-0.63,1.69-5-1.15-5.37,2.31C186.25,162.51,189,160.11,189.2,158.92Zm7.81-.77c-2.06-1-4-2.07-6-3.08v-4.62a5.41,5.41,0,0,0,5.31,1.54C197.2,154.42,195.76,155.37,197,158.15Zm2.17-6.16c1.22-.06,2.93.37,3.07-0.77,1,1.08-1.45,6.53-.77,7.7,1,1.48-3.88-4.67-2.3.77-4.23-.57,2.23-4.16-1.53-3.85C197.07,153.47,199.75,154.36,199.18,152Zm22.25,16.95c-0.15.87-.77,0.43-0.77,0-3.3,1.17-2.92-2.06-4.6,1.54-4.24-3.7,3.27-2.69,4.6-4.62,1.37,0.57.11,1.4,0,2.31C220.52,168.82,221,168.89,221.43,168.93Zm-1.53,16.18c-0.09,1.48-2.57-.9-4.61,0,0.47-.68.93-1.38,0-1.54,0.17-1.11,2.29-.27,2.3-1.54,0.87,0.15.43,0.77,0,.77Q218.72,184,219.9,185.11Zm-2.3-8.47c-0.6-1.71-1.61-3-1.53-5.39,0.77,0.78,4.18.29,5.37-.77C222.67,172,219.67,175.86,217.59,176.64Zm-0.77,3.08c-2.52,3.69-10.28,5.16-15.35,3.85,0-2.54,1.3-3.83.77-6.93C208.25,176.52,213.84,176.81,216.83,179.72Zm-16.88,1.54c-0.48,1.41-3.21-1.33-3.07-3.08a1.18,1.18,0,0,0,1.54-.77C200.55,177.06,197.81,181.6,199.94,181.26Zm-0.77-10.79c-0.73,1.57-1.57,3-2.3,4.62-1.64-.48-0.72-4.74,0-5.39C198.12,169.48,198.2,170.43,199.18,170.47Zm-7.67,23.11c2.88-2.83,6-.17,6.14,3.85-2.61,0-2.91.23-6.14,0C192,195.06,192,196,191.5,193.58Zm1.53,13.1c1.11-2.28,3,1,5.37,0a1.18,1.18,0,0,0,.77,1.54c-1.42,2.35-3.65-.89-6.14,0C193.51,207.53,194,206.84,193,206.68Zm3.84,7.7a15.24,15.24,0,0,1-2.3-5.39c0.65-.14.72,0.3,0.77,0.77,0.08,1.48,2.86-1.2,3.84.77C200,213.4,197.56,213,196.88,214.38Zm0,11.55c-3.3-.54-7.38-0.29-6.91-4.62C194.5,220.62,196.49,222.47,196.88,225.93Zm-0.77-6.16c3.13-.06,3.23,2.92,3.84,5.39C197.51,224.53,197.1,221.86,196.11,219.77Zm3.07-20.8c0.33-2.75,2-4.11,1.54-7.7,3.47,2.17,5.32,4.58,10,6.93,0.08,1.11-6.1-2.53-4.6,4.62C202.41,202.18,204.19,196.34,199.18,199Zm5.89,8.47c-0.25,2.31-1.07,4-3.07,4.62v-3.85C204,208.31,203.62,207.28,205.07,207.45Zm19.43-23.88c1.56,0.23,1.5,2.08,3.07,2.31-0.94,1.1-2.93,1.75-3.84.77C223.64,185.27,224.67,185,224.5,183.57Zm1.54-27c2.41,0.66,3.18,3,3.84,5.39a17.32,17.32,0,0,1-4.61-1.54C226.71,159.1,224.36,158.21,226,156.61Zm3.07-18.49c0.75,0,.6.94,0.77,1.54-0.65-.14-0.72.51-0.77,1-1.51-.53-2-1.64-2.3-3.64h2.3a1.51,1.51,0,0,0-.77,1.33C228.48,139.2,229.11,138.55,229.11,138.12Zm0,37c-2.34-.06-1.8-5-0.77-6.16,3.31,0.31,2.23,1.42,4.6,1.54-0.49,1.88-3.59.12-3.84-.77C228.35,170.68,230.55,172.21,229.11,175.09ZM230.64,132a1.19,1.19,0,0,0,.77,1.54c-1.45.85-2.69,1.92-4.6,2.31-0.11-1.43-.5-2.58-1.53-3.08C227.39,132,228.51,135.41,230.64,132Zm-3.07-3.08c-2.41.36-2-2.08-3.84-2.31,0.18-1.36,1.32-1.76,3.07-1.54A5,5,0,0,1,227.57,128.88Zm-3.07,19.26c1.71,0.79.61,5.16-1.53,4.62A17.49,17.49,0,0,1,224.5,148.13ZM223.73,182c0.12,1.92-1.21,2.38-1.54,3.85-1.12-.34.08-0.68,0-1.54-1.61-.69-2.48-2.14-3.84-3.08C221.51,179.8,219.67,183.9,223.73,182Zm-3.07-27c2,1.94,1.43,3,2.3,6.93C219.77,160.44,221.39,158.84,220.66,155.07Zm0,9.25c-2.36,2.56-8.12.84-10,5.39-1.91.12-2.38-1.21-3.84-1.54,0.84-2.41.78-2.46-2.3-2.31-0.38-1.5,2.65-3.94.77-2.31-2.35-.76.81-2.06,0.69-3.08,1,0.77,2,2.08,3,2.31v-1.54c-2-1.1,1.86-.59.84,1.54C214.14,160.39,215.12,165.65,220.66,164.31Zm-10.74-9.25c3.23,0.54-.73,3.51,2.3,3.85-0.18,2-1.32-1.06-3.07,0C208.52,156.74,210.24,156.92,209.92,155.07Zm2.3-.77c1.6,0.45,2.48,1.62,3.84,2.31C215,158.56,211,157.09,212.22,154.3Zm4.6,0.77c-2.06-1-1.28-4.88-2.3-6.93C216.83,148.79,218.06,153.26,216.83,155.07ZM213,140.43v-3.85a2.86,2.86,0,0,1,3.07,3.08C214.69,139.56,214,140.6,213,140.43Zm-16.89,10c0.26-2.83-1.18-4-3.07-4.62-0.13,1.93,1.18,2.41,2.3,3.08-0.91,1.91-3.32,1.39-4.6,0,1-2.31,1.73-.35.77-4.62,5.22,0.19,9.13-4.48,13.81-2.31C203.07,145.62,201,149.44,196.11,150.44Zm-16.88-12.32c-1.89-1.88.57-3.34,0-6.16,1,0.27,1.21,1.36,2.3,1.54,0.42-1.71-1.47-1.1-1.54-2.31-0.11-2.42,2-2.65,3.84-3.08,0,0.75-.94.6-1.53,0.77,2,1.95,3.6.32,3.84,4.62C183.7,134.9,182.48,137.53,179.23,138.12Zm-3.07-16.95c1.52-.93-0.19-2.66-0.77-0.77-1.58-.21-1.53-2.06-2.3-3.08-0.14-2.7,2.59-2.53,3.07-4.62,3.05,2.49,1.88,4.66,4.61,7.7-1.9-.1-1.3.94,0,0.77-0.56,1.37-1.4.11-2.3,0a3.63,3.63,0,0,0,.77-2.31C176.31,117.73,179.07,122.3,176.15,121.17Zm1.54,8.47c-2.05-.29-3.6-4.09,0-3.85,0.22,1.24-.73,1.33-0.77,2.31,0.65,0.14.72-.3,0.77-0.77C178.83,127.67,177.39,128.32,177.69,129.64Zm-3.84,3.08c1.31-.16,2,1.31,2.3,0,1.86-1.94-1.3,2.69,1.54,2.31C177.13,136.53,174,134.15,173.85,132.73Zm2.91,21.57a2.39,2.39,0,0,1-1.61-1.54c-1.2.33-.15,2.42-3.15,1.54V152C174,152.21,177.84,150.9,176.76,154.3Zm0.16-49.3c0.42,0.83-4.58,1-3.07,3.85-3.3.26-2.08-2.81-1.53-4.62C173.22,105.11,175,105.1,176.92,105Zm-3,6.93a3.66,3.66,0,0,0-.82,2.31c-0.72-.44-1.08-2.14-1.45-0.77-0.65.14-.69-0.3-0.69-0.77v-1.54C172,110.83,172.92,111.69,174,111.93Zm-1.64,36.21c1,0.27,1.21,1.36,2.3,1.54q-1,1.72-3.84,1.54C169.84,148.72,173.27,150.63,172.32,148.13Zm-1.53,19.26c-2.46-.52-1.45-2.56-2.3-3.08C169.59,162,171.57,165.23,170.78,167.39Zm3.84-7.7c4-2.6,3.49-3.1,7.67-2.31-2.3,0-3.15,1.37-3.84,4.62-0.68-.48-1.37-0.93-1.54,0C175.15,162.24,176.07,159.77,174.62,159.69Zm5.37,0.77c2.25,1.34,3.56,3.61,3.84,6.93a3.6,3.6,0,0,0-2.3-.77,3.64,3.64,0,0,0,.77-2.31c-1.24,2.25-1.89.84-4.61,0.77C178.37,163.45,180,162.8,180,160.46ZM193,219c-1,2-3.41,1.47-5.37.77-0.56-2.1,1.53-1.55,1.54-3.08C189.56,217.6,189,220,193,219Zm-3.84,3c-0.53,0-1.26,1.77-.07,2-0.18,2-1.14-1.4-3.14-.34V222h3.2Zm0.77,3.93c-1.81,1.75,1,2.31,2.3,3.08-1.56,3.5-4.14-2.23-6.14-3.08C186.78,223.68,188.06,226.94,190,225.93Zm5.37,14.64c-0.72,2.1-3.87,1.76-6.14,2.31C189.84,240.16,192.9,239.41,195.34,240.57Zm-1.54-7.7c1.55-1.79-.31-1.77-1.53-0.77-1-2.42,5.19.66,4.6-3.85,2,0.09,3.95.15,3.84,2.31C198.05,231,196.63,232.62,193.81,232.87Zm2.3,0.72c3.78,0.49,3.29,1.41,3.84-1.59h2.3c0.51,4-2.74,3.43-3.07,6.19C198.34,236.46,195.48,236.78,196.11,233.59ZM206.85,245h2.3c0.21,3,2.33,3.92,2.3,7-2.89.59-3.67-1-6.14-.82C205.82,248.48,208.21,248,206.85,245Zm4.6-16a1.18,1.18,0,0,1,.77-1.54c-0.31-1.49-3.51-.07-2.3-3.08,1.7-.43,1.09,1.47,2.3,1.54,1.48-.8-2-3.05-3.07-3.85,0.58-2.24,6.32.7,6.91-1.54,1.72,0.33.31,3.8,0.77,5.39C212.85,225.89,213.21,228.48,211.46,229Zm5.37,1.54a3.63,3.63,0,0,0,.77-2.31c3.2,2.09,2.61,3.59,2.3,8.47-1.21-.33-0.66-2.42-3.07-1.54C215.09,230.64,220.69,232,216.83,230.56Zm8.44-16.95c0.38,1.1-2.62,3.89-4.6,2.31-0.95,2.49,2.3.59,1.35,3.08-2.9,1.11-1-2.12-4-1.54v-5.39c4-3,7.5,1.25,10.92,1.54C228.93,217.46,226.42,214.81,225.27,213.61Zm3.84,3.08c-0.78,1-.75,2.84-1.53,3.85a3.6,3.6,0,0,0-2.3-.77C225.53,217.73,227.28,217.17,229.11,216.69Zm-11.51-6.16c0-2-.29-4.4.77-5.39,3.39-.07,6.8-0.15,6.91,3.08C222.14,208.42,220.8,210.41,217.59,210.53ZM219.13,246c0.9-.12.65-1.4,0.77-2.31,1.78,0.78,2.47,2.65,2.3,5.39-3,.14-3.47-2.16-4.61-3.85C217.87,244.11,218.95,245.13,219.13,246ZM222.2,229c-2.4.35-2.45-1.64-2.3-3.85C222.3,224.81,222.35,226.81,222.2,229Zm-1.53-4.62c-0.32-1.47-.28-3.32-2.3-3.08,1.15-2.37,7.22-2,8.44,0A10.1,10.1,0,0,1,220.66,224.4Zm-3.84-29.27c0.87-1.44.91-3.71,3.84-3.08,0.57,2.37-2.11,1.48-1.54,3.85,4.07-5.35,8.61-2.8,14.58-2.31a1.18,1.18,0,0,0,.77,1.54c0.21,1.36-4.59,1.41-2.3,2.31-1.07,2.23-3.79-.22-4.6-0.77-0.26,4.53,2.11,1.63,4.6,3.08,0.36,2.42-2.07,2-2.3,3.85C226.52,199.17,221.94,198.58,216.83,195.12Zm18.42,25.42a7.67,7.67,0,0,1-3.84-4.62C232.19,214.94,235.66,217.78,235.24,220.54Zm-4.6-42.37c1.22-.06,2.93.37,3.07-0.77,1,0.51,1.43,1.65,1.53,3.08C233,180.47,230.57,180.56,230.64,178.18Zm-2.3-102.45c-0.83-.19-0.52-1.53-1.54-1.54a11.3,11.3,0,0,0,4.6-3.08C233.06,72.32,228.58,73.86,228.34,75.72Zm0,43.91c-0.15.63-.78,0.77-0.78,1.54s1,0.6,1.55.77c-2.93,2.33-5.13.17-6.13,2.31V120.4C225,120.85,226.55,119.88,228.36,119.63Zm-4.62-9.24c-3-.68.14-3.1,0-5.39,1.7-.42,1.09,1.47,2.3,1.54C224.73,107.28,224.35,109,223.73,110.39Zm-3.07-6.2c1.79,1.16,1.17,1.81.77,3.81h-3.84c0.6,0,.83-1.72.77-3.06C219.45,105,220.54,105.08,220.66,104.19ZM217,144.36c0.85,0.3,4.88.37,1.39,3-1.38.1-1.62-.94-3.07-0.77,0.53-.62,1.19-2.11,0-2.31C217.21,140.42,217.4,144.25,217,144.36ZM206.85,93.44c-1.19-1,1.24-4.87,4.6-3.85C212.49,93.45,207.91,91.68,206.85,93.44ZM203,91.9A4.2,4.2,0,0,1,206.85,88C207.13,90.89,204.94,91.27,203,91.9Zm-1.54,20c1.6-3-1.14-1.26-.77-4.62C202.93,107.48,205.29,112.31,201.48,111.93Zm3.84,26.19c-2.13,2.49-5.92,3.3-10.74,3.08,0.53-1.52,2-2.05,3.84-2.31-0.25-1.64-3.35.12-3.84,0.77-1.45-3.66,5.42-.79,5.37-5.39C203.43,133.85,202,138.37,205.32,138.12ZM194,127.33v-3.08c4-1,5.83,2.68,6.14,3.85C199.62,129.32,197,126.1,194,127.33Zm4.36-10.78c-0.78-.5-0.36-1.77-2.36-1.54v-3.85c2-.56,1.57,1.53,3.1,1.54C197.18,114.07,198.29,113.68,198.36,116.55ZM193,127.33c-1.63,2.08-5.65.07-6.91-.77C186.91,119.6,194.43,122.34,193,127.33ZM184.6,98.06c1.58-1.18,3.92-4.15,6.14-2.31A7.3,7.3,0,0,1,184.6,98.06Zm0-4.62c0.32-1.72,4.07-.6,4.6,0C188.88,95.15,185.13,94,184.6,93.44Zm0-3.08c-1,.76-1.53,2.06-2.3,3.08-3,.43-5.92-3.25-7.67-1.54-2.33-.95.83-2.65,0-4.62,3.3,2.25,9.44-.14,11.51,4.62C184.83,92.18,184.68,91.3,184.6,90.36Zm-13-5.39c0.05-2.08,1.75-3.7,3.07-2.31C174.85,84.69,173.56,85.18,171.55,85Zm3.07-3.08c0.07-2.29,4.58-2.06,3.84.77C176.86,84.33,176,82.56,174.62,81.89ZM157.74,97.29c0.07,2.38-2.32,2.3-4.6,2.31a1.18,1.18,0,0,0-.77-1.54C152.77,95.43,156.06,96.88,157.74,97.29ZM153.9,120.4c-2.68,1.19-.1,2.78,1.54,3.85-2.39,2.35-3.13-3.5-6.14-3.08-0.53,2.07,1.59,1.49,2.3,2.31-2.86,2.89-3.32-4.16-4.6-1.54C144.81,119.94,151.53,120.38,153.9,120.4Zm-2.3-14.64c-2.1,0-1.82-3.63-.77-4.62,0.87,0.15.43,0.77,0,.77,0,0.75.94,0.6,1.53,0.77C152.46,104.07,151.43,104.31,151.6,105.77Zm-0.77-25.42c-1.38-.1-1.62.94-3.07,0.77,0.4-1.14,1.13-1.94,1.53-3.08,1.77-.24.85,2.22,2.3,2.31C151.45,81.22,150.83,80.77,150.83,80.35Zm-2.3,26.19c-1.43-1.51-2.81-.24-4.6,0-0.66-2.46,1.21-2.38,1.54-3.85C147.5,102.95,148,104.71,148.53,106.54Zm-9.21,16.18c0.88-.46,5.38-2,5.37,1.54C143.67,123,140.34,124,139.32,122.71Zm0,22.34c0.9-.12.65-1.4,0.77-2.31,4.49-.26.39,4.8-1.53,2.31C138.7,144.18,139.32,144.62,139.32,145.05Zm6.14,7.7c-0.86,3-3-3-3.84,0-0.9-1.16-2.22-1.88-2.3-3.85C142,149.6,143.12,151.77,145.46,152.75Zm0,2.31c-1.16,1.41-3.31,1.81-4.61,3.08,4.23-.4,0,3.59-1.53.77-1,.17-1,2.3,0,2.31-2.95,1.59-1.4-3.14-3.84-4.62C139.27,155.91,141.44,153.53,145.46,155.07Zm-4.61,18.49c-0.56,2.26-2.39,3.25-5.37,3.08C137,175,138,175.1,140.85,173.55Zm2.3,30.81c-4.56.38-6.84-.81-10,0C134.95,202.32,142.43,200.88,143.16,204.37Zm0.77,2.31c-2.89.59-3.67-.94-6.14-0.77C138.16,204.84,144.7,204,143.92,206.68Zm-3.07-11.56c1.39-3,3,1.06,6.14-.77,0.28-1.31-.6-1.45-1.54-1.54,0.5-1,1.64-1.43,3.07-1.54-0.2,2.37-1.66,3.46-2.3,5.39C144.13,195.44,143,197,140.85,195.12Zm10.74,3.08a5,5,0,0,1-.77-3.85c2.17,1.22,3.26-.89,5.37.77C155.09,196.58,154.49,198.54,151.6,198.2Zm3.07-13.1c-0.3-2-2.46-2.15-1.53-5.39,3,1.08,6.07,2.12,9.21,3.08C161,184.79,157.29,184.4,154.67,185.11Zm10-.77c1.94,0.21,4.35,3.31,5.37,0,1.64-1.15-1.47,4.81-4.6,3.85,0.27-1,1.35-1.21,1.54-2.31-3.35.74-4.24,4-6.91,5.39C158.83,188.38,161.91,186.64,164.65,184.34Zm4.6,13.86c-1.94,1.68-7.45,2.91-9.21,2.31C163,198,165.75,199.31,169.25,198.2Zm-4.6-6.16c1.93-1.91,3.7-4,6.91-4.62,0.34,2.91-1.51,3.61-2.3,5.39C168.34,191.93,166.54,191.94,164.65,192Zm7.67-2.31c1.45,0.08.53,2.55,2.3,2.31-0.24,1-1.92.64-3.07,0.77,0.71,1.85,5.58-.47,4.6,3.08-3,.61-4,0.8-6.14-0.77C169.6,192.14,172,192,172.32,189.73Zm10,7.27h3.07c-0.15,1-.77.6-0.77,1.37,0.33,1.14,1-.22,2.3.08C187.45,202.18,181.31,200,182.3,197Zm3.07,8.91c2,1.1,4.34,1.8,4.6,4.62Q184.76,211.14,185.36,205.91Zm-3.07,44.68c-2.84-.49-4.57-2.09-8.44-1.54,1.68-4.65,10.3-5.5,9.21-8.47,3,0.35,4.81-1.93,5.37,1.54-0.68.47-1.37,0.93-1.53,0-0.92,1.36-3.83,5.38-7.67,6.16C179,250.32,183.52,247.55,182.3,250.59Zm-9.21,0c0.78-1.72,3.53,1,6.14,0-0.11,4-3.6,2.62-6.14,1.54C173.56,251.44,174,250.75,173.09,250.59Zm18.42,2.31c-1.3,3.49-10.74,3-12.28,0C183.19,252.12,187.73,253.38,191.5,252.9Zm-9.21-14.64c-0.83-.19-0.52-1.53-1.53-1.54a7.63,7.63,0,0,1,4.6-2.31c-0.18,1.36-1.32,1.76-3.07,1.54C183.22,237,182.59,237.16,182.3,238.26Zm-13.81,8.47c-4.05,2.75-7-2.2-8.44-4.62C162.2,241.26,165.52,245.83,168.48,246.73ZM160,242.88c-0.8,1.25-3.88-1.7-3.07-4.62C160.06,237.73,158.27,242.09,160,242.88ZM190,266c-1.41-3-.79-10.34,4.61-9.24a32.86,32.86,0,0,1-.77,9.24H190Zm2.3-14.64c-1.13-1.82-1.62-1.43-.77-3.85-2.34,0-4.18,1.41-.77,3.08-1.06,1.76-5.34.29-7.67,0.77,1.45-2.5-.85-5.33,3.07-6.16-0.27,1-1.35,1.21-1.53,2.31,2.31-.5,2.61-3,4.6-3.85a15.19,15.19,0,0,1,3.84,3.08c2.41-.92.26-2.64,2.3-4.62,2.29-.92,2.61-0.21,4.6.77,0.6,3.43-1,4.62-.77,7.7C196,251.37,196.11,250.93,192.27,251.36Zm3.84,5.39c4.86,1.6,2.52,7.73-.77,9.24C195.16,263.75,196.62,259.15,196.11,256.75Zm3.07,6.93c0.9,1.46-2.94,4.72-3.84,6.93C193.76,268.47,198.39,266,199.18,263.68Zm0-6.68h3.07a4.81,4.81,0,0,0-.77,3.08C200.36,259.41,199,259,199.18,257Zm0-2.69a3.76,3.76,0,0,0,.77-2.31h3.84C204.23,255,201.51,254.34,199.18,254.31Zm4.6,1.69h7.67a21,21,0,0,1-8.44,4.62C202.46,258.27,203.8,258,203.78,256Zm8.44-11.58c3.05-2.25,7.72,5.12,3.84,7.7C214.79,249.55,215.08,245.41,212.22,244.42ZM227.57,246c1.15-.9,1.88-2.22,3.84-2.31-0.06,1.09-.13,2.18.77,2.31C231.4,248.13,228.92,245.75,227.57,246Zm3.07-6.16c0.54-3.31,1-6.72,2.3-9.25-1.56.58-3.55-7.31-.77-6.93-0.49,1.68,2.18,2.45-.77,2.31,2.35,2,4.77,3.95,3.84,9.25C231.68,236.11,232.76,238.73,230.64,239.8Zm3.07,3.08c2,0.08,1.81,2.87.77,3.85-1.77.24-.85-2.22-2.3-2.31C232.37,243.59,233.7,243.9,233.71,242.88Zm0,9.24c2.54,0.77,2.61,3.11.77,4.62C232.78,256.65,234.15,253.48,233.71,252.13ZM232.94,69.56c0.52-1.79,2.55-2.06,3.07-3.85C237,66,236,70.74,232.94,69.56Zm-1.94,0V65.71c-2,5.14-2.71.41-3.25,3.85-1.86-2.4-3.37-.46-7-0.77,0.8-4.65,5.29-2.94,6.09-6.16,2.09-.56,1.52,1.53,3,1.54,2.09-.7-2.35-1.49,0-2.85,1.52,2.83,2.43.68,3.06-1.32h3.84C237.9,66,233,66.11,231,69.56ZM229.11,34.9c-1-.93-1.21-0.3-2.3,0-1.6,1.69,1.72-2.83,2.3-3.85C231.36,31.7,228.65,33.53,229.11,34.9Zm10,4.62c-3.13,3.43-6.45,1.2-8.44,4.62-0.87-.15-0.43-0.77,0-0.77,0-.75-0.94-0.6-1.54-0.77,0.81-6.2,6.76-3.31,10-7.7,1.14,0.65,1.11,2.48,1.53,3.85C237.77,37,239.08,39.52,239.08,39.52Zm-6.14,15.41c-2,.84-3.95-2.63-3.84.77-1-.27-1.21-1.36-2.3-1.54,0.34-1.12.67,0.08,1.54,0s0.65-1.4.77-2.31C231.73,51.52,233.48,52.08,232.94,54.93Zm3.07,0c-0.1,1.38.94,1.63,0.77,3.08a7.3,7.3,0,0,0-6.14,2.31C229.78,58.89,234.35,56.36,236,54.93Zm-5.37.77c2.32,1-2.2,4.89-2.3,1.54-1,.24-0.64,1.93-0.77,3.08-1.38.1-1.62-.94-3.07-0.77,1.08,1.14,2.45,1.66-.77,1.54,0,0.75.94,0.6,1.53,0.77-0.53,1.52-2,2.05-3.84,2.31,0.76-4.49-.68-7.72,3.07-10C226.83,53.92,228.59,58.2,230.64,55.7Zm10-28.5c0,3-3.86.14-3.84,1.54C234.27,27.32,239.65,25.35,240.62,27.19Zm-7.67,1.54c2.42-.37.58,3.53,2.3,3.85,1.61-.22-1.11-2.06.77-3.08,2.44,1.18,3.38.27,6.14,0,0.63-2.18-1.08-2-.77-3.85,1.69,2.08,2.55.21,4.6,1.54-2.56,1.57-.61,1.66,2.3,1.54-3.21,1.7,1.89,3.36,3.08,6.93-0.74,1.9-3.37-1.06-5.37,0V31.82c-2-.78-1.37,1.72-1.54,3.08-1.09-.07-2.18-0.13-2.3.77-0.24-1-1.32-1.8-2.3-3.85-1,2.61-4.14,4.89-10,4.62A45.69,45.69,0,0,1,232.94,28.73Zm-5.37-12.32c0.14,0.65-.3.73-0.77,0.77,0.09,0.61,2.54,2.33,2.3.77,2.51,0.87-.19,2.58,3.07,3.08,0.07,2.1-1.28,1.55,0,3.08-1,1.46-1.65-3.94-5.37-2.31-0.88.25-2.64,3.36-.77,3.85a0.78,0.78,0,0,0,0-1.54c1.31-2.92,1.26,1.67,2.3,1.54-0.49,1.56-3.59.51-3.84,2.31,0.33,1.14,1-.31,2.3,0,0.82,2.87-2.88,1.22-2.3,3.85-1.14-1.17-1.24-3.38-1.53-5.39,1.88-1,2.64-5.32.77-5.39C226.19,19.54,223,16.41,227.57,16.41ZM222.2,9.48q3.6-.54,3.07,3.08a5.47,5.47,0,0,1-1.53-2.31c-2.3.51,0.73,1.65,0,3.08C223.14,15.09,222.12,10.93,222.2,9.48Zm0,39.28c-3.68.36-2.21-4.48-.77-5.39C223.35,44.84,220.48,46.72,222.2,48.76ZM220.66,11c1.62,1.76-.34,2.73.77,5.39A2.28,2.28,0,0,0,219.9,18c-1.93-1.36,1.16-3.26-.77-4.62C219.63,12.55,220.89,12.53,220.66,11Zm-1.54,12.32c0.37,2.43-2.35,1.75-1.53,4.62-1-.24-0.64-1.93-0.77-3.08-0.94.86-1.58,0.67-1.54-.77A5,5,0,0,1,219.13,23.34Zm-10-6.93c0.77,1.74,5.79,0,3.84-.77,1.08-2,4,2.85,2.3,3.85-1.71-.94-5.37-2.37-3.07.77C211.64,21.54,208.59,18.84,209.15,16.41Zm0,33.12c1.51,0.61,2.76,2.7,1.53,3.85C208.11,54.18,209.49,51,209.15,49.53Zm4.6,30c-2.38-1-2.19.21-5.37,0,1.92,2.11,3,.64,6.14.77,0.33,4.44-.87,7.34-1.54,10.79-2.9-2.56.33-4.48,0.77-7.7-2.84-2.3-3.82,3.84-5.37,5.39-1.32-1-.77-3.67-2.89-3.85-2.36,2-4.5,4.44-7.5,5.39V87.28c3,0.29.25-7,5.19-10-2.83.76-3.1,4.16-7,3.85,0.92-2.67.9-6.24,4.56-6.16a4.34,4.34,0,0,1-.79-3.08c1.84-1.93,5.79-1.47,4.59-3.08C209.78,68.37,211.35,76.17,213.76,79.57ZM207.62,58c-1.19-.18-3.58-3-4.6-0.77-0.41-.75-2.89-5,0-6.93C205.32,52.1,207.94,53.58,207.62,58Zm0-5.39c-2.15-1.68-5.18-4-3.84-6.93C205.43,47.62,207.92,48.72,207.62,52.61Zm-1.53-13.1c-1.89.1-3.7,0.12-4.61-.77,0.44-1.86,2.9-1.71,4.61-2.31C206,38,203.76,37.49,206.08,39.52ZM203,20.26a3.6,3.6,0,0,0,2.3.77c0.63,2.18-1.08,2-.77,3.85-0.88-.93-1.94-0.3-0.77,0-0.11,1.92-2.6.22-3.07,0C200.3,22.16,203.43,23,203,20.26Zm-4.6,29.27c0.9-.12.65-1.4,0.77-2.31,3.71,0.3.12,4.07-2.3,3.08,1-1,1-2.87-.77-3.08,0.18-1.36,1.32-1.76,3.07-1.54C199.49,47.54,197.78,47.35,198.41,49.53Zm0-13.1a1.18,1.18,0,0,0-1.54.77c-1.48-.31-0.07-3.53-3.07-2.31,0.7-1.61,2.27-2.35,4.61-2.31C197,34.05,198.33,34.52,198.41,36.44Zm-1.54,7.7c-0.07,2-3,1.1-3.07,3.08a5.4,5.4,0,0,1-.77-5.39C195.45,41.47,195.07,43.9,196.88,44.14Zm-3.07-10.78c-2.4.4-1-4.54-.77-0.77,1.52,0,1-2.1,3.07-1.54-0.12-.9-1.4-0.65-2.3-0.77,0.85-3.05,4.42,1.41,3.84-3.08C201.75,29.52,194.86,31.39,193.81,33.36Zm3.84-20c-0.71,3.24-.2,3.24-1.53,6.16-2.45.66-2.91-.67-3.84-1.54C195.17,16.32,193.35,14.08,197.64,13.33Zm-5.37,13.87a25,25,0,0,1,5.37-4.62c-1.28,1.53.07,1,0,3.08C194.24,26.86,188.66,32.88,192.27,27.19Zm2.3,28.5c-0.85,3.08-3,.51-3.84-0.77C191.69,53.86,193,54.48,194.57,55.7Zm-3.84,35.43c-2.77,2-5.38-2.8-6.14-5.39a5,5,0,0,0,3.84.77A7.69,7.69,0,0,0,190.74,91.13Zm-2.3-7.7c-2.4.35-2.45-1.65-2.3-3.85C188.43,79.52,190,81.84,188.43,83.43Zm-2.3-13.87c-0.72,2.83-3.73,2.52-3.84-.77A5,5,0,0,1,186.13,69.56ZM183.06,85c-1.26,1-4.16,2-5.37.77,2-1.44.35-1.64,2.3-3.08C181.56,82.88,181.5,84.74,183.06,85Zm-3.84-51h2.3c-2,1,2,2.06,0,3.85C179.13,38.2,179.07,36,179.23,34Zm1.54,34.79c-2.08,0-5,3-5.37-.77C177.43,68,179.77,67.73,180.76,68.79ZM178.46,75a3.63,3.63,0,0,0-.77,2.31c-2.17.64-2-1.09-3.84-.77,0.53-1.36.85-2.38,0-3.08C175.45,70.88,177.09,74.71,178.46,75Zm-4.61-21.57c-2.88,1.25-1.33,1.5-.77,3,0.14,0.66-.3.65-0.77,0.65h-1.53a0.9,0.9,0,0,1,.77-0.65,5.34,5.34,0,0,0-2.3-1.48c0.45-1.6,1.61-2.46,2.3-3.82C173,51.13,172.08,53.62,173.85,53.39Zm-0.77-11.56c-0.15.87-.77,0.43-0.77,0C163.54,40.89,167.92,38.32,173.09,41.83Zm-13.81-7.7c0.76-1.45,4.68.38,4.6,2.31a1.18,1.18,0,0,1-1.54-.77c-1.2.33-.66,2.42-3.07,1.54C159.5,36.73,161.18,34.24,159.27,34.13ZM160,41.06c2.93,1.23.9,1.23,3.84,0-0.74,2.08-1.92,3.72-4.6,3.85,1.86,2.64,3.94-.43,6.14,0-1.42-1.49-1.41-.61-0.77-3.08,3.36-.29,3.94,2.2,6.91,2.31a3.64,3.64,0,0,0-.77,2.31c-2.45.46-2.37-1.44-3.84,0a21.5,21.5,0,0,1,1.53,6.94c-1.58-.21-0.72-2.87-2.3-3.08-0.25,3.08-1.25,1.84-5.37,1.54-0.06-3.14,2.84-3.31,6.14-3.08-0.82-2.57-2.33,0-4.61-1.54-2.2.87-2.85,3.3-3.07,6.16-1.72.59,0-6-1.54-3.08-1.1-.95-1.45-2.65-1.53-4.62a2.1,2.1,0,0,0,2.3-1.54c-0.82-2.62-.24,2.14-2.3.77C155.78,41.92,159.52,43.1,160,41.06Zm-7.67-9.24c-2.22,2.22,1.49,2.41.77,5.39-1.57-1.94-1.81,1.93-1.54,2.31-0.73,1.17-3.73-1.85-3.84-3.85C150.31,35.4,148.67,30.93,152.37,31.82Zm-7.67,4.62c-0.41,1.19-.8,0-0.77-0.77a3.6,3.6,0,0,1-2.3.77c0.53,1.52,2,2.05,3.84,2.31-0.2,1.8-3.37.44-3.84,0C141.08,41,144,42,147.76,41.83c1.41,1-4.82.76-5.37,2.31-0.68-2.31-2.8-8.69-1.54-8.47C138.6,32.33,144.88,33.43,144.69,36.44ZM147,50.3a3.63,3.63,0,0,0-.77,2.31,5,5,0,0,1-3.84-.77c-1.46-.53.83-1.2,0.77,0C145.52,52.42,144.63,49.73,147,50.3Zm-8.44-3.08a4.3,4.3,0,0,1,3.07-.77c0,0.75-.94.6-1.54,0.77-0.95,2.49,2.48.59,1.54,3.08Q138,50.84,138.55,47.22Zm1.53,6.93c1.93-.71,5.26-1.48,5.37,1.54C142.95,55.82,140.5,57.48,140.09,54.15Zm6.14,5.39c-0.5,2.31-1.64-.74-3.07,0,0.27-1,1.35-1.21,1.53-2.31-0.65-.14-0.72.3-0.77,0.77-1.93-.33.74-2.2,2.3-1.54C147,57.9,143.93,59,146.23,59.55Zm3.84-4.62c-1.11,1.2-1.61,3-2.3,4.62C146,58.42,146.89,53.6,150.06,54.93Zm0,3.85c-0.63-2.18,1.08-2,.77-3.85,4.1,1.19,5.43-2.4,8.44,3.08C157.42,59.48,153.11,58.49,150.06,58.78Zm3.84,3.08c2.42-.39,3.37-2.27,6.14-2.31,1.07,5.57,1.69,3.27,3.07,7.7-2,1.3-5.37-1.9-4.61,3.08-2,1.53-3.53-.8-4.6.77a3.39,3.39,0,0,1,.77-4.62C152.49,66.23,153.91,65.49,153.9,61.86Zm3.84,12.32c0.9-.12.65-1.4,0.77-2.31,2.21,2,1.33.8,3.84,0,1.28,1.53-.07,1,0,3.08-8,.19-4.49.53-10,0C152.74,72.47,157.11,72.34,157.74,74.18Zm-6.91-9.24c2.19,0.11,1.4,3.21,1.53,5.39-2.9,1.11-1.47-2.12-3.84-1.54C148.17,66.37,150.59,66.75,150.83,64.94Zm0,6.93c-0.78,2.17-3.26-.21-4.61,0C147.16,68.71,149.19,71.43,150.83,71.87Zm-6.91.77c2.42,0.14,4.58.54,4.6,3.08a2.86,2.86,0,0,1-3.84,0c0.56-1.37,1.4-.11,2.3,0,0.22-1.24-.73-1.33-0.77-2.31a2.09,2.09,0,0,0-2.3,1.54C142.79,74.62,144.23,74,143.92,72.64Zm-7.67,35.43c2.63-.17-0.11,2.84,3.07.77-0.31-2.62-2.36-1.27,0-3.08,2.12,0.25,1.33,2.38,0,3.08,0.71,1.34,2.4,1.7,4.6,1.54,0.95,1.08-2.64.42-.77,3.85-2.64.29-5.46-3.19-6.91-1.54C134.78,112.61,137.15,110.12,136.25,108.08Zm-6.14-19.26c1.38-.1,1.62.94,3.07,0.77-0.86,2.43-.07,1.74,0,4.62C131.63,92.95,130.12,91.63,130.11,88.82Zm2.3,25.18h3.07c0.12,2,1.56,3.57.09,5.4,0.1,0.1.1,0.2-.09,0.17,0,0,.06-0.17.09-0.2C135.09,118.89,132.12,117,132.41,114Zm-2.3,31h3.07c-0.28,2,.6,1.48,1.53,1.57-0.11,1.68-1.93,1.67-3.84,1.55,0.15-.62.77-0.79,0.77-1.56C130.34,146.85,130.2,146,130.11,145Zm1.53-17.67c-0.27,1-1.35,1.21-1.53,2.31-3.58-1.23-3.35-4.79.77-5.39C129.88,125.28,129.87,127.12,131.65,127.33Zm2.3-8.47c-0.06,2.76-5.32.91-3.07-.77-2.06-.53-1.48,1.59-2.3,2.31,0.67,2.24,1.15.87,3.07,0.77-2.16,3.23-8.11,2.3-7.67-3.08,2.59,4.66,3.09-3.19,7.67-3.08C131.5,117.21,131.55,119.21,133.95,118.86Zm-8.44-6.16c1.35-.44,4.51.93,4.6-0.77,1.52,2.33-2.89,5.3-6.91,4.62C123.89,115.19,125.06,114.3,125.51,112.7Zm0,27c-0.51,3.7-2,2.45-5.37,2.31C120.94,140.2,123.61,138,125.51,139.66Zm-3.07-16.17c-1.38-.1-1.62.94-3.07,0.77a4.34,4.34,0,0,1-.77-3.08C120.8,121,122.79,121.08,122.44,123.48Zm-4.6,17.72c0.63-2.18-1.08-2-.77-3.85,2.72-.08-0.52,2.42,3.84,1.54C120.23,140,119.75,141.33,117.83,141.2Zm1.54,5.39c-0.63-2.18,1.08-2,.77-3.85,1.12,0.67,3,.61,2.3,3.08,1.91,0.12,2.38-1.21,3.84-1.54-0.33-1.14-1,.3-2.3,0-0.23-1.78,2.22-.86,2.3-2.31,1.48,1.43.61,1.41,3.07,0.77C126.49,144.5,124.63,147.25,119.37,146.59Zm7.67,4.62c1-3.28,3.81.08,6.91-.77C131.91,152.81,129.64,151.28,127,151.22Zm4.56,2.31c0.65-2.26,2.49.46,3.86,0,0-.75-0.93-0.6-1.52-0.77,0.75-1,2-1.54,3-2.31,1.38-.1,2,0.94,3,0.77v2.31C138,154.5,133.6,156.3,131.6,153.53Zm2.35,3.85c-0.26-.44,4.74,7.74-0.77,6.16C134.37,162.42,133.86,159.6,133.95,157.38Zm-8.44,12.33c2.52,2.78.73,0.31,3.07,0-0.32,1.61.53,2,.77,3.08a6.49,6.49,0,0,1,1.53-3.85c0.12-.9,1.4-0.65,2.3-0.77-0.47.68-.93,1.38,0,1.54-0.12.9-1.4,0.65-2.3,0.77-0.16,2.73,3.6,1.52,3.07,4.62-1.12,1.79-2.3-1.5-2.17,1.54-2.62-1.4-3.78.1-6.78,0v-2.31c1-.43,1,1.47,2.17,1.54,1.56-.87-1.42-3.71-3.9-3.08C124,171.75,125.28,171.27,125.51,169.7Zm-3.07,10c1.52,0,1,2.1,3.07,1.54a6.29,6.29,0,0,1-2.3-4.62c1.24,1.32,3.21,1.91,6.14,1.54-1.18,1.06-3.66,2.42-2.3,4.62-0.91,2.08-4,0-5.37,0C121.57,181.42,122.61,181.17,122.44,179.72Zm-0.77,6.93c1.34-1.77,6.82,1.43,7.67,0,1.48,1.88-2,.43-3.07,2.31,2.1,2,6,2.19,8.44,3.85C130.4,193.79,123,191.21,121.67,186.65ZM124,198.2c0.09-1.46,2.54-.53,2.3-2.31-3.3,1.06-2.57,2.67-6.91,1.54a9.42,9.42,0,0,1,10.74-1.54c0.95,2.49-2.48.59-1.54,3.08C126.23,199.53,126.32,197.65,124,198.2Zm12.28,12.32c-2,1.24-7.52-.29-9.21,0,0.78-3.59,4.45-4.26,9.21-3.85C135.74,208.21,133.6,210,136.25,210.53Zm6.14-3.08c-1.18,1.38-4.5.62-4.6,3.08C133.71,208.61,138.91,206.47,142.39,207.45ZM137,212.84c0.12-3.22,3.77-2.89,6.14-3.85C141,210.13,140.77,213.27,137,212.84ZM144,246V239.8c2,0.24,1.43,2.68,3.84,2.31C147.18,245.72,146,244.44,144,246Zm9-12.32v2.31c-2,2-4.22-.64-5.31.77,0.32,0.82,4.24,1.79,3.87.77,2.3,0.51-.72,1.65,0,3.08a5.77,5.77,0,0,1-5.36-1.54c2.11-5.2.55-7.19-3.83-9.24,0,3.31,4.08,2.58,3.07,6.93-6-1.35-7.21-10.11-8.44-13.87-1.06,2.68-3.5.08-3.84-2.31,3.13-2,7.08-3.16,10-5.39,2.3,0.51-.73,1.65,0,3.08,2.72-.39,2.18-3.52,1.53-5.39,3.3,0.34,4.29-2.75,6.91-5.39,12.2,1.42,19-10.69,27.63-3.85,1.81,0,2.26-1.33,4.6-.77,2.27,5.79-4.08,9.13-6.91,12.33-0.9-.13-0.65-1.41-0.77-2.31-2.26,1.07-.24,2.67-3.07,3.85-1.11-.17-0.27-2.3-1.54-2.31a4.21,4.21,0,0,1,3.07-3.08c-2-1.36-2-4.69-2.3-7.7-1.13,3.58.36,7.56-1.53,11.56-2.38-1.59-3.35-4.26-6.14-1.54,2.79-2.87-.57-3.15,0-7.7,0,1.34-3.7,4.42-3.84.77-3.87,1.71,1.88,3.3,3.84,3.85-0.12.9-1.4,0.65-2.3,0.77,0.78,1,.75,2.84,1.54,3.85,2.77-1.55,3.71.08,6.14,0.77-1.55,3-5.62,6.86-10.74,8.47-0.69-1.36-2.13-3.81-3.07-.77-1.91-.12-0.22-2.61,0-3.08-2.86,2.07-2.21.87-2.3-3.08a5.42,5.42,0,0,0-1.53,2.31c-0.13,2.44,2,2.57,1.53,5.39-1.36,1.43-2.24-.34-3.84-0.77-1.93,2.24,4.89,2.25,3.84,6.16-1.6,1.67-2.55-.09-3.9-0.77C150.4,231.7,152,232.53,153,233.64Zm0.9,3.85c1.49-3.39-.42-10.18,2.3-12.32,9.24,1.32,10.44-5.44,18.42-5.39,0,2-.57.94-1.53,0.77-1.14.34,0.3,1,0,2.31-1.79.24-3.17,1.51-4.61,0,0.92,1,.3,1.21,0,2.31,2.87,0.78,4.94-3.2,6.14-1.54-1.63,4.87-11.44,8-15.35,13.1-1-.24-0.64-1.93-0.77-3.08C156.54,234.49,157.3,238.08,153.9,237.49Zm0.77,10.78c0.2-1.8,3.37-.44,3.84,0C157.9,251,155.82,249.16,154.67,248.27ZM147,262.14c3.66-9.17,12.72-9.9,24.56-7.7-1.87,9.86-9.61,11.5-15.35,12.32-2.49-1.33,2-2,.77-4.62-2.84.74-1,6.22-6.14,4.62,0.2,1.6,3.37.21,3.84,1.54,0.49,1.68-2.17,2.45.77,2.31C151.53,271.94,148.93,265.35,147,262.14ZM158.5,279H149.3C149.11,271,158.43,271,158.5,279Zm-9.21.86c2.59-1.23,3.27,3.27,4.6.77,2.59,0.31-2,3,1.54,2.31,0,1.53-2.09,1-1.54,3.08C151.61,284.73,148.76,284,149.3,279.86Zm4.6,7.7c-1.6,2.3-4-1-6.91,0C148.41,283.44,151.32,286.86,153.9,287.56Zm-11.51,1.54a35.17,35.17,0,0,1,10,.77C151.94,293.79,141.72,294.73,142.39,289.1Zm8.44,6.93c0-2.34,2.69-1.92,4.6-2.31C153.8,294.49,152.58,297.7,150.83,296Zm1.53-3c-2.36-1.21,3.4-.08,2.3-3.08h4.61C157.53,292,154.19,291.57,152.37,293.08Zm8.44,6.8c0.17-1.11,2.29-.27,2.3-1.54-2.08-1.74-3.49,3.48-6.14,0,0.39-5.82,3.36-4.69,6.14-8.47,2.17-.64,2,1.09,3.84.77-2.6-3.16,8.37-3.41,12.28-1.54-2.29,3.35-10.34.92-10.74,6.16,2.17,0.12,1.92-2.18,3.07-3.08,1.33,2.43,6.87-1.83,4.6,1.54,3.39-2.34,5.91-4.27,10-3.08C177.71,293.44,171.16,301.51,160.81,299.89Zm55.25-24.65a2.12,2.12,0,0,0,2.3,1.54c-6.25,2.84-20.22,12.22-32.23,8.47-0.14,1.33-8.46,5.14-8.44-.77,9.63-4.2,18.45-9.22,23.79-17.72,7,2.48,11.34-.17,17.65,2.31-1.68,2.57-4.19,2.3-6.14,0a18.62,18.62,0,0,1-3.07,3.08c1.28,2.23,4.17-2.73,6.14,0-1.59,3.26-7.26,4.86-9.21,5.39-1.42-.12-0.47-2.61-1.54-3.08,1.41,1.09-4.5,5.4,0,4.62-0.18,1.36-1.32,1.76-3.07,1.54,1.23,1.92,4.53-.53,4.6-2.31,1.11,0.17.27,2.3,1.54,2.31,0-2.92,6.91-3.94,8.44-7.7,1,0.77,2.86.73,3.07,2.31C219.29,276.34,218.36,273.37,216.06,275.24Zm4.6-9.25c1.75,0.56,3.92.69,5.37,1.54C225.51,268.75,219.09,269.43,220.66,266Zm6.34,6.93c-1-1.42-5.2,1.07-4-2.93h4v2.93Zm-8.64-9.25c-0.57,2.38,2.65.94,1.54,3.85-1.92-2.54-10,1.24-8.44-3.08,0.87,0.15.43,0.77,0,.77,1.11,2.28,1.61-2.4,2.3-3.08,1.2,2.47,4.34-.35,7.67-1.54,2,2.08,5.89,2.31,6.14,6.16A69.26,69.26,0,0,1,218.36,263.68Zm9.21-2.31a3.6,3.6,0,0,0-2.3-.77c0.06-5.08,5.61-4.64,6.91-8.47,1.52,2-.75,3.12.77,6.16C231.64,259.81,227.6,258.58,227.57,261.37Zm6.91,3.08c-2.15-.77-0.08-3.56.77-3.85,1,0.24.64,1.93,0.77,3.08A1.18,1.18,0,0,0,234.48,264.45Zm3.07-36.21c-1.39-.91-0.6-4-1.54-5.39C239,222.69,240.1,227.34,237.55,228.25Zm-0.77,12.32c0.71-4,.17-6.93,3.07-11.55,0.89,4.24,3.21,7,3.07,12.32C240.45,241.51,239.67,240,236.78,240.57Zm1.53,3.85c3.71-.13,4,3.2,4.6,6.16C241.34,248.58,237.82,248.51,238.31,244.42Z" transform="translate(0 -0.23)"/></svg>