<svg id="Layer_1" data-name="Layer 1" xmlns="http://www.w3.org/2000/svg" viewBox="0 0 700 215"><defs><style>.cls-1{fill:#e0b659;}</style></defs><title>caption-bg</title><path class="cls-1" d="M4.21,198.25c0-7,5.68-7,5.68-14s-5.8-7-5.8-14,3.27-7,3.27-14-6.46-7-6.46-14-0.91-7-.91-14,4.76-7,4.76-14-2.08-7-2.08-14,0.93-7,.93-14,4.88-7,4.88-14-3.92-7-3.92-14,2.92-7,2.92-14-6.68-7-6.68-14,8.41-7,8.41-14c0-6.44,1-16,7.39-16,7,0,7,6,13.91,6s7,3.06,13.91,3.06,7-6.48,13.91-6.48,7,6,13.91,6,7-5,13.91-5,7-.25,13.91-0.25,7,5,13.91,5,7-.25,13.91-0.25,7-1.35,13.91-1.35,7,0.64,13.91.64,7-2.4,13.91-2.4,7-4.52,13.91-4.52S190.47,4,197.42,4s7-2.92,13.91-2.92,7,8.75,13.91,8.75S232.2,0,239.15,0s7,8.93,13.91,8.93S260,8,267,8,273.93,3,280.89,3s7,3.24,13.91,3.24,7,2.19,13.91,2.19,7,1.82,13.91,1.82,7-4.54,13.91-4.54,7,3.77,13.91,3.77,7-9.15,13.91-9.15,7,1,13.91,1,7,2.39,13.91,2.39,7-2.32,13.91-2.32S413,1.2,420,1.2s7,4.55,13.91,4.55,7-4.17,13.91-4.17,7,7,13.91,7,7-7.16,13.91-7.16,7,2.75,13.91,2.75,7-.13,13.91-0.13,7,4.28,13.91,4.28,7,0.74,13.91.74,7-.13,13.91-0.13,7-7.37,13.92-7.37,7,0.76,13.91.76,7,4,13.91,4,7-4.27,13.91-4.27,7,8,13.92,8,7-.69,13.91-0.69,7-7.09,13.92-7.09,7,0.93,13.91.93,7-.63,13.92-0.63,7-.3,13.92-0.3c6.42,0,11.5,8.14,11.5,14.57,0,7-4.15,7-4.15,14s8.08,7,8.08,14-6.06,7-6.06,14,1.74,7,1.74,14,3.31,7,3.31,14,1.21,7,1.21,14-6.54,7-6.54,14-1.84,7-1.84,14,6.89,7,6.89,14-0.18,7-.18,14,1,7,1,14-4.85,7-4.85,14,2.48,7,2.48,14c0,6.44-6.17,11.82-12.59,11.82-7,0-7-1.89-13.91-1.89s-7-.87-13.91-0.87-7,.22-13.91.22-7,3.47-13.91,3.47-7,.15-13.91.15-7,2.44-13.91,2.44-7-2.93-13.91-2.93-7-1.73-13.91-1.73-7-1.35-13.91-1.35-7-1.68-13.91-1.68H531.38c-7,0-7,1.58-13.91,1.58s-7-2.61-13.91-2.61-7,6.15-13.91,6.15-7-5.63-13.91-5.63-7,9.62-13.91,9.62-7-3.92-13.91-3.92-7-3.84-13.91-3.84-7,2.09-13.91,2.09-7-2.51-13.91-2.51-7,3-13.91,3-7-1.84-13.91-1.84-7-.77-13.91-0.77-7-.7-13.91-0.7-7,2.76-13.91,2.76-7,3.39-13.91,3.39-7-6.62-13.91-6.62-7,1.54-13.91,1.54-7,2.73-13.91,2.73-7-4.18-13.91-4.18-7-.37-13.91-0.37-7,6.81-13.91,6.81-7,.6-13.91.6-7-7.85-13.91-7.85-7,7.37-13.91,7.37-7,1.67-13.91,1.67-7-3.25-13.91-3.25-7,.87-13.91.87-7-1-13.92-1-7-1.16-13.91-1.16-7-1.86-13.91-1.86-7-2.19-13.91-2.19-7,8.52-13.92,8.52-7-8.8-13.91-8.8-7,1.92-13.92,1.92-7,5.14-13.91,5.14-7,1.56-13.92,1.56-7-1.63-13.92-1.63C10.18,212.43,4.21,204.69,4.21,198.25Z"/></svg>