<svg id="Layer_1" data-name="Layer 1" xmlns="http://www.w3.org/2000/svg" viewBox="0 0 700 300"><defs><style>.cls-1{fill:#e0b659;}</style></defs><title>caption-bg-large</title><path class="cls-1" d="M4.21,273.56c0-13.66,5.68-13.66,5.68-27.32S4.1,232.58,4.1,218.91s3.26-13.66,3.26-27.33S0.91,177.92.91,164.26,0,150.6,0,136.93s4.76-13.67,4.76-27.33S2.68,95.94,2.68,82.28,3.6,68.61,3.6,54.94,8.48,41.27,8.48,27.59C8.48,15.44,14.86,5.15,27,5.15c13.46,0,13.46,2.91,26.92,2.91S67.39,1.39,80.85,1.39s13.46,8.4,26.92,8.4,13.46-8.58,26.92-8.58,13.46,6,26.92,6,13.46,3.05,26.92,3.05S202,3.8,215.46,3.8s13.46,6,26.92,6,13.46-4.94,26.91-4.94,13.46-.25,26.92-0.25,13.46,4.94,26.92,4.94,13.46-.25,26.92-0.25S363.52,7.93,377,7.93s13.46,0.63,26.92.63,13.46-2.39,26.93-2.39,13.46-4.51,26.92-4.51,13.46,2.76,26.93,2.76,13.46-2.91,26.93-2.91,13.46,8.72,26.93,8.72S552,0.41,565.45.41s13.47,8.9,26.93,8.9,13.46-1,26.92-1,13.47-4.89,26.94-4.89,13.47,3.23,26.94,3.23c12.15,0,18.73,8.77,18.73,20.92,0,13.66-1.82,13.66-1.82,27.32s4.53,13.66,4.53,27.33-3.76,13.66-3.76,27.33S700,123.24,700,136.9s-1,13.66-1,27.32-2.38,13.67-2.38,27.33S699,205.22,699,218.88s0.22,13.67.22,27.34-4.53,13.67-4.53,27.34c0,12.15-9.31,25.62-21.46,25.62-13.46,0-13.46-7-26.92-7s-13.46,7.14-26.92,7.14-13.46-2.74-26.92-2.74-13.46.13-26.92,0.13-13.46-4.27-26.92-4.27-13.46-.73-26.92-0.73-13.46.13-26.92,0.13-13.46,7.35-26.92,7.35-13.46-.76-26.91-0.76-13.46-4-26.92-4-13.46,4.25-26.92,4.25-13.46-7.94-26.92-7.94-13.46.69-26.92,0.69-13.46,7.07-26.92,7.07-13.46-.93-26.93-0.93-13.46.63-26.92,0.63-13.46.3-26.93,0.3-13.46-3-26.93-3-13.46-4.14-26.93-4.14-13.46,8.07-26.92,8.07-13.47-6.06-26.93-6.06-13.46,1.73-26.92,1.73S67.43,298.39,54,298.39,40.49,299.59,27,299.59C14.86,299.59,4.21,285.71,4.21,273.56Z"/></svg>