<svg id="Layer_1" data-name="Layer 1" xmlns="http://www.w3.org/2000/svg" viewBox="0 0 365 235"><defs><style>.cls-1{fill:#aa8035;}.cls-2{fill:#eaeaea;}.cls-3{fill:none;stroke:#eaeaea;stroke-linecap:round;stroke-linejoin:round;stroke-width:2px;}</style></defs><title>clay-pile</title><path class="cls-1" d="M204.26,3.8c-2.38.42-4.48,3.25-6.87,3.58s-4.92-.32-7.32-0.06-4.8.54-7.2,0.75-4.92-1.07-7.33-.89-4.83.1-7.23,0.28-4.82.4-7.22,0.59-4.59,2.93-7,3.16-4.8.22-7.19,0.51-5-.75-7.34-0.37-4.48,2.25-6.84,2.73-5.35-1.64-7.68-1-4.66,1.56-7,2.33-3.69,3.9-5.92,4.83-4.47,1.61-6.63,2.72-4.05,2.43-6.13,3.71-3.85,2.64-5.79,4.11-4.37,2.1-6.21,3.71-4.54,2.17-6.27,3.88-1.34,5.33-3,7.12-4.75,2.15-6.32,4-2.6,4.06-4.11,6-2,4.45-3.49,6.38-2.5,4.06-3.91,6-4.62,2.58-6,4.56S51.09,76,49.75,78s-0.7,5.31-2,7.31-2.7,4-4,6-2.34,4.21-3.65,6.21-4,3.11-5.34,5.11-1.92,4.5-3.24,6.48-2.9,3.86-4.23,5.82-3.26,3.61-4.61,5.55-3,3.76-4.42,5.65-2.77,4-4,6-1.51,4.75-2.6,6.76c-1.17,2.17-2.14,4.31-3,6.41-1,2.27-1,4.71-1.64,6.89-0.72,2.36-2.24,4.34-2.63,6.6-0.42,2.42-1.26,4.73-1.33,7A47.81,47.81,0,0,0,2.86,173c0.3,2.39.27,5,.94,7.26a48.33,48.33,0,0,0,2.63,6.85c1,2.14,2.75,4.07,4.08,6.06s2.14,4.52,3.71,6.33,4.77,2.06,6.54,3.69,2.35,4.64,4.26,6.1,5.72,0.06,7.74,1.35,3.29,3.6,5.39,4.73,3.64,3.37,5.81,4.37,4.66,1.26,6.88,2.11,4.21,2.47,6.47,3.2,4.87,0.41,7.16,1,4.51,1.76,6.82,2.23,4.7,1.15,7,1.49,4.79,0.86,7.12,1.05,4.89-.63,7.21-0.59,4.74-1.19,7.1-1.35,5,1.84,7.38,1.5,4.7-1.33,7-1.84,4.43-2,6.72-2.7,5,0,7.29-.82,4.59-1.53,6.81-2.41,3.52-4,5.71-4.93,4.25-2.12,6.42-3.13,5.48,0.41,7.63-.63,3.19-4.37,5.33-5.42,4-2.62,6.2-3.65,4.8-1.06,7-2.06,4.24-2.27,6.42-3.21,4.47-1.49,6.65-2.34,4.52-1.28,6.73-2.05,4.62-.89,6.86-1.59,4.66-.62,6.92-1.26,3.76-4.07,6-4.64,5.25,1.84,7.53,1.33,4.4-1.64,6.7-2.11,4.25-2.65,6.56-3.07,4.53-1.36,6.84-1.74,4.73-.2,7-0.54,4.68-.39,7-0.71,4.76,0.28,7.08,0,4.65-.52,7-0.8,4.58-1.16,6.9-1.43,4.77,0.45,7.08.19,4.72-1,7-1.36,4.55-1.9,6.82-2.29,4.64-1.09,6.89-1.57,4.89-.1,7.11-0.67c2.37-.61,4.57-1.48,6.75-2.17,2.34-.74,4.48-1.69,6.61-2.51,2.3-.89,5-0.58,7.07-1.56,2.22-1.06,4.62-1.79,6.57-3a65.62,65.62,0,0,0,6.12-3.9c1.94-1.49,1.56-5.45,3.17-7.09a44.54,44.54,0,0,0,4.78-4.94c1.4-1.94,3.57-3.25,4.63-5.35s1.29-4.49,2-6.76,1.9-4.29,2.33-6.66-0.87-4.72-.69-7.13,2.14-4.55,2.09-7-2.12-4.51-2.33-6.92,2.4-5,2-7.37-1.62-4.5-2.08-6.88,0.37-4.9-.18-7.25-4-3.84-4.61-6.17-0.76-4.64-1.43-6.95c-0.76-2.61-.57-4.92-1.16-6.72a21.38,21.38,0,0,0-2.78-6.16c-1.12-1.54-2.14-3.63-4.24-5.42-1.45-1.24-3.47-2.41-5.61-4-2.43-1.12-5.27-1.35-7.64-2.39s-4.84-2.19-7.24-3.07c-2.56-.94-5.23-0.84-7.7-1.41a33.84,33.84,0,0,0-7.53-1.28c-2.65,0-4.77.82-7.3,1.66s-4.73,1.7-6.71,2.44c-2.64,1-5,1.34-6.84,2.12-2.68,1.11-4.63,2.47-6.55,3.17-2.28.83-5-1.82-7.66-1.58a43.77,43.77,0,0,1-6.94.21c-2-.11-4.36,0-7.14-0.24-2.58-.25-5.58,1.31-7.84.24a32,32,0,0,1-6.82-4,54.05,54.05,0,0,1-5.26-5.71c-1.62-1.86-2.25-4.66-3.78-6.71s-3.19-3.9-4.64-6-3.56-3.67-5-5.68-3.41-3.7-5-5.57-2.41-4.61-4.22-6.19c-2-1.74-4.33-2.25-6.54-3.26S206.87,3.8,204.26,3.8Z"/><path class="cls-2" d="M103.84,201.79A65.83,65.83,0,0,1,96.26,203a56,56,0,0,1-7.39-.11,55.17,55.17,0,0,1-7.34-.8,55.33,55.33,0,0,1-7.14-1.91A56.71,56.71,0,0,1,67.69,197a61,61,0,0,1-6.53-3.44,62.85,62.85,0,0,1-5.63-4.76,68.39,68.39,0,0,1-5.68-4.7,64.88,64.88,0,0,1-4.65-5.73,59.37,59.37,0,0,1-4.09-6.13,42.64,42.64,0,0,1-2.92-6.74,20.32,20.32,0,0,1-1.67-6.84c1.25,1.66,2.34,3.45,3.83,5.5,1.28,1.75,3,3.33,4.54,5.26,1.36,1.74,2.78,3.56,4.37,5.37s2.86,3.55,4.56,5.22,3.49,2.93,5.31,4.45,3.26,3.26,5.22,4.61,3.87,2.48,5.94,3.63,4.24,1.71,6.42,2.65,4.19,1.76,6.45,2.5,4.36,1.26,6.69,1.79,4.45,0.89,6.81,1.22S101.45,201.64,103.84,201.79Z"/><path class="cls-3" d="M103.84,201.79A65.83,65.83,0,0,1,96.26,203a56,56,0,0,1-7.39-.11,55.17,55.17,0,0,1-7.34-.8,55.33,55.33,0,0,1-7.14-1.91A56.71,56.71,0,0,1,67.69,197a61,61,0,0,1-6.53-3.44,62.85,62.85,0,0,1-5.63-4.76,68.39,68.39,0,0,1-5.68-4.7,64.88,64.88,0,0,1-4.65-5.73,59.37,59.37,0,0,1-4.09-6.13,42.64,42.64,0,0,1-2.92-6.74,20.32,20.32,0,0,1-1.67-6.84c1.25,1.66,2.34,3.45,3.83,5.5,1.28,1.75,3,3.33,4.54,5.26,1.36,1.74,2.78,3.56,4.37,5.37s2.86,3.55,4.56,5.22,3.49,2.93,5.31,4.45,3.26,3.26,5.22,4.61,3.87,2.48,5.94,3.63,4.24,1.71,6.42,2.65,4.19,1.76,6.45,2.5,4.36,1.26,6.69,1.79,4.45,0.89,6.81,1.22S101.45,201.64,103.84,201.79Z"/></svg>