<svg id="Layer_1" data-name="Layer 1" xmlns="http://www.w3.org/2000/svg" viewBox="0 0 300 194"><defs><style>.cls-1{fill:#eaeaea;}.cls-2{fill:#aa8035;}</style></defs><title>clay-rectangle</title><path class="cls-1" d="M271.8,138.26c0-4.8-3.47-4.76-3.34-7.23s3.64-4.93,3.65-10-2.48-7.58-2.64-10.08a88.06,88.06,0,0,1-.72-9.6c0-2.45-.78-4.29-3.22-4.3a4.5,4.5,0,0,0-4.65,4.28c0,5.07,1,7.6,1.18,10.08s1.61,4.82,1.61,9.59-3.14,7.08-3.28,9.54,0.93,5.1.93,10.13a15.89,15.89,0,0,1-1.46,7.62c-0.89,2.53.47,1.89-1.81,4.24s-1.43,1.95-4.26,3.53c-2.19,1.22-2.76-2.17-7.16-2.17-4.83,0-7.22,4.1-9.63,4.14s-4.79-.82-9.55-0.82c-9.59,0-9.59-2.39-19.18-2.39-4.79,0-7.17.39-9.56,0.37s-4.82,2.57-9.64,2.56c-2.45,0-4.25.17-4.25,2.62s1.79,2.44,4.24,2.44c4.78,0,7.16,2,9.56,2s4.81-.88,9.63-0.88c9.59,0,9.59.3,19.19,0.3,4.83,0,7.22-.58,9.64-0.62s4.78,1.65,9.54,1.66a20.46,20.46,0,0,1,7,.86,17.55,17.55,0,0,0,6,1c2.68,0,6.68-2,10-5.41,6.19-6.34,7.25-10.39,5.78-14.38C274.72,145.34,271.79,141.23,271.8,138.26Z"/><path class="cls-2" d="M295.5,120.78c-0.34-8.49-.23-8.49-0.58-17s0.23-8.51-.12-17,0-8.51-.3-17-0.76-8.48-1.11-17,1-8.55.75-17a35.48,35.48,0,0,0-4.23-17.31c-2.92-5.06-8.7-7.91-13.75-10.84C271.29,4.77,266,.41,259.91.4c-8.5.13-8.47,1.75-17,1.93s-8.49.57-17,.75-8.48.83-17,1-8.53-1.54-17-1.36-8.48.73-17,.91-8.51-.12-17,0.06S149.49,4.8,141,5s-8.54-1.82-17-1.64-8.46,2-17,2.17S98.47,4.07,90,4.25,81.53,7,73,7.22s-8.5.6-17,.77S47.48,5.85,39,6C32.9,6,26.21,7,21.31,9.79c-5.05,2.92-6.5,9.92-9.43,15s-7.5,9.52-7.51,15.59c-0.27,8.14.34,8.15,0,16.29s1,8.2.66,16.33-1.3,8.1-1.67,16.23,0.84,8.19.47,16.33-3.37,8-3.74,16.15S1,129.87.64,138s0.4,8.18.13,16.32a33.16,33.16,0,0,0,4.1,16.72c2.91,5.06,6.64,10.25,11.68,13.18a35.27,35.27,0,0,0,17.24,4.22c8.68,0.15,8.74-2.11,17.42-1.91s8.61,3.57,17.3,3.77,8.72-.93,17.41-0.73,8.73-2,17.42-1.82,8.64,2.06,17.33,2.27,8.67,0.61,17.35.81,8.74-1.82,17.42-1.62,8.7,0,17.38.2,8.7-.05,17.39.15,8.61,3.1,17.3,3.3,8.74-1.7,17.43-1.5,8.66,2,17.35,2.21,8.74-1.8,17.44-1.65c6.24,0,13.54.07,19.29-3.67,5.44-3.53,7.9-10.7,11.44-16.12,3.76-5.74,9.54-11.25,9.55-17.5-0.25-8.49-1.59-8.46-1.94-16.95S295.85,129.28,295.5,120.78Zm-25.79,41c-3.35,3.43-7.36,5.42-10,5.41a17.55,17.55,0,0,1-6-1,20.46,20.46,0,0,0-7-.86c-4.75,0-7.15-1.69-9.54-1.66s-4.81.63-9.64,0.62c-9.59,0-9.6-.3-19.19-0.3-4.82,0-7.22.89-9.63,0.88s-4.78-2-9.56-2c-2.45,0-4.25,0-4.24-2.44s1.8-2.63,4.25-2.62c4.81,0,7.22-2.58,9.64-2.56s4.77-.38,9.56-0.37c9.59,0,9.59,2.39,19.18,2.39,4.76,0,7.17.86,9.55,0.82s4.8-4.14,9.63-4.14c4.4,0,5,3.39,7.16,2.17,2.83-1.59,2.08-1.3,4.26-3.53s0.91-1.71,1.81-4.24a15.89,15.89,0,0,0,1.46-7.62c0-5-1.06-7.65-.93-10.13s3.27-4.74,3.28-9.54-1.45-7.14-1.61-9.59-1.19-5-1.18-10.08a4.5,4.5,0,0,1,4.65-4.28c2.44,0,3.23,1.85,3.22,4.3a88.06,88.06,0,0,0,.72,9.6c0.16,2.49,2.64,5,2.64,10.08s-3.52,7.49-3.65,10,3.35,2.43,3.34,7.23c0,3,2.92,7.08,3.69,9.17C277,151.42,275.9,155.47,269.71,161.81Z"/></svg>