<svg id="Layer_1" data-name="Layer 1" xmlns="http://www.w3.org/2000/svg" viewBox="0 0 365 235"><defs><style>.cls-1{fill:#aa8035;}.cls-2{fill:#eaeaea;}.cls-3{fill:none;stroke:#eaeaea;stroke-linecap:round;stroke-linejoin:round;}.cls-3,.cls-4{stroke-width:2px;}.cls-4{fill:#d9af51;stroke:#d9af51;stroke-miterlimit:10;fill-rule:evenodd;}</style></defs><title>clay-pile-withSand</title><path class="cls-1" d="M204.26,3.8c-2.38.42-4.48,3.25-6.87,3.58s-4.92-.32-7.32-0.06-4.8.54-7.2,0.75-4.92-1.07-7.33-.89-4.83.1-7.23,0.28-4.82.4-7.22,0.59-4.59,2.93-7,3.16-4.8.22-7.19,0.51-5-.75-7.34-0.37-4.48,2.25-6.84,2.73-5.35-1.64-7.68-1-4.66,1.56-7,2.33-3.69,3.9-5.92,4.83-4.47,1.61-6.63,2.72-4.05,2.43-6.13,3.71-3.85,2.64-5.79,4.11-4.37,2.1-6.21,3.71-4.54,2.17-6.27,3.88-1.34,5.33-3,7.12-4.75,2.15-6.32,4-2.6,4.06-4.11,6-2,4.45-3.49,6.38-2.5,4.06-3.91,6-4.62,2.58-6,4.56S51.09,76,49.75,78s-0.7,5.31-2,7.31-2.7,4-4,6-2.34,4.21-3.65,6.21-4,3.11-5.34,5.11-1.92,4.5-3.24,6.48-2.9,3.86-4.23,5.82-3.26,3.61-4.61,5.55-3,3.76-4.42,5.65-2.77,4-4,6-1.51,4.75-2.6,6.76a66.51,66.51,0,0,0-3,6.41c-1,2.27-1,4.71-1.64,6.89-0.72,2.36-2.24,4.34-2.63,6.6-0.42,2.42-1.26,4.73-1.33,7a47.81,47.81,0,0,0-.2,7.21c0.3,2.39.27,5,.94,7.26a48.33,48.33,0,0,0,2.63,6.85c1,2.14,2.75,4.07,4.08,6.06s2.14,4.52,3.71,6.33,4.77,2.06,6.54,3.69,2.35,4.64,4.26,6.1,5.72,0.06,7.74,1.35,3.29,3.6,5.39,4.73,3.64,3.37,5.81,4.37,4.66,1.26,6.88,2.11,4.21,2.47,6.47,3.2,4.87,0.41,7.16,1,4.51,1.76,6.82,2.23,4.7,1.15,7,1.49,4.79,0.86,7.12,1.05,4.89-.63,7.21-0.59,4.74-1.19,7.1-1.35,5,1.84,7.38,1.5,4.7-1.33,7-1.84,4.43-2,6.72-2.7,5,0,7.29-.82,4.59-1.53,6.81-2.41,3.52-4,5.71-4.93,4.25-2.12,6.42-3.13,5.48,0.41,7.63-.63,3.19-4.37,5.33-5.42,4-2.62,6.2-3.65,4.8-1.06,7-2.06,4.24-2.27,6.42-3.21,4.47-1.49,6.65-2.34,4.52-1.28,6.73-2.05,4.62-.89,6.86-1.59,4.66-.62,6.92-1.26,3.76-4.07,6-4.64,5.25,1.84,7.53,1.33,4.4-1.64,6.7-2.11,4.25-2.65,6.56-3.07,4.53-1.36,6.84-1.74,4.73-.2,7-0.54,4.68-.39,7-0.71,4.76,0.28,7.08,0,4.65-.52,7-0.8,4.58-1.16,6.9-1.43,4.77,0.45,7.08.19,4.72-1,7-1.36,4.55-1.9,6.82-2.29,4.64-1.09,6.89-1.57,4.89-.1,7.11-0.67c2.37-.61,4.57-1.48,6.75-2.17,2.34-.74,4.48-1.69,6.61-2.51,2.3-.89,5-0.58,7.07-1.56a70,70,0,0,0,6.57-3,65.62,65.62,0,0,0,6.12-3.9c1.94-1.49,1.56-5.45,3.17-7.09a44.54,44.54,0,0,0,4.78-4.94c1.4-1.94,3.57-3.25,4.63-5.35s1.29-4.49,2-6.76,1.9-4.29,2.33-6.66-0.87-4.72-.69-7.13,2.14-4.55,2.09-7-2.12-4.51-2.33-6.92,2.4-5,2-7.37-1.62-4.5-2.08-6.88,0.37-4.9-.18-7.25-4-3.84-4.61-6.17-0.76-4.64-1.43-6.95c-0.76-2.61-.57-4.92-1.16-6.72a21.38,21.38,0,0,0-2.78-6.16C348,58.9,347,56.81,344.92,55c-1.45-1.24-3.47-2.41-5.61-4-2.43-1.12-5.27-1.35-7.64-2.39s-4.84-2.19-7.24-3.07c-2.56-.94-5.23-0.84-7.7-1.41a33.84,33.84,0,0,0-7.53-1.28c-2.65,0-4.77.82-7.3,1.66s-4.73,1.7-6.71,2.44c-2.64,1-5,1.34-6.84,2.12-2.68,1.11-4.63,2.47-6.55,3.17-2.28.83-5-1.82-7.66-1.58a43.77,43.77,0,0,1-6.94.21c-2-.11-4.36,0-7.14-0.24-2.58-.25-5.58,1.31-7.84.24a32,32,0,0,1-6.82-4,54,54,0,0,1-5.26-5.71c-1.62-1.86-2.25-4.66-3.78-6.71s-3.19-3.9-4.64-6-3.56-3.67-5-5.68-3.41-3.7-5-5.57-2.41-4.61-4.22-6.19c-2-1.74-4.33-2.25-6.54-3.26S206.87,3.8,204.26,3.8Z"/><path class="cls-2" d="M103.84,201.79A65.83,65.83,0,0,1,96.26,203a56,56,0,0,1-7.39-.11,55.17,55.17,0,0,1-7.34-.8,55.33,55.33,0,0,1-7.14-1.91,56.71,56.71,0,0,1-6.7-3.18,61,61,0,0,1-6.53-3.44,62.85,62.85,0,0,1-5.63-4.76,68.39,68.39,0,0,1-5.68-4.7,64.88,64.88,0,0,1-4.65-5.73,59.37,59.37,0,0,1-4.09-6.13,42.64,42.64,0,0,1-2.92-6.74,20.32,20.32,0,0,1-1.67-6.84c1.25,1.66,2.34,3.45,3.83,5.5,1.28,1.75,3,3.33,4.54,5.26,1.36,1.74,2.78,3.56,4.37,5.37s2.86,3.55,4.56,5.22,3.49,2.93,5.31,4.45,3.26,3.26,5.22,4.61,3.87,2.48,5.94,3.63a68.15,68.15,0,0,0,6.42,2.65c2.18,0.94,4.19,1.76,6.45,2.5s4.36,1.26,6.69,1.79,4.45,0.89,6.81,1.22S101.45,201.64,103.84,201.79Z"/><path class="cls-3" d="M103.84,201.79A65.83,65.83,0,0,1,96.26,203a56,56,0,0,1-7.39-.11,55.17,55.17,0,0,1-7.34-.8,55.33,55.33,0,0,1-7.14-1.91,56.71,56.71,0,0,1-6.7-3.18,61,61,0,0,1-6.53-3.44,62.85,62.85,0,0,1-5.63-4.76,68.39,68.39,0,0,1-5.68-4.7,64.88,64.88,0,0,1-4.65-5.73,59.37,59.37,0,0,1-4.09-6.13,42.64,42.64,0,0,1-2.92-6.74,20.32,20.32,0,0,1-1.67-6.84c1.25,1.66,2.34,3.45,3.83,5.5,1.28,1.75,3,3.33,4.54,5.26,1.36,1.74,2.78,3.56,4.37,5.37s2.86,3.55,4.56,5.22,3.49,2.93,5.31,4.45,3.26,3.26,5.22,4.61,3.87,2.48,5.94,3.63a68.15,68.15,0,0,0,6.42,2.65c2.18,0.94,4.19,1.76,6.45,2.5s4.36,1.26,6.69,1.79,4.45,0.89,6.81,1.22S101.45,201.64,103.84,201.79Z"/><path class="cls-4" d="M182.1,11c0.21,0.21,1.13-.36.74-0.74C182.64,10.07,181.72,10.64,182.1,11ZM132.92,22.94c-1,0-1-1-2.24-.74C129.53,24,133.22,24.38,132.92,22.94Zm12.67,0.74c-0.2-.2-1.13.36-0.75,0.75C145,24.63,146,24.07,145.59,23.68Zm44.71,3c-1.48-1.55-3.19,0-3.72,1.49C187.69,29.33,190.83,29.24,190.3,26.66ZM176.89,37.83c0.41-1.78,2.78-5.4,0-6C176.24,34.55,173.21,36.63,176.89,37.83Zm35.77-.74c0.14,2.09,1.29,3.17,3.73,3,1-1,.73-3.23.74-5.21C214.29,34.25,214.85,37,212.66,37.08Zm-101.35.74h-1.49v1.49h1.49V37.83Zm5.22,0.75h-2.23a4.82,4.82,0,0,0-.75,3.72h3V38.57Zm64.09,1.49c-6-3.52-1.74,6.35,0,0h0Zm66.76,59.26c-0.21-.21-1.13.36-0.75,0.74C246.83,100.27,247.76,99.7,247.37,99.32Zm-78-14c0-1.48,2-.95,1.49-3-1.61-.62-2.54-1.93-5.21-1.49C166.3,82.93,167.37,84.59,169.42,85.28ZM326.49,53.79c2,0.22,2.44-1,2.23-3C326.76,50.58,326.28,51.84,326.49,53.79ZM232,43c-0.23,1-1.06,1.42-.74,3h3C234.48,44.07,234,42.81,232,43ZM201.72,19c2.38-.44,2.31,1.4,3.72,0C206.27,14.69,201.37,15.89,201.72,19Zm47.14,89.26c0.21,0.2,1.13-.36.75-0.75C249.4,107.3,248.47,107.87,248.86,108.25ZM223.09,49c-0.14-1.1-1.81-.68-3-0.74C218.52,51,223.9,51.61,223.09,49ZM167.18,92h3c1.15-3-2.53-4.84-3.73-3C167.54,89.13,167.12,90.8,167.18,92Zm11.94-42.24v1.49h2.24C181.46,49.89,180.62,49.49,179.12,49.74Zm-14.18,43c0-1,1.31-.68,1.49-1.49-1.06-.18-1.26-1.23-2.23-1.49C163.23,90.73,163.21,92.51,164.95,92.72ZM224.58,52c0.84-.08,1.16,1.08,1.49,0A0.75,0.75,0,0,0,224.58,52Zm73,0.74c-1.06,1.09-1.09,2.88,1.49,2.24A2.05,2.05,0,0,0,297.61,52.72Zm11.18,1.49h1.49V52.72h-1.49v1.49ZM74,55.7A3.53,3.53,0,0,1,71.81,55C70,56.26,70.3,59.2,73.3,59.42A4.83,4.83,0,0,0,74,55.7Zm134.14,0a3.64,3.64,0,0,0-4.47,0c-0.36,2.34.93,3,2.24,3.72C206.62,58.1,209,58.47,208.19,55.7Zm11.92,0c-0.95,0-1-1-2.23-.75v2.23h1.49C219.36,56.44,220,56.3,220.11,55.7Zm3.73,4.46c0.17,1.41-.84,1.64-0.74,3,2.14,1.92,5,.06,5.21-2.23-2.66-.07-2.69-2.78-5.21-3-0.32,1.42-1.61,1.87-1.49,3.72C223.07,61.88,223.08,60.65,223.83,60.17Zm2.23-3.72h-1.49v1.49h1.49V56.44Zm-16.39,3.72h-1.49c0,0.75-.61.89-0.75,1.49C208.61,61.58,210,61.75,209.68,60.17Zm61.11,1.49c-0.25-.6-2-0.9-2.24,0C268.06,63.38,271.46,63.26,270.79,61.66Zm-127.43.74a0.75,0.75,0,0,0,1.49,0C144,62.47,143.68,61.32,143.35,62.4Zm68.56,3.72a2.05,2.05,0,0,0-1.49-2.23C209.36,65,209.33,66.77,211.91,66.12Zm74.52-1.49c-1,0-1-1-2.23-.75C283,65.72,286.73,66.08,286.43,64.63Zm-59.62,1.49c-3.31-.58-4.76.7-4.47,3.72C225.39,70.15,227,69.08,226.82,66.12Zm79,2.23h-3A1.59,1.59,0,1,0,305.81,68.36Zm25.34,1.49c0,0.41.6,0.84,0.75,0C331.89,69.43,331.29,69,331.15,69.85ZM80,72.08c0.52-2.58-2.61-2.67-3.73-1.49A3.49,3.49,0,0,0,77,72.82C78.44,73,78.67,72,80,72.08Zm38.75-1.49c-0.2-.21-1.13.36-0.74,0.74C118.22,71.54,119.14,71,118.76,70.59Zm104.33,1.49v1.49h2.23C225.42,72.23,224.59,71.83,223.09,72.08Zm-11.93,6.7c-0.17.46,1.13,1.6,1.49,1.49C214.62,79.67,212.18,76.08,211.16,78.78Zm140.85,0c0-.41-0.6-0.84-0.75,0C351.27,79.19,351.87,79.63,352,78.78Zm-123,3v-3h-3Q225.2,82.63,229.05,81.76Zm69.3-3c-3.24-.3-4.13.6-3,3C297.71,82.1,298.7,81.11,298.36,78.78Zm-26.08,3V84C274.45,85.09,274.45,80.66,272.28,81.76Zm-60.36,1.49c0-.41-0.61-0.85-0.75,0C211.16,83.66,211.77,84.09,211.91,83.25ZM326.68,84v2.23C328.85,87.32,328.85,82.9,326.68,84ZM290.9,93.67c0.58-.17,1.47,0,1.49-0.75C291.82,93.09,290.93,92.95,290.9,93.67Zm-77.5,1.49c0.13-1.62-2.64-.34-3.73-0.75C209,96.34,213.89,98.07,213.4,95.16Zm63.35-.75c-0.21-.2-1.13.36-0.75,0.75C276.21,95.37,277.13,94.8,276.75,94.42Zm53.65,2.23h-1.49v1.49h1.49V96.65Zm-9.69.75h-3c-0.15,2.13-.09,4.06,2.23,3.72A4.84,4.84,0,0,0,320.71,97.4Zm-234,5.21c0,0.41.61,0.84,0.75,0C87.46,102.2,86.86,101.76,86.71,102.61Zm229.53,0.75c-0.61,2.66,1.59,3.69,3,2.23C319.45,103.62,318.19,103.14,316.24,103.35Zm-193.75,4.46c0.75,0,.88.6,1.49,0.75-0.07-1.17.1-2.58-1.49-2.23v1.49Zm-0.75,4.47v2.23C123.91,115.62,123.91,111.19,121.74,112.29ZM80,113.78c-0.65,1.32-2.36,2.18-.74,3.72C82,118.22,82.22,113.84,80,113.78Zm33.54,0c-0.21-.21-1.13.36-0.75,0.75C113,114.72,113.93,114.16,113.54,113.78ZM109.82,119c-0.87-1.06-2.13-1.3-3-2.23-0.49-.54.09-2-1.49-1.49,0.16,1.41-.84,1.64-0.75,3,2.41-.67,1,2.43,2.24,3C108.26,120.91,110,121,109.82,119Zm117.74,0.75a2.06,2.06,0,0,0,2.24-1.49C228.62,118.31,227.21,118.14,227.56,119.73Zm-0.74-.75c-2.33-.34-3.32.65-3,3Q227.33,122.49,226.82,119ZM276,120.48c2.51,2.26,2.26-2.75,0,0h0Zm35.77,0.74c-0.14-1.1-1.8-.68-3-0.74C307.2,123.22,312.58,123.84,311.77,121.22Zm-80.48,0c-1.6,1.53-.39,3.54,1.49,3.72C234,123.83,233.87,120.7,231.29,121.22Zm-53.65,3.72c0.58-.16,1.47,0,1.49-0.74C178.54,124.37,177.65,124.22,177.63,124.94Zm118.49,1.49v-1.49C294.75,122.47,292.49,127.18,296.12,126.43Zm-102.84,3c0.21,0.21,1.13-.36.75-0.75C193.82,128.46,192.9,129,193.28,129.41Zm43.22,3c-2-.52-1.44,1.54-2.23,2.23Q236.71,134.83,236.5,132.39ZM320,133.13v1.49h2.24C322.3,133.29,321.46,132.88,320,133.13Zm-181.83,3c2-.06,1.5,1.24,3,0A1.59,1.59,0,1,0,138.13,136.11Zm69.31-1.49h-2.24a4.84,4.84,0,0,0-.74,3.72C207.22,138.87,207.75,137.17,207.44,134.62Zm65.58,0c-0.21-.21-1.13.36-0.74,0.74C272.48,135.58,273.4,135,273,134.62Zm-40.24,2.23c0.58-.16,1.47,0,1.49-0.74C233.69,136.28,232.8,136.13,232.78,136.86Zm-1.49,1.49c0.12,0.88-.13,2.11.74,2.23,0-.46.11-0.88,0.74-0.74C232.69,138.93,232.55,138.07,231.29,138.35Zm-52.17.75H175.4A2.06,2.06,0,1,0,179.12,139.09Zm-59.62,1.49c0-.41-0.6-0.84-0.74,0C118.76,141,119.36,141.43,119.5,140.58Zm115.51,3h2.23c-0.12-1.12.27-2.75-.74-3C236.18,141.75,234.16,141.22,235,143.56Zm92.41-2.24c0,0.41.6,0.85,0.75,0C328.17,140.91,327.56,140.48,327.42,141.32Zm-230.27,0c-1.15,2.25,3.85,2,3.73.75C99.08,142.38,99.26,140.71,97.15,141.32Zm47.69,0.75h-1.49v1.49h1.49v-1.49ZM270,142.81h-1.49v1.49H270v-1.49Zm-123,2.23h-1.49v1.49h1.49V145Zm-14.9,1.49c0.2,0.21,1.13-.36.75-0.74C132.71,145.59,131.79,146.15,132.17,146.54Zm-117.74,0c-0.21-.2-1.13.36-0.75,0.75C13.89,147.49,14.81,146.92,14.43,146.54Zm235.49,0c-0.21-.2-1.13.36-0.74,0.75C249.38,147.49,250.3,146.92,249.92,146.54ZM344.25,128a3.48,3.48,0,0,1-2.23-.74c-1.09,1.75-1.57,1.39-.75,3.72Q344.77,131.53,344.25,128Zm-7.14,21.49a0.76,0.76,0,0,0-1.49,0C335.77,150.41,336.45,150,337.11,149.52Zm-139.36.74c0.58-.17,1.47,0,1.49-0.74C198.67,149.69,197.78,149.54,197.75,150.26Zm33.54,3h2.24q0.2-2.44-2.24-2.24v2.24ZM260.35,151c-0.2-.21-1.13.36-0.74,0.75C259.81,152,260.74,151.39,260.35,151Zm1.49,3h1.49c0.83-1.07.8-1.82-.75-2.23C262.55,152.7,261.63,152.78,261.84,154Zm35.77,0c0.12,0.88-.13,2.12.74,2.23,0-.45.11-0.88,0.74-0.74C299,154.56,298.88,153.71,297.61,154Zm-111,1.49c-2-.21-3.21.27-3,2.23C185.54,157.92,186.8,157.44,186.58,155.47Zm123,0.74c0.58-.16,1.47,0,1.49-0.74C310.45,155.64,309.56,155.49,309.53,156.22Zm-96.13,1.49c1,0.23,1.42,1.06,3,.75v-2.23C214.69,156,213.58,156.4,213.4,157.71Zm-189.28.75c1.17-.07,2.58.1,2.23-1.49H24.86C24.87,157.71,24.26,157.85,24.12,158.45Zm105.07-.75c0.58-.17,1.47,0,1.49-0.74C130.11,157.13,129.21,157,129.19,157.71ZM42,158.45c0.21,0.21,1.13-.36.75-0.75C42.54,157.5,41.62,158.07,42,158.45Zm283.18,3.72H323.7v1.49h1.49v-1.49ZM10,168.13a9.79,9.79,0,0,0,0-5.21,4.86,4.86,0,0,0-3.72.74C7,165.62,6.84,168.52,10,168.13Zm196-3c0,0.41.6,0.85,0.74,0C206.7,164.74,206.09,164.31,206,165.15Zm33.53,0h-3A1.59,1.59,0,1,0,239.49,165.15Zm-47,8.19c1.41-.17,1.65.84,3,0.75,0.95-1.94,1.64-2.25.74-4.47a4.86,4.86,0,0,0-3.73.74v3ZM244,171.85h-2.24c-0.21,1.7.18,2.8,1.49,3C243.45,173.83,244.27,173.41,244,171.85ZM75.54,175.58c-3.88,2.88,3,3.86,0,0h0Zm62.6,3.72c-2.51-2.26-2.26,2.75,0,0h0Zm124.45-8.51c-1.06,1.09-1.09,2.89,1.49,2.23A2.05,2.05,0,0,0,262.58,170.79Zm-117,14.47c-0.32,1.42-2.13,1.35-1.49,3.72C147.32,190.11,148.12,185.58,145.59,185.26Zm44,0.75v2.23h3.73v-3A4.87,4.87,0,0,0,189.55,186Zm-18.63,0c-0.2-.21-1.13.36-0.74,0.74C170.39,187,171.31,186.39,170.93,186Zm-149,.74H20.39v1.49h1.49v-1.49Zm119.24,3.72h1.49V189h-1.49v1.49ZM95.54,182.7H94v1.49h1.49V182.7Zm47.07,20.43c-0.87.12-2.11-.12-2.23,0.74C141.25,203.75,142.49,204,142.61,203.13ZM83,206.1c0.16,0.9.83,0.46,1.49,0A0.75,0.75,0,0,0,83,206.1Zm51.42-.75v3.72C138.44,210.19,138,204.52,134.41,205.36ZM121,207.59c0.21,0.21,1.13-.36.75-0.74C121.53,206.64,120.61,207.21,121,207.59Zm32-5.53c1.85,0.11,3.62.14,3.73-1.49C155.65,199.39,152.52,199.48,153,202.06ZM74,221.74c0,0.46-.11.88-0.74,0.74-0.22,2,1,2.45,3,2.24C76.49,222.77,76,221.52,74,221.74Zm26-39c-1.18-.06-0.58-1.9-2.23-1.49C97.12,182.75,100.23,184,100,182.7Z"/></svg>