<svg id="Layer_1" data-name="Layer 1" xmlns="http://www.w3.org/2000/svg" viewBox="0 0 175 795"><defs><style>.cls-1{fill:#d9af51;stroke:#d9af51;stroke-miterlimit:10;stroke-width:2px;fill-rule:evenodd;}</style></defs><title>sand</title><path class="cls-1" d="M100.22,4.75c-0.7-.66-0.06-1.41.32-1.9C101.93,3.12,102.14,4.95,100.22,4.75Zm27.54-1.9c-0.09-.09-0.48.16-0.31,0.32S127.92,3,127.76,2.86Zm12.35,1.27c0.43-1.42-1.27-1.54-1.9-.95V4.12C139.21,4,139.44,4.81,140.11,4.12ZM49.57,3.18c-0.25.07-.62,0-0.63,0.31C49.19,3.42,49.56,3.48,49.57,3.18ZM72.37,3.49H71.73V4.12h0.63V3.49Zm-22.79.63c0-.18-0.25-0.36-0.32,0C49.26,4.3,49.51,4.48,49.57,4.12Zm70,0c-0.41,0-.44-0.41-1-0.32V4.75h0.64A2,2,0,0,1,119.53,4.12ZM73,4.75a2,2,0,0,0-1.27-.32,2.07,2.07,0,0,0-.32,1.27A1.34,1.34,0,0,0,73,4.75Zm51.91,0.63c-1.06-1-1,1.17,0,0h0ZM46.72,6.65c-0.09-.09-0.48.15-0.31,0.32S46.89,6.82,46.72,6.65Zm47.8,0a0.87,0.87,0,0,0-.95.63A0.88,0.88,0,0,0,94.53,6.65ZM45.14,8.24c1,0,.23-1.34-0.32-0.32C44.72,8.12,45,8.24,45.14,8.24Zm-31.34,0V9.18h0.95A0.77,0.77,0,0,0,13.8,8.24Zm-1.26.95c0-.18-0.26-0.36-0.32,0C12.22,9.36,12.48,9.54,12.54,9.18Zm97.81,0.95c-0.47-.16-0.8-0.47-1.26-0.63a2,2,0,0,0-.32,1.27C109.55,10.81,110.31,10.82,110.35,10.13Zm-16.77.32c-0.36,0-.5-0.46-0.63,0A0.32,0.32,0,0,0,93.58,10.45Zm11.71-.32h-0.63v0.63h0.63V10.13Zm44.32,0.32c-0.25.07-.62,0-0.63,0.32C149.22,10.7,149.6,10.76,149.6,10.45Zm15.51,0.32c-0.15.15-.36-0.06-0.31,0.32C165,12.52,166.61,9.27,165.11,10.77Zm-132.95.32c-0.36,0-.5-0.46-0.63,0A0.32,0.32,0,0,0,32.17,11.08Zm32-.32c-0.09-.09-0.48.15-0.32,0.32S64.3,10.93,64.13,10.77ZM93.58,12h0.63a1.47,1.47,0,0,1,.32-0.95c-0.47.05-1.17-.11-1.27,0.32A0.49,0.49,0,0,1,93.58,12ZM55.9,11.4c-0.09-.09-0.48.15-0.31,0.31S56.07,11.56,55.9,11.4Zm26,0.63c-0.09-.09-0.48.15-0.32,0.31S82,12.19,81.87,12Zm66.79,1.58a1.55,1.55,0,0,0,1.9,0c-0.17-.56-0.16-1.31-0.63-1.58-0.08.49-.7,0.22-0.95,0C149.1,12.79,148.39,12.72,148.65,13.61Zm12.66,0a1.53,1.53,0,0,0-.63-1.58c-0.09,1.17-2,.5-1.58,2.21C160.36,14.56,160.05,13.3,161.31,13.61ZM65.72,13H65.08v0.63h0.64V13Zm78.82,2.84c0.75,0.39,1.33-.42,1.9-0.63,0.35-.13,1.55.4,1.27-0.63,0.14-.88-1.73.25-1.58-0.63,0.56-.07,1.58.32,1.27-0.64a4.15,4.15,0,0,0-3.17,1.27C144.69,14.62,144.51,15.32,144.54,15.82ZM17.92,13.61v0.63h0.95C18.91,13.68,18.55,13.5,17.92,13.61Zm101.3,3.48c0.09-.83-0.12-1.36-1-1.27,0,0.2,0,.38-0.32.32C117.85,17,118.38,17.18,119.22,17.09Zm-67.43-.63H50.53C50,17.93,52.16,17.56,51.79,16.46ZM30.58,18c-0.09-.09-0.48.15-0.32,0.32S30.74,18.2,30.58,18Zm11.08,0.32c-0.25.07-.62,0-0.63,0.32C41.28,18.6,41.65,18.66,41.66,18.36Zm122.5,0.32c-0.09-.09-0.48.15-0.32,0.32S164.33,18.84,164.17,18.67Zm-133.9,3.8c0.32-.53,1.34-0.35,1.9-0.63-0.26-.89.45-0.82,0.32-1.58-0.65-.83-2.43-0.53-3.17-1.27C28.68,20.29,29.08,22.07,30.26,22.47Zm63.95-1.9h1.58A1.34,1.34,0,0,0,94.84,19C94.71,19.59,93.94,19.56,94.21,20.57Zm71.86-.95c-0.19,0-.37,0-0.32-0.32h-0.64c0.39,1-1,.24-0.63,1.27A2.57,2.57,0,0,0,166.06,19.62Zm-60.46,0c-0.72-.09-1.19.07-1.27,0.63A0.72,0.72,0,0,0,105.6,19.62Zm-57,.95H48c0,0.4-.41.44-0.32,0.95h0.95V20.57Zm64.89,1.27c-0.76.13-.69-0.58-1.58-0.32,0.23,1-.32,1.15-0.32,1.89A1.32,1.32,0,0,0,113.52,21.84Zm2.53-.32c-0.24.07-.62,0-0.63,0.32C115.66,21.76,116,21.82,116,21.52ZM87.88,23.41a2.56,2.56,0,0,0-.95-1.58c0,0.63-.86.4-0.63,1.26A2.06,2.06,0,0,0,87.88,23.41ZM41.34,22.15H40.39V23.1H41C41,22.7,41.43,22.66,41.34,22.15Zm-26,.32c-0.25.07-.62,0-0.64,0.31C15,22.71,15.38,22.77,15.39,22.47Zm27.54,2.21c0.69-.66.65-1.19-0.32-1.58C42.18,23.5,42.12,24.65,42.93,24.68Zm94-1.27c-1.59,1.27,1.11,1.48,0,0h0ZM24.57,25c0-.37.56-0.71,0-0.95C24.52,24.42,24,24.77,24.57,25Zm26.91,0.95V24.68H50.53C50.44,25.51,50.42,26.26,51.47,25.95Zm-19.31-.32a0.32,0.32,0,0,0-.63,0C31.6,26,31.88,25.82,32.17,25.63Zm123.77,0V26.9C157.68,27.18,157.18,25.57,155.94,25.63Zm-82.3,3.48a3.76,3.76,0,0,0-2.21-2.53C70.9,27.43,72.6,29.81,73.63,29.11Zm-24.06-.95H48.62c-0.06.91,0,1.73,0.95,1.58C50.17,29.14,49.38,29.17,49.57,28.16Zm2.22,0.95c0.09,0.09.48-.15,0.32-0.32S51.63,28.95,51.79,29.11Zm88,3.48c1.31-.26.16,1.95,0.95,2.21a2.06,2.06,0,0,0,1.58-.32c0.15-1-1-.71-0.63-1.89,0.25-.07.63,0,0.63-0.32-0.81-.34-1.11,1.36-1.58.32,1,0,.76-1.14,1.9-0.95V30.06c-1.07.12-.57-1.33-1.58-1.27C141.09,31,141,31.36,139.79,32.59Zm2.53-3.8c-0.09-.09-0.48.15-0.31,0.32S142.49,29,142.32,28.79Zm6.33,0.32c-0.09-.09-0.48.15-0.32,0.32S148.82,29.27,148.65,29.11Zm-96.86.95c0.41,0.45,1.68,1.14,1.9,0C53.13,30.15,52.11,29.17,51.79,30.06ZM136,30.38h-0.63c0,0.4-.4.44-0.32,0.95H136V30.38Zm-74.07.95H61.29V32h0.63V31.32Zm57,2.21c0.36-.59,1.23-0.67,1.59-1.26-1,.23-1.16-0.32-1.9-0.32C118.15,32.36,118.1,33.5,118.9,33.54ZM84.4,35.75h2.21a2.6,2.6,0,0,0-.95-2.21c0-.37.56-0.72,0-0.95-0.09.49-.7,0.22-0.95,0,0,0.38-.09.75-0.64,0.63C84,34.24,84.64,34.56,84.4,35.75Zm33.55-2.21c0-.18-0.25-0.36-0.32,0C117.63,33.71,117.89,33.9,117.95,33.54Zm45.59,1.9c-0.37-.05-0.9.05-1-0.32,0.34,0,.25-0.41-0.31-0.32,0.13,0.76-.58.69-0.32,1.58M40.71,36.7c0.09-.72-0.08-1.19-0.63-1.27A0.72,0.72,0,0,0,40.71,36.7Zm91.8,1.58a1.84,1.84,0,0,0-.63-2.53C131.33,36.36,130.56,38.63,132.51,38.28Zm-70,.95c1.34,0.29,1.59-.52,1.9-1.27-0.39-.68-1.76-2-2.53-1.27C62.71,37,61.83,38.9,62.55,39.23Zm74.07-2.53c-0.09-.09-0.48.15-0.32,0.32S136.79,36.86,136.63,36.7Zm5.06,0c0,1.41-.89,1.86-0.63,3.48,2,0.82,2.75.12,3.48-.63,0.41-.42,1-0.53.95-0.95-1.52-.05-1.3-0.91-1.58-1.58C142.81,37.27,142.69,36.54,141.69,36.7Zm-2.21.32c-0.09-.09-0.48.15-0.32,0.32S139.64,37.18,139.47,37Zm-2.85.95c-0.09-.09-0.48.15-0.32,0.32S136.79,38.13,136.63,38ZM155,38.28a1.19,1.19,0,0,0-1.9.95A1.52,1.52,0,0,0,155,38.28Zm-2.54.63c-0.64-.18-0.62-1-1.27-0.32C150.68,39.48,152.55,39.47,152.45,38.91ZM137.58,40.5c0.08-.93-0.71-1-0.64-1.9-1.32-.16-1.39.93-2.85,0.63C134.35,40.46,136.47,41.12,137.58,40.5ZM48,39.86v0.95c0.72,0.09,1.19-.07,1.27-0.63A2,2,0,0,0,48,39.86Zm111.74,1.27c0.72,0.09,1.19-.08,1.27-0.63A0.72,0.72,0,0,0,159.73,41.13Zm-19.62.95a2,2,0,0,0,.32-1.27c-0.78,0-1-.59-1.58,0A1.19,1.19,0,0,0,140.11,42.08ZM9.06,42.71c1.09-.57.3-1.93-0.95-1.9C8.11,41.75,8.08,42.74,9.06,42.71ZM19.5,41.13c-0.09-.09-0.48.15-0.32,0.32S19.67,41.29,19.5,41.13Zm110.79,0c-0.09-.09-0.48.15-0.32,0.32S130.46,41.29,130.3,41.13ZM72.68,44c0.35-1.22-1.36-2-1.9-1.27C71.72,43,70,43.18,70.47,44A2,2,0,0,0,72.68,44Zm53.5-1.59c-0.09-.09-0.48.16-0.32,0.32S126.34,42.56,126.18,42.39ZM23.94,43c-0.36,0-.49-0.46-0.63,0A0.32,0.32,0,0,0,23.94,43Zm114.59-.32h-0.64v0.63h0.64V42.71ZM48.94,46.5a1.19,1.19,0,0,0,1.27-1.27c-0.41,0-.44-0.4-1-0.32A2.07,2.07,0,0,0,48.94,46.5Zm90.22-.32c0.09-.83-0.12-1.36-0.95-1.27C138.12,45.75,138.32,46.28,139.16,46.19Zm17.73-.95c-0.25.07-.62,0-0.63,0.32C156.49,45.49,156.87,45.55,156.88,45.24Zm-66.79.95c-0.09-.09-0.48.15-0.32,0.32S90.26,46.35,90.09,46.19Zm1.9,1.9c0.13-.5,1-0.27.63-1.27h-1C91.73,47.29,91.56,48,92,48.09Zm57.61-.95c-0.09-.09-0.48.15-0.32,0.32S149.77,47.3,149.6,47.14Zm-96.55.95c0.55,0.07-.72.93-0.63,1.58a1.56,1.56,0,0,0,1.9,0C54.43,48.79,53.54,47.32,53.06,48.09Zm-11.39.32c0-.18-0.26-0.36-0.32,0C41.34,48.58,41.6,48.76,41.66,48.4ZM129,49c-0.25.07-.62,0-0.63,0.32C128.64,49.28,129,49.34,129,49Zm-79.14.63c0.25-.07.63,0,0.64-0.32C50.28,49.42,49.9,49.36,49.89,49.67Zm59.83-.32a11.49,11.49,0,0,0-.63,2.21c1.25-.41.64,1,1.9,0.63A2.58,2.58,0,0,1,111,50C110.12,50.22,110.35,49.36,109.72,49.35Zm42.73,0.32c-0.07,1.36,1.79.42,1.59-.32A2.07,2.07,0,0,0,152.45,49.67Zm-37.67,0v1.27H116C116.27,49.87,115.52,49.78,114.78,49.67Zm13.61,2.84c0.95,0.38,1.07.09,1.9-.32,0-1.5-1.71-2.55-2.54-2.21C127.86,50.94,128.74,51.11,128.4,52.51ZM49.57,50.93C50.4,51,50.94,50.82,50.84,50,50,49.9,49.48,50.1,49.57,50.93Zm6.33-.32c-0.42-.41-1.18-0.41-1.26.32C55.06,51.34,55.82,51.35,55.9,50.61Zm107,0.64M9.06,53.15c0.18-1.34-.86-1.46-1.58-1.89a2,2,0,0,0,0,2.21C8.24,53.59,8.16,52.89,9.06,53.15Zm119-.63a0.68,0.68,0,1,0-1.27,0h1.27ZM27.73,54.09c0.05-.79-0.71-0.77-0.95-1.26C26.69,53.66,26.9,54.19,27.73,54.09ZM149.29,55c2,0.35,1.29-2.35,0-2.21C149.39,53.81,148.55,54.34,149.29,55ZM67,53.78c-0.08-.09-0.48.16-0.31,0.32S67.15,53.94,67,53.78Zm78.82,0.32c0,0.18.25,0.36,0.32,0C146.12,53.92,145.87,53.74,145.81,54.09Zm-36.72,0c-0.09-.09-0.48.15-0.32,0.32S109.25,54.26,109.09,54.09ZM127.45,56c0.82,0.09,1.36-.11,1.26-0.95-0.4,0-.44-0.4-0.95-0.32A2,2,0,0,0,127.45,56Zm-60.78-.63c0.25-.07.63,0,0.63-0.32C67.06,55.11,66.68,55.05,66.67,55.36ZM13.8,56c-0.83-.1-0.82.66-0.95,1.27C13.69,57.35,13.67,56.6,13.8,56Zm35.14,2.21c0.12-1.28-.86-1.46-1.27-2.21-1.27.43-.8,1.77-0.31,2.85C48.37,59.11,48.34,58.34,48.94,58.21Zm79.14-1.27v1.58c0.94,0,1.93,0,1.9-.95C128.88,57.82,128.64,57.22,128.08,56.94Zm-53.5.95c-0.41,0-.44-0.41-1-0.32C73.14,58.35,74.71,58.5,74.58,57.89Zm51.28,1.9c0.46,0.35.77,0.34,0.95-.32a1.52,1.52,0,0,1-.95-0.32v0.63ZM21.72,61.37c0.52-1-.18-1.66-1.27-1.9a2.68,2.68,0,0,0-.32,1.9h1.58Zm133.9-.32a1.34,1.34,0,0,0-.95-1.58C154,60.12,154.67,61.07,155.62,61.05ZM55.27,60.11H54.32v1.27C55.16,61.47,55.14,60.71,55.27,60.11Zm8.23,0H61.92c-0.07.6,0.36,0.7,0.32,1.27A1,1,0,0,0,63.5,60.11Zm63,0.63c-0.65,1.59.39,1.47,0.32,3.16C128.49,64,127.88,60.48,126.49,60.74ZM4,61.05c-0.09-.09-0.48.16-0.32,0.32S4.15,61.22,4,61.05ZM15.39,62c0.92,0.47.92-1.41,0-.95V62Zm55.08-.95H69.83v0.64h0.63V61.05Zm-0.63,5.06c0.88-.57.78-2.53,0-3.16v0.63C68.43,62.68,68.19,66.06,69.83,66.11Zm62.36-2.85c0.25-.07.63,0,0.63-0.32C132.58,63,132.2,63,132.19,63.27Zm-36.4.95h0.95a0.77,0.77,0,0,0-.95-0.95v0.95ZM71.1,63.9c0.09,0.09.48-.15,0.32-0.32S70.94,63.74,71.1,63.9Zm36.09,0v0.95h0.95A0.77,0.77,0,0,0,107.19,63.9ZM123,64.85c-0.61-.13-0.25-1.23-1.27-0.95a1.76,1.76,0,0,1-.32,1.27C121.89,65,123.07,65.54,123,64.85Zm-49.38,1.9c0-.1.36,0.11,0.32,0.32s-0.64.27-.64,0.63c0,0.07.77,0.35,0.64,0.63,0.59,0.29.67-.68,0.95-0.63,0.07,0-.07.88,0,0.95,0.47,0.5,1-.05,1.58-0.32-0.2-1.07-.91-1.62-0.63-3.16-0.87.23-.64-0.63-1.27-0.63C74.13,65.72,74,66,73.63,66.75Zm41.79-.63c0-.8-0.06-1.62-0.95-1.58C114.47,65.37,114.17,66.52,115.42,66.11ZM11.59,64.85c-0.09-.09-0.48.15-0.32,0.32S11.75,65,11.59,64.85Zm140.55,0c-0.25.07-.62,0-0.63,0.32C151.75,65.09,152.13,65.16,152.13,64.85Zm-33.55,2.21c0.13-1.18-.25-1.86-1.27-1.9,0,1.18-.35.9,0,1.9h1.27Zm40.52-.32c0.43-.4.49-1.55-0.32-1.58C158.35,65.57,158.3,66.72,159.1,66.75Zm-21.52.63c0.79,0,1.54.06,1.58-.63-0.3-.26-1-1.67-1.58-0.63C138.39,66.19,137.14,66.66,137.58,67.38Zm-125-.95a0.32,0.32,0,0,0-.63,0C12.26,66.4,12.4,66.89,12.54,66.43Zm39.88,0c-0.09-.09-0.48.15-0.32,0.32S52.59,66.59,52.42,66.43Zm69,0.95c0.32-1.05-.44-1-1.26-0.95C120.07,67.27,120.6,67.47,121.43,67.38ZM10.64,67.06c0-.18-0.25-0.36-0.32,0C10.32,67.24,10.58,67.42,10.64,67.06Zm27.22,1.58V67.7H36.91A0.77,0.77,0,0,0,37.86,68.65Zm119,0.95c-0.2-1-.5-1.83-1.58-1.9C155.17,69,155.63,69.69,156.88,69.59ZM14.75,68.33c0-.18-0.25-0.36-0.31,0C14.44,68.5,14.69,68.69,14.75,68.33Zm-5.7,0v2.22c1.27,0.95,1.48,2.95,2.85,3.79a3.8,3.8,0,0,0,1.26-3.79c-1.18.53-.62-0.07-1.26-0.64a1,1,0,0,1-.64.64c0.38-1.44-2-1-.95-2.22H9.06Zm2.21,0.32c-0.25.07-.62,0-0.63,0.32C10.88,68.89,11.26,69,11.27,68.65ZM151.5,74.34c2.86-.18,1.07-4.48.32-5.69C151.17,70,151.35,72.61,151.5,74.34ZM84.4,69.59c-0.36,0-.5-0.46-0.63,0A0.32,0.32,0,0,0,84.4,69.59Zm-63.95.63v0.95H21.4A0.76,0.76,0,0,0,20.45,70.23Zm13.3,1.27c-0.25.07-.62,0-0.63,0.31C33.36,71.74,33.74,71.8,33.75,71.49ZM116,71.81c-0.09-.09-0.48.16-0.32,0.32S116.21,72,116,71.81Zm-101,2.53c1.07,1,1-1.17,0,0h0ZM7.79,75c0.09,0.09.48-.15,0.32-0.32S7.63,74.81,7.79,75Zm7-.32H13.17A0.79,0.79,0,1,0,14.75,74.65Zm138,0.32v1.27c0.85-.21,2-0.13,2.54-0.63C154.73,74.44,154.24,74.85,152.77,75ZM15.39,75.6c0.35,0,.49.46,0.63,0A0.32,0.32,0,0,0,15.39,75.6Zm10.76,0c-0.77,1.06,1.06-.77,0,0h0Zm-14.56,0c-0.09-.09-0.48.15-0.32,0.32S11.75,75.77,11.59,75.6Zm0.63,0.32c0.09,0.09.48-.15,0.32-0.32S12.06,75.75,12.22,75.92Zm6-.32H17.6v0.63h0.63V75.6Zm113.64,0.32c-0.25.07-.62,0-0.63,0.32C131.49,76.16,131.87,76.23,131.88,75.92ZM19.5,76.55c-0.09-.09-0.48.15-0.32,0.32S19.67,76.72,19.5,76.55Zm1.9,2.21c0.79,0,1-.5,1.58-0.63,0-.93-0.72-1.18-1.27-1.58C21.28,77,21.4,77.93,21.4,78.77ZM136,76.55a2,2,0,0,0-.31,1.27h0.95C136.71,77.09,136.55,76.63,136,76.55ZM15.07,77.5c0.2,0,.38,0,0.32.32H16C16.51,77,14.94,76.89,15.07,77.5Zm4.43,0c0.09,0.09.48-.15,0.32-0.32S19.34,77.34,19.5,77.5Zm133.9,0.32c-0.76,1.06,1.06-.77,0,0h0Zm7.28,0c-0.09-.09-0.48.15-0.32,0.32S160.85,78,160.68,77.82Zm-41.15.95c-0.09-.09-0.48.15-0.32,0.32S119.69,78.93,119.53,78.77Zm-34.19.32c-0.19,1.34.1,2.21,1.58,1.89C87.17,79.57,86.63,79,85.35,79.08Zm51.91,0c-0.45.46-.46,1.22,0.63,0.95A0.86,0.86,0,0,0,137.26,79.08ZM14.44,81a1,1,0,0,0,1.27,1.27c0.23-1-.55-0.93-0.32-1.89-1.31.25-1-1.15-2.22-.95C13,80.5,14,80.5,14.44,81Zm132-.95c-0.24,1.43,2.11,1.18,1.58-.32A2.07,2.07,0,0,0,146.44,80ZM16.65,80v0.63H17.6C17.64,80.09,17.29,79.92,16.65,80Zm70.91,2.84c0.6-.07.7,0.36,1.27,0.32,0.68-.77.23-2.34-0.95-2.21C88.11,81.95,87.33,81.91,87.56,82.88Zm-3.16-.95c0-.18-0.26-0.36-0.32,0C84.08,82.1,84.33,82.29,84.4,81.93ZM161,83.82c0.48-1-.2-1.36-0.63-2.21C160.3,82.09,159.44,83.75,161,83.82ZM84.71,82.56c-0.25.07-.62,0-0.64,0.32C84.32,82.81,84.7,82.87,84.71,82.56ZM39.76,85.09c-0.09-.09-0.48.15-0.32,0.32S39.92,85.25,39.76,85.09ZM116.68,86c-0.83.42-.6,1.4-0.31,2.21C118.38,88.51,118.13,86.25,116.68,86Zm-5.38,1.58c0.09,0.09.48-.15,0.32-0.32S111.14,87.46,111.3,87.62Zm22.16-.32c-0.09-.09-0.48.15-0.32,0.32S133.62,87.47,133.46,87.31Zm-96.86.95c-0.63,0-.4-0.86-1.27-0.63a1.5,1.5,0,0,1-.32.95C35.42,89,36.56,89.06,36.6,88.25Zm74.07,0.95c0.61,0.59.8,0,1.59,0a1.29,1.29,0,0,0-.95-1.27C111.3,88.57,110.44,88.34,110.67,89.2Zm5.7-.32c0.07,0.38.35,0.2,0.63,0A0.32,0.32,0,0,0,116.37,88.89Zm-24.06.63c-1.28-1.11-.75,1,0,0h0Zm-2.54,0H89.14v0.63h0.63V89.52Zm-18,.63a1.47,1.47,0,0,1-.32.95,2,2,0,0,0,1.27.32C72.77,90.59,72.56,90.06,71.73,90.15Zm5.7,0.31a0.32,0.32,0,0,0-.64,0C76.87,90.85,77.15,90.66,77.43,90.47Zm18-.31V91.1C96.4,91.56,96.4,89.69,95.47,90.15ZM114.15,92c0.56-.6.35-2.21-0.95-1.89C112.62,90.77,112.73,92.48,114.15,92Zm-83.25.32c0.33-.84.23-1.8-1-1.9A1.51,1.51,0,0,0,30.9,92.36Zm47.8,0.32c0.09-.72-0.07-1.19-0.63-1.26a2,2,0,0,0-.32,1.26H78.7Zm0.95-.95v1.89A1.08,1.08,0,1,0,79.65,91.74Zm22.79,2.53c-0.79.13,0,1.23,0.63,0.95-0.3-1.18-.1-2.86-1.27-3.16A1.42,1.42,0,0,0,102.44,94.26Zm26-.32c0.16-.47.46-0.8,0.63-1.27-0.4,0-.44-0.4-0.95-0.32C128.25,92.82,127.71,94,128.4,93.95Zm-28.18.95c0.43-.4.49-1.55-0.31-1.58C99.47,93.72,99.42,94.86,100.22,94.9Zm-49.7-1.27v2.22c0.84,0,1.8.12,2.21-.32A2.42,2.42,0,0,0,50.53,93.63Zm78.5,0a2.69,2.69,0,0,0-.32,1.9C129.8,96,130.21,93.41,129,93.63ZM11.91,95.84a1,1,0,0,0-1.27-1.27A1,1,0,0,0,11.91,95.84Zm64.57-1.27H75.85v0.63h0.63V94.58ZM33.75,96.16c0-2.92-3.2.31,0,0h0Zm-21.21.63c0.09,0.09.48-.15,0.31-0.32S12.37,96.63,12.54,96.79Zm19.63,0c-0.6.14-1.91-.43-1.59,0.63C31.06,97.93,32.38,97.89,32.17,96.79Zm-2.85,0v1.27c0.72,0.09,1.19-.08,1.27-0.63C30,97.42,30.18,96.56,29.31,96.79Zm64.26,0.95a1.4,1.4,0,0,1-1.27.63V100h1.27C92.6,98.85,95.31,98.56,93.58,97.74ZM4,99.64H5.26c0.09-.83-0.12-1.36-1-1.27A2.05,2.05,0,0,0,4,99.64Zm116.49,0.63c0.09-.84-0.44-1-1.27-0.95C119,100.45,119.89,100.9,120.48,100.27ZM45.14,100c-0.09-.09-0.48.16-0.32,0.32S45.31,100.12,45.14,100Zm49.38,0.32c0.37-.05.9,0.05,0.95-0.32C95.1,100,94.58,99.9,94.53,100.27Zm-77.24.63c-0.09-.09-0.48.16-0.32,0.32S17.45,101.07,17.29,100.9Zm27.86,1.27h1.27c0.21-1.06-.54-1.15-1.27-1.27v1.27ZM151.5,100.9c-0.37.05-.89-0.05-0.95,0.32C150.93,101.17,151.45,101.27,151.5,100.9Zm4.43,1.27c0.19,0.09,1.22.79,1.27,0C156.9,101.64,156.15,101.18,155.94,102.17Zm-151-.32H4.31a1.47,1.47,0,0,1-.32.95H5.26A1.5,1.5,0,0,0,4.94,101.85Zm37.67,0.95a0.86,0.86,0,0,0,.63.63C44.08,103.18,43,101.66,42.61,102.8Zm35.45-.32H77.43c0,0.41-.41.44-0.32,0.95h0.95v-0.95Zm-74.71,1.9v1.27H4.63C4.84,104.59,4.09,104.49,3.36,104.38Zm90.22,0c-0.09-.09-0.48.15-0.32,0.32S93.74,104.55,93.58,104.38Zm-83.89,1.9a2.06,2.06,0,0,0-.32,1.58h1.27A1.35,1.35,0,0,0,9.69,106.28Zm52.55,0.32a0.32,0.32,0,0,0-.63,0C62,106.57,62.1,107.06,62.24,106.6Zm-38.3,0H23v0.95h0.64C23.63,107.14,24,107.11,23.94,106.6Zm86.1,0c-0.09.72,0.07,1.19,0.63,1.27A0.72,0.72,0,0,0,110,106.6Zm-62,1.58c-0.67,1.16,1.61,1.43,1.27.32C49.2,108,48.49,108.2,48,108.18Zm33.88,2.53h1.26a2.05,2.05,0,0,0-.31-1.58H81.87v1.58Zm-43.05-.63c-0.24.07-.62,0-0.63,0.31C38.42,110.32,38.8,110.38,38.81,110.08Zm47.8,0.63c-0.5.47-.46,1.8,0.63,1.58C87.74,111.82,87.71,110.49,86.61,110.71Zm40.84,1.9a1.28,1.28,0,0,0,1.26-.95C127.88,111.57,127.35,111.77,127.45,112.61Zm2.21,0c0.05-.37.57-0.71,0-0.95C129.62,112,129.1,112.38,129.66,112.61Zm-99.08,2.21c-0.05-1,.75-1.52-0.63-1.58C29.45,113.71,29.49,115,30.58,114.82Zm89.59-1.27c-0.62.59-.1,1.16,0,1.9C121.7,115.59,121.08,113.61,120.17,113.56Zm-42.42.32v1.58h1.58Q79.66,113.54,77.75,113.87Zm63,0.32c0.09,0.09.48-.15,0.32-0.32S140.58,114,140.74,114.19Zm14.25-.32c-0.09-.09-0.48.15-0.32,0.32S155.15,114,155,113.87Zm4.43,0.32v0.63m-5.7,0c0,0.18.25,0.36,0.32,0C154,114.65,153.78,114.46,153.72,114.82Zm-53.5.63c-0.4,0-.44-0.41-0.95-0.32A2.06,2.06,0,0,0,99,116.4C99.78,116.49,100.32,116.29,100.22,115.45ZM116.37,117v-0.95h-1A0.77,0.77,0,0,0,116.37,117Zm24.69,1.9h1V118h-0.64C141.36,118.39,141,118.42,141.06,118.93Zm-70.27.32c0.93,0.46.93-1.41,0-.95v0.95Zm8.23-.64c0.09,0.09.48-.15,0.32-0.31S78.85,118.45,79,118.61Zm-19,.32c-0.09-.09-0.48.15-0.32,0.32S60.19,119.09,60,118.93Zm28.49,0.32a0.93,0.93,0,0,0,.95,1.58,1.49,1.49,0,0,1,.32-0.95C89.31,119.72,89,119.41,88.51,119.25ZM99,120.2h1v-0.95H99.27C99.26,119.65,98.87,119.69,99,120.2Zm-80.09.95c0.6,0.07.7-.36,1.27-0.31,0.09-.83-0.11-1.36-0.95-1.27A2.08,2.08,0,0,0,18.87,121.15Zm-9.81,2.53c0.35,0,.49.46,0.63,0A0.32,0.32,0,0,0,9.06,123.68Zm13,2.53c1.07,1,1-1.17,0,0h0Zm87.05,0.32c0.61,0.13.25,1.23,1.26,0.95,0.53-.63,0-0.4,0-1.27C109.88,126.26,109.18,126.09,109.09,126.52Zm-70,2.21c0.79-.95-0.21-2.13-1.27-2.21C37.84,127.71,37.62,129.08,39.13,128.74Zm45.58,0.63a1.47,1.47,0,0,1,.32-0.95,2.06,2.06,0,0,0-1.59-.32A1,1,0,0,0,84.71,129.37Zm-72.8,0a0.77,0.77,0,0,0-1-.95A0.77,0.77,0,0,0,11.91,129.37Zm146.56,0.32c0.26,0.89-.45.82-0.32,1.58m-12,0a0.72,0.72,0,0,0,1.27-.63C146.67,130.55,146.2,130.71,146.12,131.27ZM29,131.58c-0.4,0-.44-0.41-0.95-0.32v0.95h0.63A2.14,2.14,0,0,1,29,131.58Zm13.93,2.53c-0.41,0-.44-0.41-1-0.32C41.49,134.57,43.05,134.73,42.93,134.11Zm40.84,0c-0.25.07-.62,0-0.64,0.32C83.37,134.36,83.75,134.42,83.76,134.11Zm75.34,2.53a2.43,2.43,0,0,0-1.9-1.9c-0.3.82-.58,1.86,0.32,2.21-0.69.66,0.16,0.9,0,1.9m-3.16-3.16c0.09,0.09.48-.15,0.32-0.32S154.19,135.53,154.35,135.7Zm-67.74,0v0.95h0.95A0.77,0.77,0,0,0,86.61,135.7Zm66.79,0.95a0.72,0.72,0,0,0,1.27-.63C153.95,135.92,153.48,136.09,153.4,136.65ZM29.63,138.23h0.95a0.77,0.77,0,0,0-.95-0.95v0.95Zm118.71,0.32h0.95v-0.95h-0.95v0.95Zm-29.12,0c1.07,1,1-1.17,0,0h0Zm-18,1.26a2,2,0,0,0-.31,1.27c0.78,0,1.54.06,1.58-.63C101.81,140.43,102,139.58,101.17,139.81Zm54.77,0.63v1.27C157.68,142,157.18,140.38,155.94,140.44Zm-72.49.32c-0.26,1.13.68,1.57,1.27,0.95C84.81,140.87,84.27,140.67,83.44,140.75Zm-2.53.64c0.09,0.09.48-.16,0.32-0.32S80.75,141.22,80.91,141.39Zm50.65,0c-0.26.89,0.45,0.82,0.32,1.58,1.16-.45,1.7.45,2.21-0.63C133.52,141.77,132.68,140.43,131.56,141.39ZM77.43,142V143h0.95A0.77,0.77,0,0,0,77.43,142Zm36.09,0.63c0.09,0.09.48-.15,0.32-0.32S113.35,142.49,113.52,142.65Zm-89.58.95c0.09,0.09.48-.15,0.32-0.32S23.77,143.44,23.94,143.6Zm73.44,2.85c1.45,0.19,1.3-.71.95-1.58,0.39,0,.75-0.09.63-0.63s-1.86-1.05-2.21-.32C97,145.15,97.07,145.13,97.37,146.45Zm16.46-2.53c0.09,0.09.48-.15,0.32-0.32S113.67,143.75,113.83,143.92Zm-71.54,1.27c0.91,0.06,1.73,0,1.59-.95-0.6.07-.7-0.36-1.27-0.32A2,2,0,0,0,42.29,145.18Zm101.3,0h1v-0.95H143.9C143.89,144.64,143.5,144.67,143.59,145.18Zm-44,.63c0.42,0.41,1.18.42,1.27-.32C100.44,145.09,99.68,145.08,99.59,145.82Zm-11.71.32H86.93c-0.09.72,0.08,1.19,0.63,1.27A2.06,2.06,0,0,0,87.88,146.13Zm50.65,1.9c1.27,0.31,1.27-1.89,0-1.58C138.71,147.46,137.93,147.43,138.53,148Zm-3.48-.95c0.09,0.09.48-.15,0.32-0.32S134.88,146.92,135,147.08Zm-107.31.32c0-.18-0.26-0.36-0.32,0C27.42,147.57,27.67,147.76,27.73,147.4Zm47.17,0.32c-1.15,1.49,1.85.42,0,0h0ZM94.84,148c0.25-.07.63,0,0.63-0.32C95.23,147.79,94.85,147.72,94.84,148Zm51.28,0.63c0.07,0.38.35,0.2,0.63,0A0.32,0.32,0,0,0,146.12,148.66Zm8.86,1h0.95c0.09-.83-0.12-1.36-0.95-1.27v1.27Zm-127.89,0a2,2,0,0,0,1.27.31A0.66,0.66,0,1,0,27.1,149.61ZM149.92,149c0.13,0.76-.58.68-0.32,1.58C150.86,151.28,151,148.63,149.92,149Zm-89.58,1.26c0.1-.83-0.44-1-1.27-0.95C58.76,150.35,59.51,150.33,60.34,150.24Zm-33.55-.63H25.83v0.95h0.63C26.49,150.16,26.87,150.12,26.78,149.61ZM129,150.88h1.58c0-1-.81-1.09-1.58-1.26v1.26Zm-21.53-.63a0.66,0.66,0,1,0,1.27.32A2.06,2.06,0,0,0,107.5,150.24Zm34.19,0.63c0,0.86-.53.64,0,1.27A0.68,0.68,0,1,0,141.69,150.88Zm14.25,0.32c-0.77,1.06,1.06-.76,0,0h0Zm-68.06.95c0.63,0.53.4,0,1.27,0A0.68,0.68,0,1,0,87.88,152.14Zm48.43,0h0.63c0-.4.41-0.44,0.32-0.95h-0.95v0.95ZM92,151.51a2,2,0,0,1-.32.63c0.5,0,1.1,0,1-.63H92Zm48.11,3.8c0.37-1.63-.67-1.86-1.27-2.53a10.92,10.92,0,0,0-.63,1.9A7.08,7.08,0,0,0,140.11,155.31Zm0.63-1.27c0.49-.46.28-1.62,0.32-2.53C139.71,151.54,140,153.68,140.74,154ZM86,153.72v-0.95H85A0.77,0.77,0,0,0,86,153.72Zm-4.75-.32c-0.77,1.06,1.06-.77,0,0h0ZM117,153.72h0.63v-0.63H117v0.63Zm18.68-.32c0.09,0.09.48-.15,0.31-0.32S135.51,153.24,135.68,153.41ZM26.78,154c-0.41,0-.44-0.41-0.95-0.32C25.34,154.5,26.91,154.65,26.78,154Zm34.82,0.32c0.09,0.09.48-.15,0.32-0.32S61.44,154.19,61.6,154.36ZM110,155c-1.15,1.49,1.85.42,0,0h0Zm7.28,1.27c0.09-.83-0.11-1.36-0.95-1.27C116.28,155.81,116.48,156.35,117.31,156.25Zm17.41-.95a0.32,0.32,0,0,0-.64,0C134.45,155.27,134.58,155.77,134.73,155.31Zm0.63,0c0.25-.07.63,0,0.63-0.32C135.74,155.06,135.37,155,135.36,155.31Zm-105.73.95v-0.95H28.68A0.77,0.77,0,0,0,29.63,156.25Zm103.51,0a1.35,1.35,0,0,0,.95,1.58c0.52-.49.14-1.48-0.32-1.9A0.49,0.49,0,0,1,133.14,156.25Zm-71.86.32c0-.18-0.26-0.36-0.32,0C61,156.75,61.22,156.93,61.29,156.57Zm2.21,0.32a2,2,0,0,1-.32.63c0.41,0,.44.4,0.95,0.32A0.87,0.87,0,0,0,63.5,156.89Zm79.14,0a2.7,2.7,0,0,0-.32,1.9,2.05,2.05,0,0,0,1.58-.32C143.73,157.7,143.63,156.84,142.64,156.89Zm-65.52,1.58a0.81,0.81,0,0,0-1.27-.95C75.75,158.35,76.29,158.56,77.12,158.47Zm46.85-.95c-1,1.06,1.17,1,0,0h0Zm-4.11,2.84v0.95C120.77,161.78,120.77,159.9,119.85,160.36Zm-84.2.95H35v0.63h0.63v-0.63Zm101.93,0.32c0.09,0.09.48-.15,0.31-0.32S137.41,161.47,137.58,161.63Zm1.27-.32c-0.56,1.42,1.68,1.14,1.58.32A2.06,2.06,0,0,0,138.84,161.31Zm17.09,1.58-68.69.32h0.95v-0.95H87.24v0.95Zm45.58-.95c-0.09-.09-0.48.15-0.32,0.32S133,162.43,132.83,162.26Zm-58.56.63c0.6,0,.22,1,1,0.95C76.2,163.26,74.58,162.07,74.26,162.9Zm31,0.63a0.68,0.68,0,1,0-1.27,0C104.88,163.5,104.66,164.06,105.29,163.53Zm5.06,1.58c0.69-.79-0.22-1.88-0.95-2.22C109.45,163.91,109.09,165.32,110.35,165.11Zm-11.71-1.27c0.09,0.09.48-.15,0.32-0.32S98.47,163.68,98.64,163.84Zm-70.91.95a8.57,8.57,0,0,1-.95-0.63v0.95h0.63C27.61,165.09,27.79,165.06,27.73,164.79ZM99,164.16c-0.26,1.13.68,1.57,1.27,0.95C100.32,164.28,99.78,164.07,99,164.16Zm-1.58,1.27a1,1,0,0,0-1.27,1.27C96.84,166.58,97.59,166.49,97.37,165.43Zm39.89,0.32c-0.72,1.29.51,3,1.27,3.79a4.89,4.89,0,0,0,.63-2.53C138,167.07,138.53,165.52,137.26,165.74ZM98,166.69a1.32,1.32,0,0,0,1.58.63C100,166.07,98.12,165.64,98,166.69Zm8.86,1.89c-0.23-1,.32-1.15.32-1.89-0.56-.28-0.8-0.89-1.9-0.63C105.53,167.18,105.64,168.45,106.87,168.59Zm-67.11.63c0.58-.62-0.09-1.77-0.32-2.53a2.07,2.07,0,0,0-1.59.32c-0.31,1.26.95,0.95,0.63,2.21h1.27Zm-13-.63c1,0.15.89-.79,1.27-1.26-0.6.07-.7-0.36-1.27-0.32C26.75,167.79,26.19,168,26.78,168.59Zm-2.21,0c0.58-.55-0.08-1-0.63-1.26C23.85,168,24,168.51,24.57,168.59Zm107.31,1.27a1.19,1.19,0,0,0,1.27-1.27C131.93,167.95,131.23,168.64,131.88,169.85Zm-40.2-.32h0.64c0-.4.4-0.44,0.32-0.95h-1v0.95Zm27.22-.63c0.47,0.05.29,0.76,0.32,1.26,0.83,0.1,1-.44.95-1.26C119.58,169.21,119.11,168,118.9,168.91Zm-61.73,1.58c0.51-.88-1.37-0.87-1.27-0.32A1.77,1.77,0,0,1,57.17,170.49Zm74.39,0.95h0.63c0-.4.41-0.44,0.32-0.95h-0.95v0.95Zm-93.7.95a0.66,0.66,0,1,0-1.27-.32A2,2,0,0,0,37.86,172.38Zm69,0c0.25-.07.63,0,0.63-0.32C107.26,172.14,106.88,172.07,106.87,172.38Zm38,0.95c-0.19,1.25.71,1.4,1.59,1.58C147.1,174.28,146,172.18,144.85,173.33Zm-50.33,2.21c1.57-.41,1.55.77,2.85,0.63,0.84-1.23-1.35-1.68-1.58-2.85H94.84C94.4,173.74,94.53,174.71,94.53,175.55Zm25-2.21c-0.09-.09-0.48.15-0.32,0.32S119.69,173.5,119.53,173.33Zm-26.59,2.21V174.6c-0.72-.09-1.19.07-1.27,0.63A2.07,2.07,0,0,0,92.94,175.55Zm6.33,0V174.6c-0.72-.09-1.19.07-1.27,0.63A2.07,2.07,0,0,0,99.27,175.55Zm22.16,0v0.95h1A0.77,0.77,0,0,0,121.43,175.55Zm-64.89.32c-0.09-.09-0.48.15-0.32,0.32S56.71,176,56.54,175.86Zm74.07,0.95v-0.95h-1A0.77,0.77,0,0,0,130.61,176.81Zm-51.6,0v0.95C79.94,178.22,79.94,176.35,79,176.81Zm-5.38.63a0.32,0.32,0,0,0,.63,0C73.91,177.48,73.77,177,73.63,177.44Zm23.11,0a0.72,0.72,0,0,0,.63,1.27C97.46,178,97.3,177.52,96.74,177.44Zm-9.5.64c0.61,0.13.25,1.23,1.27,0.95C88.64,178.33,87.56,177.28,87.24,178.08ZM122.06,180c-0.25.07-.62,0-0.64,0.32C121.68,180.22,122.06,180.28,122.06,180Zm-92.43.63c-0.25,1.91,1.45.21,0,0h0Zm51,0.63c0.09,0.09.48-.15,0.32-0.32S80.43,181.07,80.6,181.24Zm11.08,0c0.09,0.09.48-.15,0.32-0.32S91.51,181.07,91.67,181.24Zm50.65-.32v1.9h1.27C144,181.93,143.77,180.81,142.32,180.92Zm-52.55.32H89.14c0,0.41-.41.44-0.32,0.95h0.95v-0.95Zm40.84,0c0.13,0.61.11,1.36,0.95,1.27C132,182.07,131.72,181,130.61,181.24Zm-50,.32a0.68,0.68,0,1,0,1.27,0H80.6Zm63.95,0.63a2.07,2.07,0,0,1,.63.32c0-.5,0-1.1-0.63-0.95v0.63Zm-81.67,0c0,0.18.26,0.36,0.32,0C63.19,182,62.93,181.83,62.87,182.19Zm19.31-.32a1.49,1.49,0,0,1-.31.95,2,2,0,0,0,1.26.32C83,182.53,83,181.77,82.18,181.87Zm-5.06,2.21a5.94,5.94,0,0,1,2.53.32c-0.09.83,0.12,1.36,0.95,1.27a5.21,5.21,0,0,0,.63-2.22c-1.37-.48-1.11-1.38-2.53-1.27C79.33,184,77,182.83,77.12,184.09Zm8.23-1.9c-0.69.66,0.16,0.9,0,1.9C86.88,184.22,86.26,182.24,85.35,182.19Zm-22.48.63c-0.09-.09-0.48.15-0.32,0.32S63,183,62.87,182.82Zm-35.14.32c-0.09-.09-0.48.15-0.32,0.32S27.9,183.3,27.73,183.14Zm26.59,1.27H55v-0.63H54.32v0.63Zm38.93,0c-0.6-.14-0.79-0.68-1.58-0.63,0.26,1.09-.59,1.34,0,1.9A1.25,1.25,0,0,0,93.26,184.4ZM107.82,185a0.87,0.87,0,0,0-.63-0.95C106.73,184.55,106.72,185.31,107.82,185Zm-71.54.32A2,2,0,0,0,35,185V186C35.73,186.07,36.21,185.91,36.28,185.35Zm68.06-.32v0.63H105V185h-0.63Zm-34.19,1.58V186C69.56,184.93,68.61,186.93,70.15,186.62ZM130,187.57c0.93,0.08,1.21-1.23.32-1.27A2.05,2.05,0,0,0,130,187.57Zm-6.33.63c0.06-.91,0-1.73-0.95-1.58C122,187.34,122.62,188.3,123.65,188.2Zm22.16-1c0.09,0.09.48-.15,0.32-0.31S145.64,187.09,145.81,187.25Zm-18,0a1.14,1.14,0,0,0,.95,1.58,2,2,0,0,0,.32-1.58h-1.27Zm6.33,1.27H135v-0.95h-0.95v0.95Zm-10.13,0a1.18,1.18,0,0,0,0,1.58,1.78,1.78,0,0,0,1.27-.32A1.19,1.19,0,0,0,124,188.51ZM80.6,191.36c0.48,0,.7-2.34-0.32-1.9C80.74,190.41,79.17,191.39,80.6,191.36Zm48.11-1.9c-0.21.85,0.66,0.61,0.95,0.95A0.77,0.77,0,0,0,128.71,189.46Zm8.23,0.95h0.64c0-.4.4-0.44,0.31-0.95h-0.95v0.95Zm-58.24-.63c-0.09-.09-0.48.15-0.32,0.32S78.86,189.94,78.7,189.78Zm3.8,0.63c0.6,0.56.23,2.09,1.58,1.9a5.19,5.19,0,0,1,.32-2.21C84,189.66,82.5,189.54,82.49,190.41Zm-18.36,1.27a1,1,0,0,0-.95-1.58C63.12,191,63.15,191.82,64.13,191.68Zm43.05,0.63a1.24,1.24,0,0,0-.63-2.21C106.26,190.89,105.95,192.26,107.19,192.31Zm11.08-.63c0.09,0.09.48-.15,0.32-0.32S118.1,191.51,118.26,191.68Zm-38,.32c0.09,0.09.48-.15,0.32-0.32S80.12,191.83,80.28,192Zm38.3,0.63c0.09,0.09.48-.15,0.32-0.32S118.42,192.46,118.58,192.63Zm10.77,2.85c0.08-.45.69-0.36,0.95-0.63,0.21-1.48-.72-1.81-1.59-2.21C128.44,193.83,128.2,195,129.35,195.47Zm-13.3-.63a2.06,2.06,0,0,0,.32-1.27c-0.6.07-.7-0.36-1.27-0.32C115,194.16,115.06,195,116,194.84Zm-12-1.27h-0.63v0.63H104v-0.63Zm36.4,0a2.06,2.06,0,0,0-.32,1.27c1.88-.25-0.23,2.07,1.9,1.9-0.23-.94-0.95-1.38-0.64-2.85A1.48,1.48,0,0,1,140.42,193.57Zm-70.59,2.85a1.51,1.51,0,0,0-.95-1.9A1.14,1.14,0,0,0,69.83,196.42Zm36.09-1.27c0-.18-0.26-0.36-0.32,0C105.6,195.33,105.86,195.52,105.92,195.16Zm14.88,0.32h-0.95v0.95h0.95v-0.95Zm18,1.27c0.84,0.09,1-.44.95-1.27C139,195.38,138.75,195.91,138.84,196.74ZM136.63,198c0.25-.07.62,0,0.63-0.32C137,197.76,136.63,197.7,136.63,198Zm2.85,0c0.36,0,.49.46,0.63,0A0.32,0.32,0,0,0,139.47,198Zm-4.12.63c0.11,0.74.21,1.48,1.27,1.27C136.52,199.16,136.42,198.42,135.36,198.63Zm-4.43,3.48c1.37,1.62,4.18-.48,2.85-2.53-1.14.26-1.53-.71-2.21,0-0.62,1.19,1.63,1.07.63,1.58C132,200.54,131.58,202.2,130.93,202.11Zm10.76-1.9c-0.89,1,.27,1.84,1.58,1.58A2.05,2.05,0,0,0,141.69,200.22Zm-33.24,1.58c-1,.19-1-0.59-1.58,0a1.78,1.78,0,0,0,.32,1.27h1.27V201.8ZM32.8,203.06a0.49,0.49,0,0,1,.63-0.32C33.44,200.88,31.26,202.43,32.8,203.06Zm93.38-1.27h-1.27C124.85,202.83,126.4,203,126.18,201.8ZM46.72,205v-1.9c-0.6.07-.7-0.36-1.27-0.32C45.06,203.3,45.09,205.46,46.72,205Zm87.05-1.9c0.36,0,.5.46,0.63,0A0.32,0.32,0,0,0,133.78,203.06Zm7.28,0c0.09,0.09.48-.15,0.32-0.32S140.89,202.9,141.06,203.06ZM99,204c-0.45.46-.46,1.22,0.63,0.95A0.87,0.87,0,0,0,99,204Zm8.86,0.32c-0.09.83,0.44,1,1.27,0.95C109.18,204.45,108.65,204.24,107.82,204.33Zm-28.49,1.27a2.06,2.06,0,0,0,1.27.32C80.68,205,79.37,204.7,79.33,205.59Zm63.31,0.63h0.63v-0.63h-0.63v0.63Zm-34.19,0c0.32,1.53-1.42,2.13.32,2.84a7.53,7.53,0,0,0,.95-2.53A2,2,0,0,0,108.45,206.23Zm27.54,0c-0.62.59-.18,1.52,0.95,1.27C136.81,206.89,136.83,206.13,136,206.23Zm-69.32,1.58c-0.1.84,0.44,1,1.27,0.95,0.09-.82-0.12-1.36-1-1.26C67,207.68,66.94,207.86,66.67,207.81Zm53.81,0.32c-1.07-1-1,1.17,0,0h0Zm-56,.95a1.55,1.55,0,0,0-1.58-.63C62.21,210.09,64.57,210.68,64.45,209.07Zm34.19,0a0.32,0.32,0,0,0,.63,0C98.92,209.11,98.78,208.61,98.64,209.07ZM135,209.7a1,1,0,0,1,.32,1.58c1.43,0.22.73-.53,0.63-1.27a1.4,1.4,0,0,0,.64-1.27A1.73,1.73,0,0,0,135,209.7Zm2.85-.32h-0.63V210h0.63v-0.63Zm0,1.9h1.59c0.47-1,.37-2.2-0.95-2.22C138.26,209.75,137.71,210.15,137.89,211.29ZM38.49,210a0.32,0.32,0,0,0-.63,0C37.93,210.4,38.21,210.22,38.49,210Zm39.57,1.58c0.3,0.64.64,1.25,0.95,1.9-0.89.6-.76,3.33,1.27,2.85,0.57-1.08-.36-1.47-0.32-2.85,0.08-1.08.8-1.52,0.63-2.85-0.49-.35-0.66-1-1.58-0.95C79.92,211.11,78.07,210.33,78.06,211.6Zm61.73,0a2.14,2.14,0,0,1-.32.63c0.41,0,.44.41,0.95,0.32A0.87,0.87,0,0,0,139.79,211.6Zm-46.54,1.58a0.68,0.68,0,1,0,0-1.27C92.73,212.55,93.29,212.32,93.26,213.18Zm16.78-.63c-0.66.65,0,1.61,0.95,1.58A1.73,1.73,0,0,0,110,212.55Zm2.21,4.43a1.41,1.41,0,0,0-1.27-2.21C111,215.93,111.13,216.95,112.25,217Zm-0.63-3.8c0.19,1.8,1.91,2.34.95,4.43,0.13,0.61,1.23.25,0.95,1.26-0.18.66-.79,0.9-0.63,1.9-0.3-.33-1.63-0.29-1.58.63,0,0.52.88,0.18,0.95,0.63-0.26,1.59.51,1,.95,1.9,0.27,0.55-.09,1.18.32,1.9,1,0.23.61-.87,1.58-0.63,0.62,0.59.1,1.16,0,1.89-0.64-.18-0.62-0.95-1.27-0.32-0.07,1.13.21,1.9,0.95,2.21,0.3-.64,1.21-0.68,2.21-0.63,0.57-.64-0.59-1.35-0.63-1.89-0.05-.74.57-0.67,0-1.27a5.69,5.69,0,0,1-1-1.58s0.48,0,.32-0.32-0.73-.55-0.95-0.95c-0.57-1-.11-1.95-0.63-3.16a0.49,0.49,0,0,0,.32-0.63,2,2,0,0,0,1.27.32c0.14-1.4-.86-1.67-1.27-2.53,1.17-.23-1-1.8.63-1.58C114.75,212.95,113.31,212,111.62,213.18Zm-64.26,1.9c0.05-.37.5-0.34,0.95-0.32,0.16-1.32-.8-1.52-1.9-1.58C46.65,213.89,46.59,214.9,47.36,215.08Zm33.55-1.58v0.95h1A0.77,0.77,0,0,0,80.91,213.5Zm3.16,2.21a0.87,0.87,0,0,0,.64-0.95c-1.26-.79-2.43.7-2.22,1.9s1,1.32,2.22,1.58A4.9,4.9,0,0,0,84.08,215.72Zm18.68,0.95h0.95v-0.95h-0.95v0.95ZM124.6,216h-0.95a0.77,0.77,0,0,0,.95.95V216Zm-43.05.32c0.05,0.47-.11,1.16.32,1.27C82.08,217.38,82.65,216.06,81.55,216.35Zm37.67,0.32v1.26h0.95C120.26,217.1,120,216.57,119.22,216.66Zm-9.18.63c-0.09-.09-0.48.15-0.32,0.32S110.2,217.46,110,217.3Zm10.76,1.89c0.62,0.63,1.8.2,2.53,0a2.91,2.91,0,0,0-1.27-1.89C121.65,217.94,120.53,217.87,120.8,219.19Zm2.53-1.27a2,2,0,0,0,1.27.32A0.66,0.66,0,1,0,123.33,217.93Zm-41.47.32c-0.09-.09-0.48.15-0.32,0.31S82,218.41,81.87,218.25Zm27.54,2.21c1.19,0.26.59-1.95,0.32-2.21h-0.95C109,219,108.2,220.71,109.4,220.46Zm1.9-1.9c0.28,0.67,0,1.89,1.27,1.59C112.55,219.22,111.84,219,111.3,218.56Zm-84.2.32v0.95h0.63c0-.4.41-0.44,0.32-0.95H27.1Zm102.56,0.63a2.11,2.11,0,0,1,.64.32c0-.5,0-1.09-0.64-0.95v0.63Zm6.33-.63v1.58h1.27A1.26,1.26,0,0,0,136,218.88Zm-60.46,1.27v-1c-0.72-.09-1.19.08-1.27,0.63A2.07,2.07,0,0,0,75.53,220.15Zm41.46-.64c-0.06.91,0,1.73,0.95,1.58C118.61,220.44,117.95,219.49,117,219.51Zm23.74,0a0.93,0.93,0,0,0,.95,1.58C141.75,220.18,141.73,219.36,140.74,219.51Zm-18.68.64v0.95C123,221.56,123,219.68,122.06,220.15Zm-62,2.21c0.13-.76-0.58-0.69-0.32-1.58-1.19-.24-1.07.83-1.58,1.27A2.68,2.68,0,0,0,60,222.36Zm39.89-1.27V222C100.83,222.5,100.83,220.63,99.91,221.09Zm-19,1.27h0.63v-0.63H80.91v0.63Zm18.36,1.27c1-.64-0.66-2.26-1.27-1.27C98.65,222.56,98.1,224,99.27,223.62Zm4.12-.32c-0.25.07-.62,0-0.63,0.32C103,223.55,103.38,223.61,103.39,223.31Zm28.8,0.32h-0.95a0.77,0.77,0,0,0,.95.95v-0.95Zm-19.62.32H111.3v1.27C112,225.09,112.78,225,112.57,223.94Zm-37.35,2.22c0.89,0.26.82-.45,1.58-0.32a1.25,1.25,0,0,0-1.26-1.58A2.66,2.66,0,0,0,75.22,226.15Zm4.75-1.9c-0.09-.09-0.48.15-0.32,0.32S80.13,224.42,80,224.25Zm58.56,0.63c0,0.18.26,0.36,0.32,0C138.84,224.71,138.58,224.53,138.53,224.89Zm-30.71,1.58c-0.18-.56-0.16-1.32-0.63-1.58C107.14,225.67,107.13,226.42,107.82,226.47Zm20.26-.32c0.72,0.09,1.19-.08,1.27-0.63C128.62,225.43,128.15,225.59,128.08,226.15Zm9.81,0.32c-0.79,0-1-.61-1.26.31A0.78,0.78,0,0,0,137.89,226.47Zm-55.07,0H81.87a0.77,0.77,0,0,0,.95.95v-0.95Zm34.82,0.63c-0.09-.09-0.48.16-0.32,0.32S117.8,227.26,117.63,227.1Zm23.74,0.32c0.2,0,.38,0,0.32.31a2,2,0,0,0-1.27-.31v0.95C141.82,229,142.55,226.47,141.37,227.42Zm-35.45.63c0.09,0.09.48-.16,0.32-0.32S105.76,227.89,105.92,228.05Zm32.92,0a1.17,1.17,0,0,0,0,1.58C140.26,229.79,139.88,228,138.84,228.05ZM28.68,230.26a1.78,1.78,0,0,0,1.27-.32c0-1-.81-1.09-1.58-1.27C28.24,229.44,28.94,229.37,28.68,230.26Zm47.8-.63H75.53a0.77,0.77,0,0,0,.95.95v-0.95Zm38.62,0.32c-0.67-.63-2-0.1-1.58,1.27A1.58,1.58,0,0,0,115.1,229.95Zm9.18,0.63c-0.33,1.18.67,1,.95,1.58,0.21,1.16-.68,1.21-0.63,2.21,1.16,0,1-1.27,1.58-1.9a2.07,2.07,0,0,0,.32,1.58c1.61-.62.87,0.45,2.21,0.63a0.88,0.88,0,0,1,.64-0.95c0.53,0.63,0,.4,0,1.27h1.27a4.72,4.72,0,0,0,0-2.53c-0.41-.32-1.17-0.31-1.58-0.63-0.39,1,1,.24.63,1.27-1-.23-1.15.32-1.9,0.32a2.9,2.9,0,0,0-1.58-1.9c0-.4.41-0.44,0.32-0.95-0.84,0-.69-1-1.58-0.95C125,230.47,125.56,230.67,124.28,230.58Zm-4.11.32c-0.12,1.29,1.35,1,1.58,1.9,0.13,0.61.11,1.36,0.95,1.27-0.24-1.19.39-1.51,0.32-2.53C122.46,230.95,121.19,230,120.17,230.9Zm13.61,0.63h0.63a2.05,2.05,0,0,1,.32-0.63c-0.41,0-.44-0.41-1-0.32v0.95Zm-51.28.63a0.93,0.93,0,0,0-1.58-.95,1.39,1.39,0,0,0,.63,1.27C81.6,232.11,82,232.13,82.49,232.16ZM79,231.21c0.07,0.6-.36.7-0.32,1.27a2.06,2.06,0,0,0,1.27.32C80,231.89,80,231.07,79,231.21Zm53.81,0.32c-0.37.05-.9-0.05-0.95,0.32,0.37,0.05.34,0.5,0.32,0.95C133.37,232.75,133,232.33,132.83,231.53Zm-29.75,1.9c0.09-.72-0.08-1.19-0.63-1.27A0.72,0.72,0,0,0,103.07,233.43Zm12,1.58c-0.56-.19-1.32.93-1.58,0,1-.06,1.89-0.22,1.9-1.27-0.76.13-.69-0.58-1.58-0.32-0.28.46-.25,1.23-1.27,0.95,0,1.77,1.58,2,2.53,2.84C115,235.91,115.51,236,115.1,235Zm-47.48-.95H67v0.63h0.64v-0.63Zm19.63,0.63c-0.09-.09-0.48.15-0.32,0.32S87.41,234.86,87.24,234.69Zm-9.18.63c-0.41,0-.44-0.41-0.95-0.32a2,2,0,0,0-.32,1.27C77.63,236.36,78.16,236.16,78.06,235.32Zm2.85,0a0.32,0.32,0,0,0,.63,0C81.19,235.36,81.05,234.86,80.91,235.32Zm50.65,2.21c-0.45-1.37,1.08-1.45.32-2.21C130.46,235.07,129.49,237.93,131.56,237.54Zm-50,.95A8.57,8.57,0,0,0,80.28,236c-0.25,1.38-2.25-.64-1.9,1.58C80.25,237,80,238.65,81.55,238.49Zm45.27-1.58v0.95C127.74,238.32,127.74,236.44,126.81,236.91Zm-97.18,1.58H30.9a1,1,0,0,0-1.27-1.27v1.27Zm58.25-.32c-0.4,0-.44-0.4-0.95-0.31C86.44,238.63,88,238.78,87.88,238.17Zm35.45,0.32H124v-0.63h-0.63v0.63Zm-2.22,1.27a8.33,8.33,0,0,1,.63-0.95c-0.63,0-.4-0.87-1.27-0.64,0,0.2,0,.38-0.32.32A1.28,1.28,0,0,0,121.12,239.75Zm11.08-1.58h-0.95a0.77,0.77,0,0,0,.95.95v-0.95Zm-49.7,1.9a0.71,0.71,0,0,0-.63-1.26A1.38,1.38,0,0,0,82.49,240.07Zm1.9-.32c0.87,0.84,1.74-.12,1.9-0.95A1.8,1.8,0,0,0,84.4,239.75Zm-40.84,0H42.29c0.11,0.73.21,1.48,1.27,1.27v-1.27Zm84.84,0.95v-0.95h-0.95A0.77,0.77,0,0,0,128.4,240.7Zm-16.14.63v0.95h0.95A0.77,0.77,0,0,0,112.25,241.33Zm9.81,1.27c0.22-.85-0.65-0.61-0.95-0.95,0,0.63-.87.4-0.63,1.27a4.89,4.89,0,0,0,2.53.63C123.21,242.72,122.88,242.41,122.06,242.6Zm-9.81.63c-0.2-.71-0.78-0.4-1.27-0.63a6.4,6.4,0,0,0-.32-0.63c-0.78-.32-0.71.4-0.95,0.63s-1.25-.2-1.58,0c0.82,1.43-.44,2.46,1.58,2.53,0.88-.47-0.55-1.3.32-1.58,1.16-.11.29,1.82,1.9,1.27C111.71,244.15,112.38,243.72,112.25,243.23ZM137.58,242h-1.27A0.68,0.68,0,1,0,137.58,242Zm3.8,0.63c0.49-.78-1.07-0.93-0.95-0.32,0.2,0,.38,0,0.32.32h0.63Zm-98.13-.32v0.95C44.17,243.7,44.17,241.82,43.24,242.28Zm43.37,1.58h0.63v-0.63H86.61v0.63Zm-2.21-.32c-0.69.85-.12,2,0.95,1.27C85.43,244,85.23,243.45,84.4,243.55Zm50,0c-0.09-.09-0.48.15-0.32,0.32S134.57,243.71,134.41,243.55Zm-20.26,1.58a0.93,0.93,0,0,0-1.58-.95C112.42,245.17,113.24,245.19,114.15,245.13Zm19-.63a8.87,8.87,0,0,1-.95-0.63,2.05,2.05,0,0,0-.32,1.27C132.6,245.22,133.07,245.05,133.14,244.5ZM55,246.71c0.11-.84.79-1.11,0.95-1.9,0-.7-0.8-0.68-1.58-0.63C54.3,245.25,54.22,246.39,55,246.71Zm60.46-1.27c0-.19,0-0.37.32-0.31,0-.39-0.09-0.75-0.63-0.63C115.15,244.87,115,245.4,115.42,245.44Zm-58.88-.31c0.2,0,.38,0,0.32.31h0.63C58,244.66,56.41,244.52,56.54,245.13Zm-2.85.63c0-.57-0.32-0.74-0.95-0.63v0.63h0.95Zm10.13,0c-0.09.83,0.44,1,1.27,0.95,0.09-.83-0.11-1.36-0.95-1.27C64.12,245.64,64.09,245.82,63.82,245.76Zm61.41,0h-0.95a0.77,0.77,0,0,0,.95.95v-0.95Zm-81.67.95a1.54,1.54,0,0,0-1.59-.63C41.31,247.72,43.68,248.32,43.56,246.71Zm94-.63c-0.52.51,0.28,1.32,0,2.53,1-.23,1.15.32,1.9,0.32A2.59,2.59,0,0,0,137.58,246.08Zm-23.43,2.21c0.43-1.29-1.55-1.79-1.9-1.27C113.23,247.1,112.79,248.6,114.15,248.29Zm11.39-.95c0.42,0.41,1.18.42,1.27-.32A0.7,0.7,0,0,0,125.55,247.34ZM80.6,249.56c-0.19.82,0.13,1.14,0.95,0.95,0.13-.76-0.58-0.69-0.32-1.58-1.39.84-2-.9-2.53,0.32,0.57,0,.74.32,0.63,0.95C80.19,250.42,80,249.56,80.6,249.56Zm14.25,0.95c0.05,0.89-.27,2.17.63,2.22,0.18-.77,1.22-0.68.95-1.9-1.09-.7-1.07-2.51-3.17-2.21C93.33,249.7,94.55,249.64,94.84,250.5Zm19.31-1.58v0.95h0.63a2,2,0,0,1,.32-0.63C114.7,249.22,114.66,248.83,114.15,248.92Zm-42.73.63c0.07,0.38.35,0.2,0.63,0A0.32,0.32,0,0,0,71.42,249.56Zm66.16,0a2,2,0,0,0-.32,1.27h0.95C138.13,250.26,138.53,249.24,137.58,249.56Zm-59.2,1.9c0.15-.63.69-1.47-0.63-1.58C77.7,250.66,77.69,251.41,78.38,251.45Zm53.81-.32a1.19,1.19,0,0,0,1.58-.32c-0.37-.05-0.34-0.5-0.32-0.95A1.19,1.19,0,0,0,132.19,251.14Zm-86.42-.95c-0.09-.09-0.48.15-0.32,0.32S45.94,250.35,45.78,250.19Zm16.78,0.95c0.14-1-.68-1-1.58-0.95A0.93,0.93,0,0,0,62.55,251.14Zm66.16,0h-0.95v0.95h0.95v-0.95ZM45.78,253a1.25,1.25,0,0,0-1.58-1.27C44,252.94,44.69,253.17,45.78,253Zm11.71-.32c0.63,0.53.4,0,1.27,0A0.68,0.68,0,1,0,57.49,252.72ZM41,253.67a1,1,0,0,0,1.26-1.27H40.71C40.64,253,41.07,253.1,41,253.67Zm16.46,0.95a2,2,0,0,0-1.27-.32c0.07,0.6-.36.7-0.32,1.27C56.81,255.63,57.63,255.61,57.49,254.62Zm74.07,2.53c0.09-.82-0.11-1.36-0.95-1.26,0,0.19,0,.37-0.32.31C130.2,257,130.73,257.24,131.56,257.15Zm-32.29-.32h0.64V256.2H99.27v0.63Zm-44,0c-0.11-.25-0.84-0.38-0.95,0C54.11,257.56,55.56,257.51,55.27,256.83Zm33.24,0.32c-0.86,0-.64-0.52-1.27,0A0.68,0.68,0,1,0,88.51,257.15Zm13,0.32v1.27A0.68,0.68,0,1,0,101.49,257.46Zm18,3.16c0.09-.83-0.44-1-1.27-0.95C117.95,260.73,118.71,260.72,119.53,260.63Zm-47.17-.32c-0.09-.09-0.48.15-0.32,0.32S72.53,260.47,72.37,260.31Zm27.86,0a2,2,0,0,0-.31,1.27h0.95C100.94,260.85,100.78,260.39,100.22,260.31Zm9.5,1.58h-1.27a1.14,1.14,0,0,0,.95,1.58A2,2,0,0,0,109.72,261.89Zm18,0.95c-0.86,0-.63-0.53-1.27,0A0.68,0.68,0,1,0,127.76,262.84ZM85,263.79a0.87,0.87,0,0,0-.63-0.95C83.94,263.3,83.93,264.06,85,263.79Zm47.48-.63c0.09,0.09.48-.15,0.32-0.32S132.35,263,132.51,263.16ZM67,266.63c0.45-.75-0.5-2.3-1.58-2.53C65.4,265.48,65.87,266.38,67,266.63Zm42.73-1.9V266a1.79,1.79,0,0,0,1.27-.31C111.08,264.85,110.55,264.65,109.72,264.74Zm-15.19.32V266C95.45,266.47,95.45,264.59,94.53,265.06Zm1.9,0.32c-0.13,1.08.09,1.8,1.27,1.58A1.26,1.26,0,0,0,96.42,265.37Zm26.59,0c-0.09-.09-0.48.15-0.32,0.32S123.18,265.54,123,265.37ZM51.79,266c-0.09-.09-0.48.15-0.32,0.32S52,266.16,51.79,266Zm4.75,2.53v-0.95c-0.37.05-.9-0.05-0.95,0.32C56.09,267.93,55.84,268.71,56.54,268.53ZM92.63,272a0.93,0.93,0,0,1,.63-0.63,5.39,5.39,0,0,0-1.58-2.85c-0.43.84-1.66,0.86-1.58,2.21C91.66,270.45,91.16,272.21,92.63,272Zm-8.86-2.85c-0.11-.25-0.84-0.38-0.95,0C82.6,269.9,84,269.85,83.76,269.16Zm59.82,0.95c0.23-.86-0.63-0.64-0.63-1.27H142v1.58c1.19-.24,1.51.39,2.53,0.32C144.58,270.18,144.22,270,143.59,270.11Zm-88.95-.63c0.08,0.09.48-.15,0.31-0.32S54.47,269.32,54.64,269.48ZM137.26,272c0.43-1.61-.63-1.28-1.27-1.58s0.09-1.67-.95-1.27C135.51,270.38,135.17,272.41,137.26,272ZM80.6,273a2.62,2.62,0,0,0,2.22,0c0.48,0.68.35,2,1.26,2.21,0-1.12,1.17-1.15,1-2.53-1.44-.59-0.43,1.26-1.59.95-0.57-1.94,1.61-1.13,1.27-2.85-0.9-.05-0.74.95-1.59,0.95,0-.69-0.8-0.68-1.58-0.63-0.32-.73-0.43-1.68-1.58-1.58C80.38,270.57,81.08,271.87,80.6,273Zm15.83-3.16H95.47v1.27C96.31,271.16,96.51,270.63,96.42,269.8Zm0.63,0.63c-0.5.47-.46,1.8,0.63,1.58C97.88,271.26,98.17,270.54,97.06,270.43Zm-20.89.32v1.58h1.27C77.69,271.12,76.76,271.11,76.16,270.75Zm1.9,0c-0.09.83,0.44,1,1.27,0.95C79.43,270.86,78.89,270.66,78.06,270.75Zm22.79,0.95a0.77,0.77,0,0,0-.95-0.95A0.77,0.77,0,0,0,100.86,271.7Zm-13-.63H86.61c0.35,1.23-.24,3.4,1.58,3.16a2.06,2.06,0,0,1,.32-1.58C86.4,272.77,88,272.32,87.88,271.06Zm26.59,0c-0.25,1.91,1.45.21,0,0h0Zm-26.27.63c0,0.18.26,0.36,0.32,0C88.51,271.52,88.25,271.34,88.19,271.7Zm-26.91.95c0.1-.83-0.44-1-1.27-0.95C59.76,272.83,60.7,273.27,61.29,272.65Zm38.62,0H98.64a1,1,0,0,0,1.27,1.27v-1.27Zm6,0.32c-0.33.26-1.33,2.29,0,2.21C106.26,274.53,107.7,273,105.92,273Zm-32.29,2.53q2.15,0.26,1.9-1.89a1.78,1.78,0,0,1-1.27-.32A2.4,2.4,0,0,0,73.63,275.49Zm5.07-2.21v0.95C79.62,274.69,79.62,272.81,78.7,273.28Zm-15.2,2.53c0-1-.81-1.08-1.58-1.26-0.59.6,0.19,0.57,0,1.58A2.07,2.07,0,0,0,63.5,275.81Zm1.27-.95c0.25-.07.63,0,0.64-0.32C65.16,274.61,64.78,274.55,64.77,274.86Zm4.12,0.32c-0.36,0-.49-0.46-0.63,0A0.32,0.32,0,0,0,68.88,275.18Zm53.5,0.63H123a2,2,0,0,1,.32-0.63c-0.41,0-.44-0.41-0.95-0.32v0.95Zm23.11-.63h-0.95v0.95h0.95v-0.95Zm-39.88.95c0,0.18.26,0.36,0.32,0C105.92,275.95,105.66,275.77,105.6,276.13Zm-7.28.95h0.95v-0.95H98.64C98.62,276.53,98.24,276.56,98.32,277.07Zm18,0.63c-0.26,1.91,1.45.21,0,0h0Zm20.89,0c-0.25.07-.62,0-0.63,0.32C136.87,277.95,137.25,278,137.26,277.7Zm-17.41.32V279h0.63a2.05,2.05,0,0,1,.32-0.63C120.39,278.32,120.36,277.93,119.85,278Zm4.11,0.32c-1.29.29-1.67,1.49-3.16,1.58v1.9c1.18,0.33.62-1.07,1.27-1.27,1.18-.08,1.77-0.76,2.85-0.95C125.19,278.59,124.09,278.95,124,278.34Zm1.58,2.85v-0.95c-0.72-.09-1.19.08-1.27,0.63A2.06,2.06,0,0,0,125.55,281.18Zm-23.11-.63c-0.72-.09-1.19.08-1.27,0.63A0.72,0.72,0,0,0,102.44,280.55Zm43.37,1.58-37.67-.95c0.23,0.86-.63.64-0.63,1.27C108.75,282.84,109.21,281.34,108.13,281.18Zm15.2,1.27c0.09-.83-0.11-1.36-0.95-1.27a2,2,0,0,0-.32,1.27h1.27Zm-67.43.32c0.1-.84-0.44-1-1.26-0.95C54.38,282.95,55.31,283.39,55.9,282.77Zm77.24,0v-0.63C132.56,281.08,131.6,283.08,133.14,282.77Zm-31.34-.32c0,0.86-.53.64,0,1.27A0.68,0.68,0,1,0,101.81,282.45Zm-36.72.95c0.06,1.09.27,2.05,1.59,1.89C66.8,284,66.35,283.3,65.08,283.4ZM123,283.72c-0.41,0-.44-0.41-0.95-0.32-0.57.82,0.14,1-.32,1.89A1.25,1.25,0,0,0,123,283.72ZM67.3,284a0.87,0.87,0,0,0,.63.63C68.77,284.41,67.73,282.89,67.3,284Zm59.19,1.89c0.41-.42.42-1.18-0.32-1.26C125.77,285.08,125.76,285.84,126.49,285.93Zm-19-.63a1,1,0,0,0,1.27,1.27A1.19,1.19,0,0,0,107.5,285.29ZM135,285.61v0.63h0.64v-0.63H135Zm-57,.63c0,1.27.16,2.36,1.58,2.21C80.43,287.45,79.4,286.13,78.06,286.25Zm11.39,0c0.23,1.17-.54,1.36-0.32,2.53C90.86,289.45,90.92,285.94,89.46,286.25Zm19.94,0.63c-0.45.46-.46,1.23,0.64,0.95A0.88,0.88,0,0,0,109.4,286.88ZM92,287.51c-1,1.07,1.17,1,0,0h0Zm14.56,1.27a1.45,1.45,0,0,0,1.27,2.21C108.58,290.07,107.46,289,106.55,288.77ZM143,289.72h0.95v-0.95H143v0.95Zm-68.38-.63c-0.22,1.17.5,1.4,1.58,1.27C76.38,289.19,75.66,289,74.58,289.09ZM50.53,293.2a3,3,0,0,0,.95-1.58c-0.88-.49-0.76-2-2.22-1.9C49.76,290.81,49.29,292.85,50.53,293.2ZM141.06,290c0-.18-0.25-0.36-0.32,0C140.74,290.22,141,290.4,141.06,290ZM105,291h0.95A0.77,0.77,0,0,0,105,290V291Zm13.29-.63c-0.83-.09-1,0.44-0.95,1.27C118.15,291.72,118.36,291.18,118.26,290.36ZM59.39,291c-2.56-1.5-.74,2.7,0,0h0Zm45.27-.32c-0.72-.09-1.19.07-1.27,0.63A0.72,0.72,0,0,0,104.65,290.67Zm3.48,1.58c0.22,1,.68,1.86,2.21,1.58C110.55,292.41,108.75,291.87,108.13,292.25Zm-51,.63c0,0.18.26,0.36,0.32,0C57.49,292.71,57.23,292.53,57.17,292.89Zm76.61,1.89c0.74-.73.08-1.68-0.95-1.58C132.44,294.12,132.67,294.65,133.78,294.78Zm-33.87-1.26c-0.48,1.37,1.45,1.7,1.58.63C100.88,294,100.92,293.25,99.91,293.52Zm40.52,1.9c0.16-1.32-.8-1.52-1.9-1.58,0.25,0.7.18,1.71,0.95,1.89C139.53,295.36,140,295.39,140.42,295.42ZM47,296.05c0.29-1.34-.76-1.35-1.9-1.27C45.12,295.86,46.1,296.9,47,296.05Zm73.44,0.31c0.5-.47.46-1.8-0.63-1.58C119.35,295.26,119.38,296.59,120.48,296.36ZM137.58,297c-0.25.07-.62,0-0.64,0.31C137.19,297.24,137.56,297.31,137.58,297ZM104,299.21c0.5-.47.46-1.8-0.63-1.58C103.34,298.41,103.33,299.16,104,299.21Zm-52.55.95a2.06,2.06,0,0,0-1.59-.32c0,0.79-.05,1.54.64,1.58C50.65,300.82,51.75,301.18,51.47,300.16Zm6.33,0.32a2.14,2.14,0,0,1,.63.32c0-.5,0-1.1-0.63-0.95v0.63Zm39.25-.32a1.19,1.19,0,0,0,1.27,1.27C98.64,300.18,97.62,299.59,97.06,300.16Zm44,0c-0.77,1.06,1.06-.77,0,0h0Zm-20.57,1.27v-1.27A0.68,0.68,0,1,0,120.48,301.43Zm25.32,0.95c0.09-.83-0.12-1.36-1-1.27C144.77,301.93,145,302.47,145.81,302.38Zm-67.11.95c0.94-.73-1.15-2.53-1.58-0.95C77.68,302.66,77.52,303.66,78.7,303.32Zm-20.26.32a1.73,1.73,0,0,0,2.21-.32A1.14,1.14,0,1,0,58.44,303.64Zm37.35-.32v-1.27H94.84C94.75,302.88,94.73,303.64,95.79,303.32Zm0.63-.95c1.07,1,1-1.17,0,0h0Zm1.9,0.32v0.63h0.95C99.31,302.75,99,302.58,98.32,302.69ZM110,303c-0.09-.09-0.48.15-0.32,0.32S110.2,303.17,110,303Zm3.8,1.58c0.06-.9,0-1.72-0.95-1.58a2,2,0,0,0-.32,1.58h1.27ZM116,303a1.17,1.17,0,0,0,0,1.58,1.77,1.77,0,0,0,1.27-.31A1.19,1.19,0,0,0,116,303Zm7.6,1.27c-0.72-.09-1.19.07-1.27,0.63A0.72,0.72,0,0,0,123.65,304.27Zm-48.11,4.11c0.27-1.2-1.42-1.12-1.9-.63C73.71,308.93,74.76,308.64,75.53,308.38Zm0.32-.95V309C77.91,309.66,77.91,306.8,75.85,307.43ZM122.06,310c0.09,0.09.48-.15,0.32-0.32S121.9,309.8,122.06,310Zm2.22,0.63c0.08-.93-1.23-1.21-1.27-0.32A2.06,2.06,0,0,0,124.28,310.6Zm-56.34-.32a2,2,0,0,0-.32,1.27h0.95C68.65,310.82,68.49,310.36,67.94,310.28Zm48.75,0.63c-0.14,1,.8.89,1.27,1.27A1,1,0,0,0,116.68,310.91Zm-69,.95c-0.5-.14-0.27-1-1.26-0.63-0.51.75-.78,1.51,0,2.21C46.46,312.55,47.92,313.05,47.67,311.86Zm89-.63c0.37,1.13,2.06,2.3,2.21.32A5.2,5.2,0,0,0,136.63,311.23Zm-66.79.95c-0.86,0-.64-0.53-1.27,0A0.68,0.68,0,1,0,69.83,312.18Zm37.35,0.95c0.09-.83-0.11-1.36-0.95-1.27C106.15,312.69,106.35,313.22,107.19,313.13Zm8.55-.63c0.3,1.2,0,1.48.32,2.21C117.87,314.65,116.37,312.87,115.73,312.5Zm-0.63.63c0-.18-0.26-0.36-0.32,0C114.78,313.31,115,313.49,115.1,313.13Zm-0.63,0h-0.95v1.26C114.35,314.49,114.56,314,114.47,313.13Zm-16.78,2.21v-1.26a2.07,2.07,0,0,0-1.58.31C96,315.38,96.78,315.4,97.69,315.34Zm3.48-.31a2,2,0,0,0-1.26-.32c-0.06.9,0,1.72,0.95,1.58A2,2,0,0,0,101.17,315Zm33.56-.32c-0.09-.09-0.48.15-0.32,0.32S134.89,314.87,134.73,314.71Zm6.64,0c0.07,0.6-.36.7-0.32,1.26,1.17,0,.57,1.75,2.22,1.27,0.24-1.4-.86-1.46-0.95-2.53h-0.95Zm-20.57,3.16c0.12,1.11,2,2.25,2.21.63C121.68,318.89,121.62,318,120.8,317.87Zm-5.07,1.27c0.6,0,.22,1,0.95.95C117.63,319.53,116.23,318.13,115.73,319.14Zm-2.21.32c0,0.18.26,0.36,0.32,0C113.83,319.28,113.58,319.09,113.52,319.45Zm32,1.27-70,0v-1.27H74.26A1,1,0,0,0,75.53,320.72Zm47.8,0c-0.28-.46-0.25-1.23-1.27-0.95a2.61,2.61,0,0,1,0,2.21C123.13,322.2,123.22,321.45,123.33,320.72Zm-14.88.95c-0.64-.3-1.25-0.65-1.9-0.95-0.59.6,0,.79,0,1.58-0.8.26-1.7,0.41-1.58,1.58,1-.3,1.36-1.17,2.85-0.95C107.59,322.07,108.45,322.3,108.45,321.67Zm25-.63c0,0.18.26,0.36,0.32,0C133.78,320.86,133.52,320.68,133.46,321Zm-48.75.32c0.31,0.9,1.66,1.36,1.58-.32C85.83,321.21,84.66,320.66,84.71,321.35ZM104,322.3a9.1,9.1,0,0,1-.95-0.63v0.95h0.63C103.9,322.6,104.08,322.57,104,322.3Zm-18.68.32v1.26H86.3C86.38,323.06,86.18,322.52,85.35,322.62Zm6.33,0.32H90.41c-0.28,1,.49,1,0.95,1.26A2,2,0,0,0,91.67,322.93Zm42.73,6a2.06,2.06,0,0,0,1.58-.32v-1.27c-0.19-.44-1.21,0-1.26-0.63,0.69-1.23-.52-1.37-1-2.21-0.32-.63.38-1.59-0.63-1.58-0.18.66-.78,0.9-0.63,1.89,0.72,0.49.6,0.66,0.32,1.59C134.58,326,134.44,327.54,134.41,328.94Zm-22.16-5.69v1.58c0.6,0.07.7-.36,1.27-0.31A1.19,1.19,0,0,0,112.25,323.25Zm-19.63.32v0.63a2,2,0,0,1,.63.32C93.23,324,93.3,323.42,92.63,323.57Zm3.16,1.26c0.32-1.05-.44-1-1.27-0.95C94.43,324.72,95,324.92,95.79,324.83Zm13.61,0H110a2,2,0,0,1,.31-0.63c-0.4,0-.44-0.4-0.95-0.32v0.95Zm-21.52.63c0-.19,0-0.37.32-0.32v-0.63c-0.19,0-.37-0.05-0.32-0.32H87.24c0,0.2,0,.38-0.32.32v0.63c0.19,0,.38.05,0.32,0.32h0.63Zm17.41-.95c-0.08,1.3.38,1.27,1.27,0.95C106.65,324.63,106.12,324.43,105.29,324.52Zm22.16,0.63c-0.37.58-1.68,0.22-1.27,1.58A1,1,0,1,0,127.45,325.15Zm11.39,0.32a1.18,1.18,0,0,0,0,1.58C140.26,327.21,139.88,325.39,138.84,325.46Zm-80.09.63c-0.09-.09-0.48.15-0.32,0.32S58.92,326.26,58.76,326.09Zm67.42,3.16h0.63v-0.63h-0.63v0.63Zm1.9-1.9a2.09,2.09,0,0,0-1.59.32,1.52,1.52,0,0,0,.32.95h1.27v-1.27ZM86.61,328c0.25-.07.63,0,0.63-0.32C87,327.75,86.62,327.68,86.61,328Zm-1.58.63a2.07,2.07,0,0,0-1.27-.32c-0.43.4-.49,1.55,0.31,1.58C84.21,329.28,85.31,329.64,85,328.63Zm-19,.63v0.95c0.56-.07,1.59.32,1.27-0.63A2,2,0,0,0,66,329.26Zm1.59,0.63c0.83,0.09,1-.44.95-1.27H67.3A1.78,1.78,0,0,0,67.62,329.89Zm54.76-.63a2.06,2.06,0,0,0-.32,1.58h1.58A1.15,1.15,0,0,0,122.38,329.26Zm-36.72,1.9a0.68,0.68,0,1,0-1.27,0C85.26,331.13,85,331.68,85.66,331.16Zm30.71-.63c-0.2-.18-1.5-0.74-1.59,0C115.26,330.89,116.12,331.63,116.37,330.52Zm9.49,0c-0.37,0-.9-0.05-0.95.32C125.28,330.79,125.81,330.9,125.86,330.52Zm-12.34,2.21a2.06,2.06,0,0,0,.32-1.58c-0.6.07-.7-0.36-1.27-0.32A1.14,1.14,0,0,0,113.52,332.74Zm20.26,0a1.14,1.14,0,0,0-.95-1.58A0.93,0.93,0,0,0,133.78,332.74Zm-67.11-.95a2,2,0,0,0-1.27-.32v0.95C66.12,332.51,66.59,332.34,66.67,331.79Zm31.34,0c0.09,0.09.48-.15,0.32-0.32S97.84,331.63,98,331.79Zm-10.45,2.85a2,2,0,0,0-1.27-.32A2,2,0,0,0,86,335.9C86.75,335.72,87.61,335.63,87.56,334.64Zm25.64,0.63c-0.65.19-2.2-.51-1.9,0.63C111.6,336.57,113.6,336.33,113.2,335.27Zm-12.34.63h-0.64a2,2,0,0,1-.31.63C100.4,336.5,101,336.57,100.86,335.9ZM136,337.48a0.93,0.93,0,0,0-1.58-.95C134.26,337.52,135.08,337.54,136,337.48Zm1.9,0c0.22-1.06-.53-1.16-1.26-1.27,0.07,0.6-.36.7-0.32,1.27C137.32,337.29,137.29,338.07,137.89,337.48Zm-57.61,1.58a2.7,2.7,0,0,1-.95-0.63c-0.06-.16.73-0.91,0-1.27H78.38c-0.26.89,0.45,0.82,0.32,1.58-1.13-.18-1,0.94-0.95,1.9,1,0.1,1.13,1,2.53.63C80.16,340.29,80.45,339.65,80.28,339.06ZM57.81,337.8c-0.46.17-1.64-.37-1.59,0.32C56.69,338.61,57.86,339.21,57.81,337.8ZM137.58,340c1,0.15.89-.8,1.27-1.27A1,1,0,0,0,137.58,340Zm-3.48,2.85c0.28-2.25-1.39-4-2.85-3.48-0.12,1.29,1.35,1,1.58,1.9C133.47,341.58,133.1,342.91,134.09,342.86Zm1.27-2.53V341h1C136.35,340.39,136,340.22,135.36,340.33Zm3.8,0.32a2,2,0,0,0-1.58,0A0.88,0.88,0,1,0,139.16,340.65Zm-40.52,1.27c0.43-1.42-1.27-1.54-1.9-.95v0.95C97.74,341.75,98,342.6,98.64,341.91Zm-28.17-.32a0.72,0.72,0,0,0,1.27-.63C71,340.87,70.55,341,70.47,341.59Zm43.68,0.63a2.06,2.06,0,0,0,.32,1.58c0.6,0.07.7-.36,1.27-0.32C116,342.32,115.23,342.09,114.15,342.23Zm5.38,1.26c-0.26,1.21.67,1.23,1.27,1.59C121.64,344.06,120.76,342.55,119.53,343.49Zm3.8,1.59c-0.25.07-.62,0-0.63,0.31C122.94,345.32,123.32,345.38,123.33,345.07ZM99,346a0.87,0.87,0,0,0,1-.63C99.41,345.42,98.81,345.35,99,346Zm5.7-.63c-0.5.47-.47,1.8,0.63,1.58C105.79,346.5,105.75,345.17,104.65,345.39Zm-47.48.32a1.8,1.8,0,0,0-1.27.32c-0.32,1,.71.56,1.27,0.63V345.7ZM81.87,346a1.32,1.32,0,0,0-.64,1.58C82.87,348.09,83.25,346.07,81.87,346Zm28.8,1.58a4.61,4.61,0,0,0-2.85-.63c-0.24,1.62.67,2.07,1.9,2.21C108.74,347.21,110.39,349,110.67,347.6Zm-32.6,1.27c0.83-.25-0.2-1.78-0.63-0.63A0.86,0.86,0,0,0,78.06,348.87Zm62.36-.32c0-.18-0.26-0.36-0.32,0C140.11,348.73,140.37,348.91,140.42,348.55Zm-85.78,0a2.69,2.69,0,0,0-1.9.32,1.78,1.78,0,0,0,.32,1.27A1.31,1.31,0,0,0,54.64,348.55Zm32.92,0v0.63h0.95C88.55,348.62,88.19,348.44,87.56,348.55Zm-39.89,1.58,17.73,0.63a1,1,0,0,0-1.27-1.27A1,1,0,0,0,65.4,350.77Zm30.7,0.63c0.23-.7-1.17-1.3-1.27-0.63C95.34,350.9,95.11,351.76,96.11,351.4Zm12.66-.63c-0.26,1.13.68,1.57,1.27,0.95C110.13,350.88,109.6,350.68,108.77,350.77ZM67.3,352h0.95v-0.95H67.3V352Zm-14.88,0c-0.35.79-2.47,0.85-1.27,2.21,1,0,.9-1,2.21-0.63C53.44,352.71,53.41,351.89,52.42,352Zm57,1.58c-0.6.07-.7-0.36-1.27-0.32a1.17,1.17,0,0,0,0,1.58A1,1,0,0,0,109.4,353.61Zm-16.14.32c-0.22,1.09,1.11,1.13,1.59.63C95.06,353.47,93.73,353.43,93.26,353.93Zm7,0.95c0.22-1.17-.5-1.39-1.58-1.26C98.42,354.78,99.14,355,100.22,354.88Zm22.16,0.32c-0.41,0-.44-0.41-1-0.32C120.94,355.66,122.51,355.81,122.38,355.2Zm19.31-.32v0.63h0.63v-0.63h-0.63Zm-48.43.63a2,2,0,0,1-.31.63c0.4,0,.44.41,0.95,0.32A0.88,0.88,0,0,0,93.26,355.51Zm47.48,0.95a2,2,0,0,0,1.27.32A0.66,0.66,0,1,0,140.74,356.46Zm-73.44.63c-0.26,1.13.67,1.57,1.27,0.95C68.67,357.21,68.13,357,67.3,357.09Zm73.12,1.9c0.19-1.35-.11-2.21-1.58-1.9C138.93,358.16,139.22,359,140.42,359ZM124,358.36c-1,1.07,1.17,1,0,0h0Zm-31,.32c-0.46.75-.67,0.59-0.32,1.58a2.06,2.06,0,0,0,1.58-.32C94.35,358.95,93.41,359,92.94,358.67Zm16.77,1.9c-1.53.37-1.78-.54-1.9-1.58h-1.27c-0.47,1.07.8,1.13,1.27,1.58a3.63,3.63,0,0,0,.63.95,1.32,1.32,0,0,0,1.27.32v-1.27Zm-19.31,1.27a2,2,0,0,0,.32-1.27H89.46C89.37,361.4,89.58,361.93,90.41,361.84Zm15.83-.63H105.6c0,0.4-.41.44-0.32,0.95h0.95V361.2Zm-7.91,1.9H99v-0.63H98.32v0.63Zm20.89-.63v0.63h0.95C120.21,362.53,119.85,362.36,119.22,362.47Zm11.71,0.95a2.07,2.07,0,0,0-1.58-.31,2.05,2.05,0,0,0,.31,1.58A1.19,1.19,0,0,0,130.93,363.41Zm-31,1.59a1.36,1.36,0,0,0-1-1.59c0,0.81-1.18.75-1.58,0.32C97.35,365,98.55,365.09,99.91,365Zm-2.22.63c-0.05-1-1.25-.86-2.21-0.95C95.4,365.81,97.12,366.11,97.69,365.63Zm20.26,0h0.95c0-.57-0.31-0.74-0.95-0.63v0.63Zm7.6,2.21A3.31,3.31,0,0,0,123,365c-1,1.07.73,1.13,0.32,2.53a2,2,0,0,0-1.58,0v1.58c1.18,0,.9.36,1.9,0C123.2,366.93,124.94,368.59,125.55,367.84Zm-37-1.9c-0.36,0-.49-0.46-0.63,0A0.32,0.32,0,0,0,88.51,365.95Zm8.23,0.32c-0.25,1.91,1.45.21,0,0h0Zm31,0.95c-0.41.42-.41,1.18,0.32,1.27C128.49,368.06,128.49,367.3,127.76,367.21ZM91,368.79c0.19-1.44-.71-1.3-1.59-0.95A0.93,0.93,0,0,0,91,368.79Zm5.38,1.27c1.48-.91-0.14-3.39-1.58-2.21A2.88,2.88,0,0,0,96.42,370.06Zm21.84-.63c1.21-.06,2.09-0.45,2.22-1.58C119,367.63,118.67,368.57,118.26,369.43ZM63.5,368.16c-0.09-.09-0.48.15-0.32,0.32S63.67,368.32,63.5,368.16Zm79.14,0.95c0-.18-0.25-0.36-0.32,0C142.32,369.29,142.58,369.47,142.64,369.11Zm-35.77.32c-1.63.77,1.09,0.82,0,0h0Zm-34.5.63v0.63h0.95C73.36,370.12,73,369.95,72.37,370.06Zm5.07,0.32c0-.18-0.26-0.36-0.32,0C77.11,370.55,77.37,370.74,77.43,370.38Zm-28.18.32a0.32,0.32,0,0,0,.63,0C49.54,370.72,49.4,370.23,49.26,370.69Zm41.47-.32H90.09V371h0.63v-0.63Zm-27.22.32c-0.5,0-1.1,0-.95.63A0.87,0.87,0,0,0,63.5,370.69Zm95,0.32-18,0c-0.72-.09-1.19.07-1.27,0.63C139.72,371.57,140.74,372,140.42,371Zm-63.31.63c0.74,0.1.71,1,1.27,1.27a2.06,2.06,0,0,0,.32-1.58C78.24,371.5,77.06,371,77.12,371.64Zm23.74,1.89c0.09-.82-0.12-1.36-0.95-1.26C99.82,373.1,100,373.63,100.86,373.54Zm18.68-.31c0.82,0,1.11.23,0.95-.95a7,7,0,0,1-2.54,0C117.41,373.45,119,373.21,119.53,373.22ZM91,372.59c-0.51.66-.71,3.05,0.95,2.53C92.53,374.42,92.22,372.54,91,372.59Zm5.7,1.27h0.63v-0.63H96.74v0.63Zm9.5,0.95c0.41-.42.42-1.18-0.32-1.27C105.51,374,105.5,374.72,106.24,374.8Zm-34.82-.95a8.3,8.3,0,0,1-.63.95,2.06,2.06,0,0,0,1.58.32C72.64,374.11,71.88,374.13,71.42,373.86ZM111,374.8v-0.95H110A0.76,0.76,0,0,0,111,374.8Zm46.21-.63h-0.95v0.95h0.63C156.9,374.72,157.29,374.68,157.2,374.17Zm-61.09.32c-0.45.46-.46,1.23,0.63,0.95A0.88,0.88,0,0,0,96.11,374.49Zm12.66,0c-0.45.46-.46,1.23,0.63,0.95A0.87,0.87,0,0,0,108.77,374.49Zm9.18,1.27c0.09-.72-0.07-1.19-0.63-1.27A0.72,0.72,0,0,0,117.95,375.75Zm-12.66-.63H104v0.95H105A1.51,1.51,0,0,1,105.29,375.12Zm11.39,0.63c-0.36,0-.49-0.46-0.63,0A0.32,0.32,0,0,0,116.68,375.75Zm-28.17.63c-0.09-.09-0.48.15-0.32,0.32S88.67,376.55,88.51,376.38Zm20.89,2.53c0.84-.11,1.07-0.83,1.27-1.58a1.48,1.48,0,0,1-.95-0.32C109.51,377.68,108.88,378.42,109.4,378.91Zm-8.23,1.58c0.09-.72-0.07-1.19-0.63-1.27C100,379.79,100.62,380.21,101.17,380.5Zm22.48-.63c-0.09-.09-0.48.15-0.32,0.32S123.81,380,123.65,379.86Zm-27.22,1.9a1.55,1.55,0,0,0-.63-1.58C95.29,380.65,95.33,382,96.42,381.76Zm4.11-.32a1.39,1.39,0,0,0-.63-1.27A0.72,0.72,0,0,0,100.54,381.45Zm3.48-.95c0,0.18.26,0.36,0.32,0C104.34,380.32,104.08,380.14,104,380.5Zm32,1.58v-1.26H135C135,381.64,134.94,382.4,136,382.07Zm-35.77.32c-1,.28-0.43-1-1.27-0.95C97.88,382.16,99.68,383.39,100.22,382.4Zm7.28-.63V383C109.25,383.31,108.75,381.7,107.5,381.76ZM104.34,383h-0.95V384h0.95V383Zm-8.86,2.21a2.69,2.69,0,0,0,1.9-.32c-0.13-.61-0.11-1.36-0.95-1.27C96.14,384.22,95.14,384.06,95.47,385.24Zm62.68,0.32c0.26-.25.33-1.94-0.63-1.9C157.52,384.5,157.34,385.52,158.15,385.56Zm-64.26-1.27a1.8,1.8,0,0,0-1.27.32,1.47,1.47,0,0,0,.32.95C93.78,385.65,94,385.12,93.89,384.29Zm10.76,0.32c0-.17-0.25-0.36-0.32,0C104.34,384.78,104.6,385,104.65,384.61Zm8.23,0.32a0.32,0.32,0,0,0-.63,0C112.32,385.31,112.6,385.12,112.88,384.92Zm42.73,1.27a1.29,1.29,0,0,0-.95-1.27c0,0.63-.86.41-0.63,1.27A1.18,1.18,0,0,0,155.62,386.19Zm-56-.32a0.32,0.32,0,0,0-.63,0C99.31,385.84,99.45,386.33,99.59,385.87Zm5.07,0a0.72,0.72,0,0,0-1.27.63C104.11,386.59,104.58,386.43,104.65,385.87ZM123,389.35c-0.09-.09-0.48.15-0.32,0.32S123.18,389.52,123,389.35Zm12.34,1.27c0.1-.84-0.43-1-1.27-0.95C133.83,390.8,134.76,391.24,135.36,390.62Zm-85.79-.32H48.94v0.63h0.63V390.3Zm113.33,1.58c0.24-.07.63,0,0.63-0.32C163.29,391.64,162.91,391.57,162.9,391.88Zm-84.84.63H77.43v0.63h0.63v-0.63Zm24.69,1.89c0.09,0.09.48-.15,0.32-0.32S102.59,394.25,102.76,394.41Zm-55.08,2.21v-1.27m34.19,4.11c-0.41,0-.44-0.41-1-0.32C80.42,399.93,82,400.09,81.87,399.47Zm5.38,0.32c-0.09-.09-0.48.15-0.32,0.32S87.41,400,87.24,399.79ZM48,401.69v-0.95c-0.72-.09-1.19.07-1.27,0.63A2.06,2.06,0,0,0,48,401.69Zm58.25-.63c-0.63-.66-1.35,0-1.58.63C105.13,402.19,106.46,402.15,106.24,401.06Zm-5.7,4.74c0.18-.75,1.18-2.29,0-2.53C100.26,404.41,99,405.29,100.54,405.8Zm15.2-.32a1.26,1.26,0,0,0,1.58,1.27c0.44-.41.31-1.37,0.32-2.21C116.43,404.28,116.66,405.46,115.73,405.48Zm-43.05.32H72v0.63h0.63V405.8Zm2.22,0.32H74a2.05,2.05,0,0,0-.32,1.58H74.9v-1.58Zm27.22,0.63c-2.56-1.5-.74,2.7,0,0h0Zm32.61-.32c-0.09-.09-0.48.15-0.32,0.32S134.89,406.59,134.73,406.43ZM148.34,409c0-.63.86-0.4,0.63-1.27-0.69-.27-1.08-0.82-2.22-0.63A2.52,2.52,0,0,0,148.34,409ZM124,408a2.06,2.06,0,0,0-.32,1.27h1.27C125,408.45,124.8,407.91,124,408Zm4.12,2.53c1-.19,1,0.59,1.58,0C130,408.71,127.93,409.22,128.08,410.54Zm7.28-.32c0.09,0.09.48-.15,0.32-0.32S135.19,410.06,135.36,410.23Zm-15.19.32c-0.06-.47-0.77-0.29-1.27-0.32C118.22,411.39,120.51,411.65,120.17,410.54Zm27.22,1.27h1.27c0.49-1.25-1.07-2.06-1.58-1.27C147.54,410.6,147.36,411.31,147.39,411.81Zm-45.9-1v0.64h1C102.48,410.92,102.12,410.75,101.49,410.86Zm45,1.27c0-.41.55-0.29,0.63-0.63a8.56,8.56,0,0,1-.95-0.64C145.71,411.28,145.71,412,146.44,412.12Zm-25.64-.31c0.36,0,.49.46,0.63,0A0.32,0.32,0,0,0,120.8,411.81Zm31,0.31c-0.45.46-.46,1.23,0.63,1A0.87,0.87,0,0,0,151.82,412.12Zm4.75,0.63h0.63v-0.63h-0.63v0.63Zm-99.71.64a1.53,1.53,0,0,1-.95-0.32,1,1,0,0,0,.63,1.89A2.05,2.05,0,0,0,56.85,413.39Zm57,0a1.55,1.55,0,0,0-1.9,0,1.34,1.34,0,0,0,.95,1.58C113.17,414.41,114.17,414.57,113.83,413.39Zm5.06,0c-0.4,0-.44-0.41-0.95-0.32V414h0.63A2.07,2.07,0,0,1,118.9,413.39Zm1.59,1.89c0.07,0.6-.36.7-0.32,1.27a1.35,1.35,0,0,0,2.21-.95c-1.13,0-1.14-1.18-2.21-1.27-0.14.6-.68,0.8-0.63,1.58C120.15,416,120.16,415.49,120.48,415.29Zm0.95-1.58H120.8v0.63h0.63V413.7Zm-7,1.58h-0.63a2.09,2.09,0,0,1-.32.63C114,415.89,114.62,416,114.47,415.29Zm26,0.63c-0.11-.25-0.84-0.38-0.95,0C139.26,416.65,140.71,416.6,140.42,415.92Zm-54.13.32a0.32,0.32,0,0,0,.63,0C86.57,416.27,86.43,415.78,86.3,416.24Zm29.12,1.58a0.87,0.87,0,0,0-.63-0.95C114.33,417.33,114.32,418.09,115.42,417.82Zm31.66-.63c-0.41,0-.44-0.41-0.95-0.32C145.63,417.65,147.2,417.8,147.07,417.18Zm-25.32.63c-1.41-.25-2,0.3-1.9,1.58C121.14,419.53,121.85,419.07,121.75,417.82Zm33.55,0.95H154A0.68,0.68,0,1,0,155.3,418.77Zm10.76,0.63c0,0.18.25,0.36,0.32,0C166.38,419.22,166.13,419,166.06,419.4Zm-106.68.95c0.22-1.1-1.11-1.14-1.58-.63a1.49,1.49,0,0,0,.32.95C58.72,420.74,58.82,420.31,59.39,420.35Zm16.46-.63c-0.09-.09-0.48.15-0.32,0.32S76,419.88,75.85,419.72Zm44.32,0.63V421h0.95C121.15,420.41,120.8,420.24,120.17,420.35Zm-74.39,2.21c0.25-.07.63,0,0.64-0.32C46.16,422.32,45.79,422.25,45.78,422.56Zm69.32,0.63a0.88,0.88,0,0,0,.63.64C116.56,423.57,115.53,422,115.1,423.19Zm53.83,0c0-.18-0.26-0.36-0.32,0C168.61,423.37,168.87,423.55,168.93,423.19Zm-46.23,1.27v-1.27h-1.27Q121.06,424.83,122.7,424.46Zm29.44-1.27c-1.37-.12-1.75.25-1.27,1.27A1,1,0,0,0,152.13,423.19Zm-11.08,1.27v0.95C142,425.87,142,424,141.06,424.46Zm-25.64.63c0-.18-0.26-0.36-0.32,0C115.1,425.27,115.36,425.45,115.42,425.09Zm48.75,0.32v0.95C165.09,426.82,165.09,424.94,164.17,425.41ZM149,429.52c0.25-.07.63,0,0.63-0.32C149.36,429.27,149,429.21,149,429.52Zm-32.92.63c0.05-.69-1.12-0.14-1.58-0.32C114.19,430.65,116.26,431.39,116,430.15Zm26.91-.32c-0.09-.09-0.48.15-0.32,0.32S143.12,430,143,429.84Zm22.79,0.95h-0.64v0.63h0.64v-0.63Zm-4.11.32h-1.27c-0.06.9,0,1.72,0.95,1.58A2.06,2.06,0,0,0,161.63,431.1Zm-131.37.95H29.63v0.63h0.63v-0.63Zm32,1.26c0,0.18.26,0.36,0.32,0C62.55,433.14,62.3,433,62.24,433.31ZM29,434.26v-0.63a2,2,0,0,1-.63-0.32,8,8,0,0,1-.63.95C28.36,434.79,28.13,434.24,29,434.26Zm130.73-.63c-0.26,1.13.68,1.57,1.27,0.95C161.1,433.75,160.56,433.54,159.73,433.63Zm-82.3,1.9a2,2,0,0,1,.63.32c0-.5,0-1.1-0.63-0.95v0.63Zm-46.85,1.58c-0.09-.09-0.48.15-0.32,0.32S30.74,437.27,30.58,437.11Zm46.54,0.32v0.95C78,438.84,78,437,77.12,437.43Zm-17.73.63c-0.28.56-1,.92-0.32,1.58C60.24,439.95,60.33,438.09,59.39,438.06Zm14.24,0c-0.09-.09-0.48.15-0.32,0.32S73.8,438.22,73.63,438.06ZM72,440.27c-0.37-.45-0.9-0.55-1.27-0.95-0.21-.23,0-0.87-0.63-0.63,0.07,0.6-.36.7-0.32,1.27,1-.29.45,1,0.95,1.26C71.39,441.09,72.15,441.11,72,440.27Zm50,0.32A0.88,0.88,0,0,0,123,440C122.52,440,121.92,439.91,122.06,440.59Zm-0.32-.32a1,1,0,0,0-1.27,1.27A1,1,0,0,0,121.75,440.27Zm20.89,0.64c1.07,1,1-1.17,0,0h0Zm15.2,0.31c-0.06-.46-0.77-0.29-1.27-0.31C155.89,442.07,158.18,442.33,157.83,441.22Zm-34.19,0a0.91,0.91,0,0,0,.63,1.58C124.78,442.33,124.74,441,123.65,441.22Zm-22.79,1.58c0.24-.07.62,0,0.63-0.31C101.24,442.56,100.87,442.5,100.86,442.8Zm50.33,0.63V442.8C150.6,441.75,149.64,443.75,151.19,443.43ZM107.5,444.7c0.09,0.09.48-.15,0.32-0.32S107.34,444.54,107.5,444.7ZM125.86,446c-0.85-.22-0.61.66-0.95,0.95A0.77,0.77,0,0,0,125.86,446Zm35.45,0.32v0.63h1C162.31,446.35,162,446.18,161.31,446.28Zm-77.24,1.27c0.87,0,.64.53,1.27,0A0.68,0.68,0,1,0,84.08,447.55Zm29.44-.63h-0.95a2.06,2.06,0,0,0-.32,1.58C113.42,448.72,113.65,448,113.52,446.91Zm27.86,0c-0.09-.09-0.48.15-0.32,0.32S141.54,447.08,141.37,446.91Zm-17.09.95c0.25-.07.63,0,0.63-0.32C124.67,447.62,124.29,447.56,124.28,447.86Zm-0.63.63c0.05,0.37-.05.89,0.32,0.95,0-.2,0-0.37.32-0.32C124.24,448.74,124.19,448.38,123.65,448.5Zm-22.16.32H99.91A0.88,0.88,0,1,0,101.49,448.81Zm-25.32.63c0-.18-0.25-0.36-0.31,0C75.85,449.62,76.1,449.81,76.16,449.45Zm49.07,1.27h0.95c-0.05-.48.12-1.17-0.32-1.27C125.72,449.94,124.87,449.72,125.23,450.71Zm39.25-.95c0,0.18.25,0.36,0.32,0C164.8,449.59,164.54,449.4,164.48,449.76Zm-97.81,0c-0.49,1,1.64.83,1.58,0.32C67.49,450.21,67.56,449.5,66.67,449.76Zm20.26,0.32H86.3v0.63h0.63v-0.63Zm53.18,0.32h-0.63V451h0.63V450.4Zm-52.23.95H87.24V452h0.63v-0.63Zm-6.33.63c0.09,0.09.48-.15,0.32-0.32S81.38,451.81,81.55,452Zm-50,0c-0.09-.09-0.48.15-0.32,0.32S31.69,452.14,31.53,452Zm100,0c-0.09-.09-0.48.15-0.32,0.32S131.72,452.14,131.56,452Zm37,1.27a0.32,0.32,0,0,0-.63,0C168,453.62,168.31,453.43,168.6,453.24Zm-59.2.32c0.25-.07.63,0,0.64-0.32C109.79,453.31,109.41,453.25,109.4,453.56Zm14.25,1.27h0.95a0.77,0.77,0,0,0-.95-0.95v0.95Zm12.34-.95c-0.09-.09-0.48.15-0.31,0.32S136.16,454,136,453.87Zm0.64,1.27h0.63c0.35-.46.34-0.77-0.32-0.95C136.92,454.59,136.54,454.63,136.63,455.14Zm15.19,0c0.05,0.38-.05.9,0.32,0.95,0-.19,0-0.37.32-0.32C152.42,455.38,152.36,455,151.82,455.14Zm-47.16.63c-0.83-.09-1.36.12-1.27,0.95C104.21,456.81,104.75,456.6,104.65,455.77Zm52.23,0.32c0.25-.07.63,0,0.63-0.32C157.27,455.84,156.89,455.78,156.88,456.09Zm-40.84.63a2.07,2.07,0,0,0,1.27.32v-0.95C116.6,456,116.13,456.16,116,456.72Zm-80.4.32c0.5,0,1.1,0,.95-0.63H36A2.14,2.14,0,0,1,35.65,457Zm44.63-.32c0.25-.07.63,0,0.63-0.32C80.67,456.47,80.29,456.41,80.28,456.72Zm-37,.32c0.09,0.09.48-.15,0.32-0.32S43.08,456.87,43.24,457Zm120.29,1.58H162.9v0.63h0.63v-0.63Zm-133.9,2.53a4.17,4.17,0,0,0,0-2.21,2.06,2.06,0,0,0-1.58.32C28.38,460.08,28.31,461.31,29.63,461.15Zm-3.8-.32a2.05,2.05,0,0,0,1.58.32c-0.07-.6.36-0.7,0.32-1.27C26.78,459.43,25.9,459.62,25.83,460.83Zm87.05-.95c0,0.17.26,0.36,0.32,0C113.2,459.71,112.94,459.52,112.88,459.88Zm59.2-.32h-0.63v0.63h0.63v-0.63ZM17,461.47h1.58C19,459.5,16.47,459.5,17,461.47Zm110.16-1.58h-1.27A0.68,0.68,0,1,0,127.13,459.88Zm-19.95,3.48c0.6-.07.7,0.36,1.27,0.32,0.41-.82.7-1,0.32-1.89a2.06,2.06,0,0,0-1.58.31v1.27Zm21.84-.63h-0.95c-0.09.72,0.07,1.19,0.63,1.27A2,2,0,0,0,129,462.73Zm-113.32,3.8,41.78-2.21c-1.65,1.22,1.26,1.64,0,0h0Zm95.28,2.21a9.1,9.1,0,0,1,.63-0.95c-0.51-.05-1.63-1.06-1.9-0.32C152.32,465.29,152,466.49,152.77,466.52Zm-68.69-.63c-1.06-1-1,1.17,0,0h0Zm52.86,0.63c-0.45.46-.46,1.23,0.64,0.95A0.87,0.87,0,0,0,136.94,466.52Zm-109.52,1.9a2.14,2.14,0,0,1-.32.63,2,2,0,0,1,.63.32,2,2,0,0,1,.32-0.63A2.14,2.14,0,0,1,27.42,468.42Zm59.83,0c-0.14.6-.91,0.57-0.63,1.58C88,470.49,88.32,468.56,87.24,468.42Zm18.68,0.32v0.95h1.58v-1.26A2.06,2.06,0,0,0,105.92,468.74Zm-7.91,0c-0.09-.09-0.48.15-0.32,0.32S98.17,468.9,98,468.74Zm-63.31.32H34.06v0.63H34.7v-0.63Zm121.24,0.32H155v0.95h0.95v-0.95Zm-7.6.63a0.32,0.32,0,0,0,.63,0C148.62,470,148.48,469.54,148.34,470Zm-63,.63H86V470H85.35v0.63Zm63.94,0.32c-0.77,1.06,1.06-.76,0,0h0Zm7.6,1.58c0.19-1.25-.71-1.4-1.58-1.58,0,0.63-.87.4-0.63,1.27a0.49,0.49,0,0,1,.32.63A2.67,2.67,0,0,0,156.88,472.53Zm-99.4-.95H56.85v0.63h0.63v-0.63Zm114.59,0.63-56.35,1.27v-0.63C115.15,471.8,114.19,473.8,115.73,473.48Zm38.3,1.27c0.13-.61,1.23-0.25.95-1.27a2.07,2.07,0,0,0-1.27-.32C153.29,473.57,153.23,474.72,154,474.75Zm18.68-1.58h-0.95v0.95h0.95v-0.95Zm-65.53.63c-1.57-.3-2.05.48-1.9,1.9Q107.44,475.95,107.19,473.8Zm5.07,0H111.3v0.95h0.63C112,474.34,112.34,474.31,112.25,473.8ZM86,476c-0.37.05-.9-0.05-0.95,0.32C85.4,476.28,85.93,476.38,86,476Zm-25.32,1.27c0.07,0.38.35,0.2,0.63,0A0.32,0.32,0,0,0,60.65,477.28ZM82.49,477v1.58C84.21,479,84,476.61,82.49,477Zm-5.7.95c0.09,0.09.48-.15,0.32-0.32S76.63,477.75,76.8,477.91Zm83.57,0c-0.76,1.06,1.06-.77,0,0h0Zm-5.38.95c0.83-.26-0.2-1.78-0.63-0.63A0.86,0.86,0,0,0,155,478.86Zm1.9,0c-0.06-.47-0.77-0.29-1.27-0.32C154.94,479.71,157.23,480,156.88,478.86Zm-66.48.95c0.79,0,1.54.06,1.59-.63C91.52,478.67,90.19,478.71,90.41,479.81Zm-77.55,2.53h1.27C14.53,480.72,12.57,480.87,12.85,482.34Zm116.8-1.26H129v0.63h0.63v-0.63Zm32.61,1.26c-0.14-.84-1.23-1.58-1.9-0.95C160.49,482.26,161.48,483.08,162.27,482.34Zm-17.1,1.27a0.88,0.88,0,0,0,1-.63C145.63,483,145,482.93,145.17,483.6Zm14.56,0h0.63V483h-0.63v0.63Zm-136.43.32c0,0.18.25,0.36,0.32,0C23.62,483.74,23.36,483.56,23.3,483.92Zm23.11,0.32c0.07,0.38.35,0.2,0.63,0A0.32,0.32,0,0,0,46.41,484.24Zm10.44-.32c0,0.2,0,.38-0.32.32-0.09.83,0.44,1,1.27,0.95C57.89,484.36,57.69,483.82,56.85,483.92Zm101,0v0.63h0.95C158.83,484,158.47,483.81,157.83,483.92Zm-125,.63c-0.09-.09-0.48.15-0.32,0.32S33,484.72,32.8,484.55ZM173,484.87c-0.25.07-.62,0-0.64,0.32C172.64,485.11,173,485.18,173,484.87Zm-21.21.63a2,2,0,0,0-1.27-.32v0.95C151.28,486.22,151.74,486.06,151.82,485.5Zm-39.57,0c-0.09.2-.79,1.22,0,1.27C112.35,486.57,113,485.55,112.25,485.5Zm35.45,0.95c-0.45.46-.47,1.22,0.63,0.95A0.87,0.87,0,0,0,147.71,486.45Zm-95.91.95a2,2,0,0,0-.32,1.27A0.66,0.66,0,1,0,51.79,487.4ZM111.94,488c-0.77,1.06,1.06-.77,0,0h0Zm46.53-.32c0,0.4-.41.44-0.32,0.95h0.63C159.14,488.21,159.12,487.89,158.47,487.72Zm3.17,0c-0.41.42-.42,1.18,0.32,1.27C162.36,488.56,162.37,487.8,161.63,487.72Zm-23.75.32V489C138.81,489.45,138.81,487.57,137.89,488Zm13,0.32c-0.77,1.06,1.06-.77,0,0h0ZM50.53,490.24h1.27V489A1,1,0,0,0,50.53,490.24ZM55,489.3v0.63H55.9C55.95,489.36,55.59,489.19,55,489.3Zm101,0.63c0.36,0,.49.46,0.63,0A0.32,0.32,0,0,0,155.94,489.93Zm7.28,0.95a0.75,0.75,0,0,0-.64-1.27A1.4,1.4,0,0,0,163.22,490.88Zm-26.59-.31c-0.78-1-2,.73-0.64.95A8.92,8.92,0,0,1,136.63,490.56Zm30.7,0.31h0.95c0-.57-0.31-0.74-0.95-0.63v0.63Zm-12.66,0c0,0.18.25,0.36,0.32,0C155,490.7,154.73,490.52,154.67,490.88Zm-105.1,0a2.06,2.06,0,0,0-.32,1.27h1C50.3,491.42,50.13,491,49.57,490.88Zm114.28,0.32c-0.25.07-.62,0-0.63,0.32C163.46,491.44,163.84,491.5,163.85,491.19Zm-154.16.32c-0.09-.09-0.48.16-0.32,0.32S9.85,491.67,9.69,491.51Zm54.13,2.21c0.84,0,1.81.12,2.21-.32v-1.27A1.39,1.39,0,0,0,63.82,493.72Zm21.84-1.58c0.35,0,.49.46,0.63,0A0.32,0.32,0,0,0,85.66,492.14Zm-31.34.32H53.69v0.63h0.63v-0.63Zm99.4,0.32c0,0.18.25,0.36,0.32,0C154,492.6,153.78,492.41,153.72,492.77Zm13,0.63h0.63c0-.4.41-0.44,0.32-0.95H166.7v0.95Zm-132.95-.63H33.12v0.63h0.63v-0.63Zm-3.17.32a0.88,0.88,0,0,0-.95.63A0.87,0.87,0,0,0,30.58,493.09Zm135.48,0.32c-0.09-.09-0.48.15-0.32,0.32S166.23,493.57,166.06,493.41ZM110.35,495c0,0.18.26,0.36,0.32,0C110.67,494.81,110.41,494.63,110.35,495Zm46.54,1.58v-0.95h-0.95A0.77,0.77,0,0,0,156.88,496.57Zm12.66,1.27-84.2,0c0.35,0,.49.46,0.63,0A0.32,0.32,0,0,0,85.35,497.84Zm9.81,0.95c0.5,0,1.1,0,.95-0.63H95.47A2.14,2.14,0,0,1,95.16,498.79ZM36,500.05v0.63h0.95C37,500.11,36.6,499.94,36,500.05Zm-2.85.63c-0.11,1.44-1.69,1.18-1.9,2.21,0.3,0.64,1.21.68,2.21,0.63-0.44-1.59.65-1.67,0.63-2.85H33.12Zm119,0.32H151.5v0.63h0.63V501Zm16.46,0a5.29,5.29,0,0,1-1.27.95c0.81,1.52.12,1.36,0,3.16,0.47,0.37.38,1.31,1.27,1.27-0.21-1.16.69-1.21,0.64-2.21a1.32,1.32,0,0,1-.64-1.58m-76-1.27H91.36a1.49,1.49,0,0,1-.31.95A1,1,0,0,0,92.63,501.31ZM75.53,502.9a1.19,1.19,0,0,0-1.27,1.27h1.27V502.9Zm-4.43,1.27c-0.05.37-.5,0.34-0.95,0.32-0.09.72,0.07,1.19,0.63,1.27C70.88,505.37,72.06,504.55,71.1,504.16Zm61.73,0.63c0.09,0.09.48-.15,0.32-0.32S132.66,504.63,132.83,504.79Zm12.34-.32h-0.63v0.63h0.63v-0.63Zm20.26,0.32a2.07,2.07,0,0,0-.32,1.58C166.77,506.87,167.4,504.46,165.43,504.79ZM31.22,507.32c-0.08.2-.54,0-0.64,0.32a0.55,0.55,0,0,0,.32.63c0.82-.86,1.8-1.57,1.9-3.16C31.51,504.89,31.49,506.65,31.22,507.32Zm25.64-1.9c0-.18-0.25-0.36-0.32,0C56.54,505.6,56.8,505.79,56.85,505.43Zm96.87,0.63c0.83,0.09,1.36-.11,1.27-0.95C154.16,505,153.62,505.23,153.72,506.06Zm-35.46-.32v0.63h1C119.26,505.81,118.9,505.63,118.26,505.74Zm46.85,0.95c-3.19-.12.18,3.24,0,0h0ZM17.6,510.17C17,510,17,509.27,16,509.54,15.65,510.79,17.49,511.22,17.6,510.17Zm145.3-.31c-0.26,1.13.67,1.57,1.27,0.95C164.26,510,163.72,509.77,162.9,509.86Zm-113,.63c0,0.18.26,0.36,0.32,0C50.21,510.31,50,510.13,49.89,510.49Zm26.59,1.58a0.86,0.86,0,0,0,.63.63C77.95,512.45,76.91,510.92,76.48,512.07Zm-5.7,1.9c0.57,0.87,2.49.74,3.48,0.32-0.34-1.18.79-.9,0.64-1.9C72.6,512.27,71.13,511.74,70.78,514Zm5.07-1.58c-0.09-.09-0.48.15-0.32,0.32S76,512.55,75.85,512.38Zm90.53,1.27h0.95V512.7h-0.95v0.95ZM61.6,515.23c0.14-.6.68-0.79,0.63-1.58C60.87,513.17,60.53,515.09,61.6,515.23Zm-58.25-.32v-0.63M76.8,514.6h0.64V514H76.8v0.63Zm69,0.63a0.88,0.88,0,0,0-.64-0.95C144.72,514.74,144.71,515.51,145.81,515.23Zm-45.27-.32c-0.5,0-1.1,0-.95.63A0.87,0.87,0,0,0,100.54,514.91Zm-89.27,1.27c0.36,0,.49.46,0.64,0A0.32,0.32,0,0,0,11.27,516.18Zm98.45,0.32c0.09,0.09.48-.15,0.32-0.32S109.55,516.33,109.72,516.5Zm-100.34.32H8.42v0.95H9.06C9.07,517.36,9.46,517.32,9.37,516.81Zm28.17,1.9c-0.83-.09-1.36.11-1.27,0.95C37.11,519.75,37.64,519.54,37.55,518.71Zm129.15,0M45.46,520.29c0-.4.41-0.44,0.32-0.95H45.14c0,0.4-.41.44-0.32,0.95h0.63Zm54.45-.95V520a2.07,2.07,0,0,1,.63.32C100.51,519.79,100.58,519.2,99.91,519.34ZM35,520.92V520h-1A0.77,0.77,0,0,0,35,520.92Zm-2.22.63h0.63v-0.63H32.8v0.63Zm65.52,0c-0.09-.09-0.48.15-0.32,0.32S98.49,521.72,98.32,521.56Zm54.76,0.63a0.91,0.91,0,0,0,.64,1.58C154.22,523.3,154.18,522,153.08,522.19Zm-38.93.32c-0.46.49-1.27,0.63-.95,1.9C114.56,524.79,115.42,522.85,114.15,522.5Zm-33.87,1.58c0.25-.07.63,0,0.63-0.32C80.67,523.84,80.29,523.78,80.28,524.09Zm86.1,1.58-72.17.63c0.07,0.38.35,0.2,0.63,0A0.32,0.32,0,0,0,94.21,526.3Zm-51.28.32H41.66v1.27A1,1,0,0,0,42.93,526.62Zm32.61,0.63c0.07,0.6-.36.7-0.32,1.26a1.17,1.17,0,0,0,1.58,0C76.69,527.78,76.59,527,75.53,527.25Zm50.33,0c-0.25.07-.62,0-0.63,0.32C125.47,527.49,125.85,527.56,125.86,527.25Zm-51.6,2.85v-1.27a1.73,1.73,0,0,0-1.58.95A2.08,2.08,0,0,0,74.26,530.1Zm-63.62,0c-0.77,1.06,1.06-.77,0,0h0ZM162.27,532c0.09,0.09.48-.15,0.31-0.32S162.1,531.83,162.27,532Zm-24.38.95c0.09,0.09.48-.15,0.32-0.32S137.73,532.78,137.89,532.94Zm24.38,0.63h0.63v-0.63h-0.63v0.63Zm-107.95,0a0.72,0.72,0,0,0-1.27.63C53.78,534.3,54.25,534.13,54.32,533.57Zm-27.22.95c-0.4,0-.44-0.41-0.95-0.32a2,2,0,0,0-.32,1.27C26.66,535.56,27.19,535.36,27.1,534.52Zm132-.32h-0.63v0.63h0.63v-0.63Zm-5.38.32c-0.25.07-.62,0-0.64,0.32C153.33,534.77,153.71,534.83,153.72,534.52Zm9.18,0.32c0-.18-0.26-0.36-0.32,0C162.58,535,162.84,535.2,162.9,534.84Zm-15.51.32c0.09,0.09.48-.15,0.32-0.32S147.22,535,147.39,535.16Zm1.27,0.95c0.19,0,.38,0,0.32.32h0.63C150.1,535.64,148.53,535.49,148.65,536.11Zm4.11-.32c-0.24.07-.62,0-0.63,0.32C152.38,536,152.76,536.09,152.77,535.79ZM23.3,537.06c0,0.17.25,0.36,0.32,0C23.62,536.88,23.36,536.7,23.3,537.06Zm-8.86.63H13.17A0.68,0.68,0,1,0,14.44,537.68Zm94,0.64c0.25-.07.63,0,0.64-0.32C108.84,538.07,108.46,538,108.45,538.32Zm-9.18,0c-0.72-.09-1.19.07-1.27,0.63A0.72,0.72,0,0,0,99.27,538.32ZM132.83,539c0.05,0.37-.05.89,0.32,0.95,0-.2,0-0.37.32-0.32C133.42,539.2,133.37,538.84,132.83,539Zm18.36,0.32a1.18,1.18,0,0,0-1.27,1.26C150.91,540.68,150.81,539.74,151.19,539.27ZM45.46,542.11a1.29,1.29,0,0,0-1.27.95C44.74,543.63,45.44,543,45.46,542.11Zm24.06,0H68.88v0.63h0.63v-0.63ZM45.46,544V545C46.38,545.43,46.38,543.55,45.46,544Zm-3.17.32v1.27c0.6,0.07.7-.36,1.27-0.32C43.65,544.44,43.12,544.24,42.29,544.33Zm70.91,0.32c-0.14,1,.68,1,1.58.95C114.9,544.23,114,544.37,113.2,544.65Zm36.4,0.63c-0.25.07-.62,0-0.63,0.32C149.22,545.52,149.6,545.58,149.6,545.28Zm-107,3.16c0.4,0.43,1.55.49,1.58-.31-1.46-.35-0.48-0.8,0-1.58C43,545.47,42.86,547.55,42.61,548.44ZM104,546.54v0.63h0.63v-0.63H104Zm3.48,0.95c-0.77,1.06,1.06-.76,0,0h0Zm-91.16,1.9c-0.09-.09-0.48.15-0.32,0.32S16.5,549.55,16.34,549.39ZM135,550V551C136,551.43,136,549.56,135,550Zm-125.35.63c-0.09-.09-0.48.15-0.32,0.32S9.85,550.82,9.69,550.65Zm83.57,1.27h1V551h-1v0.95Zm61.73,0c-1.07-1-1,1.17,0,0h0Zm-112.06,0c-0.09.83,0.11,1.36,0.95,1.27a2.06,2.06,0,0,0,.32-1.27H42.93Zm79.77,1.27a0.32,0.32,0,0,0-.63,0C122.42,553.15,122.56,553.65,122.7,553.18Zm-3.48.63h-0.64v0.63h0.64v-0.63Zm-28.81.63c-0.43.4-.49,1.55,0.32,1.58C91.16,555.63,91.21,554.48,90.41,554.45Zm31.66,2.21c0.22-.85-0.65-0.61-0.95-0.95C120.93,556.54,121.24,556.85,122.06,556.66ZM104,557h0.63c0-.41.4-0.44,0.32-0.95H104V557Zm-45.58-.63c-0.09-.09-0.48.15-0.32,0.32S58.6,556.51,58.44,556.35Zm43.68,2.85h0.63a2,2,0,0,1,.32-0.64c-0.41,0-.44-0.4-0.95-0.31v0.95Zm56-.64h-1.27v1.27A1,1,0,0,0,158.15,558.56Zm-29.44,1.9c-0.4,0-.44-0.4-0.95-0.32v0.95h0.64A2.13,2.13,0,0,1,128.71,560.46Zm-84.83.32c0.25-.07.63,0,0.63-0.32C44.26,560.53,43.88,560.47,43.88,560.77Zm42.73,0.32c0.09,0.09.48-.15,0.32-0.32S86.45,560.93,86.61,561.09Zm38.62-.32c0,0.38-.56.72,0,0.95C125.28,561.35,125.79,561,125.23,560.77ZM49.89,562v-0.95a1.3,1.3,0,0,0-1.27.95C49.25,562.57,49,562,49.89,562Zm10.45-.95c-0.73.11-1.48,0.21-1.27,1.27A1,1,0,0,0,60.34,561.09Zm106,0.63M98,562.67V562C97.42,561,96.46,563,98,562.67ZM33.12,562c-0.56.07-1.59-.32-1.27,0.63C32.57,562.76,33,562.6,33.12,562Zm128.2,0.63c0.09,0.09.48-.15,0.32-0.32S161.15,562.51,161.31,562.67Zm-144,1.58c-0.09-.09-0.48.15-0.32,0.32S17.45,564.42,17.29,564.25Zm131.05,0.95c0.09,0.09.48-.15,0.32-0.31S148.17,565,148.34,565.2Zm-40.84,1.27c0.77,0.39,2.83,1.37,2.54-.63C108.74,565.64,107.78,564.59,107.5,566.47ZM16,565.84c0.09,0.09.48-.15,0.32-0.32S15.86,565.67,16,565.84Zm21.21,0.32c-0.63,0-.4-0.86-1.27-0.63a1.55,1.55,0,0,0,0,1.9C37,567.57,36.85,566.62,37.23,566.15Zm91.8,0.32a1.26,1.26,0,0,0-1.58,1.27H129v-1.27Zm-42.73.95h0.63v-0.63H86.3v0.63Zm-36.09,0a2.08,2.08,0,0,0-1.59-.32c0.23,1.18-.54,1.36-0.31,2.53C49.9,569.85,50.4,569,50.21,567.42Zm33.55,1.27a1.49,1.49,0,0,1-.32.95h1C84.37,569.13,84.44,568.53,83.76,568.68ZM22.67,570.9c-0.09-.09-0.48.15-0.32,0.32S22.83,571.06,22.67,570.9Zm122.82,0.63c0.09,0.09.48-.15,0.32-0.32S145.33,571.36,145.49,571.53Zm-2.85,1.27c0.83,0.09,1.36-.11,1.27-0.95-0.4,0-.44-0.4-0.95-0.32A2,2,0,0,0,142.64,572.79Zm-106.36.63h0.95v-0.95H36.28v0.95Zm95.28-.95c0,0.37-.05.9,0.32,0.95,0-.19,0-0.37.32-0.32C132.16,572.72,132.1,572.36,131.56,572.48Zm8.55,1.58a8,8,0,0,1,.63-0.95C140,572.09,138.79,573.85,140.11,574.06Zm-84.52-.95c-1.39-.12-1.52,1-1.9,1.9C55.11,575.16,55.9,574.68,55.59,573.11Zm42.73,0.63a2,2,0,0,0-1.27-.32v1.27C98.07,575,98,574.2,98.32,573.74Zm20.89,3.16c0,0.4-.41.44-0.32,0.95h0.64C119.88,577.4,119.87,577.08,119.22,576.91Zm-75.34,1.26c-0.09-.09-0.48.16-0.32,0.32S44,578.34,43.88,578.17Zm108.57,2.21c0.5,0,1.1,0,.95-0.63a44.07,44.07,0,0,0-5.06-.63,1.77,1.77,0,0,0,.32,1.27c1.67,0.44,2,2.24,3.8,2.53C153.2,582.17,152.4,581.36,152.45,580.38Zm-18.68-.32a2.06,2.06,0,0,0-.32,1.27A0.66,0.66,0,1,0,133.78,580.07Zm-1.58,1.58c0,0.18.26,0.36,0.32,0C132.51,581.47,132.25,581.29,132.19,581.65Zm-73.44,2.21h0.63c0.44-.08.36-0.7,0.63-0.95a1.49,1.49,0,0,1-.95-0.32A2,2,0,0,0,58.76,583.86Zm96.23,1.9c0.09,0.09.48-.15,0.32-0.32S154.82,585.6,155,585.76Zm7.59,2.21a2,2,0,0,0,.32-1.26A0.66,0.66,0,1,0,162.58,588Zm-121.87-.63a0.32,0.32,0,0,0-.63,0C40.15,587.72,40.43,587.54,40.71,587.34Zm115.22,0c0.09,0.09.48-.15,0.32-0.32S155.77,587.18,155.94,587.34ZM17,589.87c-0.83-.09-1.36.12-1.27,0.95C16.53,590.91,17.06,590.71,17,589.87Zm27.86,1.27a1,1,0,0,0,1.27-1.27A1,1,0,0,0,44.83,591.14Zm108.89-.95c0,1.18-.36.9,0,1.9H155A1.15,1.15,0,0,0,153.72,590.19Zm-113,.95c-0.38.49-1,1.23-.32,1.9h0.95A1.16,1.16,0,0,0,40.71,591.14Zm59.51,0.63c0.09,0.09.48-.15,0.32-0.32S100.06,591.61,100.22,591.77Zm6.33,0a1,1,0,0,0-1.27,1.27A1,1,0,0,0,106.55,591.77Zm24.06,0c0,0.41-.41.44-0.32,0.95h0.63C131.28,592.26,131.27,591.95,130.61,591.77Zm-62,1.27c0.37-.05.9,0.05,0.95-0.32C69.14,592.77,68.62,592.66,68.57,593ZM10,593.35a8.7,8.7,0,0,1-.63.95,2.06,2.06,0,0,0,1.27.32C10.73,593.9,10.56,593.43,10,593.35Zm111.11,1.9c0-1,.18-2.08-0.95-1.9C119.31,593.93,119.36,595.62,121.12,595.25Zm-88.63,0c0.89,0.26.82-.45,1.58-0.32C34.17,593.37,32.31,594.11,32.48,595.25Zm38,0.32H69.83v0.63h0.63v-0.63ZM142,595.88c-1.07-1-1,1.17,0,0h0Zm18.67,0.32c-0.09-.09-0.48.15-0.32,0.32S160.85,596.36,160.68,596.2Zm-144,1.27a2,2,0,0,0-.32,1.58C18.18,599.73,18.53,597,16.65,597.47ZM149,597.78c-1,1.07,1.17,1,0,0h0ZM120.8,600c0-.38-0.1-0.75-0.63-0.63,0.05,0.38-.05.9,0.32,0.95C120.5,600.12,120.53,599.93,120.8,600Zm17.09,0c0,0.18.26,0.36,0.32,0C138.21,599.82,138,599.63,137.89,600Zm-131.68.63H5.26c0,0.84-.18,1.86.63,1.9a0.49,0.49,0,0,1,.64-0.32A2.07,2.07,0,0,0,6.21,600.63Zm31.65,0.32c-0.25.07-.62,0-0.63,0.32C37.47,601.19,37.85,601.25,37.86,600.94Zm3.8,1.9a1.64,1.64,0,0,0,1.9-1.27C42.74,600.86,41.77,601.89,41.66,602.84Zm31-.63c0.09,0.09.48-.15,0.32-0.32S72.52,602,72.68,602.21Zm41.47,2.21h0.63v-0.63h-0.63v0.63Zm-89.58.63c-0.09-.09-0.48.15-0.32,0.32S24.73,605.22,24.57,605.06Zm85.15,0.63c0.07,0.39.36,0.2,0.63,0A0.32,0.32,0,0,0,109.72,605.68ZM99.27,606c-0.09-.09-0.48.15-0.32,0.32S99.44,606.16,99.27,606Zm-94.33.32c-0.09-.09-0.48.15-0.31,0.31S5.1,606.49,4.94,606.32Zm51.6,2.53c0.07,0.38.36,0.2,0.63,0A0.32,0.32,0,0,0,56.54,608.85Zm55.08,0.63c0.09,0.09.48-.15,0.32-0.32S111.46,609.32,111.62,609.48Zm-10.76,1.58c0-.18-0.26-0.36-0.32,0C100.54,611.24,100.8,611.42,100.86,611.06Zm23.42-.32c-0.21.76-1.68,1.89-.63,2.85C124,612.82,125.51,611.13,124.28,610.75Zm-97.5.95h0.63v-0.63H26.78v0.63Zm79.14,0h0.63v-0.63h-0.63v0.63Zm22.16,0.95c-0.24-1.09-.88-1.78-1.9-1.27A1.19,1.19,0,0,0,128.08,612.65Zm-7.28.63h0.95v-0.95h-0.63C121.1,612.73,120.71,612.77,120.8,613.28Zm10.45-.63c-1.6,1.27,1.1,1.48,0,0h0Zm-53.18,1.27c0.07,0.38.35,0.2,0.63,0A0.32,0.32,0,0,0,78.06,613.91Zm22.47-.32c-0.09-.09-0.48.15-0.32,0.32S100.7,613.76,100.54,613.59Zm-74.7,1.9h0.63v-0.63H25.83v0.63Zm78.5,0.32c-0.09-.09-0.48.15-0.32,0.32S104.5,616,104.34,615.81Zm-74.39.63c-0.36,0-.49-0.46-0.63,0A0.32,0.32,0,0,0,29.95,616.44Zm-24.69.95H5.89v-0.63H5.26v0.63Zm122.82,0a1,1,0,0,0-1.27,1.26A1,1,0,0,0,128.08,617.39Zm31,0.95h-0.63V619h0.63v-0.63Zm-109.53,1.9H48.94v0.63h0.63v-0.63Zm77.56,1.58c0.56-.07,1.58.32,1.27-0.63C127.67,621.09,127.21,621.26,127.13,621.82Zm-7.28,1.9h0.63v-0.63h-0.63v0.63ZM23,624.35a1.41,1.41,0,0,0,1.27-.63A0.72,0.72,0,0,0,23,624.35Zm77.88,1.58c0.41-.42.41-1.18-0.32-1.27C100.5,625.46,99.94,625.65,100.86,625.93Zm10.45,3.48c0.73-.11,1.48-0.2,1.27-1.27A1,1,0,0,0,111.3,629.41Zm-67.43-.32c0.09,0.09.48-.15,0.32-0.32S43.71,628.93,43.88,629.09ZM71.1,631c0.25-.07.63,0,0.63-0.32C71.49,630.74,71.11,630.68,71.1,631Zm40.2,0.32h0.63v-0.63H111.3v0.63Zm-30.71,0v0.63h0.95C81.59,631.37,81.23,631.2,80.6,631.31Zm-59.2,2.21a2.06,2.06,0,0,0-1.27-.32,1.55,1.55,0,0,0,0,1.9A1.25,1.25,0,0,0,21.4,633.52ZM155,634.47v-0.63C154.4,632.78,153.44,634.79,155,634.47Zm-56.66,0v0.95C99.24,635.88,99.24,634,98.32,634.47ZM2.41,637c-0.09-.09-0.48.15-0.32,0.31S2.57,637.16,2.41,637Zm12.34,0c-0.09-.09-0.48.15-0.31,0.31S14.92,637.16,14.75,637Zm70.59,0.95c-0.77,1.06,1.06-.76,0,0h0Zm28.17,0.32v0.63h0.95C114.51,638.33,114.15,638.15,113.52,638.26Zm0.63,1.58h0.63v-0.63h-0.63v0.63Zm-48.43,1.27c-1.61.17-.86-0.27-1.27-0.95H63.5c-0.23,1.29,1,1.09.63,2.53C65.24,642.74,65.13,641.58,65.72,641.11Zm54.45,0.32c0.07,0.6-.36.7-0.32,1.27h1.27C121.21,641.86,121,641.33,120.17,641.43Zm-42.1.63c-0.09-.09-0.48.15-0.32,0.32S78.23,642.22,78.06,642.06Zm-9.81.32a1.78,1.78,0,0,0-1.27.32c-0.09.83,0.44,1,1.27,0.95v-1.27Zm-1.58.95c-1.17.2-2.18-1-2.22,0.63C65.76,643.2,66.25,645.22,66.67,643.32Zm-6,1.58c0.09,0.09.48-.15,0.32-0.32S60.49,644.74,60.65,644.91Zm70,0.63c-0.72-.09-1.19.07-1.27,0.63C129.9,646.1,130.93,646.49,130.61,645.54Zm-61.73,1.58c-0.12-.75,1.44.18,0.95-0.95C69.29,646.09,68,646.77,68.88,647.12Zm-47.8.63h0.63v-0.63H21.08v0.63ZM67,649c-0.41-.95,1.72-1.62,0-1.9,0.11,1.16-1.81.29-1.26,1.9H67Zm82.94-1.27c0.25-.07.63,0,0.63-0.31C150.31,647.51,149.93,647.45,149.92,647.75ZM10,648.7c-0.77,1.06,1.06-.77,0,0h0ZM63.82,649h0.63v-0.63H63.82V649Zm-50-.32c-0.85,0-1.52.72-.95,1.27C13.69,650.06,13.89,649.53,13.8,648.7ZM96.42,650c-0.77,1.06,1.06-.76,0,0h0Zm-1.9.95c-0.66.19-2.08-.39-2.21,0.32C93.44,651,94.21,652.15,94.53,650.91Zm-1.58,1.27c-0.77,1.06,1.06-.77,0,0h0Zm15.82,0.32c0.25-.07.63,0,0.63-0.32C109.15,652.25,108.78,652.19,108.77,652.5Zm0.95,1.58c0.25-.07.63,0,0.63-0.32C110.1,653.83,109.73,653.77,109.72,654.08Zm-38.3,2.84c-0.79,0-2.78-.85-2.85.95,0.25,0.07.62,0,.63,0.32C70.33,657.27,71.17,658.54,71.42,656.92Zm24.06,0.63c-0.77,1.06,1.06-.76,0,0h0Zm-90.54.32c0.09,0.09.48-.15,0.32-0.32S4.78,657.71,4.94,657.87Zm97.18,0c0.09,0.09.48-.15,0.32-0.32S102,657.71,102.12,657.87Zm40.52-.32c-0.33,1.84,1.38.13,0,0h0Zm-92.75,1.27c1.07,1,1-1.17,0,0h0Zm20.89,0c-0.89.26-.82-0.45-1.58-0.32a1.3,1.3,0,0,0,1.58,1.58v-1.27Zm0,2.53h0.63c0-.41.41-0.44,0.32-0.95H71.1C71.08,660.81,70.69,660.84,70.78,661.35Zm34.82,1.27c0.25-.07.63,0,0.63-0.32C106,662.37,105.61,662.31,105.6,662.62Zm9.5,0.32c0.09,0.09.48-.15,0.32-0.32S114.94,662.77,115.1,662.93ZM25.52,664.2v-1.27a1.78,1.78,0,0,0-1.27.32C24.15,664.08,24.69,664.29,25.52,664.2ZM10,663.88c0,0.18.26,0.36,0.32,0C10.32,663.71,10.06,663.52,10,663.88Zm4.43,0.63H13.49v0.95h0.63C14.14,665.06,14.53,665,14.44,664.52Zm-6,2.53c0.07,0.38.35,0.2,0.63,0A0.32,0.32,0,0,0,8.42,667Zm3.8-.32c-0.28.67-1,.94-0.95,1.9h2.22C13.62,667.45,13.24,666.77,12.22,666.73Zm-2.85.95c0.07,0.38.35,0.2,0.63,0A0.32,0.32,0,0,0,9.37,667.68Zm51.28,1.58c0-.18-0.26-0.36-0.32,0C60.33,669.43,60.59,669.62,60.65,669.26Zm57.29,0c0,0.18.26,0.36,0.32,0C118.26,669.08,118,668.9,117.95,669.26Zm-23.74,1.27c0.09,0.09.48-.15,0.32-0.32S94,670.36,94.21,670.52Zm13.29,0.63c-0.09-.09-0.48.15-0.32,0.32S107.67,671.32,107.5,671.16Zm-95.59,5.38c0,0.38-.06.9,0.31,0.95,0-.19,0-0.37.32-0.32C12.5,676.78,12.44,676.42,11.91,676.53Zm92.43,2.21V680c0.83,0.09,1-.44.95-1.27h-0.95Zm2.53,1.58a0.87,0.87,0,0,0,.95-0.63C107.32,679.73,106.72,679.65,106.87,680.33Zm17.73-.63c-0.24.07-.62,0-0.63,0.32C124.21,679.94,124.59,680,124.6,679.7ZM55.9,681a0.87,0.87,0,0,0,.95-0.63C56.36,680.36,55.76,680.29,55.9,681Zm66.79,0.63c0.25-.07.63,0,0.63-0.32C123.08,681.35,122.71,681.29,122.7,681.59Zm1.58,1.27c0.09,0.09.48-.15,0.32-0.32S124.12,682.7,124.28,682.86Zm-67.74,0c-0.09-.09-0.48.15-0.32,0.32S56.71,683,56.54,682.86Zm11.08,0.63c0.25-.07.63,0,0.63-0.32C68,683.25,67.63,683.18,67.62,683.49Zm29.44,0.95a0.87,0.87,0,0,0,.95-0.63A0.87,0.87,0,0,0,97.06,684.44ZM47,687c1.07,0.14,2.62-.86,1.27-1.27C48.18,686.42,46.45,685.54,47,687Zm46.21,0.63c0.09-.72-0.07-1.19-0.63-1.27A0.72,0.72,0,0,0,93.26,687.6Zm-17.09.63c0,0.85.73,1.52,1.27,0.95C77.53,688.35,77,688.15,76.16,688.24Zm16.78,1.27c0.09-.64.86-0.62,0.95-1.27H92.31C92.22,689,92.38,689.42,92.94,689.5Zm55.39-.63c0.09,0.09.48-.15,0.32-0.32S148.17,688.7,148.34,688.87Zm-110.16.32c-0.77,1.06,1.06-.77,0,0h0Zm92.43,0.32c0,0.18.25,0.36,0.32,0C130.93,689.32,130.67,689.14,130.61,689.5Zm-117.44.32c0.09,0.09.48-.15,0.32-0.32S13,689.65,13.17,689.82Zm63,0.32c0.09,0.09.48-.15,0.32-0.32S76,690,76.16,690.13Zm-14.87,1.58H60.65v0.63h0.63v-0.63Zm-52.55,1.9c0.2,0,.38,0,0.32.31H9.69C10.18,693.15,8.62,693,8.74,693.61Zm49.7,0c0.25-.07.63,0,0.63-0.32C58.83,693.37,58.45,693.31,58.44,693.61Zm25.32,1.58c0.24-.07.62,0,0.63-0.31C84.15,694.95,83.77,694.89,83.76,695.19Zm-23.43,1.9a0.68,0.68,0,1,0,1.27,0H60.34Zm28.49,3.16c0,0.18.26,0.36,0.32,0C89.14,700.08,88.89,699.9,88.83,700.25Zm-41.46.63c-0.15.15-.37-0.06-0.32,0.32C47.22,702.64,48.86,699.39,47.36,700.89Zm41.15,1.26h0.63v-0.63H88.51v0.63Zm13,0c-0.4.76-1.16,1.17-.95,2.54C102,705.2,102.66,702.18,101.49,702.15Zm-13.29,1.27c-0.24.07-.62,0-0.63,0.32C87.81,703.66,88.19,703.73,88.19,703.41Zm-41.47,1.27c0,0.18.26,0.36,0.32,0C47,704.51,46.79,704.32,46.72,704.68Zm37-.32H82.81a2,2,0,0,0-.32,1.58C83.67,706.17,83.89,705.45,83.76,704.37Zm44,1.89c0.07,0.38.35,0.2,0.64,0A0.32,0.32,0,0,0,127.76,706.26Zm-113.32.95a0.93,0.93,0,0,0-.64-0.63,5.8,5.8,0,0,0-2.21,3.16c1,0.32,1.18-.58,1.58-0.95A3,3,0,0,0,14.44,707.21Zm18,0a2,2,0,0,0,1.27.32A0.66,0.66,0,1,0,32.48,707.21Zm34.82-.63v1.58h1.27C68.55,707.24,68.45,706.38,67.3,706.58Zm32.61,0c-0.25.22-.83,1.89,0.31,1.58C100.74,708.22,100.86,706.09,99.91,706.58Zm-85.79,2.53c0.25-.07.63,0,0.63-0.32C14.51,708.87,14.13,708.8,14.12,709.11Zm0,1.9c1.13,0.07,1.9-.21,2.22-0.95C15.69,709.5,13.77,709.6,14.12,711ZM98,710.06c0.36,0,.49.46,0.63,0A0.32,0.32,0,0,0,98,710.06ZM63.19,712c0.09,0.09.48-.15,0.32-0.32S63,711.79,63.19,712Zm-40.52,2.53c0.09,0.09.48-.15,0.31-0.31S22.51,714.32,22.67,714.49Zm70.91,1.58h0.63a2,2,0,0,1,.32-0.63c-0.4,0-.44-0.4-0.95-0.31v0.95Zm4.43,0c0,0.18.26,0.36,0.32,0C98.32,715.89,98.07,715.71,98,716.07Zm-56.66.32c0.09,0.09.48-.15,0.32-0.32S41.18,716.22,41.34,716.38Zm32.61,0c-0.09-.09-0.48.15-0.32,0.32S74.11,716.55,74,716.38Zm65.84,0.95h0.63c0-.4.41-0.44,0.32-0.95h-0.95v0.95ZM116,721.45c-1.14,1.49,1.85.42,0,0h0ZM33.12,723a2.71,2.71,0,0,0-.95,1.27C33.13,725.49,34.62,723.38,33.12,723Zm29.75,3.16v0.63h0.95C63.86,726.25,63.51,726.08,62.87,726.19Zm-23.74,1.58c0.09,0.09.48-.15,0.32-0.32S39,727.61,39.13,727.77Zm10.13,0.95H48.62v0.63h0.63v-0.63ZM44.83,730c0,0.18.26,0.36,0.32,0C45.14,729.81,44.88,729.63,44.83,730ZM74,730.62h0.63V730H74v0.63Zm-44,5.38c-0.15.15-.36-0.06-0.32,0.32C29.81,737.75,31.44,734.5,29.95,736Zm48.43,1.27c-0.25.07-.62,0-0.63,0.32C78,737.5,78.37,737.57,78.38,737.26Zm-0.32,4.43c0.25-.07.63,0,0.63-0.32C78.45,741.44,78.07,741.38,78.06,741.69Zm47.48,3.79c1.06,0.22,1.16-.53,1.27-1.26h-1.27v1.26Zm-3.48,1.27c1,0,1.39-.71,1.27-1.9h-0.95A2.71,2.71,0,0,0,122.06,746.75Zm-15.51-.95c0-.18-0.26-0.36-0.32,0C106.24,746,106.49,746.16,106.55,745.8Zm-51.28,1.27H54a1.35,1.35,0,0,0,.95,1.58A2.06,2.06,0,0,0,55.27,747.06Zm62.68,0.63c0.07,0.38.35,0.2,0.63,0A0.32,0.32,0,0,0,117.95,747.7Zm-50.33.63v0.95C68.54,749.74,68.54,747.86,67.62,748.33Zm-0.95,1.27H67.3V749H66.67v0.63ZM80.28,749c-0.09.72,0.08,1.19,0.63,1.27a2,2,0,0,0,.32-1.27H80.28Zm13,3.48c-0.4,0-.43-0.41-0.95-0.32C91.82,752.9,93.38,753.05,93.26,752.44Zm-56.66,0H36c0,0.19,0,.38-0.32.31v0.64c0.2,0,.38,0,0.32.32H36.6c0-.2,0-0.37.32-0.32v-0.64C36.72,752.74,36.54,752.71,36.6,752.44Zm17.09,1.27c0.25-.07.63,0,0.63-0.32C54.08,753.46,53.7,753.4,53.69,753.71Zm56,1.58c-0.38.42-.32,2.18,0.63,2.21C110.61,757.52,110.51,755.26,109.72,755.29Zm-60.14,1.27c0,0.18.26,0.36,0.32,0C49.89,756.38,49.63,756.19,49.57,756.55ZM79,756.87h0.63v-0.63H79v0.63Zm-59.2,0c0,0.18.26,0.36,0.32,0C20.14,756.7,19.88,756.51,19.82,756.87Zm31.34,0.63h0.63c0-.4.41-0.44,0.32-0.95H51.16v0.95Zm29.12-.95c-0.09-.09-0.48.15-0.32,0.32S80.44,756.72,80.28,756.55Zm-51.6,3.16c0.25-.07.63,0,0.63-0.32C29.07,759.47,28.69,759.41,28.68,759.72Zm8.86,2.21c0.25-.07.63,0,0.63-0.32C37.93,761.68,37.55,761.62,37.55,761.93ZM28,765.09c-0.11.2,0.14,0.32,0.32,0.32C29.35,765.36,28.6,764.07,28,765.09Zm-8.23,2.85c0.09,0.09.48-.15,0.32-0.32S19.65,767.77,19.82,767.94Zm68.06,2.21c0.5,0,1.1,0,.95-0.63H88.19A2.14,2.14,0,0,1,87.88,770.15Zm11.39-.32c0.07,0.38.35,0.2,0.64,0A0.32,0.32,0,0,0,99.27,769.84ZM48,771.73c-0.61.92-1,.82-0.63,2.21,1.71,0.34,1.8-.95,2.21-1.9A2,2,0,0,1,48,771.73Zm64.89,1.59c0.07,0.38.35,0.19,0.63,0A0.32,0.32,0,0,0,112.88,773.32Zm-86.1,4.74c0.25-.07.63,0,0.63-0.32C27.17,777.81,26.79,777.75,26.78,778.06Zm74.7,0c0,0.2,0,.38-0.32.32V779C102,779.5,102.1,777.93,101.49,778.06Zm-21.21,2.53c0.07,0.38.35,0.19,0.63,0A0.32,0.32,0,0,0,80.28,780.59ZM56.85,782.8c-0.4,0-.44-0.41-0.95-0.31C55.41,783.27,57,783.42,56.85,782.8Zm-1.58,5.06a2.06,2.06,0,0,0,1.58-.32v-1.27A1.3,1.3,0,0,0,55.27,787.86Zm51.28,1.27c1,0,1.09-.81,1.27-1.58C107,786.61,105.64,788.29,106.55,789.13Zm-51-.32c0.09,0.09.48-.15,0.31-0.32S55.42,788.65,55.59,788.81Zm10.13,0.32c0.07,0.38.35,0.2,0.63,0A0.32,0.32,0,0,0,65.72,789.13Zm35.77,1.27c-1,1.07,1.17,1,0,0h0Zm-1.9,2.53h0.63c0-.4.41-0.43,0.32-0.95H99.91C99.89,792.38,99.5,792.41,99.59,792.92ZM131.88,30.69a14.3,14.3,0,0,0-.63-1.58c0,0.63-.86.4-0.63,1.27A2.05,2.05,0,0,0,131.88,30.69ZM110,62.95c0.82,0.08-.44.55,0,1.27h1.27C112,62.9,109.27,62.36,110,62.95Zm1.9,9.8c0.51,0.06-.52,1.5.95,1.27C113.16,73.18,112.11,72.1,111.94,72.75ZM47.36,86a1.76,1.76,0,0,0,1.26-.32c0.32-1.18-1.42-1.93-1.58-1.58C47.87,84.41,46.44,85.53,47.36,86Zm67.11,14.55c0-.63.86-0.4,0.63-1.27C114.33,99,114.05,100.74,114.47,100.59Zm-101.61,9.8c0.25,0.43.32,0.05,0-.31S12.63,110,12.85,110.39Zm99.71,20.56c0.43,0.72-.82,1.19,0,1.27,0.09-.65,1.4-0.07,1.27-0.95A2.06,2.06,0,0,0,112.57,130.95ZM84.4,147.08c0,1.08.93,1.18,1.58,1.58,0-.57-0.32-0.74-0.95-0.63A0.87,0.87,0,0,0,84.4,147.08Zm48.75,38.59c0.61,0.13.57,0.9,1.59,0.63v-0.95C133.89,185.68,132.62,185.19,133.14,185.67Zm-13,6.64c-0.15.62,0.85,1.62,0.95,0.95C120.35,193.38,121.29,191.82,120.17,192.31Zm-17.09,20.88c1.59-.43,1.23,1.09,2.21,1.27,0.08-.45.69-0.36,0.95-0.63,0.22-1.27-1.33-.78-1.27-1.9,1,0,.85-1.38,1.27-1.58,0.85-.41,1.21-0.07,1.27-0.95-0.63,0-.4-0.86-1.27-0.63s0.65,1.2-.32,1.58c-0.89-.05-1.32-0.58-2.21-0.63C103.62,210.58,102.83,211.22,103.07,213.18Zm-13.93-.32c1,0.86-.86-1,0,0h0Zm13,8.54c0.66,0.69.9-.16,1.9,0-0.7.7,0.31,1.29,0,2.53a2,2,0,0,0-.63.32c-0.77.13-.69-0.58-1.58-0.32a2,2,0,0,0-.32,1.27c0.54,0.62,1.6.72,1.27,2.22,1,0.16,1.29-.75,1.58.31-1,.76-0.33,1.49-0.32,2.85,0.88,0.4,1.56.78,2.53,0.32,0.48,0.47.1,1.8,1.27,1.58a2.61,2.61,0,0,0-.32-2.85c-0.84-.37-1.86.61-1.9,0,1.14-.57-0.44-1-0.63-1.27a0.86,0.86,0,0,0,.63-0.95c-1.21-.29-0.15-1-0.32-1.58-0.05-.18-0.69-0.26-0.63-0.63,0-.14.86-0.47,0.95-0.63,0.42-.75,0-2.07.95-2.21-0.13.76,0.58,0.69,0.32,1.58,2.2,0.11.68-1.42,0.32-2.21h-1.9c0.22-1.09-1.11-1.13-1.58-.63,0.09-.83-0.44-1-1.27-0.95A2,2,0,0,0,102.12,221.41Zm9.5,42.07c0.77-.81-0.06-1.29-0.32-1.58s-1.27-1.19-1.59-.63C110.2,262.15,110.53,263.19,111.62,263.47ZM99,296.36c-0.18,0-.36.26,0,0.32,0.14-.6.68-0.79,0.63-1.58-1,.23-0.61-0.87-1.58-0.63C97.58,295.85,99.23,295.14,99,296.36Zm41.79,2.85c-0.21-.26-0.29.59-0.32,0.63C140,300.75,141,299.53,140.74,299.21Zm-7,13.29c-0.95-.21.3-0.68,0-1.27a1.55,1.55,0,0,0-1.9,0A1.21,1.21,0,0,0,133.78,312.5ZM96.42,383c0.94-.08,2.53.82,2.85,0.31C98.71,382.7,96.48,380.44,96.42,383Zm-37,88.55c-0.5,0-.25-0.8-0.95-0.63C58.16,471.61,59.48,472.15,59.39,471.58Zm6,35.43c0.31-.13.71,0.64,0.63-0.32,0-.59-1.07-0.2-1.27-0.63-0.13.61-.11,1.36-0.95,1.27-0.23-1,.32-1.15.32-1.9H62.87c-0.16,1.32.72,1.6,0.95,2.53C64.63,507.94,65,507.18,65.4,507Zm63.94,101.21c-1.16.42-2.72,0.44-3.17,1.58,0.59,0.08-.18.52,0.32,0.63a8,8,0,0,0,1.27-.95C128.39,609.17,129.65,609.14,129.35,608.22ZM89.46,753.71c1,0.86-.86-1,0,0h0ZM83.76,773c-0.87,1,1-.86,0,0h0Z"/></svg>