<svg id="Layer_1" data-name="Layer 1" xmlns="http://www.w3.org/2000/svg" viewBox="0 0 55 170"><defs><style>.cls-1{fill:#d9af51;}.cls-1,.cls-2{fill-rule:evenodd;}.cls-2{fill:#a5802d;}</style></defs><title>straw</title><path class="cls-1" d="M40.93,3.59c1.25,3.09-.63,5.71-1.12,8.25,1.52,1.24,2.15-.9,4.12-0.38,2.44,4.17-2.37,7-2.24,11.25-3.82-2.47-6.48,3-4.87,7.13-2.51,1.77-2,6.5-1.12,9.75-2.17-.42-2.5,1-3.37,1.88-0.26,2,.43,3.07.75,4.5a3.73,3.73,0,0,0-2.25,1.13c-2.64-3.14,4.19-10-.76-13.5,1.93-2.12,3.55-8.46.74-10.88,2.92-4.31.38-8.67,1.12-13.87,1.31,0.7,2.53,1.47,3.75,2.25C37.62,8.93,36.25,1.79,40.93,3.59ZM32.7,38.09c1.86-9.4,4.21-20.26,6.36-28.13H37.94C35.32,18.22,31.81,27.57,32.7,38.09Z"/><path class="cls-1" d="M14.31,4.36c2.25,1.56.24,6,1.13,8.25,0.61,0.61,1.57-.33,3,0,0,0.88,0,1.75,0,2.62a3.61,3.61,0,0,0-3.75.75c-0.38,3.51.68,5.57,1.5,7.88-0.83.29-2,.22-2.25,1.12-1.74-2.41,1-8.31-1.51-10.5-1.53,9.2.15,20.9,3,28.12-2.68,1.58-1.3,7.35,0,9.37-6.23,3.86,1.61,6.52,3,10.5,1.14,3.24-.91,4.35-1.12,8.63-0.94-2.81.22-7.72-1.13-10.12-4.3-.51-9-5.39-9-10.12C9,51,9.87,51.95,12.09,51.6c0.41-2.41-1.94-2.07-3-3a11.62,11.62,0,0,1-3.38-7.87c1.85-.3,3,1.49,4.5.37C8.94,37.3,4,35.41,5,30.61c1.75-.4,3,1,4.12,0-1.32-4.06-5-5.77-5.25-10.87,2.2-.33,2.34,1.4,4.12,1.5,0-3.42-6.09-8.92-1.88-13.12,2.44,0.31,2.81,2.69,4.88,3.37C11.45,9.29,9.54,3.32,14.31,4.36Z"/><path class="cls-1" d="M24.82,17.47c1.33,0.93,1.78-2.21,4.13-1.5,3.29,5.1-3.93,7.33-3.75,10.5,1.07,0.74,3.24-1.56,4.88-.38,1.81,5.41-4.58,5.6-4.49,10.5,0.78,1.12,2-.5,3.38,0,2.39,4.32-2.38,6.47-4.12,9,1.05,0.82,3,.77,3.37,2.25C28,51,26,52.35,24.84,54.6c4.12,0.85,2.76,7.4-1.5,7.12,0.21-14.58,0-31.53,0-45.37-1.45-.78-0.61.56-2.25,0.38-3.33-4.75,2.75-11,4.5-6C26.52,13.5,23.51,14.82,24.82,17.47Z"/><path class="cls-2" d="M37.94,10h1.13c-2.15,7.87-4.5,18.72-6.36,28.13C31.81,27.57,35.32,18.22,37.94,10Z"/><path class="cls-1" d="M21.82,18.6c-0.26,14.48.8,30.28-1.1,43.12-2.87-1.39-5.22-3.28-5.26-7.5C17.4,54,17.77,55.42,20,55c-0.34-2.95-5.2-4.52-4.13-10.12,2.32-.67,2.83,2,4.5.75-1.4-3.73-5.63-4.62-4.88-10.5,1.18,0.45,2.5.75,3.75,1.12,0.48-3.58-5.83-5.3-3.76-10.49,1.16-.7,2.91.68,4.5,0.75,0.67-3.47-4.43-4.29-3.38-9.37C18,16.55,19.86,18.45,21.82,18.6Z"/><path class="cls-1" d="M46.19,17.46c3.05,2.12.21,6.84-1.5,8.63C43.85,23.36,44.59,19,46.19,17.46Z"/><path class="cls-1" d="M39.07,24.21c3.41,0.32,3.95,5.15,3,8.62A7.3,7.3,0,0,1,39.07,24.21Z"/><path class="cls-1" d="M50.32,25.71a8.07,8.07,0,0,1,.38,3.38,10.09,10.09,0,0,1-6,2.63C45.42,28.7,46.25,24.17,50.32,25.71Z"/><path class="cls-1" d="M37.95,32.46c1.23,1.14,2.77,2,3.38,3.75-1,1.25-.94,3.56-1.5,5.25C38.46,39.36,36,35.52,37.95,32.46Z"/><path class="cls-1" d="M49.2,33.59C50.12,37.49,45.71,39,42.45,40,42.54,35.77,44.86,32.35,49.2,33.59Z"/><path class="cls-1" d="M47,41.08c2.19,4-2.3,6.34-6.37,6.38Q40.73,41.24,47,41.08Z"/><path class="cls-1" d="M35,41.47c2.26,0,3.1,1.4,4.12,2.62-0.26,1.49-.58,2.92-1.87,3.38C35.87,46.11,33.9,44,35,41.47Z"/><path class="cls-1" d="M32.71,48.22c2.64-.26,3.45,1.29,4.88,2.25-0.71,1.3-1.11,2.89-1.87,4.13A4.76,4.76,0,0,1,32.71,48.22Z"/><path class="cls-1" d="M45.08,50.46C44.48,53.72,40.8,53.92,38,55,38.46,51.67,42.13,46.73,45.08,50.46Z"/><path class="cls-1" d="M30.08,51.22c0.81-.06.17,1.33,0.37,1.87-0.53,0-1.06-.06-1.12.38C28.32,52.9,29.93,51.85,30.08,51.22Z"/><path class="cls-1" d="M31.21,55c2,0.16,2.65,1.6,4.13,2.25a20.5,20.5,0,0,1-1.5,5.25C31.44,61.62,29.65,57.43,31.21,55Z"/><path class="cls-1" d="M42.46,57.59c0.49,4.49-3.5,4.5-6.37,5.63C36,59.35,38.61,55.15,42.46,57.59Z"/><path class="cls-1" d="M24.85,82.72C25.58,76.07,24,63.87,29,60.22c0.64-.14.71,0.29,0.75,0.75C26.93,67.06,26.41,75.4,24.85,82.72Z"/><path class="cls-1" d="M30.84,63.22a1.76,1.76,0,0,0,1.12.38q-3.79,17-7.1,34.5C25.15,86.27,28.12,73.87,30.84,63.22Z"/><path class="cls-1" d="M20,64h1.13c-0.12,32-3.9,68.71-2.57,99.75-2.43-7.17-2.27-15.66-2.64-24-1.11-25,1.46-52.24,4.08-74.62C20,64.72,20,64.35,20,64Z"/><path class="cls-1" d="M20.4,162.21h1.5c1,1.57-.06,3.8-1.12,4.5C19.91,165.95,20.64,163.6,20.4,162.21Z"/><path class="cls-2" d="M39.05,0.59h1.5c1.7,1.8,3.28,3.72,3,7.5,3.18,2.19,3.76,7,6,10.12,0,1.63.13,3.37-.37,4.5,1.33,0.51,3.17.77,3.75,2.62s-1.45,3.26-1.5,6c0,1.92,1.21,3.18,1.13,4.12a5.3,5.3,0,0,1-3,4.13c1.83,4.74-2.27,6.69-1.49,11.63-1.08,1.17-1.48,3-3,3.75,3.55,6-3.25,9.81-8.24,10.88a148.57,148.57,0,0,0-8.6,37.88c-1.12,13.29-3.46,26.92-4.1,39.38a60.78,60.78,0,0,0,0,9c0.3,3.07,2,6.13,1.88,9-0.07,2-2.16,9.1-6,8.26-1.56-.35-1-1.76-1.88-3-1.25-1.7-2.56-1.81-3-3C13.8,159.69,14,152.32,14,148c0-26.4,4.37-61.91-.8-85.49C9.87,59.41,3.7,55.73,6.09,49.36,4.45,47.3,1.6,41.28,5,38.86a21.43,21.43,0,0,1-2.63-8.62C2,28.66,3.57,29,4.2,28.36a34.62,34.62,0,0,1-2.25-4.5q0-2.44,0-4.87c3-1-1.82-12.85,4.12-13.5,1.5-.37,1.13,1.12,2.63.75,1-6.28,9.79-4.24,9,2.25,2.49-.9,5.34-2.77,8.25-1.13,1.34,1.91.66,5.85,3.38,6.37,0.4-1.84-.26-5.35,1.5-6.75a8,8,0,0,1,3.37-.38C34.81,3.59,37.63,2.79,39.05.59Zm-3.37,10.5c-1.22-.78-2.44-1.55-3.75-2.25-0.74,5.2,1.8,9.56-1.12,13.87,2.81,2.42,1.18,8.75-.74,10.88,4.95,3.54-1.88,10.35.76,13.5A3.73,3.73,0,0,1,33.08,46c-0.32-1.43-1-2.49-.75-4.5,0.88-.87,1.2-2.3,3.37-1.88-0.85-3.25-1.39-8,1.12-9.75-1.61-4.08,1-9.6,4.87-7.13-0.12-4.29,4.69-7.08,2.24-11.25-2-.53-2.61,1.62-4.12.38,0.49-2.54,2.37-5.16,1.12-8.25C36.25,1.79,37.62,8.93,35.69,11.09Zm-24.75.39C8.88,10.79,8.5,8.42,6.06,8.11,1.85,12.32,8,17.82,7.94,21.23c-1.78-.1-1.93-1.83-4.12-1.5,0.27,5.1,3.93,6.82,5.25,10.87-1.17,1-2.38-.4-4.12,0-1,4.81,4,6.7,5.25,10.5-1.49,1.12-2.65-.67-4.5-0.37A11.62,11.62,0,0,0,9.08,48.6c1.07,0.93,3.41.59,3,3C9.87,51.95,9,51,7.21,50.86c0,4.72,4.7,9.61,9,10.12,1.35,2.4.19,7.32,1.13,10.12,0.21-4.27,2.26-5.38,1.12-8.63-1.39-4-9.24-6.63-3-10.5-1.31-2-2.68-7.79,0-9.37-2.86-7.22-4.55-18.92-3-28.12,2.55,2.19-.23,8.09,1.51,10.5,0.22-.91,1.42-0.83,2.25-1.12-0.82-2.3-1.89-4.36-1.5-7.88a3.61,3.61,0,0,1,3.75-.75c0-.88,0-1.75,0-2.62-1.43-.33-2.39.61-3,0-0.89-2.25,1.12-6.69-1.13-8.25C9.54,3.32,11.45,9.29,10.94,11.48Zm14.62-.76c-1.75-5-7.82,1.25-4.5,6,1.64,0.18.8-1.16,2.25-.38,0.07,13.84.24,30.79,0,45.37C27.59,62,29,55.44,24.84,54.6,26,52.35,28,51,28.21,47.84c-0.4-1.48-2.32-1.43-3.37-2.25,1.74-2.53,6.51-4.68,4.12-9-1.4-.5-2.59,1.12-3.38,0-0.08-4.9,6.31-5.1,4.49-10.5-1.64-1.18-3.8,1.12-4.88.38-0.19-3.18,7-5.4,3.75-10.5-2.35-.71-2.8,2.43-4.13,1.5C23.51,14.82,26.52,13.5,25.56,10.72Zm-9,6.38c-1,5.08,4,5.9,3.38,9.37-1.59-.07-3.34-1.45-4.5-0.75-2.07,5.19,4.23,6.91,3.76,10.49-1.25-.37-2.58-0.67-3.75-1.12-0.74,5.88,3.49,6.77,4.88,10.5-1.67,1.21-2.18-1.42-4.5-.75C14.76,50.45,19.62,52,20,55c-2.19.44-2.56-.94-4.5-0.75,0,4.22,2.39,6.11,5.26,7.5,1.9-12.84.84-28.64,1.1-43.12C19.86,18.45,18,16.55,16.57,17.1Zm28.13,9c1.71-1.78,4.55-6.51,1.5-8.63C44.59,19,43.85,23.36,44.69,26.09Zm-2.62,6.75c0.94-3.47.4-8.3-3-8.62A7.3,7.3,0,0,0,42.07,32.84Zm2.63-1.13a10.09,10.09,0,0,0,6-2.63,8.07,8.07,0,0,0-.38-3.38C46.25,24.17,45.42,28.7,44.7,31.71Zm-4.87,9.75c0.56-1.69.5-4,1.5-5.25-0.61-1.77-2.15-2.6-3.38-3.75C36,35.52,38.46,39.36,39.83,41.46ZM42.45,40c3.26-1,7.66-2.47,6.75-6.38C44.86,32.35,42.54,35.77,42.45,40Zm-1.87,7.5c4.07,0,8.56-2.43,6.37-6.38Q40.73,41.24,40.58,47.46Zm-3.38,0c1.3-.45,1.61-1.89,1.87-3.38-1-1.22-1.86-2.64-4.12-2.62C33.9,44,35.87,46.11,37.21,47.46Zm-1.5,7.13c0.77-1.23,1.17-2.83,1.87-4.13-1.42-1-2.24-2.51-4.88-2.25A4.76,4.76,0,0,0,35.71,54.59ZM38,55c2.84-1,6.51-1.24,7.12-4.5C42.13,46.73,38.46,51.67,38,55Zm-8.62-1.5c0.06-.44.59-0.41,1.12-0.38-0.2-.54.44-1.94-0.37-1.87C29.93,51.85,28.32,52.9,29.34,53.47Zm4.51,9a20.5,20.5,0,0,0,1.5-5.25c-1.47-.65-2.16-2.09-4.13-2.25C29.65,57.43,31.44,61.62,33.84,62.46Zm2.25,0.75C39,62.09,43,62.07,42.46,57.59,38.61,55.15,36,59.35,36.09,63.21ZM29.71,61c0-.46-0.11-0.89-0.75-0.75-5,3.65-3.39,15.85-4.11,22.5C26.41,75.4,26.93,67.06,29.71,61ZM24.86,98.09Q28.2,80.63,32,63.59a1.76,1.76,0,0,1-1.12-.38C28.12,73.87,25.15,86.27,24.86,98.09ZM20,65.1c-2.62,22.38-5.19,49.61-4.08,74.62,0.37,8.34.21,16.83,2.64,24C17.2,132.68,21,96,21.09,64H20C20,64.35,20,64.72,20,65.1Zm2.67,84.74c0-26.62,5.06-50.41,8.58-72.75,1.05,0.07-.11-2.8,0-0.75a486.94,486.94,0,0,0-10.46,61.87c-0.74,7-2.63,15.57.39,21.75C23.84,157.51,22.64,153,22.64,149.84Zm-1.87,16.88c1.06-.7,2.13-2.93,1.12-4.5H20.4C20.64,163.6,19.91,165.95,20.77,166.71Z"/><path class="cls-1" d="M21.15,160c-3-6.18-1.12-14.71-.39-21.75A486.94,486.94,0,0,1,31.22,76.34c-0.11-2.05,1.05.82,0,.75-3.52,22.33-8.6,46.13-8.58,72.75C22.64,153,23.84,157.51,21.15,160Z"/></svg>