<svg id="Layer_1" data-name="Layer 1" xmlns="http://www.w3.org/2000/svg" viewBox="0 0 780 275"><defs><style>.cls-1{fill:#5f99d2;}.cls-2{opacity:0.3;}.cls-3,.cls-4{fill:none;stroke-linecap:round;stroke-miterlimit:10;stroke-width:2.5px;}.cls-3{stroke:#fff;}.cls-4{stroke:#3071b8;}</style></defs><title>tarp</title><path class="cls-1" d="M111.57,274.33c3.53,1.67,3.82-1.23,7.62-2.13s3.58-1.82,7.37-2.71,3.75-1.09,7.54-2,4.64,2.67,8.43,1.77,3.26-3.16,7.05-4.06,4.16,0.63,8-.26,3-4.31,6.78-5.21,4.58,2.42,8.38,1.52,3.16-3.59,7-4.48,3.73-1.2,7.52-2.1,4.16,0.65,8-.25,3.29-3,7.09-3.92,4.55,2.3,8.35,1.4,3.93-.33,7.73-1.22,3.7-1.31,7.49-2.21,3.15-3.64,6.94-4.54,3.8-.88,7.6-1.77,4.09,0.33,7.89-.57,3.43-2.45,7.23-3.35,4.17,0.69,8-.21,3.74-1.12,7.54-2,4.06,0.21,7.85-.69,3.51-2.09,7.31-3,4.2,0.83,8-.07,3.84-.72,7.64-1.61,3-4.19,6.82-5.08,4.52,2.16,8.31,1.26,3.28-3.09,7.07-4,4.36,1.48,8.16.59,3.87-.61,7.66-1.5,3.13-3.72,6.93-4.61,3.78-1,7.58-1.88,3.76-1.05,7.56-1.95,4,0.09,7.83-.81,3.73-1.18,7.53-2.08,4.34,1.38,8.13.48,3.9-.46,7.7-1.36,3-4.24,6.8-5.14,4.5,2.07,8.3,1.18,3.79-.94,7.58-1.84,3.32-2.91,7.12-3.81,4.09,0.35,7.89-.55,4-.16,7.77-1.06,3.43-2.45,7.23-3.35,4,0.08,7.83-.82,4,0.06,7.82-.83,2.83-5,6.63-5.88,4.53,2.19,8.33,1.29,3.38-2.65,7.18-3.55,4,0.06,7.82-.84,3.81-.83,7.61-1.73,3.31-2.94,7.11-3.84,4.05,0.18,7.85-.72,3.63-1.62,7.42-2.52,3.91-.43,7.71-1.33,4.14,0.54,7.94-.35,4-.15,7.77-1,3.26-3.19,7.05-4.09,4.3,1.2,8.09.31,3.45-2.37,7.25-3.27,3.57-1.87,7.37-2.77,3.87-.6,7.66-1.5,4.25,1,8,.11,4,0,7.81-.86,2.9-4.68,6.7-5.58,4.83,3.46,8.63,2.56,3.36-2.76,7.15-3.66,3.54-2,7.33-2.91,3.49-2.21,7.29-3.11,4.5,2.09,8.3,1.19,3-4.11,6.84-5,4-.1,7.79-1,4.58,2.4,8.38,1.51,3.7-1.33,7.5-2.23,3.74-1.16,7.54-2.06,3.25-3.24,7-4.14,4.37,1.54,8.17.64,3.41-2.57,7.2-3.47,3.83-.78,7.63-1.68,3.38-2.67,7.18-3.57,4.62,2.59,8.42,1.69,3.57-1.85,7.37-2.75,4.16,0.64,8-.26,3.6-1.74,7.4-2.64,3.16-3.62,7-4.52,4-.17,7.77-1.06,3.84-.73,7.65-1.62,6.71,2.75,6.88-1.16-2.7-1.61-6.4-2.91-3.18-2.79-6.89-4.1-4.94,2.21-8.65.91-2.62-4.39-6.33-5.7-4.42.71-8.12-.59-3.81-1-7.52-2.31-3-3.38-6.68-4.68-4.09-.22-7.79-1.53-3.78-1.09-7.49-2.39-3.42-2.11-7.13-3.41-4.63,1.32-8.34,0-3.12-3-6.83-4.27-3.36-2.29-7.07-3.59-3.61-1.58-7.32-2.88-3.33-2.38-7-3.69-5.06,2.54-8.77,1.24-3-3.45-6.66-4.75-3.68-1.39-7.38-2.69-4.37.58-8.08-.72-3.51-1.85-7.22-3.16-3.41-2.14-7.12-3.44-3-3.43-6.67-4.73-4.25.24-8-1.07-4-.53-7.69-1.83-3.41-2.14-7.12-3.44-3.34-2.34-7-3.65-3.82-1-7.53-2.28-4.44.76-8.14-.54-2.73-4.09-6.44-5.4-4-.52-7.69-1.82-4.6,1.24-8.31-.07-2.6-4.46-6.31-5.76-4.9,2.07-8.6.76-3.62-1.55-7.33-2.86-2.77-4-6.48-5.28-4.86,2-8.57.65-2.72-4.1-6.43-5.4-4-.48-7.71-1.78-3.21-2.71-6.92-4-4-.51-7.7-1.81-4.71,1.54-8.42.23-3.42-2.12-7.14-3.43-2.93-3.51-6.64-4.82-4.77,1.71-8.48.4S450,0.88,446.09.44s-3.61-.32-7.53.13-4-.45-7.93,0-3.82,1.29-7.73,1.73S419,2.56,415.06,3s-3.88.73-7.8,1.17S403,1.94,399.13,2.38s-3.81,1.33-7.73,1.78-3.56,3.56-7.47,4-4.42-4-8.34-3.59S371.9,7,368,7.43,364,7.56,360.12,8s-4-.68-8-0.24-3.86.92-7.77,1.36-3.76,1.8-7.68,2.25-4-.57-7.94-0.12-3.77,1.68-7.69,2.13-4.21-2.19-8.13-1.74-3.79,1.54-7.7,2-4-.08-7.89.36-3.69,2.39-7.61,2.83-3.94.26-7.85,0.71l-7.83.9c-3.91.45-4-.3-7.91,0.15s-3.66,2.67-7.58,3.11-3.9.53-7.82,1-4.12-1.32-8-.87S239,23.58,235.07,24s-3.94.2-7.86,0.65-4.11-1.31-8-.87-3.71,2.26-7.62,2.71-4.26-2.62-8.18-2.17-3.67,2.6-7.58,3-3.79,1.53-7.7,2-4.16-1.68-8.07-1.24-3.57,3.51-7.48,4-4-.55-7.94-0.1-4-.07-7.89.37-4,0-7.88.43-3.86.9-7.78,1.35-3.78,1.66-7.69,2.11-4.14-1.51-8.05-1.06-3.93.31-7.84,0.75-4-.56-7.95-0.12-3.87.88-7.78,1.33-4.05-.75-8-0.31-3.51,4-7.43,4.44-4.19-1.94-8.1-1.5-4-.23-7.91.21-3.53,3.88-7.44,4.32-4-.44-7.93,0-3.82,1.32-7.73,1.76-4.15-1.63-8.07-1.18-3.81,1.4-7.72,1.85-4.1-1.13-8-.69-4.08-1-8-.59S11.88,49.17,8,49.61s-4.48-2.74-6.38.72-1.09,3.27.65,6.78,2.29,3.24,4,6.75S10.79,66,12.54,69.5s0.47,4.14,2.22,7.65,1.33,3.71,3.07,7.22,3.41,2.68,5.15,6.19,0.86,4,2.6,7.46,2.56,3.1,4.31,6.61,1.82,3.47,3.56,7-2.09,5.41-.34,8.92,4,2.38,5.76,5.89,1.29,3.74,3,7.25S44,137,45.78,140.5s2.22,3.27,4,6.79,2.51,3.13,4.26,6.64,0.44,4.16,2.19,7.67,2.35,3.21,4.1,6.72,0.59,4.08,2.34,7.59S65.26,179,67,182.49s2.1,3.33,3.85,6.85-1.13,4.94.61,8.45,5.15,1.82,6.9,5.33,2.06,3.36,3.8,6.87-2,5.39-.3,8.9,4,2.38,5.77,5.89-0.75,4.75,1,8.27,3.47,2.65,5.22,6.17,1.93,3.42,3.68,6.93,0.85,4,2.59,7.47,2.66,3.06,4.4,6.58,3.89,2.83,4.91,6.62C110.51,270.85,108,272.65,111.57,274.33Z"/><g class="cls-2"><path class="cls-3" d="M376.36,25.92c3.48,1.86,3,2.77,6.48,4.63s3.53,1.77,7,3.63,3.49,1.84,7,3.71,3.59,1.67,7.07,3.53,3.74,1.38,7.22,3.25,3.6,1.65,7.08,3.52,3,2.83,6.45,4.7,3.86,1.17,7.34,3,3.69,1.48,7.18,3.34,2.92,2.91,6.41,4.77,3.87,1.15,7.35,3,3.56,1.72,7,3.58,3.32,2.17,6.81,4,3.47,1.9,7,3.76,3.55,1.75,7,3.61,3.65,1.56,7.14,3.42,3.52,1.8,7,3.66,2.84,3.07,6.33,4.93,3.89,1.1,7.38,3,3.21,2.38,6.69,4.25,4.1,0.71,7.59,2.58,2.88,3,6.37,4.85,4,1,7.46,2.83,3.54,1.76,7,3.63,3.21,2.39,6.7,4.26"/></g><g class="cls-2"><path class="cls-3" d="M135.74,61.07c2.6,2.9,2.53,3,5.14,5.87s2.55,2.95,5.16,5.85,2.93,2.61,5.54,5.51,2.55,2.95,5.15,5.85,2.45,3,5.06,5.94,2.7,2.82,5.31,5.72,2.68,2.83,5.29,5.74,2.27,3.2,4.88,6.1,2.64,2.87,5.25,5.77l5.22,5.8c2.61,2.9,2.68,2.84,5.28,5.74s2.78,2.75,5.39,5.65,2.69,2.84,5.29,5.74"/></g><path class="cls-4" d="M84.72,152.68c3.82-.72,3.88-0.43,7.7-1.14s3.95-.06,7.77-0.77,3.79-.87,7.62-1.59,3.78-.94,7.61-1.65,3.62-1.77,7.45-2.49,3.83-.67,7.65-1.38,3.7-1.37,7.52-2.08,3.92-.22,7.74-0.94,4,0.39,7.85-.33,3.5-2.43,7.32-3.15,4,0.16,7.81-.56,3.63-1.77,7.45-2.48,4,0.09,7.8-.62,4,0.08,7.79-.64,3.94-.08,7.76-0.8,3.69-1.43,7.51-2.15,3.94-.08,7.77-0.8,3.66-1.57,7.49-2.28,4,0.16,7.81-.55,3.51-2.39,7.33-3.1,3.95,0,7.77-.76,3.65-1.63,7.47-2.35,4.22,1.42,8,.7,3.77-1,7.6-1.71,3.66-1.57,7.49-2.29,4,0.46,7.87-.25,3.64-1.68,7.47-2.39,3.66-1.61,7.48-2.33,4,0.18,7.82-.54,3.73-1.23,7.55-1.95,3.93-.17,7.75-0.89,3.89-.38,7.71-1.09,3.87-.47,7.7-1.18,3.53-2.3,7.35-3,3.87-.45,7.7-1.17,4,0,7.78-.7,3.74-1.18,7.56-1.89,3.76-1.08,7.58-1.8,4.12,0.88,7.94.17,3.79-.88,7.62-1.6,3.82-.75,7.64-1.47,3.76-1.06,7.58-1.77,3.67-1.56,7.49-2.28,3.76-1.09,7.58-1.8,4.14,1,8,.28,3.6-1.94,7.42-2.66,3.7-1.4,7.52-2.12,4.17,1.12,8,.41,3.59-2,7.41-2.69,3.78-1,7.6-1.69,3.93-.19,7.75-0.9,3.83-.66,7.66-1.38,3.79-.92,7.61-1.64,3.72-1.26,7.55-2,3.8-.83,7.63-1.55,4.22,1.4,8,.68,3.58-2.06,7.4-2.78,4,0.19,7.82-.52,3.45-2.75,7.28-3.46,4.2,1.26,8,.54"/><path class="cls-4" d="M138.79,206.19c3.76-.8,3.82-0.52,7.57-1.32s3.7-1.06,7.46-1.86,3.73-.92,7.49-1.72,3.8-.59,7.56-1.4,3.82-.51,7.58-1.31L184,197c3.76-.8,3.82-0.52,7.58-1.32s3.76-.78,7.52-1.58,3.81-.56,7.57-1.36l7.52-1.61c3.76-.8,3.75-0.85,7.51-1.65s3.55-1.79,7.31-2.59,3.89-.17,7.65-1,3.78-.68,7.54-1.49,3.82-.53,7.58-1.34,3.75-.87,7.51-1.67,3.74-.89,7.5-1.69,3.67-1.23,7.43-2l7.52-1.59c3.76-.8,3.7-1.07,7.46-1.87s3.8-.6,7.56-1.4,3.86-.35,7.62-1.16,3.61-1.5,7.37-2.31,3.84-.45,7.6-1.25,3.67-1.23,7.44-2"/><path class="cls-4" d="M242.28,66.15c3.91-.62,4,0.2,8-0.42s3.93-.55,7.84-1.17,3.9-.73,7.81-1.34,3.82-1.2,7.74-1.82,3.85-1,7.76-1.64,4,0,7.93-.58,3.92-.58,7.84-1.2,3.85-1,7.77-1.65,4-.29,7.88-0.91,4-.19,7.9-0.81,3.86-1,7.77-1.63,3.85-1,7.77-1.65,3.89-.78,7.81-1.4,4-.33,7.88-1,3.88-.88,7.79-1.5,3.9-.74,7.81-1.36,3.95-.41,7.87-1,4-.32,7.88-0.94l7.83-1.22c3.92-.62,4-0.33,7.88-0.95s3.92-.6,7.84-1.22,4-.38,7.87-1l7.84-1.25c3.92-.62,3.91-0.67,7.83-1.29"/></svg>